M48
METRIC,LZ,000.000
;FILE_FORMAT=3:3
;TYPE=PLATED
;Layer: PTH_Through_Via
;EasyEDA v6.5.38, 2023-11-24 15:43:32
;09673f8317ad448189dc8d57b7b7ae53,9a5be75d700b4a6385dc1106f27949ae,10
;Gerber Generator version 0.2
;Holesize 1 = 0.211 mm
T01C0.211
;Holesize 2 = 0.254 mm
T02C0.254
;Holesize 3 = 0.310 mm
T03C0.310
%
G05
G90
T01
X001000Y-000500
X003000Y-000500
X005000Y-000500
X007000Y-000500
X009000Y-000500
X011000Y-000500
X017000Y-000500
X015000Y-000500
X019000Y-000500
X019000Y-019500
X015000Y-019500
X017000Y-019500
X011000Y-019500
X009000Y-019500
X005000Y-019500
X003000Y-019500
X001000Y-019500
X019500Y-001000
X019500Y-009000
X019500Y-007000
X019500Y-011000
X019500Y-013000
X019500Y-019000
X000500Y-001000
X000500Y-009000
X000500Y-007000
X000500Y-011000
X000500Y-013000
X000500Y-015000
X000500Y-017000
X000500Y-019000
X004000Y-002750
X007750Y-005750
X007500Y-006500
X009750Y-015000
X008250Y-016000
X004500Y-017000
X004500Y-018500
X016250Y-016750
X016000Y-015250
X016250Y-006250
X017750Y-006250
X015500Y-005500
X015500Y-008750
X015500Y-012250
X014500Y-016250
T02
X004750Y-002749
X007000Y-005749
T03
X014500Y-015250
X014500Y-008750
X014500Y-005500
X014500Y-012000
X009000Y-015500
X004500Y-017750
X016000Y-016000
X017000Y-006000
X015500Y-004000
X015500Y-007250
X015500Y-010250
X015500Y-013750
X008750Y-013500
X004750Y-011999
X003500Y-016000
X001750Y-014000
X002500Y-006750
X004750Y-011000
X006000Y-001750
X010000Y-007000
M30
