M48
METRIC,LZ,000.000
;FILE_FORMAT=3:3
;TYPE=PLATED
;Layer: PTH_Through_Via
;EasyEDA v6.5.40, 2024-02-16 18:51:44
;290100672484455fbf77e1594d57ae63,9a5be75d700b4a6385dc1106f27949ae,10
;Gerber Generator version 0.2
;Holesize 1 = 0.254 mm
T01C0.254
;Holesize 2 = 0.310 mm
T02C0.310
%
G05
G90
T01
X004750Y-002749
X007000Y-006250
T02
X014250Y-015250
X014250Y-008750
X014250Y-005500
X014250Y-012000
X015750Y-006500
X004750Y-017250
X016000Y-016000
X017250Y-006750
X018000Y-000500
X002000Y-000500
X006500Y-001750
X015750Y-004000
X019500Y-006750
X019500Y-012250
X019500Y-018000
X018000Y-019500
X002000Y-019500
X000500Y-012250
X000500Y-006750
X015750Y-007750
X015750Y-010000
X015750Y-013750
X004750Y-011250
X005000Y-019500
X015000Y-019500
X004000Y-016250
X003000Y-014500
X007750Y-005750
X010000Y-007250
X007750Y-012750
X010250Y-015500
M30
