G04 Layer: InnerLayer2*
G04 EasyEDA v6.5.42, 2024-03-01 12:01:53*
G04 9a5be75d700b4a6385dc1106f27949ae,10*
G04 Gerber Generator version 0.2*
G04 Scale: 100 percent, Rotated: No, Reflected: No *
G04 Dimensions in millimeters *
G04 leading zeros omitted , absolute positions ,4 integer and 5 decimal *
%FSLAX45Y45*%
%MOMM*%

%ADD10C,0.6200*%

%LPD*%
G36*
X101396Y-1969516D02*
G01*
X89408Y-1968550D01*
X79756Y-1966366D01*
X70510Y-1962810D01*
X61874Y-1957984D01*
X54051Y-1951939D01*
X47091Y-1944878D01*
X41249Y-1936902D01*
X36576Y-1928164D01*
X33223Y-1918868D01*
X31242Y-1909165D01*
X30530Y-1898599D01*
X30530Y-101396D01*
X31445Y-89408D01*
X33629Y-79756D01*
X37185Y-70510D01*
X42011Y-61874D01*
X48056Y-54051D01*
X55117Y-47091D01*
X63093Y-41249D01*
X71831Y-36576D01*
X81127Y-33223D01*
X90830Y-31242D01*
X101396Y-30530D01*
X1898599Y-30530D01*
X1910588Y-31445D01*
X1920239Y-33629D01*
X1929485Y-37185D01*
X1938121Y-42011D01*
X1945995Y-48056D01*
X1952904Y-55117D01*
X1958746Y-63093D01*
X1963420Y-71831D01*
X1966772Y-81127D01*
X1968754Y-90830D01*
X1969465Y-101396D01*
X1969465Y-1898599D01*
X1968550Y-1910588D01*
X1966366Y-1920239D01*
X1962810Y-1929485D01*
X1957984Y-1938121D01*
X1951939Y-1945995D01*
X1944878Y-1952904D01*
X1936902Y-1958746D01*
X1928164Y-1963420D01*
X1918868Y-1966772D01*
X1909165Y-1968754D01*
X1898599Y-1969516D01*
G37*

%LPC*%
G36*
X469950Y-1786229D02*
G01*
X480059Y-1786229D01*
X490118Y-1784604D01*
X499719Y-1781302D01*
X508609Y-1776475D01*
X516635Y-1770227D01*
X523493Y-1762760D01*
X529082Y-1754225D01*
X533146Y-1744929D01*
X535635Y-1735124D01*
X536498Y-1725015D01*
X535635Y-1714855D01*
X533146Y-1705051D01*
X529082Y-1695754D01*
X523493Y-1687220D01*
X516635Y-1679752D01*
X508609Y-1673504D01*
X499719Y-1668678D01*
X490118Y-1665376D01*
X480059Y-1663750D01*
X469950Y-1663750D01*
X459892Y-1665376D01*
X450291Y-1668678D01*
X441401Y-1673504D01*
X433374Y-1679752D01*
X426516Y-1687220D01*
X420928Y-1695754D01*
X416864Y-1705051D01*
X414375Y-1714855D01*
X413512Y-1725015D01*
X414375Y-1735124D01*
X416864Y-1744929D01*
X420928Y-1754225D01*
X426516Y-1762760D01*
X433374Y-1770227D01*
X441401Y-1776475D01*
X450291Y-1781302D01*
X459892Y-1784604D01*
G37*
G36*
X1594916Y-1661210D02*
G01*
X1605076Y-1661210D01*
X1615084Y-1659585D01*
X1624685Y-1656283D01*
X1633626Y-1651457D01*
X1641652Y-1645208D01*
X1648510Y-1637741D01*
X1654048Y-1629206D01*
X1658162Y-1619910D01*
X1660652Y-1610106D01*
X1661464Y-1599996D01*
X1660652Y-1589836D01*
X1658162Y-1580032D01*
X1654048Y-1570736D01*
X1648510Y-1562201D01*
X1641652Y-1554734D01*
X1633626Y-1548485D01*
X1624685Y-1543659D01*
X1615084Y-1540357D01*
X1605076Y-1538732D01*
X1594916Y-1538732D01*
X1584909Y-1540357D01*
X1575308Y-1543659D01*
X1566367Y-1548485D01*
X1558340Y-1554734D01*
X1551482Y-1562201D01*
X1545945Y-1570736D01*
X1541881Y-1580032D01*
X1539341Y-1589836D01*
X1538528Y-1599996D01*
X1539341Y-1610106D01*
X1541881Y-1619910D01*
X1545945Y-1629206D01*
X1551482Y-1637741D01*
X1558340Y-1645208D01*
X1566367Y-1651457D01*
X1575308Y-1656283D01*
X1584909Y-1659585D01*
G37*
G36*
X1424990Y-1596491D02*
G01*
X1436166Y-1595577D01*
X1447088Y-1592986D01*
X1457452Y-1588668D01*
X1467002Y-1582826D01*
X1475536Y-1575511D01*
X1482801Y-1567027D01*
X1488694Y-1557426D01*
X1492961Y-1547063D01*
X1495602Y-1536192D01*
X1496466Y-1525016D01*
X1495602Y-1513789D01*
X1492961Y-1502918D01*
X1488694Y-1492554D01*
X1482801Y-1482953D01*
X1475536Y-1474470D01*
X1467002Y-1467154D01*
X1457452Y-1461312D01*
X1447088Y-1456994D01*
X1436166Y-1454404D01*
X1424990Y-1453489D01*
X1413814Y-1454404D01*
X1402892Y-1456994D01*
X1392529Y-1461312D01*
X1382979Y-1467154D01*
X1374444Y-1474470D01*
X1367180Y-1482953D01*
X1361287Y-1492554D01*
X1357020Y-1502918D01*
X1354378Y-1513789D01*
X1353515Y-1525016D01*
X1354378Y-1536192D01*
X1357020Y-1547063D01*
X1361287Y-1557426D01*
X1367180Y-1567027D01*
X1374444Y-1575511D01*
X1382979Y-1582826D01*
X1392529Y-1588668D01*
X1402892Y-1592986D01*
X1413814Y-1595577D01*
G37*
G36*
X1424990Y-1271473D02*
G01*
X1436166Y-1270609D01*
X1447088Y-1267968D01*
X1457452Y-1263700D01*
X1467002Y-1257808D01*
X1475536Y-1250543D01*
X1482801Y-1242009D01*
X1488694Y-1232458D01*
X1492961Y-1222095D01*
X1495602Y-1211173D01*
X1496466Y-1199997D01*
X1495602Y-1188821D01*
X1492961Y-1177899D01*
X1488694Y-1167536D01*
X1482801Y-1157986D01*
X1475536Y-1149451D01*
X1467002Y-1142187D01*
X1457452Y-1136294D01*
X1447088Y-1132027D01*
X1436166Y-1129385D01*
X1424990Y-1128522D01*
X1413814Y-1129385D01*
X1402892Y-1132027D01*
X1392529Y-1136294D01*
X1382979Y-1142187D01*
X1374444Y-1149451D01*
X1367180Y-1157986D01*
X1361287Y-1167536D01*
X1357020Y-1177899D01*
X1354378Y-1188821D01*
X1353515Y-1199997D01*
X1354378Y-1211173D01*
X1357020Y-1222095D01*
X1361287Y-1232458D01*
X1367180Y-1242009D01*
X1374444Y-1250543D01*
X1382979Y-1257808D01*
X1392529Y-1263700D01*
X1402892Y-1267968D01*
X1413814Y-1270609D01*
G37*
G36*
X1424990Y-946505D02*
G01*
X1436166Y-945591D01*
X1447088Y-943000D01*
X1457452Y-938682D01*
X1467002Y-932840D01*
X1475536Y-925525D01*
X1482801Y-917041D01*
X1488694Y-907440D01*
X1492961Y-897077D01*
X1495602Y-886206D01*
X1496466Y-875030D01*
X1495602Y-863803D01*
X1492961Y-852932D01*
X1488694Y-842568D01*
X1482801Y-832967D01*
X1475536Y-824484D01*
X1467002Y-817168D01*
X1457452Y-811326D01*
X1447088Y-807008D01*
X1436166Y-804418D01*
X1424990Y-803503D01*
X1413814Y-804418D01*
X1402892Y-807008D01*
X1392529Y-811326D01*
X1382979Y-817168D01*
X1374444Y-824484D01*
X1367180Y-832967D01*
X1361287Y-842568D01*
X1357020Y-852932D01*
X1354378Y-863803D01*
X1353515Y-875030D01*
X1354378Y-886206D01*
X1357020Y-897077D01*
X1361287Y-907440D01*
X1367180Y-917041D01*
X1374444Y-925525D01*
X1382979Y-932840D01*
X1392529Y-938682D01*
X1402892Y-943000D01*
X1413814Y-945591D01*
G37*
G36*
X1719935Y-736244D02*
G01*
X1730044Y-736244D01*
X1740103Y-734618D01*
X1749704Y-731316D01*
X1758594Y-726490D01*
X1766620Y-720242D01*
X1773478Y-712774D01*
X1779066Y-704240D01*
X1783130Y-694944D01*
X1785620Y-685139D01*
X1786483Y-675030D01*
X1785620Y-664870D01*
X1783130Y-655066D01*
X1779066Y-645769D01*
X1773478Y-637235D01*
X1766620Y-629767D01*
X1758594Y-623519D01*
X1749704Y-618693D01*
X1740103Y-615391D01*
X1730044Y-613765D01*
X1719935Y-613765D01*
X1709877Y-615391D01*
X1700275Y-618693D01*
X1691386Y-623519D01*
X1683359Y-629767D01*
X1676501Y-637235D01*
X1670913Y-645769D01*
X1666849Y-655066D01*
X1664360Y-664870D01*
X1663496Y-675030D01*
X1664360Y-685139D01*
X1666849Y-694944D01*
X1670913Y-704240D01*
X1676501Y-712774D01*
X1683359Y-720242D01*
X1691386Y-726490D01*
X1700275Y-731316D01*
X1709877Y-734618D01*
G37*
G36*
X1569923Y-711250D02*
G01*
X1580083Y-711250D01*
X1590090Y-709625D01*
X1599692Y-706323D01*
X1608632Y-701497D01*
X1616659Y-695248D01*
X1623517Y-687781D01*
X1629054Y-679246D01*
X1633169Y-669950D01*
X1635658Y-660146D01*
X1636471Y-650036D01*
X1635658Y-639876D01*
X1633169Y-630072D01*
X1629054Y-620776D01*
X1623517Y-612241D01*
X1616659Y-604774D01*
X1608632Y-598525D01*
X1599692Y-593699D01*
X1590090Y-590397D01*
X1580083Y-588772D01*
X1569923Y-588772D01*
X1559915Y-590397D01*
X1550314Y-593699D01*
X1541373Y-598525D01*
X1533347Y-604774D01*
X1526489Y-612241D01*
X1520952Y-620776D01*
X1516888Y-630072D01*
X1514348Y-639876D01*
X1513535Y-650036D01*
X1514348Y-660146D01*
X1516888Y-669950D01*
X1520952Y-679246D01*
X1526489Y-687781D01*
X1533347Y-695248D01*
X1541373Y-701497D01*
X1550314Y-706323D01*
X1559915Y-709625D01*
G37*
G36*
X694944Y-686257D02*
G01*
X705053Y-686257D01*
X715111Y-684580D01*
X724712Y-681278D01*
X733602Y-676452D01*
X741629Y-670204D01*
X748487Y-662736D01*
X754075Y-654253D01*
X758139Y-644956D01*
X760628Y-635101D01*
X761492Y-624992D01*
X760628Y-614883D01*
X758139Y-605028D01*
X754075Y-595731D01*
X748487Y-587248D01*
X741629Y-579780D01*
X733602Y-573532D01*
X724712Y-568706D01*
X715111Y-565404D01*
X705053Y-563727D01*
X694944Y-563727D01*
X684885Y-565404D01*
X675284Y-568706D01*
X666394Y-573532D01*
X658368Y-579780D01*
X651510Y-587248D01*
X645922Y-595731D01*
X641858Y-605028D01*
X639368Y-614883D01*
X638505Y-624992D01*
X639368Y-635101D01*
X641858Y-644956D01*
X645922Y-654253D01*
X651510Y-662736D01*
X658368Y-670204D01*
X666394Y-676452D01*
X675284Y-681278D01*
X684885Y-684580D01*
G37*
G36*
X1424990Y-621487D02*
G01*
X1436166Y-620623D01*
X1447088Y-617982D01*
X1457452Y-613714D01*
X1467002Y-607822D01*
X1475536Y-600557D01*
X1482801Y-592023D01*
X1488694Y-582472D01*
X1492961Y-572109D01*
X1495602Y-561187D01*
X1496466Y-550011D01*
X1495602Y-538835D01*
X1492961Y-527913D01*
X1488694Y-517550D01*
X1482801Y-508000D01*
X1475536Y-499465D01*
X1467002Y-492201D01*
X1457452Y-486308D01*
X1447088Y-482041D01*
X1436166Y-479399D01*
X1424990Y-478535D01*
X1413814Y-479399D01*
X1402892Y-482041D01*
X1392529Y-486308D01*
X1382979Y-492201D01*
X1374444Y-499465D01*
X1367180Y-508000D01*
X1361287Y-517550D01*
X1357020Y-527913D01*
X1354378Y-538835D01*
X1353515Y-550011D01*
X1354378Y-561187D01*
X1357020Y-572109D01*
X1361287Y-582472D01*
X1367180Y-592023D01*
X1374444Y-600557D01*
X1382979Y-607822D01*
X1392529Y-613714D01*
X1402892Y-617982D01*
X1413814Y-620623D01*
G37*
G36*
X469950Y-311251D02*
G01*
X480059Y-311251D01*
X490118Y-309626D01*
X499719Y-306324D01*
X508609Y-301498D01*
X516635Y-295249D01*
X523493Y-287782D01*
X529082Y-279247D01*
X533146Y-269951D01*
X535635Y-260146D01*
X536498Y-250037D01*
X535635Y-239877D01*
X533146Y-230073D01*
X529082Y-220776D01*
X523493Y-212242D01*
X516635Y-204774D01*
X508609Y-198526D01*
X499719Y-193700D01*
X490118Y-190398D01*
X480059Y-188772D01*
X469950Y-188772D01*
X459892Y-190398D01*
X450291Y-193700D01*
X441401Y-198526D01*
X433374Y-204774D01*
X426516Y-212242D01*
X420928Y-220776D01*
X416864Y-230073D01*
X414375Y-239877D01*
X413512Y-250037D01*
X414375Y-260146D01*
X416864Y-269951D01*
X420928Y-279247D01*
X426516Y-287782D01*
X433374Y-295249D01*
X441401Y-301498D01*
X450291Y-306324D01*
X459892Y-309626D01*
G37*

%LPD*%
D10*
G01*
X1424990Y-1524990D03*
G01*
X1424990Y-875004D03*
G01*
X1424990Y-550011D03*
G01*
X1424990Y-1199997D03*
G01*
X1575003Y-650011D03*
G01*
X475005Y-1724990D03*
G01*
X1599996Y-1599971D03*
G01*
X1724990Y-675004D03*
G01*
X475005Y-250012D03*
G01*
X699998Y-624992D03*
G01*
X1799996Y-50012D03*
G01*
X199999Y-50012D03*
G01*
X650011Y-175005D03*
G01*
X1575003Y-399999D03*
G01*
X1950008Y-675004D03*
G01*
X1950008Y-1224991D03*
G01*
X1950008Y-1799996D03*
G01*
X1799970Y-1949957D03*
G01*
X199999Y-1950008D03*
G01*
X50012Y-1224991D03*
G01*
X50012Y-675004D03*
G01*
X1575003Y-775004D03*
G01*
X1575003Y-999997D03*
G01*
X1575003Y-1374978D03*
G01*
X475005Y-1124991D03*
G01*
X499998Y-1950008D03*
G01*
X1499996Y-1950008D03*
G01*
X399999Y-1624990D03*
G01*
X299999Y-1450009D03*
G01*
X774979Y-575005D03*
G01*
X999997Y-724992D03*
G01*
X775004Y-1274978D03*
G01*
X1024991Y-1550009D03*
M02*
