G04 Layer: BottomSolderMaskLayer*
G04 EasyEDA v6.5.22, 2023-04-13 12:23:17*
G04 0788939dff5747a0b15857f30e1ef4ed,9a5be75d700b4a6385dc1106f27949ae,10*
G04 Gerber Generator version 0.2*
G04 Scale: 100 percent, Rotated: No, Reflected: No *
G04 Dimensions in millimeters *
G04 leading zeros omitted , absolute positions ,4 integer and 5 decimal *
%FSLAX45Y45*%
%MOMM*%

%AMMACRO1*1,1,$1,$2,$3*1,1,$1,$4,$5*1,1,$1,0-$2,0-$3*1,1,$1,0-$4,0-$5*20,1,$1,$2,$3,$4,$5,0*20,1,$1,$4,$5,0-$2,0-$3,0*20,1,$1,0-$2,0-$3,0-$4,0-$5,0*20,1,$1,0-$4,0-$5,$2,$3,0*4,1,4,$2,$3,$4,$5,0-$2,0-$3,0-$4,0-$5,$2,$3,0*%
%AMMACRO2*4,1,37,-0.5855,-0.4827,-0.5931,-0.4776,-0.5982,-0.4725,-0.6033,-0.4649,-0.6033,-0.4573,-0.6032,-0.4571,-0.6032,0.4573,-0.6033,0.4571,-0.6033,0.4647,-0.5982,0.4724,-0.5931,0.4774,-0.5855,0.4825,-0.5779,0.4825,-0.5778,0.4827,0.1588,0.4827,0.1588,0.4825,0.1638,0.4825,0.1664,0.48,0.1715,0.48,0.1765,0.4749,0.1766,0.4751,0.5957,0.0179,0.5956,0.0177,0.6007,0.0101,0.6033,0.0025,0.6033,-0.0026,0.6007,-0.0102,0.5957,-0.0177,0.1766,-0.4749,0.1765,-0.4751,0.1715,-0.4801,0.1664,-0.4801,0.1638,-0.4827,0.1588,-0.4827,0.1588,-0.4825,-0.5778,-0.4825,-0.5779,-0.4827,-0.5855,-0.4827,0*%
%AMMACRO3*4,1,33,-0.5525,-0.4827,-0.5626,-0.4801,-0.5728,-0.4725,-0.5779,-0.4624,-0.5779,-0.4497,-0.5703,-0.4395,-0.5702,-0.4393,-0.1663,0.0001,-0.5702,0.4395,-0.5703,0.4393,-0.5779,0.4495,-0.5779,0.4622,-0.5728,0.4724,-0.5626,0.48,-0.5525,0.4825,-0.5524,0.4827,0.5525,0.4827,0.5524,0.4825,0.56,0.4825,0.5677,0.4774,0.5727,0.4724,0.5778,0.4647,0.5778,0.4571,0.5779,0.4573,0.5779,-0.4571,0.5778,-0.4573,0.5778,-0.4649,0.5727,-0.4725,0.5677,-0.4776,0.56,-0.4827,0.5524,-0.4827,0.5525,-0.4825,-0.5524,-0.4825,-0.5525,-0.4827,0*%
%AMMACRO4*4,1,37,-0.5855,-0.4827,-0.5931,-0.4776,-0.5982,-0.4725,-0.6033,-0.4649,-0.6033,-0.4573,-0.6032,-0.4571,-0.6032,0.4573,-0.6033,0.4571,-0.6033,0.4648,-0.5982,0.4724,-0.5931,0.4775,-0.5855,0.4825,-0.5779,0.4825,-0.5778,0.4827,0.1588,0.4827,0.1588,0.4825,0.1638,0.4825,0.1664,0.48,0.1715,0.48,0.1765,0.4749,0.1766,0.475,0.5957,0.0178,0.5956,0.0177,0.6007,0.0101,0.6033,0.0025,0.6033,-0.0026,0.6007,-0.0102,0.5957,-0.0177,0.1766,-0.4749,0.1765,-0.475,0.1715,-0.4801,0.1664,-0.4801,0.1638,-0.4827,0.1588,-0.4827,0.1588,-0.4825,-0.5778,-0.4825,-0.5779,-0.4827,-0.5855,-0.4827,0*%
%AMMACRO5*4,1,33,-0.5525,-0.4827,-0.5626,-0.4801,-0.5728,-0.4725,-0.5779,-0.4623,-0.5779,-0.4496,-0.5703,-0.4395,-0.5702,-0.4394,-0.1663,0.0001,-0.5702,0.4395,-0.5703,0.4394,-0.5779,0.4495,-0.5779,0.4622,-0.5728,0.4724,-0.5626,0.48,-0.5525,0.4825,-0.5524,0.4827,0.5525,0.4827,0.5524,0.4825,0.56,0.4825,0.5677,0.4775,0.5727,0.4724,0.5778,0.4648,0.5778,0.4571,0.5779,0.4573,0.5779,-0.4571,0.5778,-0.4573,0.5778,-0.4649,0.5727,-0.4725,0.5677,-0.4776,0.56,-0.4827,0.5524,-0.4827,0.5525,-0.4825,-0.5524,-0.4825,-0.5525,-0.4827,0*%
%AMMACRO6*4,1,37,-0.4649,-0.6033,-0.4725,-0.5982,-0.4776,-0.5931,-0.4827,-0.5855,-0.4827,-0.5779,-0.4825,-0.5777,-0.4825,0.1589,-0.4827,0.1588,-0.4827,0.1638,-0.4801,0.1664,-0.4801,0.1715,-0.475,0.1765,-0.4749,0.1767,-0.0177,0.5958,-0.0102,0.6007,-0.0026,0.6033,0.0025,0.6033,0.0101,0.6007,0.0177,0.5956,0.0178,0.5958,0.475,0.1767,0.4749,0.1765,0.48,0.1715,0.48,0.1664,0.4825,0.1638,0.4825,0.1588,0.4827,0.1589,0.4827,-0.5777,0.4825,-0.5779,0.4825,-0.5855,0.4775,-0.5931,0.4724,-0.5982,0.4648,-0.6033,0.4571,-0.6033,0.4573,-0.6031,-0.4571,-0.6031,-0.4573,-0.6033,-0.4649,-0.6033,0*%
%AMMACRO7*4,1,33,-0.4623,-0.5779,-0.4725,-0.5728,-0.4801,-0.5627,-0.4827,-0.5525,-0.4825,-0.5524,-0.4825,0.5525,-0.4827,0.5524,-0.4827,0.56,-0.4776,0.5676,-0.4725,0.5727,-0.4649,0.5778,-0.4573,0.5778,-0.4571,0.5779,0.4573,0.5779,0.4571,0.5778,0.4648,0.5778,0.4724,0.5727,0.4775,0.5676,0.4825,0.56,0.4825,0.5524,0.4827,0.5525,0.4827,-0.5524,0.4825,-0.5525,0.48,-0.5627,0.4724,-0.5728,0.4622,-0.5779,0.4495,-0.5779,0.4394,-0.5703,0.4395,-0.5702,0.0001,-0.1663,-0.4394,-0.5702,-0.4395,-0.5703,-0.4496,-0.5779,-0.4623,-0.5779,0*%
%AMMACRO8*4,1,22,-0.0025,-0.6033,-0.0102,-0.6007,-0.0178,-0.5956,-0.475,-0.1765,-0.4801,-0.1715,-0.4801,-0.1664,-0.4826,-0.1638,-0.4826,0.5855,-0.4775,0.5931,-0.4724,0.5982,-0.4648,0.6033,0.4648,0.6033,0.4724,0.5982,0.4775,0.5931,0.4826,0.5855,0.4826,-0.1638,0.4801,-0.1664,0.4801,-0.1715,0.475,-0.1765,0.0178,-0.5956,0.0102,-0.6007,0.0025,-0.6033,-0.0025,-0.6033,0*%
%AMMACRO9*4,1,21,-0.4648,-0.5779,-0.4724,-0.5728,-0.4775,-0.5677,-0.4826,-0.5601,-0.4826,0.5525,-0.4801,0.5626,-0.4724,0.5728,-0.4623,0.5779,-0.4496,0.5779,-0.4394,0.5702,0,0.1664,0.4394,0.5702,0.4496,0.5779,0.4623,0.5779,0.4724,0.5728,0.4801,0.5626,0.4826,0.5525,0.4826,-0.5601,0.4775,-0.5677,0.4724,-0.5728,0.4648,-0.5779,-0.4648,-0.5779,0*%
%ADD10MACRO1,0.1016X-0.705X0.675X-0.705X-0.675*%
%ADD11MACRO1,0.1016X0.705X0.675X0.705X-0.675*%
%ADD12MACRO1,0.1016X0.4X0.45X-0.4X0.45*%
%ADD13MACRO1,0.1016X-0.4X-0.45X0.4X-0.45*%
%ADD14MACRO2*%
%ADD15MACRO3*%
%ADD16MACRO4*%
%ADD17MACRO5*%
%ADD18MACRO6*%
%ADD19MACRO7*%
%ADD20MACRO8*%
%ADD21MACRO9*%
%ADD22MACRO1,0.1016X0.4032X-0.432X0.4032X0.432*%
%ADD23MACRO1,0.1016X-0.4032X-0.432X-0.4032X0.432*%
%ADD24MACRO1,0.1016X-0.4032X0.432X-0.4032X-0.432*%
%ADD25MACRO1,0.1016X0.4032X0.432X0.4032X-0.432*%
%ADD26C,0.0127*%

%LPD*%
G36*
X5130545Y7691120D02*
G01*
X5115052Y7692136D01*
X5114543Y7692136D01*
X5099558Y7694929D01*
X5098795Y7694929D01*
X5084318Y7699502D01*
X5083556Y7699755D01*
X5069586Y7706105D01*
X5069077Y7706360D01*
X5056124Y7714234D01*
X5055615Y7714742D01*
X5043424Y7724139D01*
X5042915Y7724394D01*
X5032247Y7735315D01*
X5031740Y7735823D01*
X5022341Y7748015D01*
X5021834Y7748523D01*
X5013959Y7761478D01*
X5013706Y7761986D01*
X5007356Y7775955D01*
X5007102Y7776718D01*
X5002529Y7791195D01*
X5002529Y7791958D01*
X4999736Y7806944D01*
X4999736Y7807452D01*
X4998720Y7822945D01*
X4998720Y7823454D01*
X4999736Y7838694D01*
X4999736Y7839455D01*
X5002529Y7854442D01*
X5002529Y7855204D01*
X5007102Y7869681D01*
X5007356Y7870189D01*
X5013706Y7884413D01*
X5013959Y7884921D01*
X5021834Y7897876D01*
X5022341Y7898384D01*
X5031740Y7910576D01*
X5043424Y7922260D01*
X5055615Y7931658D01*
X5056124Y7932165D01*
X5069077Y7940039D01*
X5069586Y7940294D01*
X5083556Y7946644D01*
X5084318Y7946897D01*
X5098795Y7951470D01*
X5099558Y7951470D01*
X5114543Y7954263D01*
X5115052Y7954263D01*
X5130545Y7955279D01*
X5131054Y7955279D01*
X5146293Y7954263D01*
X5147056Y7954263D01*
X5162041Y7951470D01*
X5162804Y7951470D01*
X5177281Y7946897D01*
X5177790Y7946644D01*
X5192013Y7940294D01*
X5192522Y7940039D01*
X5205475Y7932165D01*
X5205984Y7931658D01*
X5218175Y7922260D01*
X5229859Y7910576D01*
X5239258Y7898384D01*
X5239765Y7897876D01*
X5247640Y7884921D01*
X5247893Y7884413D01*
X5254243Y7870189D01*
X5254497Y7869681D01*
X5259070Y7855204D01*
X5259070Y7854442D01*
X5261863Y7839455D01*
X5261863Y7838694D01*
X5262879Y7823454D01*
X5262879Y7822945D01*
X5261863Y7807452D01*
X5261863Y7806944D01*
X5259070Y7791958D01*
X5259070Y7791195D01*
X5254497Y7776718D01*
X5254243Y7775955D01*
X5247893Y7761986D01*
X5247640Y7761478D01*
X5239765Y7748523D01*
X5239258Y7748015D01*
X5229859Y7735823D01*
X5229352Y7735315D01*
X5218684Y7724394D01*
X5218175Y7724139D01*
X5205984Y7714742D01*
X5205475Y7714234D01*
X5192522Y7706360D01*
X5192013Y7706105D01*
X5177790Y7699755D01*
X5177281Y7699502D01*
X5162804Y7694929D01*
X5162041Y7694929D01*
X5147056Y7692136D01*
X5146293Y7692136D01*
X5131054Y7691120D01*
G37*
G36*
X5130545Y6700520D02*
G01*
X5115052Y6701536D01*
X5114543Y6701536D01*
X5099558Y6704329D01*
X5098795Y6704329D01*
X5084318Y6708902D01*
X5083556Y6709155D01*
X5069586Y6715505D01*
X5069077Y6715760D01*
X5056124Y6723634D01*
X5055615Y6724142D01*
X5043424Y6733539D01*
X5031740Y6745223D01*
X5022341Y6757415D01*
X5021834Y6757923D01*
X5013959Y6770878D01*
X5013706Y6771386D01*
X5007356Y6785355D01*
X5007102Y6786118D01*
X5002529Y6800595D01*
X5002529Y6801358D01*
X4999736Y6816344D01*
X4999736Y6816852D01*
X4998720Y6832345D01*
X4998720Y6832854D01*
X4999736Y6848094D01*
X4999736Y6848855D01*
X5002529Y6863842D01*
X5002529Y6864604D01*
X5007102Y6879081D01*
X5007356Y6879589D01*
X5013706Y6893813D01*
X5013959Y6894321D01*
X5021834Y6907276D01*
X5022341Y6907784D01*
X5031740Y6919976D01*
X5043424Y6931660D01*
X5055615Y6941058D01*
X5056124Y6941565D01*
X5069077Y6949439D01*
X5069586Y6949694D01*
X5083556Y6956044D01*
X5084318Y6956297D01*
X5098795Y6960870D01*
X5099558Y6960870D01*
X5114543Y6963663D01*
X5115052Y6963663D01*
X5130545Y6964679D01*
X5131054Y6964679D01*
X5146293Y6963663D01*
X5147056Y6963663D01*
X5162041Y6960870D01*
X5162804Y6960870D01*
X5177281Y6956297D01*
X5177790Y6956044D01*
X5192013Y6949694D01*
X5192522Y6949439D01*
X5205475Y6941565D01*
X5205984Y6941058D01*
X5218175Y6931660D01*
X5229859Y6919976D01*
X5239258Y6907784D01*
X5239765Y6907276D01*
X5247640Y6894321D01*
X5247893Y6893813D01*
X5254243Y6879589D01*
X5254497Y6879081D01*
X5259070Y6864604D01*
X5259070Y6863842D01*
X5261863Y6848855D01*
X5261863Y6848094D01*
X5262879Y6832854D01*
X5262879Y6832345D01*
X5261863Y6816852D01*
X5261863Y6816344D01*
X5259070Y6801358D01*
X5259070Y6800595D01*
X5254497Y6786118D01*
X5254243Y6785355D01*
X5247893Y6771386D01*
X5247640Y6770878D01*
X5239765Y6757923D01*
X5239258Y6757415D01*
X5229859Y6745223D01*
X5218175Y6733539D01*
X5205984Y6724142D01*
X5205475Y6723634D01*
X5192522Y6715760D01*
X5192013Y6715505D01*
X5177790Y6709155D01*
X5177281Y6708902D01*
X5162804Y6704329D01*
X5162041Y6704329D01*
X5147056Y6701536D01*
X5146293Y6701536D01*
X5131054Y6700520D01*
G37*
G36*
X5130545Y7360920D02*
G01*
X5115052Y7361936D01*
X5114543Y7361936D01*
X5099558Y7364729D01*
X5098795Y7364729D01*
X5084318Y7369302D01*
X5083556Y7369555D01*
X5069586Y7375905D01*
X5069077Y7376160D01*
X5056124Y7384034D01*
X5055615Y7384542D01*
X5043424Y7393939D01*
X5042915Y7394194D01*
X5032247Y7405115D01*
X5031740Y7405623D01*
X5022341Y7417815D01*
X5021834Y7418323D01*
X5013959Y7431278D01*
X5013706Y7431786D01*
X5007356Y7445755D01*
X5007102Y7446518D01*
X5002529Y7460995D01*
X5002529Y7461758D01*
X4999736Y7476744D01*
X4999736Y7477252D01*
X4998720Y7492745D01*
X4998720Y7493254D01*
X4999736Y7508494D01*
X4999736Y7509255D01*
X5002529Y7524242D01*
X5002529Y7525004D01*
X5007102Y7539481D01*
X5007356Y7539989D01*
X5013706Y7554213D01*
X5013959Y7554721D01*
X5021834Y7567676D01*
X5022341Y7568184D01*
X5031740Y7580376D01*
X5043424Y7592060D01*
X5055615Y7601458D01*
X5056124Y7601965D01*
X5069077Y7609839D01*
X5069586Y7610094D01*
X5083556Y7616444D01*
X5084318Y7616697D01*
X5098795Y7621270D01*
X5099558Y7621270D01*
X5114543Y7624063D01*
X5115052Y7624063D01*
X5130545Y7625079D01*
X5131054Y7625079D01*
X5146293Y7624063D01*
X5147056Y7624063D01*
X5162041Y7621270D01*
X5162804Y7621270D01*
X5177281Y7616697D01*
X5177790Y7616444D01*
X5192013Y7610094D01*
X5192522Y7609839D01*
X5205475Y7601965D01*
X5205984Y7601458D01*
X5218175Y7592060D01*
X5229859Y7580376D01*
X5239258Y7568184D01*
X5239765Y7567676D01*
X5247640Y7554721D01*
X5247893Y7554213D01*
X5254243Y7539989D01*
X5254497Y7539481D01*
X5259070Y7525004D01*
X5259070Y7524242D01*
X5261863Y7509255D01*
X5261863Y7508494D01*
X5262879Y7493254D01*
X5262879Y7492745D01*
X5261863Y7477252D01*
X5261863Y7476744D01*
X5259070Y7461758D01*
X5259070Y7460995D01*
X5254497Y7446518D01*
X5254243Y7445755D01*
X5247893Y7431786D01*
X5247640Y7431278D01*
X5239765Y7418323D01*
X5239258Y7417815D01*
X5229859Y7405623D01*
X5229352Y7405115D01*
X5218684Y7394194D01*
X5218175Y7393939D01*
X5205984Y7384542D01*
X5205475Y7384034D01*
X5192522Y7376160D01*
X5192013Y7375905D01*
X5177790Y7369555D01*
X5177281Y7369302D01*
X5162804Y7364729D01*
X5162041Y7364729D01*
X5147056Y7361936D01*
X5146293Y7361936D01*
X5131054Y7360920D01*
G37*
G36*
X5130545Y7030720D02*
G01*
X5115052Y7031736D01*
X5114543Y7031736D01*
X5099558Y7034529D01*
X5098795Y7034529D01*
X5084318Y7039102D01*
X5083556Y7039355D01*
X5069586Y7045705D01*
X5069077Y7045960D01*
X5056124Y7053834D01*
X5055615Y7054342D01*
X5043424Y7063739D01*
X5042915Y7063994D01*
X5032247Y7074915D01*
X5031740Y7075423D01*
X5022341Y7087615D01*
X5021834Y7088123D01*
X5013959Y7101078D01*
X5013706Y7101586D01*
X5007356Y7115555D01*
X5007102Y7116318D01*
X5002529Y7130795D01*
X5002529Y7131558D01*
X4999736Y7146544D01*
X4999736Y7147052D01*
X4998720Y7162545D01*
X4998720Y7163054D01*
X4999736Y7178294D01*
X4999736Y7179055D01*
X5002529Y7194042D01*
X5002529Y7194804D01*
X5007102Y7209281D01*
X5007356Y7209789D01*
X5013706Y7224013D01*
X5013959Y7224521D01*
X5021834Y7237476D01*
X5022341Y7237984D01*
X5031740Y7250176D01*
X5043424Y7261860D01*
X5055615Y7271258D01*
X5056124Y7271765D01*
X5069077Y7279639D01*
X5069586Y7279894D01*
X5083556Y7286244D01*
X5084318Y7286497D01*
X5098795Y7291070D01*
X5099558Y7291070D01*
X5114543Y7293863D01*
X5115052Y7293863D01*
X5130545Y7294879D01*
X5131054Y7294879D01*
X5146293Y7293863D01*
X5147056Y7293863D01*
X5162041Y7291070D01*
X5162804Y7291070D01*
X5177281Y7286497D01*
X5177790Y7286244D01*
X5192013Y7279894D01*
X5192522Y7279639D01*
X5205475Y7271765D01*
X5205984Y7271258D01*
X5218175Y7261860D01*
X5229859Y7250176D01*
X5239258Y7237984D01*
X5239765Y7237476D01*
X5247640Y7224521D01*
X5247893Y7224013D01*
X5254243Y7209789D01*
X5254497Y7209281D01*
X5259070Y7194804D01*
X5259070Y7194042D01*
X5261863Y7179055D01*
X5261863Y7178294D01*
X5262879Y7163054D01*
X5262879Y7162545D01*
X5261863Y7147052D01*
X5261863Y7146544D01*
X5259070Y7131558D01*
X5259070Y7130795D01*
X5254497Y7116318D01*
X5254243Y7115555D01*
X5247893Y7101586D01*
X5247640Y7101078D01*
X5239765Y7088123D01*
X5239258Y7087615D01*
X5229859Y7075423D01*
X5229352Y7074915D01*
X5218684Y7063994D01*
X5218175Y7063739D01*
X5205984Y7054342D01*
X5205475Y7053834D01*
X5192522Y7045960D01*
X5192013Y7045705D01*
X5177790Y7039355D01*
X5177281Y7039102D01*
X5162804Y7034529D01*
X5162041Y7034529D01*
X5147056Y7031736D01*
X5146293Y7031736D01*
X5131054Y7030720D01*
G37*
D10*
G01*
X3554394Y7594584D03*
D11*
G01*
X3354390Y7594584D03*
D12*
G01*
X3562192Y8102584D03*
G01*
X3702192Y8102584D03*
G01*
X3562192Y6553187D03*
G01*
X3702192Y6553187D03*
D13*
G01*
X4692789Y8102584D03*
G01*
X4552789Y8102584D03*
G01*
X4692789Y6553187D03*
G01*
X4552789Y6553187D03*
G36*
X3225545Y7183120D02*
G01*
X3210052Y7184136D01*
X3209543Y7184136D01*
X3194558Y7186929D01*
X3193795Y7186929D01*
X3179318Y7191502D01*
X3178556Y7191755D01*
X3164586Y7198105D01*
X3164077Y7198360D01*
X3151124Y7206234D01*
X3150615Y7206742D01*
X3138424Y7216139D01*
X3137915Y7216394D01*
X3127247Y7227315D01*
X3126740Y7227823D01*
X3117341Y7240015D01*
X3116834Y7240523D01*
X3108959Y7253478D01*
X3108706Y7253986D01*
X3102356Y7267955D01*
X3102102Y7268718D01*
X3097529Y7283195D01*
X3097529Y7283958D01*
X3094736Y7298944D01*
X3094736Y7299452D01*
X3093720Y7314945D01*
X3093720Y7315454D01*
X3094736Y7330694D01*
X3094736Y7331455D01*
X3097529Y7346442D01*
X3097529Y7347204D01*
X3102102Y7361681D01*
X3102356Y7362189D01*
X3108706Y7376413D01*
X3108959Y7376921D01*
X3116834Y7389876D01*
X3117341Y7390384D01*
X3126740Y7402576D01*
X3138424Y7414260D01*
X3150615Y7423658D01*
X3151124Y7424165D01*
X3164077Y7432039D01*
X3164586Y7432294D01*
X3178556Y7438644D01*
X3179318Y7438897D01*
X3193795Y7443470D01*
X3194558Y7443470D01*
X3209543Y7446263D01*
X3210052Y7446263D01*
X3225545Y7447279D01*
X3226054Y7447279D01*
X3241293Y7446263D01*
X3242056Y7446263D01*
X3257041Y7443470D01*
X3257804Y7443470D01*
X3272281Y7438897D01*
X3272790Y7438644D01*
X3287013Y7432294D01*
X3287522Y7432039D01*
X3300475Y7424165D01*
X3300984Y7423658D01*
X3313175Y7414260D01*
X3324859Y7402576D01*
X3334258Y7390384D01*
X3334765Y7389876D01*
X3342640Y7376921D01*
X3342893Y7376413D01*
X3349243Y7362189D01*
X3349497Y7361681D01*
X3354070Y7347204D01*
X3354070Y7346442D01*
X3356863Y7331455D01*
X3356863Y7330694D01*
X3357879Y7315454D01*
X3357879Y7314945D01*
X3356863Y7299452D01*
X3356863Y7298944D01*
X3354070Y7283958D01*
X3354070Y7283195D01*
X3349497Y7268718D01*
X3349243Y7267955D01*
X3342893Y7253986D01*
X3342640Y7253478D01*
X3334765Y7240523D01*
X3334258Y7240015D01*
X3324859Y7227823D01*
X3324352Y7227315D01*
X3313684Y7216394D01*
X3313175Y7216139D01*
X3300984Y7206742D01*
X3300475Y7206234D01*
X3287522Y7198360D01*
X3287013Y7198105D01*
X3272790Y7191755D01*
X3272281Y7191502D01*
X3257804Y7186929D01*
X3257041Y7186929D01*
X3242056Y7184136D01*
X3241293Y7184136D01*
X3226054Y7183120D01*
G37*
D14*
G01*
X4040497Y7670792D03*
D15*
G01*
X4130671Y7670792D03*
D16*
G01*
X4040497Y6984993D03*
D17*
G01*
X4130671Y6984993D03*
D18*
G01*
X4571994Y7444089D03*
D19*
G01*
X4571994Y7534267D03*
D20*
G01*
X4572000Y7198995D03*
D21*
G01*
X4572000Y7108825D03*
D22*
G01*
X3556867Y6730987D03*
D23*
G01*
X3707517Y6730987D03*
D22*
G01*
X3556867Y7924784D03*
D23*
G01*
X3707517Y7924784D03*
D24*
G01*
X4698114Y7924784D03*
D25*
G01*
X4547464Y7924784D03*
D24*
G01*
X4698114Y6730987D03*
D25*
G01*
X4547464Y6730987D03*
G36*
X3657345Y7195820D02*
G01*
X3642106Y7196836D01*
X3641343Y7196836D01*
X3626358Y7199629D01*
X3625595Y7199629D01*
X3611118Y7204202D01*
X3610356Y7204455D01*
X3596386Y7210805D01*
X3595877Y7211060D01*
X3582924Y7218934D01*
X3582415Y7219442D01*
X3570224Y7228839D01*
X3558540Y7240523D01*
X3549141Y7252715D01*
X3548634Y7253223D01*
X3540759Y7266178D01*
X3540506Y7266686D01*
X3534156Y7280655D01*
X3533902Y7281418D01*
X3529329Y7295895D01*
X3529329Y7296658D01*
X3526536Y7311644D01*
X3526536Y7312405D01*
X3525520Y7327645D01*
X3525520Y7328154D01*
X3526536Y7343394D01*
X3526536Y7344155D01*
X3529329Y7359142D01*
X3529329Y7359904D01*
X3533902Y7374381D01*
X3534156Y7375144D01*
X3540506Y7389113D01*
X3540759Y7389621D01*
X3548634Y7402576D01*
X3549141Y7403084D01*
X3558540Y7415276D01*
X3570224Y7426960D01*
X3582415Y7436358D01*
X3582924Y7436865D01*
X3595877Y7444739D01*
X3596386Y7444994D01*
X3610356Y7451344D01*
X3611118Y7451597D01*
X3625595Y7456170D01*
X3626358Y7456170D01*
X3641343Y7458963D01*
X3642106Y7458963D01*
X3657345Y7459979D01*
X3657854Y7459979D01*
X3673093Y7458963D01*
X3673856Y7458963D01*
X3688841Y7456170D01*
X3689604Y7456170D01*
X3704081Y7451597D01*
X3704843Y7451344D01*
X3718813Y7444994D01*
X3719322Y7444739D01*
X3732275Y7436865D01*
X3732784Y7436358D01*
X3744975Y7426960D01*
X3756659Y7415276D01*
X3766058Y7403084D01*
X3766565Y7402576D01*
X3774440Y7389621D01*
X3774693Y7389113D01*
X3781043Y7375144D01*
X3781297Y7374381D01*
X3785870Y7359904D01*
X3785870Y7359142D01*
X3788663Y7344155D01*
X3788663Y7343394D01*
X3789679Y7328154D01*
X3789679Y7327645D01*
X3788663Y7312405D01*
X3788663Y7311644D01*
X3785870Y7296658D01*
X3785870Y7295895D01*
X3781297Y7281418D01*
X3781043Y7280655D01*
X3774693Y7266686D01*
X3774440Y7266178D01*
X3766565Y7253223D01*
X3766058Y7252715D01*
X3756659Y7240523D01*
X3744975Y7228839D01*
X3732784Y7219442D01*
X3732275Y7218934D01*
X3719322Y7211060D01*
X3718813Y7210805D01*
X3704843Y7204455D01*
X3704081Y7204202D01*
X3689604Y7199629D01*
X3688841Y7199629D01*
X3673856Y7196836D01*
X3673093Y7196836D01*
X3657854Y7195820D01*
G37*
M02*
