G04 Layer: BottomPasteMaskLayer*
G04 EasyEDA v6.5.38, 2023-11-24 15:43:32*
G04 09673f8317ad448189dc8d57b7b7ae53,9a5be75d700b4a6385dc1106f27949ae,10*
G04 Gerber Generator version 0.2*
G04 Scale: 100 percent, Rotated: No, Reflected: No *
G04 Dimensions in millimeters *
G04 leading zeros omitted , absolute positions ,4 integer and 5 decimal *
%FSLAX45Y45*%
%MOMM*%

%AMMACRO1*21,1,$1,$2,0,0,$3*%
%ADD10MACRO1,0.8001X0.9002X0.0000*%
%ADD11MACRO1,0.8001X0.8999X0.0000*%
%ADD12MACRO1,0.8001X0.9002X-90.0000*%
%ADD13MACRO1,1.2499X0.7X0.0000*%
%ADD14MACRO1,1.2502X0.7X90.0000*%
%ADD15MACRO1,0.49X1.1572X0.0000*%
%ADD16MACRO1,0.49X1.175X0.0000*%
%ADD17C,0.0198*%

%LPD*%
G36*
X564489Y-579983D02*
G01*
X559511Y-585012D01*
X559511Y-609193D01*
X596493Y-609193D01*
X596493Y-642213D01*
X559511Y-642213D01*
X559511Y-665022D01*
X564489Y-670001D01*
X644499Y-670001D01*
X649478Y-665022D01*
X649478Y-585012D01*
X644499Y-579983D01*
G37*
G36*
X405485Y-579983D02*
G01*
X400507Y-585012D01*
X400507Y-665022D01*
X405485Y-670001D01*
X484479Y-670001D01*
X489508Y-665022D01*
X489508Y-642213D01*
X451510Y-642213D01*
X451510Y-609193D01*
X489508Y-609193D01*
X489508Y-585012D01*
X484479Y-579983D01*
G37*
G36*
X1264513Y-830021D02*
G01*
X1259484Y-834999D01*
X1259484Y-859180D01*
X1296517Y-859180D01*
X1296517Y-892200D01*
X1259484Y-892200D01*
X1259484Y-915009D01*
X1264513Y-919987D01*
X1344523Y-919987D01*
X1349502Y-915009D01*
X1349502Y-834999D01*
X1344523Y-830021D01*
G37*
G36*
X1105509Y-830021D02*
G01*
X1100480Y-834999D01*
X1100480Y-915009D01*
X1105509Y-919987D01*
X1184503Y-919987D01*
X1189482Y-915009D01*
X1189482Y-892200D01*
X1151483Y-892200D01*
X1151483Y-859180D01*
X1189482Y-859180D01*
X1189482Y-834999D01*
X1184503Y-830021D01*
G37*
G36*
X1264513Y-1154988D02*
G01*
X1259484Y-1160018D01*
X1259484Y-1184198D01*
X1296517Y-1184198D01*
X1296517Y-1217218D01*
X1259484Y-1217218D01*
X1259484Y-1239977D01*
X1264513Y-1245006D01*
X1344523Y-1245006D01*
X1349502Y-1239977D01*
X1349502Y-1160018D01*
X1344523Y-1154988D01*
G37*
G36*
X1105509Y-1154988D02*
G01*
X1100480Y-1160018D01*
X1100480Y-1239977D01*
X1105509Y-1245006D01*
X1184503Y-1245006D01*
X1189482Y-1239977D01*
X1189482Y-1217218D01*
X1151483Y-1217218D01*
X1151483Y-1184198D01*
X1189482Y-1184198D01*
X1189482Y-1160018D01*
X1184503Y-1154988D01*
G37*
G36*
X1264513Y-1480007D02*
G01*
X1259484Y-1484985D01*
X1259484Y-1509217D01*
X1296517Y-1509217D01*
X1296517Y-1542186D01*
X1259484Y-1542186D01*
X1259484Y-1564995D01*
X1264513Y-1569974D01*
X1344523Y-1569974D01*
X1349502Y-1564995D01*
X1349502Y-1484985D01*
X1344523Y-1480007D01*
G37*
G36*
X1105509Y-1480007D02*
G01*
X1100480Y-1484985D01*
X1100480Y-1564995D01*
X1105509Y-1569974D01*
X1184503Y-1569974D01*
X1189482Y-1564995D01*
X1189482Y-1542186D01*
X1151483Y-1542186D01*
X1151483Y-1509217D01*
X1189482Y-1509217D01*
X1189482Y-1484985D01*
X1184503Y-1480007D01*
G37*
G36*
X865174Y-182524D02*
G01*
X860196Y-187502D01*
X860196Y-302514D01*
X865174Y-307492D01*
X906170Y-308000D01*
X906170Y-262991D01*
X951179Y-262991D01*
X951179Y-306984D01*
X993190Y-307492D01*
X998169Y-302514D01*
X998169Y-187502D01*
X993190Y-182524D01*
G37*
G36*
X865174Y-397510D02*
G01*
X860196Y-402488D01*
X860196Y-517499D01*
X865174Y-522478D01*
X993190Y-522478D01*
X998169Y-517499D01*
X998169Y-402488D01*
X993190Y-397510D01*
X951179Y-397510D01*
X951179Y-442010D01*
X906170Y-442010D01*
X906170Y-398018D01*
G37*
G36*
X109016Y-957478D02*
G01*
X103987Y-962507D01*
X103987Y-1077518D01*
X109016Y-1082497D01*
X150012Y-1083005D01*
X150012Y-1037996D01*
X195021Y-1037996D01*
X195021Y-1081989D01*
X236982Y-1082497D01*
X242011Y-1077518D01*
X242011Y-962507D01*
X236982Y-957478D01*
G37*
G36*
X109016Y-1172514D02*
G01*
X103987Y-1177493D01*
X103987Y-1292504D01*
X109016Y-1297482D01*
X236982Y-1297482D01*
X242011Y-1292504D01*
X242011Y-1177493D01*
X236982Y-1172514D01*
X195021Y-1172514D01*
X195021Y-1217015D01*
X150012Y-1217015D01*
X150012Y-1173022D01*
G37*
G36*
X187502Y-732993D02*
G01*
X182473Y-738022D01*
X182473Y-865987D01*
X187502Y-871016D01*
X302514Y-871016D01*
X307492Y-865987D01*
X308000Y-824992D01*
X262991Y-824992D01*
X262991Y-779983D01*
X306984Y-779983D01*
X307492Y-738022D01*
X302514Y-732993D01*
G37*
G36*
X402488Y-732993D02*
G01*
X397510Y-738022D01*
X397510Y-779983D01*
X442010Y-779983D01*
X442010Y-824992D01*
X398018Y-824992D01*
X397510Y-865987D01*
X402488Y-871016D01*
X517499Y-871016D01*
X522478Y-865987D01*
X522478Y-738022D01*
X517499Y-732993D01*
G37*
G36*
X1264513Y-505002D02*
G01*
X1259484Y-509981D01*
X1259484Y-534212D01*
X1296517Y-534212D01*
X1296517Y-567182D01*
X1259484Y-567182D01*
X1259484Y-589991D01*
X1264513Y-595020D01*
X1344523Y-595020D01*
X1349502Y-589991D01*
X1349502Y-509981D01*
X1344523Y-505002D01*
G37*
G36*
X1105509Y-505002D02*
G01*
X1100480Y-509981D01*
X1100480Y-589991D01*
X1105509Y-595020D01*
X1184503Y-595020D01*
X1189482Y-589991D01*
X1189482Y-567182D01*
X1151483Y-567182D01*
X1151483Y-534212D01*
X1189482Y-534212D01*
X1189482Y-509981D01*
X1184503Y-505002D01*
G37*
G36*
X730504Y-1204976D02*
G01*
X725474Y-1210005D01*
X725474Y-1290015D01*
X730504Y-1294993D01*
X810514Y-1294993D01*
X815492Y-1290015D01*
X815492Y-1265783D01*
X778510Y-1265783D01*
X778510Y-1232814D01*
X815492Y-1232814D01*
X815492Y-1210005D01*
X810514Y-1204976D01*
G37*
G36*
X890473Y-1204976D02*
G01*
X885494Y-1210005D01*
X885494Y-1232814D01*
X923493Y-1232814D01*
X923493Y-1265783D01*
X885494Y-1265783D01*
X885494Y-1290015D01*
X890473Y-1294993D01*
X969518Y-1294993D01*
X974496Y-1290015D01*
X974496Y-1210005D01*
X969518Y-1204976D01*
G37*
G36*
X684987Y-900480D02*
G01*
X680008Y-905510D01*
X680008Y-985519D01*
X684987Y-990498D01*
X709218Y-990498D01*
X709218Y-953516D01*
X742188Y-953516D01*
X742188Y-990498D01*
X764997Y-990498D01*
X769975Y-985519D01*
X769975Y-905510D01*
X764997Y-900480D01*
G37*
G36*
X684987Y-1060500D02*
G01*
X680008Y-1065479D01*
X680008Y-1144473D01*
X684987Y-1149502D01*
X764997Y-1149502D01*
X769975Y-1144473D01*
X769975Y-1065479D01*
X764997Y-1060500D01*
X742188Y-1060500D01*
X742188Y-1098499D01*
X709218Y-1098499D01*
X709218Y-1060500D01*
G37*
G36*
X739495Y-754989D02*
G01*
X734517Y-760018D01*
X734517Y-784199D01*
X771499Y-784199D01*
X771499Y-817219D01*
X734517Y-817219D01*
X734517Y-839978D01*
X739495Y-845007D01*
X819505Y-845007D01*
X824484Y-839978D01*
X824484Y-760018D01*
X819505Y-754989D01*
G37*
G36*
X580491Y-754989D02*
G01*
X575513Y-760018D01*
X575513Y-839978D01*
X580491Y-845007D01*
X659485Y-845007D01*
X664514Y-839978D01*
X664514Y-817219D01*
X626516Y-817219D01*
X626516Y-784199D01*
X664514Y-784199D01*
X664514Y-760018D01*
X659485Y-754989D01*
G37*
G36*
X1324990Y-1697989D02*
G01*
X1309674Y-1698904D01*
X1294587Y-1701672D01*
X1279956Y-1706245D01*
X1265961Y-1712544D01*
X1252854Y-1720469D01*
X1240764Y-1729917D01*
X1229918Y-1740763D01*
X1220470Y-1752854D01*
X1212545Y-1765960D01*
X1206245Y-1779955D01*
X1201673Y-1794586D01*
X1198905Y-1809673D01*
X1197990Y-1824989D01*
X1198905Y-1840306D01*
X1201673Y-1855393D01*
X1206245Y-1870024D01*
X1212545Y-1884019D01*
X1220470Y-1897126D01*
X1229918Y-1909216D01*
X1240764Y-1920062D01*
X1252854Y-1929511D01*
X1265961Y-1937435D01*
X1279956Y-1943735D01*
X1294587Y-1948306D01*
X1309674Y-1951075D01*
X1324990Y-1951989D01*
X1340307Y-1951075D01*
X1355394Y-1948306D01*
X1370025Y-1943735D01*
X1384020Y-1937435D01*
X1397127Y-1929511D01*
X1409217Y-1920062D01*
X1420063Y-1909216D01*
X1429512Y-1897126D01*
X1437436Y-1884019D01*
X1443736Y-1870024D01*
X1448307Y-1855393D01*
X1451076Y-1840306D01*
X1451990Y-1824989D01*
X1451076Y-1809673D01*
X1448307Y-1794586D01*
X1443736Y-1779955D01*
X1437436Y-1765960D01*
X1429512Y-1752854D01*
X1420063Y-1740763D01*
X1409217Y-1729917D01*
X1397127Y-1720469D01*
X1384020Y-1712544D01*
X1370025Y-1706245D01*
X1355394Y-1701672D01*
X1340307Y-1698904D01*
X1324990Y-1697989D01*
G37*
G36*
X1824989Y-272999D02*
G01*
X1809673Y-273913D01*
X1794586Y-276682D01*
X1779955Y-281254D01*
X1765960Y-287553D01*
X1752854Y-295478D01*
X1740763Y-304927D01*
X1729917Y-315772D01*
X1720469Y-327863D01*
X1712544Y-340969D01*
X1706245Y-354964D01*
X1701672Y-369595D01*
X1698904Y-384682D01*
X1697989Y-399999D01*
X1698904Y-415315D01*
X1701672Y-430403D01*
X1706245Y-445033D01*
X1712544Y-459028D01*
X1720469Y-472135D01*
X1729917Y-484225D01*
X1740763Y-495071D01*
X1752854Y-504520D01*
X1765960Y-512445D01*
X1779955Y-518744D01*
X1794586Y-523316D01*
X1809673Y-526084D01*
X1824989Y-526999D01*
X1840306Y-526084D01*
X1855393Y-523316D01*
X1870024Y-518744D01*
X1884019Y-512445D01*
X1897126Y-504520D01*
X1909216Y-495071D01*
X1920062Y-484225D01*
X1929511Y-472135D01*
X1937435Y-459028D01*
X1943734Y-445033D01*
X1948306Y-430403D01*
X1951075Y-415315D01*
X1951990Y-399999D01*
X1951075Y-384682D01*
X1948306Y-369595D01*
X1943734Y-354964D01*
X1937435Y-340969D01*
X1929511Y-327863D01*
X1920062Y-315772D01*
X1909216Y-304927D01*
X1897126Y-295478D01*
X1884019Y-287553D01*
X1870024Y-281254D01*
X1855393Y-276682D01*
X1840306Y-273913D01*
X1824989Y-272999D01*
G37*
G36*
X1824989Y-1472996D02*
G01*
X1809673Y-1473911D01*
X1794586Y-1476679D01*
X1779955Y-1481251D01*
X1765960Y-1487551D01*
X1752854Y-1495475D01*
X1740763Y-1504924D01*
X1729917Y-1515770D01*
X1720469Y-1527860D01*
X1712544Y-1540967D01*
X1706245Y-1554962D01*
X1701672Y-1569593D01*
X1698904Y-1584680D01*
X1697989Y-1599996D01*
X1698904Y-1615312D01*
X1701672Y-1630400D01*
X1706245Y-1645030D01*
X1712544Y-1659026D01*
X1720469Y-1672132D01*
X1729917Y-1684223D01*
X1740763Y-1695069D01*
X1752854Y-1704517D01*
X1765960Y-1712442D01*
X1779955Y-1718741D01*
X1794586Y-1723313D01*
X1809673Y-1726082D01*
X1824989Y-1726996D01*
X1840306Y-1726082D01*
X1855393Y-1723313D01*
X1870024Y-1718741D01*
X1884019Y-1712442D01*
X1897126Y-1704517D01*
X1909216Y-1695069D01*
X1920062Y-1684223D01*
X1929511Y-1672132D01*
X1937435Y-1659026D01*
X1943734Y-1645030D01*
X1948306Y-1630400D01*
X1951075Y-1615312D01*
X1951990Y-1599996D01*
X1951075Y-1584680D01*
X1948306Y-1569593D01*
X1943734Y-1554962D01*
X1937435Y-1540967D01*
X1929511Y-1527860D01*
X1920062Y-1515770D01*
X1909216Y-1504924D01*
X1897126Y-1495475D01*
X1884019Y-1487551D01*
X1870024Y-1481251D01*
X1855393Y-1476679D01*
X1840306Y-1473911D01*
X1824989Y-1472996D01*
G37*
G36*
X699998Y-1697989D02*
G01*
X684682Y-1698904D01*
X669594Y-1701672D01*
X654964Y-1706245D01*
X640969Y-1712544D01*
X627862Y-1720469D01*
X615772Y-1729917D01*
X604926Y-1740763D01*
X595477Y-1752854D01*
X587552Y-1765960D01*
X581253Y-1779955D01*
X576681Y-1794586D01*
X573912Y-1809673D01*
X572998Y-1824989D01*
X573912Y-1840306D01*
X576681Y-1855393D01*
X581253Y-1870024D01*
X587552Y-1884019D01*
X595477Y-1897126D01*
X604926Y-1909216D01*
X615772Y-1920062D01*
X627862Y-1929511D01*
X640969Y-1937435D01*
X654964Y-1943735D01*
X669594Y-1948306D01*
X684682Y-1951075D01*
X699998Y-1951989D01*
X715314Y-1951075D01*
X730402Y-1948306D01*
X745032Y-1943735D01*
X759028Y-1937435D01*
X772134Y-1929511D01*
X784225Y-1920062D01*
X795070Y-1909216D01*
X804519Y-1897126D01*
X812444Y-1884019D01*
X818743Y-1870024D01*
X823315Y-1855393D01*
X826084Y-1840306D01*
X826998Y-1824989D01*
X826084Y-1809673D01*
X823315Y-1794586D01*
X818743Y-1779955D01*
X812444Y-1765960D01*
X804519Y-1752854D01*
X795070Y-1740763D01*
X784225Y-1729917D01*
X772134Y-1720469D01*
X759028Y-1712544D01*
X745032Y-1706245D01*
X730402Y-1701672D01*
X715314Y-1698904D01*
X699998Y-1697989D01*
G37*
G36*
X1451990Y-175005D02*
G01*
X1451076Y-159689D01*
X1448307Y-144602D01*
X1443736Y-129971D01*
X1437436Y-115976D01*
X1429512Y-102870D01*
X1420063Y-90779D01*
X1409217Y-79933D01*
X1397127Y-70485D01*
X1384020Y-62560D01*
X1370025Y-56261D01*
X1355394Y-51688D01*
X1340307Y-48920D01*
X1324990Y-48005D01*
X1309674Y-48920D01*
X1294587Y-51688D01*
X1279956Y-56261D01*
X1265961Y-62560D01*
X1252854Y-70485D01*
X1240764Y-79933D01*
X1229918Y-90779D01*
X1220470Y-102870D01*
X1212545Y-115976D01*
X1206245Y-129971D01*
X1201673Y-144602D01*
X1198905Y-159689D01*
X1197990Y-175005D01*
X1198905Y-190322D01*
X1201673Y-205409D01*
X1206245Y-220040D01*
X1212545Y-234035D01*
X1220470Y-247142D01*
X1229918Y-259232D01*
X1240764Y-270078D01*
X1252854Y-279527D01*
X1265961Y-287451D01*
X1279956Y-293751D01*
X1294587Y-298322D01*
X1309674Y-301091D01*
X1324990Y-302005D01*
X1340307Y-301091D01*
X1355394Y-298322D01*
X1370025Y-293751D01*
X1384020Y-287451D01*
X1397127Y-279527D01*
X1409217Y-270078D01*
X1420063Y-259232D01*
X1429512Y-247142D01*
X1437436Y-234035D01*
X1443736Y-220040D01*
X1448307Y-205409D01*
X1451076Y-190322D01*
X1451990Y-175005D01*
G37*
G36*
X302005Y-1599996D02*
G01*
X301091Y-1584680D01*
X298322Y-1569593D01*
X293751Y-1554962D01*
X287451Y-1540967D01*
X279527Y-1527860D01*
X270078Y-1515770D01*
X259232Y-1504924D01*
X247142Y-1495475D01*
X234035Y-1487551D01*
X220040Y-1481251D01*
X205409Y-1476679D01*
X190322Y-1473911D01*
X175005Y-1472996D01*
X159689Y-1473911D01*
X144602Y-1476679D01*
X129971Y-1481251D01*
X115976Y-1487551D01*
X102870Y-1495475D01*
X90779Y-1504924D01*
X79933Y-1515770D01*
X70485Y-1527860D01*
X62560Y-1540967D01*
X56261Y-1554962D01*
X51688Y-1569593D01*
X48920Y-1584680D01*
X48005Y-1599996D01*
X48920Y-1615312D01*
X51688Y-1630400D01*
X56261Y-1645030D01*
X62560Y-1659026D01*
X70485Y-1672132D01*
X79933Y-1684223D01*
X90779Y-1695069D01*
X102870Y-1704517D01*
X115976Y-1712442D01*
X129971Y-1718741D01*
X144602Y-1723313D01*
X159689Y-1726082D01*
X175005Y-1726996D01*
X190322Y-1726082D01*
X205409Y-1723313D01*
X220040Y-1718741D01*
X234035Y-1712442D01*
X247142Y-1704517D01*
X259232Y-1695069D01*
X270078Y-1684223D01*
X279527Y-1672132D01*
X287451Y-1659026D01*
X293751Y-1645030D01*
X298322Y-1630400D01*
X301091Y-1615312D01*
X302005Y-1599996D01*
G37*
G36*
X302005Y-399999D02*
G01*
X301091Y-384682D01*
X298322Y-369595D01*
X293751Y-354964D01*
X287451Y-340969D01*
X279527Y-327863D01*
X270078Y-315772D01*
X259232Y-304927D01*
X247142Y-295478D01*
X234035Y-287553D01*
X220040Y-281254D01*
X205409Y-276682D01*
X190322Y-273913D01*
X175005Y-272999D01*
X159689Y-273913D01*
X144602Y-276682D01*
X129971Y-281254D01*
X115976Y-287553D01*
X102870Y-295478D01*
X90779Y-304927D01*
X79933Y-315772D01*
X70485Y-327863D01*
X62560Y-340969D01*
X56261Y-354964D01*
X51688Y-369595D01*
X48920Y-384682D01*
X48005Y-399999D01*
X48920Y-415315D01*
X51688Y-430403D01*
X56261Y-445033D01*
X62560Y-459028D01*
X70485Y-472135D01*
X79933Y-484225D01*
X90779Y-495071D01*
X102870Y-504520D01*
X115976Y-512445D01*
X129971Y-518744D01*
X144602Y-523316D01*
X159689Y-526084D01*
X175005Y-526999D01*
X190322Y-526084D01*
X205409Y-523316D01*
X220040Y-518744D01*
X234035Y-512445D01*
X247142Y-504520D01*
X259232Y-495071D01*
X270078Y-484225D01*
X279527Y-472135D01*
X287451Y-459028D01*
X293751Y-445033D01*
X298322Y-430403D01*
X301091Y-415315D01*
X302005Y-399999D01*
G37*
D10*
G01*
X1305001Y-399999D03*
G01*
X1445006Y-399999D03*
D11*
G01*
X1305001Y-725004D03*
G01*
X1445006Y-725004D03*
G01*
X1305001Y-1049997D03*
G01*
X1445006Y-1049997D03*
D10*
G01*
X1305001Y-1375003D03*
G01*
X1445006Y-1375003D03*
D12*
G01*
X756183Y-420014D03*
G01*
X756183Y-280009D03*
D13*
G01*
X599884Y-280009D03*
G01*
X599884Y-470001D03*
G01*
X399884Y-375005D03*
D14*
G01*
X580009Y-1399997D03*
G01*
X770001Y-1399997D03*
G01*
X675005Y-1599996D03*
D15*
G01*
X379996Y-984631D03*
G01*
X474992Y-984631D03*
G01*
X569988Y-984631D03*
D16*
G01*
X569988Y-1215364D03*
G01*
X379996Y-1215364D03*
M02*
