G04 Layer: BottomPasteMaskLayer*
G04 EasyEDA v6.5.51, 2025-11-13 20:24:43*
G04 f72cce456b204ee28f235c325527e0df,9a5be75d700b4a6385dc1106f27949ae,10*
G04 Gerber Generator version 0.2*
G04 Scale: 100 percent, Rotated: No, Reflected: No *
G04 Dimensions in millimeters *
G04 leading zeros omitted , absolute positions ,4 integer and 5 decimal *
%FSLAX45Y45*%
%MOMM*%

%AMMACRO1*21,1,$1,$2,0,0,$3*%
%ADD10MACRO1,1.25X0.7X0.0000*%
%ADD11MACRO1,1.25X0.7X90.0000*%
%ADD12MACRO1,0.49X1.157X0.0000*%
%ADD13MACRO1,0.49X1.175X0.0000*%
%ADD14MACRO1,0.8X0.9X-90.0000*%
%ADD15MACRO1,0.8X0.9X0.0000*%
%ADD16C,0.0161*%

%LPD*%
G36*
X564489Y-579983D02*
G01*
X559511Y-585012D01*
X559511Y-609193D01*
X596493Y-609193D01*
X596493Y-642213D01*
X559511Y-642213D01*
X559511Y-665022D01*
X564489Y-670001D01*
X644499Y-670001D01*
X649478Y-665022D01*
X649478Y-585012D01*
X644499Y-579983D01*
G37*
G36*
X405485Y-579983D02*
G01*
X400507Y-585012D01*
X400507Y-665022D01*
X405485Y-670001D01*
X484479Y-670001D01*
X489508Y-665022D01*
X489508Y-642213D01*
X451510Y-642213D01*
X451510Y-609193D01*
X489508Y-609193D01*
X489508Y-585012D01*
X484479Y-579983D01*
G37*
G36*
X1264513Y-830021D02*
G01*
X1259484Y-834999D01*
X1259484Y-859180D01*
X1296517Y-859180D01*
X1296517Y-892200D01*
X1259484Y-892200D01*
X1259484Y-915009D01*
X1264513Y-919987D01*
X1344523Y-919987D01*
X1349502Y-915009D01*
X1349502Y-834999D01*
X1344523Y-830021D01*
G37*
G36*
X1105509Y-830021D02*
G01*
X1100480Y-834999D01*
X1100480Y-915009D01*
X1105509Y-919987D01*
X1184503Y-919987D01*
X1189482Y-915009D01*
X1189482Y-892200D01*
X1151483Y-892200D01*
X1151483Y-859180D01*
X1189482Y-859180D01*
X1189482Y-834999D01*
X1184503Y-830021D01*
G37*
G36*
X1264513Y-1154988D02*
G01*
X1259484Y-1160018D01*
X1259484Y-1184198D01*
X1296517Y-1184198D01*
X1296517Y-1217218D01*
X1259484Y-1217218D01*
X1259484Y-1239977D01*
X1264513Y-1245006D01*
X1344523Y-1245006D01*
X1349502Y-1239977D01*
X1349502Y-1160018D01*
X1344523Y-1154988D01*
G37*
G36*
X1105509Y-1154988D02*
G01*
X1100480Y-1160018D01*
X1100480Y-1239977D01*
X1105509Y-1245006D01*
X1184503Y-1245006D01*
X1189482Y-1239977D01*
X1189482Y-1217218D01*
X1151483Y-1217218D01*
X1151483Y-1184198D01*
X1189482Y-1184198D01*
X1189482Y-1160018D01*
X1184503Y-1154988D01*
G37*
G36*
X1264513Y-1480007D02*
G01*
X1259484Y-1484985D01*
X1259484Y-1509217D01*
X1296517Y-1509217D01*
X1296517Y-1542186D01*
X1259484Y-1542186D01*
X1259484Y-1564995D01*
X1264513Y-1569974D01*
X1344523Y-1569974D01*
X1349502Y-1564995D01*
X1349502Y-1484985D01*
X1344523Y-1480007D01*
G37*
G36*
X1105509Y-1480007D02*
G01*
X1100480Y-1484985D01*
X1100480Y-1564995D01*
X1105509Y-1569974D01*
X1184503Y-1569974D01*
X1189482Y-1564995D01*
X1189482Y-1542186D01*
X1151483Y-1542186D01*
X1151483Y-1509217D01*
X1189482Y-1509217D01*
X1189482Y-1484985D01*
X1184503Y-1480007D01*
G37*
G36*
X858977Y-207517D02*
G01*
X853998Y-212496D01*
X853998Y-327507D01*
X858977Y-332486D01*
X900023Y-332994D01*
X900023Y-287985D01*
X944981Y-287985D01*
X944981Y-331978D01*
X986993Y-332486D01*
X991971Y-327507D01*
X991971Y-212496D01*
X986993Y-207517D01*
G37*
G36*
X858977Y-422503D02*
G01*
X853998Y-427482D01*
X853998Y-542493D01*
X858977Y-547522D01*
X986993Y-547522D01*
X991971Y-542493D01*
X991971Y-427482D01*
X986993Y-422503D01*
X944981Y-422503D01*
X944981Y-467004D01*
X900023Y-467004D01*
X900023Y-423011D01*
G37*
G36*
X109016Y-932484D02*
G01*
X103987Y-937514D01*
X103987Y-1052474D01*
X109016Y-1057503D01*
X150012Y-1058011D01*
X150012Y-1013002D01*
X195021Y-1013002D01*
X195021Y-1056995D01*
X236982Y-1057503D01*
X242011Y-1052474D01*
X242011Y-937514D01*
X236982Y-932484D01*
G37*
G36*
X109016Y-1147521D02*
G01*
X103987Y-1152499D01*
X103987Y-1267510D01*
X109016Y-1272489D01*
X236982Y-1272489D01*
X242011Y-1267510D01*
X242011Y-1152499D01*
X236982Y-1147521D01*
X195021Y-1147521D01*
X195021Y-1192022D01*
X150012Y-1192022D01*
X150012Y-1147978D01*
G37*
G36*
X187502Y-732993D02*
G01*
X182473Y-738022D01*
X182473Y-865987D01*
X187502Y-871016D01*
X302514Y-871016D01*
X307492Y-865987D01*
X308000Y-824992D01*
X262991Y-824992D01*
X262991Y-779983D01*
X306984Y-779983D01*
X307492Y-738022D01*
X302514Y-732993D01*
G37*
G36*
X402488Y-732993D02*
G01*
X397510Y-738022D01*
X397510Y-779983D01*
X442010Y-779983D01*
X442010Y-824992D01*
X398018Y-824992D01*
X397510Y-865987D01*
X402488Y-871016D01*
X517499Y-871016D01*
X522478Y-865987D01*
X522478Y-738022D01*
X517499Y-732993D01*
G37*
G36*
X1264513Y-505002D02*
G01*
X1259484Y-509981D01*
X1259484Y-534212D01*
X1296517Y-534212D01*
X1296517Y-567182D01*
X1259484Y-567182D01*
X1259484Y-589991D01*
X1264513Y-595020D01*
X1344523Y-595020D01*
X1349502Y-589991D01*
X1349502Y-509981D01*
X1344523Y-505002D01*
G37*
G36*
X1105509Y-505002D02*
G01*
X1100480Y-509981D01*
X1100480Y-589991D01*
X1105509Y-595020D01*
X1184503Y-595020D01*
X1189482Y-589991D01*
X1189482Y-567182D01*
X1151483Y-567182D01*
X1151483Y-534212D01*
X1189482Y-534212D01*
X1189482Y-509981D01*
X1184503Y-505002D01*
G37*
G36*
X884986Y-1350518D02*
G01*
X880008Y-1355496D01*
X880008Y-1435506D01*
X884986Y-1440484D01*
X909218Y-1440484D01*
X909218Y-1403502D01*
X942187Y-1403502D01*
X942187Y-1440484D01*
X964996Y-1440484D01*
X969975Y-1435506D01*
X969975Y-1355496D01*
X964996Y-1350518D01*
G37*
G36*
X884986Y-1510487D02*
G01*
X880008Y-1515516D01*
X880008Y-1594510D01*
X884986Y-1599488D01*
X964996Y-1599488D01*
X969975Y-1594510D01*
X969975Y-1515516D01*
X964996Y-1510487D01*
X942187Y-1510487D01*
X942187Y-1548485D01*
X909218Y-1548485D01*
X909218Y-1510487D01*
G37*
G36*
X684987Y-975512D02*
G01*
X680008Y-980490D01*
X680008Y-1060500D01*
X684987Y-1065479D01*
X709218Y-1065479D01*
X709218Y-1028496D01*
X742188Y-1028496D01*
X742188Y-1065479D01*
X764997Y-1065479D01*
X769975Y-1060500D01*
X769975Y-980490D01*
X764997Y-975512D01*
G37*
G36*
X684987Y-1135481D02*
G01*
X680008Y-1140510D01*
X680008Y-1219504D01*
X684987Y-1224483D01*
X764997Y-1224483D01*
X769975Y-1219504D01*
X769975Y-1140510D01*
X764997Y-1135481D01*
X742188Y-1135481D01*
X742188Y-1173480D01*
X709218Y-1173480D01*
X709218Y-1135481D01*
G37*
G36*
X764489Y-754989D02*
G01*
X759510Y-760018D01*
X759510Y-784199D01*
X796493Y-784199D01*
X796493Y-817219D01*
X759510Y-817219D01*
X759510Y-839978D01*
X764489Y-845007D01*
X844499Y-845007D01*
X849477Y-839978D01*
X849477Y-760018D01*
X844499Y-754989D01*
G37*
G36*
X605485Y-754989D02*
G01*
X600506Y-760018D01*
X600506Y-839978D01*
X605485Y-845007D01*
X684479Y-845007D01*
X689508Y-839978D01*
X689508Y-817219D01*
X651510Y-817219D01*
X651510Y-784199D01*
X689508Y-784199D01*
X689508Y-760018D01*
X684479Y-754989D01*
G37*
G36*
X1809681Y-273913D02*
G01*
X1794593Y-276682D01*
X1779963Y-281254D01*
X1765968Y-287553D01*
X1752861Y-295478D01*
X1740771Y-304927D01*
X1729925Y-315772D01*
X1720476Y-327863D01*
X1712551Y-340969D01*
X1706252Y-354964D01*
X1701680Y-369595D01*
X1698912Y-384682D01*
X1697997Y-399999D01*
X1698912Y-415315D01*
X1701680Y-430403D01*
X1706252Y-445033D01*
X1712551Y-459028D01*
X1720476Y-472135D01*
X1729925Y-484225D01*
X1740771Y-495071D01*
X1752861Y-504520D01*
X1765968Y-512445D01*
X1779963Y-518744D01*
X1794593Y-523316D01*
X1809681Y-526084D01*
X1824997Y-526999D01*
X1840313Y-526084D01*
X1855401Y-523316D01*
X1870031Y-518744D01*
X1884027Y-512445D01*
X1897133Y-504520D01*
X1909224Y-495071D01*
X1920069Y-484225D01*
X1929518Y-472135D01*
X1937443Y-459028D01*
X1943742Y-445033D01*
X1948314Y-430403D01*
X1951083Y-415315D01*
X1951997Y-399999D01*
X1951083Y-384682D01*
X1948314Y-369595D01*
X1943742Y-354964D01*
X1937443Y-340969D01*
X1929518Y-327863D01*
X1920069Y-315772D01*
X1909224Y-304927D01*
X1897133Y-295478D01*
X1884027Y-287553D01*
X1870031Y-281254D01*
X1855401Y-276682D01*
X1840313Y-273913D01*
X1824997Y-272999D01*
G37*
G36*
X1809681Y-873912D02*
G01*
X1794593Y-876680D01*
X1779963Y-881253D01*
X1765968Y-887552D01*
X1752861Y-895477D01*
X1740771Y-904925D01*
X1729925Y-915771D01*
X1720476Y-927862D01*
X1712551Y-940968D01*
X1706252Y-954963D01*
X1701680Y-969594D01*
X1698912Y-984681D01*
X1697997Y-999997D01*
X1698912Y-1015314D01*
X1701680Y-1030401D01*
X1706252Y-1045032D01*
X1712551Y-1059027D01*
X1720476Y-1072134D01*
X1729925Y-1084224D01*
X1740771Y-1095070D01*
X1752861Y-1104519D01*
X1765968Y-1112443D01*
X1779963Y-1118743D01*
X1794593Y-1123314D01*
X1809681Y-1126083D01*
X1824997Y-1126997D01*
X1840313Y-1126083D01*
X1855401Y-1123314D01*
X1870031Y-1118743D01*
X1884027Y-1112443D01*
X1897133Y-1104519D01*
X1909224Y-1095070D01*
X1920069Y-1084224D01*
X1929518Y-1072134D01*
X1937443Y-1059027D01*
X1943742Y-1045032D01*
X1948314Y-1030401D01*
X1951083Y-1015314D01*
X1951997Y-999997D01*
X1951083Y-984681D01*
X1948314Y-969594D01*
X1943742Y-954963D01*
X1937443Y-940968D01*
X1929518Y-927862D01*
X1920069Y-915771D01*
X1909224Y-904925D01*
X1897133Y-895477D01*
X1884027Y-887552D01*
X1870031Y-881253D01*
X1855401Y-876680D01*
X1840313Y-873912D01*
X1824997Y-872997D01*
G37*
G36*
X1809681Y-1473911D02*
G01*
X1794593Y-1476679D01*
X1779963Y-1481251D01*
X1765968Y-1487551D01*
X1752861Y-1495475D01*
X1740771Y-1504924D01*
X1729925Y-1515770D01*
X1720476Y-1527860D01*
X1712551Y-1540967D01*
X1706252Y-1554962D01*
X1701680Y-1569593D01*
X1698912Y-1584680D01*
X1697997Y-1599996D01*
X1698912Y-1615312D01*
X1701680Y-1630400D01*
X1706252Y-1645030D01*
X1712551Y-1659026D01*
X1720476Y-1672132D01*
X1729925Y-1684223D01*
X1740771Y-1695069D01*
X1752861Y-1704517D01*
X1765968Y-1712442D01*
X1779963Y-1718741D01*
X1794593Y-1723313D01*
X1809681Y-1726082D01*
X1824997Y-1726996D01*
X1840313Y-1726082D01*
X1855401Y-1723313D01*
X1870031Y-1718741D01*
X1884027Y-1712442D01*
X1897133Y-1704517D01*
X1909224Y-1695069D01*
X1920069Y-1684223D01*
X1929518Y-1672132D01*
X1937443Y-1659026D01*
X1943742Y-1645030D01*
X1948314Y-1630400D01*
X1951083Y-1615312D01*
X1951997Y-1599996D01*
X1951083Y-1584680D01*
X1948314Y-1569593D01*
X1943742Y-1554962D01*
X1937443Y-1540967D01*
X1929518Y-1527860D01*
X1920069Y-1515770D01*
X1909224Y-1504924D01*
X1897133Y-1495475D01*
X1884027Y-1487551D01*
X1870031Y-1481251D01*
X1855401Y-1476679D01*
X1840313Y-1473911D01*
X1824997Y-1472996D01*
G37*
G36*
X1309682Y-1698912D02*
G01*
X1294594Y-1701680D01*
X1279964Y-1706252D01*
X1265969Y-1712551D01*
X1252862Y-1720476D01*
X1240772Y-1729925D01*
X1229926Y-1740771D01*
X1220477Y-1752861D01*
X1212552Y-1765968D01*
X1206253Y-1779963D01*
X1201681Y-1794593D01*
X1198913Y-1809681D01*
X1197998Y-1824997D01*
X1198913Y-1840313D01*
X1201681Y-1855401D01*
X1206253Y-1870031D01*
X1212552Y-1884027D01*
X1220477Y-1897133D01*
X1229926Y-1909224D01*
X1240772Y-1920069D01*
X1252862Y-1929518D01*
X1265969Y-1937443D01*
X1279964Y-1943742D01*
X1294594Y-1948314D01*
X1309682Y-1951083D01*
X1324998Y-1951997D01*
X1340314Y-1951083D01*
X1355402Y-1948314D01*
X1370032Y-1943742D01*
X1384028Y-1937443D01*
X1397134Y-1929518D01*
X1409225Y-1920069D01*
X1420070Y-1909224D01*
X1429519Y-1897133D01*
X1437444Y-1884027D01*
X1443743Y-1870031D01*
X1448315Y-1855401D01*
X1451084Y-1840313D01*
X1451998Y-1824997D01*
X1451084Y-1809681D01*
X1448315Y-1794593D01*
X1443743Y-1779963D01*
X1437444Y-1765968D01*
X1429519Y-1752861D01*
X1420070Y-1740771D01*
X1409225Y-1729925D01*
X1397134Y-1720476D01*
X1384028Y-1712551D01*
X1370032Y-1706252D01*
X1355402Y-1701680D01*
X1340314Y-1698912D01*
X1324998Y-1697997D01*
G37*
G36*
X1451084Y-159684D02*
G01*
X1448315Y-144597D01*
X1443743Y-129966D01*
X1437444Y-115971D01*
X1429519Y-102864D01*
X1420070Y-90774D01*
X1409225Y-79928D01*
X1397134Y-70479D01*
X1384028Y-62555D01*
X1370032Y-56255D01*
X1355402Y-51683D01*
X1340314Y-48915D01*
X1324998Y-48000D01*
X1309682Y-48915D01*
X1294594Y-51683D01*
X1279964Y-56255D01*
X1265969Y-62555D01*
X1252862Y-70479D01*
X1240772Y-79928D01*
X1229926Y-90774D01*
X1220477Y-102864D01*
X1212552Y-115971D01*
X1206253Y-129966D01*
X1201681Y-144597D01*
X1198913Y-159684D01*
X1197998Y-175000D01*
X1198913Y-190317D01*
X1201681Y-205404D01*
X1206253Y-220035D01*
X1212552Y-234030D01*
X1220477Y-247136D01*
X1229926Y-259227D01*
X1240772Y-270073D01*
X1252862Y-279521D01*
X1265969Y-287446D01*
X1279964Y-293745D01*
X1294594Y-298317D01*
X1309682Y-301086D01*
X1324998Y-302000D01*
X1340314Y-301086D01*
X1355402Y-298317D01*
X1370032Y-293745D01*
X1384028Y-287446D01*
X1397134Y-279521D01*
X1409225Y-270073D01*
X1420070Y-259227D01*
X1429519Y-247136D01*
X1437444Y-234030D01*
X1443743Y-220035D01*
X1448315Y-205404D01*
X1451084Y-190317D01*
X1451998Y-175000D01*
G37*
G36*
X301086Y-1584680D02*
G01*
X298317Y-1569593D01*
X293745Y-1554962D01*
X287446Y-1540967D01*
X279521Y-1527860D01*
X270073Y-1515770D01*
X259227Y-1504924D01*
X247136Y-1495475D01*
X234030Y-1487551D01*
X220035Y-1481251D01*
X205404Y-1476679D01*
X190317Y-1473911D01*
X175000Y-1472996D01*
X159684Y-1473911D01*
X144597Y-1476679D01*
X129966Y-1481251D01*
X115971Y-1487551D01*
X102864Y-1495475D01*
X90774Y-1504924D01*
X79928Y-1515770D01*
X70479Y-1527860D01*
X62555Y-1540967D01*
X56255Y-1554962D01*
X51683Y-1569593D01*
X48915Y-1584680D01*
X48000Y-1599996D01*
X48915Y-1615312D01*
X51683Y-1630400D01*
X56255Y-1645030D01*
X62555Y-1659026D01*
X70479Y-1672132D01*
X79928Y-1684223D01*
X90774Y-1695069D01*
X102864Y-1704517D01*
X115971Y-1712442D01*
X129966Y-1718741D01*
X144597Y-1723313D01*
X159684Y-1726082D01*
X175000Y-1726996D01*
X190317Y-1726082D01*
X205404Y-1723313D01*
X220035Y-1718741D01*
X234030Y-1712442D01*
X247136Y-1704517D01*
X259227Y-1695069D01*
X270073Y-1684223D01*
X279521Y-1672132D01*
X287446Y-1659026D01*
X293745Y-1645030D01*
X298317Y-1630400D01*
X301086Y-1615312D01*
X302000Y-1599996D01*
G37*
G36*
X301086Y-384682D02*
G01*
X298317Y-369595D01*
X293745Y-354964D01*
X287446Y-340969D01*
X279521Y-327863D01*
X270073Y-315772D01*
X259227Y-304927D01*
X247136Y-295478D01*
X234030Y-287553D01*
X220035Y-281254D01*
X205404Y-276682D01*
X190317Y-273913D01*
X175000Y-272999D01*
X159684Y-273913D01*
X144597Y-276682D01*
X129966Y-281254D01*
X115971Y-287553D01*
X102864Y-295478D01*
X90774Y-304927D01*
X79928Y-315772D01*
X70479Y-327863D01*
X62555Y-340969D01*
X56255Y-354964D01*
X51683Y-369595D01*
X48915Y-384682D01*
X48000Y-399999D01*
X48915Y-415315D01*
X51683Y-430403D01*
X56255Y-445033D01*
X62555Y-459028D01*
X70479Y-472135D01*
X79928Y-484225D01*
X90774Y-495071D01*
X102864Y-504520D01*
X115971Y-512445D01*
X129966Y-518744D01*
X144597Y-523316D01*
X159684Y-526084D01*
X175000Y-526999D01*
X190317Y-526084D01*
X205404Y-523316D01*
X220035Y-518744D01*
X234030Y-512445D01*
X247136Y-504520D01*
X259227Y-495071D01*
X270073Y-484225D01*
X279521Y-472135D01*
X287446Y-459028D01*
X293745Y-445033D01*
X298317Y-430403D01*
X301086Y-415315D01*
X302000Y-399999D01*
G37*
D10*
G01*
X599998Y-280004D03*
G01*
X599998Y-469995D03*
G01*
X399999Y-374999D03*
D11*
G01*
X580003Y-1399997D03*
G01*
X769994Y-1399997D03*
G01*
X674998Y-1599996D03*
D12*
G01*
X380004Y-984631D03*
G01*
X475000Y-984631D03*
G01*
X569996Y-984631D03*
D13*
G01*
X569996Y-1215364D03*
G01*
X380004Y-1215364D03*
D14*
G01*
X749998Y-445000D03*
G01*
X749998Y-305000D03*
D15*
G01*
X1304998Y-399999D03*
G01*
X1444998Y-399999D03*
G01*
X1304998Y-724999D03*
G01*
X1444998Y-724999D03*
G01*
X1304998Y-1049997D03*
G01*
X1444998Y-1049997D03*
G01*
X1304998Y-1374998D03*
G01*
X1444998Y-1374998D03*
M02*
