G04 Layer: TopLayer*
G04 EasyEDA v6.5.42, 2024-03-01 12:01:53*
G04 9a5be75d700b4a6385dc1106f27949ae,10*
G04 Gerber Generator version 0.2*
G04 Scale: 100 percent, Rotated: No, Reflected: No *
G04 Dimensions in millimeters *
G04 leading zeros omitted , absolute positions ,4 integer and 5 decimal *
%FSLAX45Y45*%
%MOMM*%

%ADD10C,0.2500*%
%ADD11C,0.3100*%
%ADD12C,0.2540*%
%ADD13R,1.8000X1.8000*%
%ADD14C,0.6200*%
%ADD15C,0.0100*%

%LPD*%
G36*
X101396Y-1969516D02*
G01*
X89408Y-1968550D01*
X79756Y-1966366D01*
X70510Y-1962810D01*
X61874Y-1957984D01*
X54051Y-1951939D01*
X47091Y-1944878D01*
X41249Y-1936902D01*
X36576Y-1928164D01*
X33223Y-1918868D01*
X31242Y-1909165D01*
X30530Y-1898599D01*
X30530Y-101396D01*
X31445Y-89408D01*
X33629Y-79756D01*
X37185Y-70510D01*
X42011Y-61874D01*
X48056Y-54051D01*
X55117Y-47091D01*
X63093Y-41249D01*
X71831Y-36576D01*
X81127Y-33223D01*
X90830Y-31242D01*
X101396Y-30530D01*
X1898599Y-30530D01*
X1910588Y-31445D01*
X1920239Y-33629D01*
X1929485Y-37185D01*
X1938121Y-42011D01*
X1945995Y-48056D01*
X1952904Y-55117D01*
X1958746Y-63093D01*
X1963420Y-71831D01*
X1966772Y-81127D01*
X1968754Y-90830D01*
X1969465Y-101396D01*
X1969465Y-1898599D01*
X1968550Y-1910588D01*
X1966366Y-1920239D01*
X1962810Y-1929485D01*
X1957984Y-1938121D01*
X1951939Y-1945995D01*
X1944878Y-1952904D01*
X1936902Y-1958746D01*
X1928164Y-1963420D01*
X1918868Y-1966772D01*
X1909165Y-1968754D01*
X1898599Y-1969516D01*
G37*

%LPC*%
G36*
X175463Y-1855520D02*
G01*
X354482Y-1855520D01*
X360934Y-1854860D01*
X366623Y-1853133D01*
X371906Y-1850339D01*
X376529Y-1846529D01*
X380288Y-1841906D01*
X383133Y-1836623D01*
X384860Y-1830933D01*
X385470Y-1824482D01*
X385470Y-1788160D01*
X386283Y-1784248D01*
X388467Y-1780997D01*
X391769Y-1778762D01*
X395630Y-1778000D01*
X414426Y-1778000D01*
X422198Y-1778203D01*
X428091Y-1778660D01*
X436473Y-1779930D01*
X445160Y-1781962D01*
X458216Y-1784654D01*
X466445Y-1785874D01*
X472135Y-1786229D01*
X480059Y-1786229D01*
X490118Y-1784604D01*
X499719Y-1781302D01*
X508609Y-1776475D01*
X516635Y-1770227D01*
X523493Y-1762760D01*
X529082Y-1754225D01*
X533146Y-1744929D01*
X535635Y-1735124D01*
X536498Y-1725015D01*
X535635Y-1714855D01*
X533146Y-1705051D01*
X529082Y-1695754D01*
X523493Y-1687220D01*
X516635Y-1679752D01*
X508609Y-1673504D01*
X499719Y-1668678D01*
X490118Y-1665376D01*
X480059Y-1663750D01*
X469950Y-1663750D01*
X459892Y-1665376D01*
X450291Y-1668678D01*
X441401Y-1673504D01*
X433171Y-1679905D01*
X424078Y-1688947D01*
X421030Y-1690979D01*
X417474Y-1691843D01*
X414680Y-1691995D01*
X395630Y-1691995D01*
X391769Y-1691233D01*
X388467Y-1688998D01*
X386283Y-1685696D01*
X385470Y-1681835D01*
X385470Y-1645513D01*
X384860Y-1639062D01*
X383133Y-1633321D01*
X380288Y-1628089D01*
X376529Y-1623466D01*
X371906Y-1619656D01*
X366623Y-1616862D01*
X360934Y-1615135D01*
X354482Y-1614474D01*
X175463Y-1614474D01*
X169062Y-1615135D01*
X163322Y-1616862D01*
X158038Y-1619656D01*
X153466Y-1623466D01*
X149656Y-1628089D01*
X146862Y-1633321D01*
X145084Y-1639062D01*
X144475Y-1645513D01*
X144475Y-1824482D01*
X145084Y-1830933D01*
X146862Y-1836623D01*
X149656Y-1841906D01*
X153466Y-1846529D01*
X158038Y-1850339D01*
X163322Y-1853133D01*
X169062Y-1854860D01*
G37*
G36*
X795477Y-1855520D02*
G01*
X974496Y-1855520D01*
X980948Y-1854860D01*
X986637Y-1853133D01*
X991920Y-1850339D01*
X996543Y-1847240D01*
X999998Y-1846681D01*
X1003401Y-1847240D01*
X1008075Y-1850339D01*
X1013307Y-1853133D01*
X1019048Y-1854860D01*
X1025499Y-1855520D01*
X1204468Y-1855520D01*
X1210919Y-1854860D01*
X1216609Y-1853133D01*
X1221892Y-1850339D01*
X1226515Y-1846529D01*
X1230325Y-1841906D01*
X1233119Y-1836623D01*
X1234846Y-1830933D01*
X1235506Y-1824482D01*
X1235506Y-1788363D01*
X1236268Y-1784451D01*
X1238453Y-1781200D01*
X1241755Y-1778965D01*
X1245666Y-1778203D01*
X1427226Y-1778203D01*
X1436065Y-1777390D01*
X1458468Y-1772920D01*
X1466951Y-1770430D01*
X1488084Y-1761693D01*
X1495907Y-1757527D01*
X1514906Y-1744878D01*
X1522171Y-1738833D01*
X1587855Y-1673199D01*
X1591462Y-1669948D01*
X1595374Y-1666951D01*
X1600504Y-1664462D01*
X1604365Y-1663700D01*
X1608226Y-1664512D01*
X1611528Y-1666697D01*
X1613712Y-1669999D01*
X1614474Y-1673860D01*
X1614474Y-1824482D01*
X1615135Y-1830933D01*
X1616862Y-1836623D01*
X1619656Y-1841906D01*
X1623466Y-1846529D01*
X1628038Y-1850339D01*
X1633321Y-1853133D01*
X1639062Y-1854860D01*
X1645462Y-1855520D01*
X1824482Y-1855520D01*
X1830933Y-1854860D01*
X1836623Y-1853133D01*
X1841906Y-1850339D01*
X1846529Y-1846529D01*
X1850288Y-1841906D01*
X1853133Y-1836623D01*
X1854860Y-1830933D01*
X1855470Y-1824482D01*
X1855470Y-1645513D01*
X1854860Y-1639062D01*
X1853133Y-1633321D01*
X1850288Y-1628089D01*
X1846529Y-1623466D01*
X1841906Y-1619656D01*
X1836623Y-1616862D01*
X1830933Y-1615135D01*
X1824482Y-1614474D01*
X1671320Y-1614474D01*
X1667205Y-1613611D01*
X1663852Y-1611223D01*
X1661668Y-1607616D01*
X1661160Y-1603502D01*
X1661464Y-1599996D01*
X1660652Y-1589836D01*
X1658162Y-1580032D01*
X1654048Y-1570736D01*
X1648510Y-1562201D01*
X1641652Y-1554734D01*
X1633626Y-1548485D01*
X1624685Y-1543659D01*
X1615084Y-1540357D01*
X1605076Y-1538732D01*
X1594916Y-1538732D01*
X1584909Y-1540357D01*
X1575308Y-1543659D01*
X1566367Y-1548485D01*
X1558340Y-1554734D01*
X1551482Y-1562201D01*
X1545945Y-1570685D01*
X1541627Y-1580642D01*
X1535074Y-1600708D01*
X1533652Y-1603451D01*
X1529384Y-1609191D01*
X1526438Y-1612392D01*
X1464462Y-1674418D01*
X1462938Y-1675638D01*
X1452321Y-1682750D01*
X1450594Y-1683664D01*
X1438808Y-1688541D01*
X1436928Y-1689100D01*
X1424432Y-1691589D01*
X1422450Y-1691792D01*
X1245666Y-1691792D01*
X1241755Y-1691030D01*
X1238453Y-1688795D01*
X1236268Y-1685543D01*
X1235506Y-1681632D01*
X1235506Y-1645513D01*
X1234846Y-1639062D01*
X1233119Y-1633321D01*
X1230325Y-1628089D01*
X1226515Y-1623466D01*
X1221892Y-1619656D01*
X1216609Y-1616862D01*
X1210919Y-1615135D01*
X1204468Y-1614474D01*
X1025499Y-1614474D01*
X1019048Y-1615135D01*
X1013307Y-1616862D01*
X1008075Y-1619656D01*
X1003401Y-1622704D01*
X999998Y-1623314D01*
X996543Y-1622704D01*
X991920Y-1619656D01*
X986637Y-1616862D01*
X980948Y-1615135D01*
X974496Y-1614474D01*
X795477Y-1614474D01*
X789025Y-1615135D01*
X783336Y-1616862D01*
X778052Y-1619656D01*
X773430Y-1623466D01*
X769670Y-1628089D01*
X766826Y-1633321D01*
X765098Y-1639062D01*
X764489Y-1645513D01*
X764489Y-1824482D01*
X765098Y-1830933D01*
X766826Y-1836623D01*
X769670Y-1841906D01*
X773430Y-1846529D01*
X778052Y-1850339D01*
X783336Y-1853133D01*
X789025Y-1854860D01*
G37*
G36*
X1424990Y-1596491D02*
G01*
X1436166Y-1595577D01*
X1447088Y-1592986D01*
X1457452Y-1588668D01*
X1467002Y-1582826D01*
X1475536Y-1575511D01*
X1482801Y-1567027D01*
X1488694Y-1557426D01*
X1492961Y-1547063D01*
X1495602Y-1536192D01*
X1496466Y-1525016D01*
X1495602Y-1513789D01*
X1492961Y-1502918D01*
X1488694Y-1492554D01*
X1482801Y-1482953D01*
X1475536Y-1474470D01*
X1467002Y-1467154D01*
X1457452Y-1461312D01*
X1447088Y-1456994D01*
X1436166Y-1454404D01*
X1424990Y-1453489D01*
X1413814Y-1454404D01*
X1402791Y-1457045D01*
X1395222Y-1459992D01*
X1381455Y-1466494D01*
X1374546Y-1468374D01*
X1372616Y-1468628D01*
X1362354Y-1468983D01*
X1226058Y-1468983D01*
X1217726Y-1468170D01*
X1210513Y-1466697D01*
X1203502Y-1464513D01*
X1196695Y-1461617D01*
X1190244Y-1458112D01*
X1184148Y-1453997D01*
X1178509Y-1449273D01*
X987856Y-1258671D01*
X985723Y-1255522D01*
X984910Y-1251864D01*
X985418Y-1248156D01*
X987298Y-1244854D01*
X990244Y-1242517D01*
X997458Y-1238656D01*
X1002537Y-1234490D01*
X1005433Y-1232814D01*
X1008735Y-1232204D01*
X1012037Y-1232662D01*
X1019098Y-1234897D01*
X1025499Y-1235506D01*
X1204468Y-1235506D01*
X1210919Y-1234897D01*
X1216609Y-1233170D01*
X1221892Y-1230325D01*
X1226515Y-1226566D01*
X1230325Y-1221943D01*
X1233119Y-1216660D01*
X1234846Y-1210970D01*
X1235506Y-1204518D01*
X1235506Y-1025499D01*
X1234846Y-1019149D01*
X1232611Y-1012088D01*
X1232154Y-1008786D01*
X1232814Y-1005484D01*
X1234440Y-1002588D01*
X1238656Y-997458D01*
X1242415Y-990447D01*
X1244701Y-982878D01*
X1245514Y-974496D01*
X1245514Y-951179D01*
X1246276Y-947267D01*
X1248511Y-943965D01*
X1251813Y-941781D01*
X1255674Y-941019D01*
X1372666Y-941069D01*
X1383995Y-941628D01*
X1392377Y-942594D01*
X1415592Y-945896D01*
X1424940Y-946505D01*
X1436166Y-945591D01*
X1447088Y-943000D01*
X1457452Y-938682D01*
X1467002Y-932840D01*
X1475536Y-925525D01*
X1482801Y-917041D01*
X1488694Y-907440D01*
X1492961Y-897077D01*
X1495602Y-886206D01*
X1496466Y-875030D01*
X1495602Y-863803D01*
X1492961Y-852932D01*
X1488694Y-842568D01*
X1482801Y-832967D01*
X1475536Y-824484D01*
X1467002Y-817168D01*
X1457452Y-811326D01*
X1447088Y-807008D01*
X1436166Y-804418D01*
X1424990Y-803503D01*
X1413814Y-804418D01*
X1402892Y-807008D01*
X1392529Y-811326D01*
X1382928Y-817219D01*
X1375816Y-823112D01*
X1372717Y-826109D01*
X1369618Y-828141D01*
X1363980Y-828954D01*
X1255674Y-828954D01*
X1251813Y-828192D01*
X1248511Y-826008D01*
X1246276Y-822706D01*
X1245514Y-818794D01*
X1245514Y-795477D01*
X1244701Y-787095D01*
X1242415Y-779526D01*
X1238656Y-772515D01*
X1233627Y-766368D01*
X1227480Y-761339D01*
X1220520Y-757631D01*
X1212900Y-755294D01*
X1204518Y-754481D01*
X1025499Y-754481D01*
X1017117Y-755294D01*
X1009548Y-757631D01*
X1002537Y-761339D01*
X997458Y-765505D01*
X994562Y-767181D01*
X991260Y-767842D01*
X987958Y-767334D01*
X980846Y-765098D01*
X974496Y-764489D01*
X795477Y-764489D01*
X789025Y-765098D01*
X783336Y-766876D01*
X778052Y-769670D01*
X773430Y-773480D01*
X769670Y-778052D01*
X766826Y-783336D01*
X765098Y-789076D01*
X764489Y-795477D01*
X764489Y-974496D01*
X765098Y-980897D01*
X767334Y-987958D01*
X767791Y-991260D01*
X767181Y-994562D01*
X765505Y-997458D01*
X761339Y-1002537D01*
X757580Y-1009548D01*
X755294Y-1017117D01*
X754481Y-1025499D01*
X754481Y-1204518D01*
X755294Y-1212900D01*
X757580Y-1220470D01*
X761339Y-1227480D01*
X766368Y-1233627D01*
X772515Y-1238656D01*
X779526Y-1242415D01*
X787095Y-1244701D01*
X795477Y-1245514D01*
X833628Y-1245514D01*
X837488Y-1246276D01*
X840790Y-1248511D01*
X843026Y-1251813D01*
X845566Y-1258011D01*
X848156Y-1263446D01*
X853948Y-1274318D01*
X857046Y-1279499D01*
X863904Y-1289761D01*
X867511Y-1294587D01*
X875334Y-1304137D01*
X879348Y-1308557D01*
X1101394Y-1530604D01*
X1105814Y-1534617D01*
X1115415Y-1542491D01*
X1120241Y-1546047D01*
X1130503Y-1552905D01*
X1135634Y-1556004D01*
X1146556Y-1561846D01*
X1151991Y-1564386D01*
X1163421Y-1569110D01*
X1169060Y-1571142D01*
X1180896Y-1574749D01*
X1186688Y-1576222D01*
X1198829Y-1578610D01*
X1204772Y-1579473D01*
X1217066Y-1580692D01*
X1223060Y-1580997D01*
X1362710Y-1580997D01*
X1372616Y-1581353D01*
X1379423Y-1582775D01*
X1381455Y-1583486D01*
X1395222Y-1589989D01*
X1402791Y-1592935D01*
X1413814Y-1595577D01*
G37*
G36*
X1424990Y-1271473D02*
G01*
X1436166Y-1270609D01*
X1447088Y-1267968D01*
X1457452Y-1263700D01*
X1467002Y-1257808D01*
X1475536Y-1250543D01*
X1482801Y-1242009D01*
X1488744Y-1232357D01*
X1491996Y-1224889D01*
X1497126Y-1210564D01*
X1500682Y-1204366D01*
X1501902Y-1202791D01*
X1508912Y-1195273D01*
X1514195Y-1190040D01*
X1519936Y-1185418D01*
X1526082Y-1181354D01*
X1532585Y-1177950D01*
X1539443Y-1175156D01*
X1546504Y-1173073D01*
X1553718Y-1171702D01*
X1561033Y-1170990D01*
X1594307Y-1170990D01*
X1598218Y-1171803D01*
X1601520Y-1173988D01*
X1603705Y-1177290D01*
X1604467Y-1181150D01*
X1604467Y-1204518D01*
X1605280Y-1212900D01*
X1607616Y-1220470D01*
X1611325Y-1227480D01*
X1616354Y-1233627D01*
X1622501Y-1238656D01*
X1629511Y-1242415D01*
X1637080Y-1244701D01*
X1645462Y-1245514D01*
X1824482Y-1245514D01*
X1832864Y-1244701D01*
X1840484Y-1242415D01*
X1847443Y-1238656D01*
X1853590Y-1233627D01*
X1858619Y-1227480D01*
X1862378Y-1220470D01*
X1864664Y-1212900D01*
X1865477Y-1204518D01*
X1865477Y-1025499D01*
X1864664Y-1017117D01*
X1862378Y-1009548D01*
X1858619Y-1002537D01*
X1854454Y-997458D01*
X1852828Y-994562D01*
X1852168Y-991260D01*
X1852625Y-987958D01*
X1854911Y-980846D01*
X1855520Y-974496D01*
X1855520Y-795477D01*
X1854911Y-789025D01*
X1853133Y-783336D01*
X1850339Y-778052D01*
X1846529Y-773430D01*
X1841957Y-769670D01*
X1836674Y-766826D01*
X1830984Y-765098D01*
X1824532Y-764489D01*
X1645513Y-764489D01*
X1639062Y-765098D01*
X1633372Y-766826D01*
X1628089Y-769670D01*
X1623466Y-773430D01*
X1619707Y-778052D01*
X1616862Y-783336D01*
X1615135Y-789025D01*
X1614525Y-795477D01*
X1614525Y-974496D01*
X1615135Y-980846D01*
X1617370Y-987907D01*
X1617827Y-991260D01*
X1617218Y-994511D01*
X1615541Y-997407D01*
X1611325Y-1002537D01*
X1607616Y-1009548D01*
X1605280Y-1017117D01*
X1604467Y-1025499D01*
X1604467Y-1048816D01*
X1603705Y-1052728D01*
X1601520Y-1056030D01*
X1598218Y-1058214D01*
X1594307Y-1058976D01*
X1558036Y-1058976D01*
X1552041Y-1059281D01*
X1539748Y-1060500D01*
X1533804Y-1061364D01*
X1521714Y-1063802D01*
X1515872Y-1065276D01*
X1504035Y-1068832D01*
X1498396Y-1070864D01*
X1486966Y-1075588D01*
X1481531Y-1078179D01*
X1470660Y-1083970D01*
X1465478Y-1087069D01*
X1455216Y-1093927D01*
X1450390Y-1097534D01*
X1440840Y-1105357D01*
X1436370Y-1109370D01*
X1429461Y-1116330D01*
X1422196Y-1123086D01*
X1416354Y-1126947D01*
X1414424Y-1127861D01*
X1400098Y-1132992D01*
X1392631Y-1136243D01*
X1382979Y-1142187D01*
X1374444Y-1149451D01*
X1367180Y-1157986D01*
X1361287Y-1167536D01*
X1357020Y-1177899D01*
X1354378Y-1188821D01*
X1353515Y-1199997D01*
X1354378Y-1211173D01*
X1357020Y-1222095D01*
X1361287Y-1232458D01*
X1367180Y-1242009D01*
X1374444Y-1250543D01*
X1382979Y-1257808D01*
X1392529Y-1263700D01*
X1402892Y-1267968D01*
X1413814Y-1270609D01*
G37*
G36*
X175463Y-1235506D02*
G01*
X354482Y-1235506D01*
X360934Y-1234897D01*
X366623Y-1233170D01*
X371906Y-1230325D01*
X376529Y-1226566D01*
X380288Y-1221943D01*
X383133Y-1216660D01*
X384860Y-1210970D01*
X385470Y-1204518D01*
X385470Y-1025499D01*
X384860Y-1019048D01*
X383133Y-1013358D01*
X380288Y-1008075D01*
X377240Y-1003401D01*
X376631Y-999998D01*
X377240Y-996594D01*
X380288Y-991920D01*
X383133Y-986637D01*
X384860Y-980948D01*
X385470Y-974496D01*
X385470Y-938174D01*
X386283Y-934262D01*
X388467Y-930960D01*
X391769Y-928776D01*
X395630Y-928014D01*
X527558Y-928014D01*
X536346Y-927201D01*
X558596Y-922782D01*
X567029Y-920242D01*
X588010Y-911606D01*
X595782Y-907491D01*
X614629Y-894892D01*
X621893Y-888898D01*
X800557Y-710234D01*
X802132Y-708964D01*
X812596Y-702005D01*
X814324Y-701040D01*
X825957Y-696214D01*
X827887Y-695655D01*
X840232Y-693216D01*
X842213Y-693013D01*
X1514094Y-693013D01*
X1521917Y-693521D01*
X1527911Y-694994D01*
X1529791Y-695807D01*
X1540967Y-701700D01*
X1550162Y-706221D01*
X1559915Y-709625D01*
X1569923Y-711250D01*
X1580083Y-711250D01*
X1590090Y-709625D01*
X1599692Y-706323D01*
X1608632Y-701497D01*
X1616659Y-695248D01*
X1623517Y-687781D01*
X1629054Y-679246D01*
X1633169Y-669950D01*
X1635658Y-660146D01*
X1636471Y-650036D01*
X1635658Y-639876D01*
X1633169Y-630072D01*
X1629054Y-620776D01*
X1623517Y-612241D01*
X1616659Y-604774D01*
X1608632Y-598525D01*
X1599692Y-593699D01*
X1590090Y-590397D01*
X1580083Y-588772D01*
X1569923Y-588772D01*
X1559915Y-590397D01*
X1550009Y-593801D01*
X1528368Y-604824D01*
X1525422Y-605790D01*
X1518513Y-606806D01*
X1514094Y-607009D01*
X1491792Y-607009D01*
X1487627Y-606094D01*
X1484172Y-603554D01*
X1482090Y-599795D01*
X1481683Y-595579D01*
X1483106Y-591515D01*
X1488694Y-582472D01*
X1492961Y-572109D01*
X1495602Y-561187D01*
X1496466Y-550011D01*
X1495602Y-538835D01*
X1492961Y-527913D01*
X1488694Y-517550D01*
X1482801Y-508000D01*
X1475536Y-499465D01*
X1467002Y-492201D01*
X1457350Y-486257D01*
X1449882Y-483006D01*
X1435557Y-477875D01*
X1429359Y-474319D01*
X1427784Y-473100D01*
X1420266Y-466090D01*
X1383538Y-429361D01*
X1379118Y-425348D01*
X1369568Y-417525D01*
X1364742Y-413918D01*
X1354480Y-407060D01*
X1349298Y-403961D01*
X1338427Y-398119D01*
X1332992Y-395579D01*
X1321562Y-390855D01*
X1315923Y-388823D01*
X1304086Y-385216D01*
X1298244Y-383794D01*
X1286103Y-381355D01*
X1280210Y-380492D01*
X1267866Y-379272D01*
X1261922Y-378968D01*
X1243126Y-378968D01*
X1239418Y-378256D01*
X1236218Y-376275D01*
X1233982Y-373278D01*
X1232966Y-369620D01*
X1233373Y-365861D01*
X1234897Y-360934D01*
X1235506Y-354482D01*
X1235506Y-175514D01*
X1234897Y-169062D01*
X1233170Y-163372D01*
X1230325Y-158089D01*
X1226566Y-153466D01*
X1221943Y-149707D01*
X1216660Y-146862D01*
X1210970Y-145135D01*
X1204518Y-144526D01*
X1025499Y-144526D01*
X1019149Y-145135D01*
X1012037Y-147370D01*
X1008735Y-147828D01*
X1005433Y-147218D01*
X1002537Y-145542D01*
X997458Y-141376D01*
X990447Y-137617D01*
X982878Y-135331D01*
X974496Y-134518D01*
X795477Y-134518D01*
X787095Y-135331D01*
X779526Y-137617D01*
X772515Y-141376D01*
X766368Y-146405D01*
X761339Y-152552D01*
X757580Y-159512D01*
X755294Y-167132D01*
X754481Y-175514D01*
X754481Y-354533D01*
X755294Y-362915D01*
X757580Y-370484D01*
X761339Y-377494D01*
X766368Y-383641D01*
X772515Y-388670D01*
X779526Y-392379D01*
X787095Y-394716D01*
X795477Y-395528D01*
X819607Y-395528D01*
X823163Y-396138D01*
X826262Y-397967D01*
X828548Y-400761D01*
X829665Y-404164D01*
X830326Y-408533D01*
X832459Y-415798D01*
X841502Y-437692D01*
X845210Y-444398D01*
X846328Y-446074D01*
X851153Y-452120D01*
X867918Y-468884D01*
X873912Y-473659D01*
X875588Y-474776D01*
X882396Y-478485D01*
X904290Y-487578D01*
X913587Y-490118D01*
X921308Y-490931D01*
X1258874Y-490982D01*
X1267206Y-491794D01*
X1274419Y-493318D01*
X1281480Y-495503D01*
X1288237Y-498348D01*
X1294739Y-501853D01*
X1300835Y-505968D01*
X1306474Y-510692D01*
X1341323Y-545541D01*
X1348079Y-552805D01*
X1351940Y-558647D01*
X1352854Y-560578D01*
X1357985Y-574903D01*
X1361236Y-582371D01*
X1366875Y-591515D01*
X1368298Y-595579D01*
X1367891Y-599795D01*
X1365808Y-603554D01*
X1362354Y-606094D01*
X1358188Y-607009D01*
X837437Y-607009D01*
X828649Y-607822D01*
X806399Y-612241D01*
X797966Y-614730D01*
X777036Y-623417D01*
X771753Y-625297D01*
X767791Y-624890D01*
X764336Y-622960D01*
X761847Y-619861D01*
X758139Y-605028D01*
X754075Y-595731D01*
X748487Y-587248D01*
X741629Y-579780D01*
X733602Y-573532D01*
X724509Y-568604D01*
X719480Y-566674D01*
X698957Y-560070D01*
X696214Y-558647D01*
X690575Y-554532D01*
X687374Y-551535D01*
X535228Y-399440D01*
X526999Y-387400D01*
X526034Y-385673D01*
X521258Y-374040D01*
X520649Y-372110D01*
X518210Y-359765D01*
X518007Y-357784D01*
X518058Y-310184D01*
X518515Y-303072D01*
X520039Y-297078D01*
X520750Y-295249D01*
X529996Y-277520D01*
X533146Y-270052D01*
X535635Y-260146D01*
X536498Y-250037D01*
X535635Y-239877D01*
X533146Y-230073D01*
X529082Y-220776D01*
X523493Y-212242D01*
X516635Y-204774D01*
X508609Y-198526D01*
X499719Y-193700D01*
X490118Y-190398D01*
X480059Y-188772D01*
X469950Y-188772D01*
X459892Y-190398D01*
X450291Y-193700D01*
X441401Y-198526D01*
X433374Y-204774D01*
X426516Y-212242D01*
X420928Y-220776D01*
X416864Y-230073D01*
X414375Y-239877D01*
X413512Y-250037D01*
X414375Y-260146D01*
X416864Y-270052D01*
X420014Y-277571D01*
X429818Y-296621D01*
X430784Y-299567D01*
X431850Y-306476D01*
X432003Y-310896D01*
X432003Y-362559D01*
X432816Y-371348D01*
X437235Y-393598D01*
X439724Y-402031D01*
X448411Y-422960D01*
X452526Y-430784D01*
X465124Y-449580D01*
X471068Y-456895D01*
X626516Y-612343D01*
X631698Y-618236D01*
X634847Y-623519D01*
X635660Y-625348D01*
X641756Y-644702D01*
X645922Y-654253D01*
X651510Y-662736D01*
X658368Y-670204D01*
X666394Y-676452D01*
X675284Y-681278D01*
X684174Y-684326D01*
X687679Y-686409D01*
X690118Y-689711D01*
X691032Y-693674D01*
X690321Y-697687D01*
X688035Y-701141D01*
X564438Y-824737D01*
X562864Y-826008D01*
X552399Y-833018D01*
X550672Y-833932D01*
X539038Y-838758D01*
X537108Y-839317D01*
X524814Y-841806D01*
X522833Y-842010D01*
X395630Y-842010D01*
X391769Y-841197D01*
X388467Y-839012D01*
X386283Y-835710D01*
X385470Y-831850D01*
X385470Y-795477D01*
X384860Y-789076D01*
X383133Y-783336D01*
X380288Y-778052D01*
X376529Y-773480D01*
X371906Y-769670D01*
X366623Y-766876D01*
X360934Y-765098D01*
X354482Y-764489D01*
X175463Y-764489D01*
X169062Y-765098D01*
X163322Y-766876D01*
X158038Y-769670D01*
X153466Y-773480D01*
X149656Y-778052D01*
X146862Y-783336D01*
X145084Y-789076D01*
X144475Y-795477D01*
X144475Y-974496D01*
X145084Y-980948D01*
X146862Y-986637D01*
X149656Y-991920D01*
X152704Y-996594D01*
X153314Y-999998D01*
X152704Y-1003401D01*
X149656Y-1008075D01*
X146862Y-1013358D01*
X145084Y-1019048D01*
X144475Y-1025499D01*
X144475Y-1204518D01*
X145084Y-1210970D01*
X146862Y-1216660D01*
X149656Y-1221943D01*
X153466Y-1226566D01*
X158038Y-1230325D01*
X163322Y-1233170D01*
X169062Y-1234897D01*
G37*
G36*
X1719935Y-736244D02*
G01*
X1730044Y-736244D01*
X1740103Y-734618D01*
X1749704Y-731316D01*
X1758594Y-726490D01*
X1766620Y-720242D01*
X1773478Y-712774D01*
X1779066Y-704240D01*
X1783130Y-694944D01*
X1785620Y-685139D01*
X1786483Y-674928D01*
X1785874Y-666445D01*
X1784908Y-659790D01*
X1783537Y-652272D01*
X1779270Y-632714D01*
X1778152Y-621792D01*
X1778000Y-616915D01*
X1778000Y-395681D01*
X1778762Y-391769D01*
X1780997Y-388467D01*
X1784248Y-386283D01*
X1788160Y-385521D01*
X1824532Y-385521D01*
X1830984Y-384860D01*
X1836674Y-383133D01*
X1841957Y-380339D01*
X1846529Y-376529D01*
X1850339Y-371906D01*
X1853133Y-366674D01*
X1854911Y-360934D01*
X1855520Y-354482D01*
X1855520Y-175514D01*
X1854911Y-169062D01*
X1853133Y-163372D01*
X1850339Y-158089D01*
X1846529Y-153466D01*
X1841957Y-149707D01*
X1836674Y-146862D01*
X1830984Y-145135D01*
X1824532Y-144526D01*
X1645513Y-144526D01*
X1639062Y-145135D01*
X1633372Y-146862D01*
X1628089Y-149707D01*
X1623466Y-153466D01*
X1619707Y-158089D01*
X1616862Y-163372D01*
X1615135Y-169062D01*
X1614525Y-175514D01*
X1614525Y-354482D01*
X1615135Y-360934D01*
X1616862Y-366674D01*
X1619707Y-371906D01*
X1623466Y-376529D01*
X1628089Y-380339D01*
X1633372Y-383133D01*
X1639062Y-384860D01*
X1645513Y-385521D01*
X1681835Y-385521D01*
X1685696Y-386283D01*
X1688998Y-388467D01*
X1691233Y-391769D01*
X1691995Y-395681D01*
X1691995Y-614680D01*
X1691843Y-617474D01*
X1690979Y-621080D01*
X1688896Y-624128D01*
X1681683Y-631342D01*
X1676552Y-637133D01*
X1670913Y-645769D01*
X1666849Y-655066D01*
X1664360Y-664870D01*
X1663496Y-675030D01*
X1664360Y-685139D01*
X1666849Y-694944D01*
X1670913Y-704240D01*
X1676501Y-712774D01*
X1683359Y-720242D01*
X1691386Y-726490D01*
X1700275Y-731316D01*
X1709877Y-734618D01*
G37*
G36*
X175463Y-385521D02*
G01*
X354482Y-385521D01*
X360934Y-384860D01*
X366623Y-383133D01*
X371906Y-380339D01*
X376529Y-376529D01*
X380288Y-371957D01*
X383133Y-366674D01*
X384860Y-360934D01*
X385470Y-354533D01*
X385470Y-175514D01*
X384860Y-169062D01*
X383133Y-163372D01*
X380288Y-158089D01*
X376529Y-153466D01*
X371906Y-149707D01*
X366623Y-146862D01*
X360934Y-145135D01*
X354482Y-144526D01*
X175463Y-144526D01*
X169062Y-145135D01*
X163322Y-146862D01*
X158038Y-149707D01*
X153466Y-153466D01*
X149656Y-158089D01*
X146862Y-163372D01*
X145084Y-169062D01*
X144475Y-175514D01*
X144475Y-354533D01*
X145084Y-360934D01*
X146862Y-366674D01*
X149656Y-371957D01*
X153466Y-376529D01*
X158038Y-380339D01*
X163322Y-383133D01*
X169062Y-384860D01*
G37*

%LPD*%
G36*
X1561490Y-622096D02*
G01*
X1541830Y-632307D01*
X1537411Y-634136D01*
X1532636Y-635558D01*
X1527200Y-636625D01*
X1520748Y-637286D01*
X1513027Y-637489D01*
X1513027Y-662482D01*
X1520748Y-662736D01*
X1527200Y-663397D01*
X1532636Y-664464D01*
X1537411Y-665886D01*
X1541780Y-667664D01*
X1561490Y-677926D01*
X1590497Y-650036D01*
G37*
G36*
X1722475Y-614680D02*
G01*
X1722221Y-621233D01*
X1721510Y-626770D01*
X1720240Y-631393D01*
X1718513Y-635406D01*
X1716278Y-638962D01*
X1713636Y-642315D01*
X1702968Y-653237D01*
X1719986Y-689660D01*
X1755749Y-671220D01*
X1754733Y-664006D01*
X1750009Y-642213D01*
X1748993Y-636778D01*
X1748180Y-630631D01*
X1747672Y-623366D01*
X1747520Y-614680D01*
G37*
G36*
X453186Y-1702968D02*
G01*
X442315Y-1713636D01*
X438962Y-1716278D01*
X435406Y-1718513D01*
X431444Y-1720240D01*
X426770Y-1721510D01*
X421233Y-1722221D01*
X414680Y-1722475D01*
X414680Y-1747520D01*
X423367Y-1747672D01*
X430580Y-1748180D01*
X436778Y-1748993D01*
X447344Y-1751126D01*
X457860Y-1753565D01*
X464007Y-1754733D01*
X471220Y-1755749D01*
X489661Y-1719986D01*
G37*
G36*
X1403197Y-852932D02*
G01*
X1395933Y-859790D01*
X1392580Y-862482D01*
X1389126Y-864717D01*
X1385417Y-866444D01*
X1381302Y-867816D01*
X1376578Y-868781D01*
X1371092Y-869289D01*
X1364640Y-869492D01*
X1364640Y-900480D01*
X1380642Y-900836D01*
X1392478Y-901750D01*
X1421180Y-905764D01*
X1439672Y-870000D01*
G37*
G36*
X1457858Y-1145184D02*
G01*
X1452372Y-1150518D01*
X1447495Y-1154785D01*
X1443024Y-1158240D01*
X1438859Y-1160932D01*
X1434744Y-1163218D01*
X1425854Y-1166876D01*
X1414830Y-1170736D01*
X1414018Y-1210970D01*
X1454251Y-1210157D01*
X1458112Y-1199134D01*
X1461770Y-1190244D01*
X1464056Y-1186129D01*
X1466748Y-1181963D01*
X1470202Y-1177493D01*
X1474470Y-1172616D01*
X1479804Y-1167130D01*
G37*
G36*
X1411478Y-1497076D02*
G01*
X1396441Y-1504188D01*
X1392072Y-1505864D01*
X1387551Y-1507185D01*
X1382674Y-1508201D01*
X1377137Y-1508912D01*
X1370634Y-1509369D01*
X1363014Y-1509471D01*
X1363014Y-1540510D01*
X1370634Y-1540611D01*
X1377137Y-1541068D01*
X1382674Y-1541780D01*
X1387551Y-1542796D01*
X1392072Y-1544116D01*
X1396441Y-1545793D01*
X1411478Y-1552905D01*
X1440484Y-1525016D01*
G37*
G36*
X1610969Y-1589024D02*
G01*
X1570736Y-1589786D01*
X1563979Y-1610868D01*
X1562100Y-1615186D01*
X1559712Y-1619605D01*
X1556562Y-1624177D01*
X1552498Y-1629206D01*
X1547164Y-1634845D01*
X1565148Y-1652778D01*
X1570736Y-1647494D01*
X1575765Y-1643380D01*
X1580337Y-1640230D01*
X1584756Y-1637842D01*
X1589074Y-1636014D01*
X1610156Y-1629257D01*
G37*
G36*
X1392123Y-495198D02*
G01*
X1370177Y-517143D01*
X1375511Y-522630D01*
X1379778Y-527507D01*
X1383233Y-531977D01*
X1385925Y-536143D01*
X1388211Y-540258D01*
X1391869Y-549148D01*
X1395730Y-560171D01*
X1435963Y-560984D01*
X1435150Y-520750D01*
X1424127Y-516890D01*
X1415237Y-513232D01*
X1411122Y-510946D01*
X1406956Y-508254D01*
X1402486Y-504799D01*
X1397609Y-500532D01*
G37*
G36*
X665022Y-572312D02*
G01*
X647344Y-589991D01*
X652627Y-595630D01*
X656742Y-600659D01*
X659841Y-605231D01*
X662178Y-609650D01*
X664006Y-614019D01*
X670712Y-635152D01*
X710946Y-635965D01*
X710184Y-595731D01*
X689000Y-589026D01*
X684631Y-587197D01*
X680262Y-584809D01*
X675640Y-581710D01*
X670610Y-577596D01*
G37*
G36*
X474980Y-234492D02*
G01*
X447090Y-263499D01*
X457301Y-283210D01*
X459130Y-287578D01*
X460552Y-292354D01*
X461619Y-297840D01*
X462280Y-304241D01*
X462483Y-312013D01*
X487527Y-312013D01*
X487730Y-304241D01*
X488391Y-297840D01*
X489458Y-292354D01*
X490880Y-287578D01*
X494792Y-278892D01*
X502920Y-263499D01*
G37*
D10*
X265003Y-884996D02*
G01*
X528045Y-884996D01*
X550659Y-880498D01*
X571959Y-871674D01*
X591131Y-858865D01*
X773866Y-676130D01*
X793038Y-663320D01*
X814339Y-654497D01*
X836952Y-649998D01*
X1574998Y-649998D01*
X1734995Y-265003D02*
G01*
X1734995Y-665002D01*
X1724997Y-674999D01*
X265000Y-1734995D02*
G01*
X465000Y-1734995D01*
X475005Y-1724990D01*
D11*
X1424990Y-875004D02*
G01*
X1415008Y-884986D01*
X1115006Y-884986D01*
X1734995Y-1115006D02*
G01*
X1557799Y-1115006D01*
X1544993Y-1116269D01*
X1532371Y-1118778D01*
X1520055Y-1122514D01*
X1508165Y-1127439D01*
X1496816Y-1133505D01*
X1486115Y-1140655D01*
X1476169Y-1148819D01*
X1424990Y-1199997D01*
X884986Y-1115006D02*
G01*
X884986Y-1187170D01*
X886249Y-1199977D01*
X888758Y-1212598D01*
X892495Y-1224914D01*
X897420Y-1236804D01*
X903485Y-1248153D01*
X910635Y-1258854D01*
X918799Y-1268801D01*
X1141178Y-1491178D01*
X1151125Y-1499341D01*
X1161826Y-1506491D01*
X1173175Y-1512557D01*
X1185064Y-1517482D01*
X1197381Y-1521218D01*
X1210002Y-1523728D01*
X1222809Y-1524990D01*
X1424990Y-1524990D01*
D12*
X1115009Y-1734997D02*
G01*
X1427708Y-1734997D01*
X1450500Y-1730463D01*
X1471970Y-1721571D01*
X1491292Y-1708660D01*
X1599994Y-1599958D01*
D11*
X884986Y-265000D02*
G01*
X884986Y-396422D01*
X892314Y-414116D01*
X905857Y-427659D01*
X923551Y-434987D01*
X1262148Y-434987D01*
X1274955Y-436250D01*
X1287576Y-438759D01*
X1299893Y-442495D01*
X1311782Y-447420D01*
X1323131Y-453486D01*
X1333832Y-460636D01*
X1343779Y-468800D01*
X1424990Y-550011D01*
D10*
X700001Y-624992D02*
G01*
X501136Y-426128D01*
X488327Y-406956D01*
X479503Y-385655D01*
X475005Y-363042D01*
X475005Y-250012D01*
D13*
G01*
X264998Y-884986D03*
G01*
X884986Y-884986D03*
G01*
X884986Y-264998D03*
G01*
X264998Y-264998D03*
G01*
X1734997Y-264998D03*
G01*
X1115009Y-264998D03*
G01*
X1115009Y-884986D03*
G01*
X1734997Y-884986D03*
G01*
X1115009Y-1734997D03*
G01*
X1734997Y-1734997D03*
G01*
X1734997Y-1115009D03*
G01*
X1115009Y-1115009D03*
G01*
X264998Y-1734997D03*
G01*
X884986Y-1734997D03*
G01*
X884986Y-1115009D03*
G01*
X264998Y-1115009D03*
D14*
G01*
X1424990Y-1524990D03*
G01*
X1424990Y-875004D03*
G01*
X1424990Y-550011D03*
G01*
X1424990Y-1199997D03*
G01*
X1575003Y-650011D03*
G01*
X475005Y-1724990D03*
G01*
X1599996Y-1599971D03*
G01*
X1724990Y-675004D03*
G01*
X475005Y-250012D03*
G01*
X699998Y-624992D03*
G01*
X1799996Y-50012D03*
G01*
X199999Y-50012D03*
G01*
X650011Y-175005D03*
G01*
X1575003Y-399999D03*
G01*
X1950008Y-675004D03*
G01*
X1950008Y-1224991D03*
G01*
X1950008Y-1799996D03*
G01*
X1799970Y-1949957D03*
G01*
X199999Y-1950008D03*
G01*
X50012Y-1224991D03*
G01*
X50012Y-675004D03*
G01*
X1575003Y-775004D03*
G01*
X1575003Y-999997D03*
G01*
X1575003Y-1374978D03*
G01*
X475005Y-1124991D03*
G01*
X499998Y-1950008D03*
G01*
X1499996Y-1950008D03*
G01*
X399999Y-1624990D03*
G01*
X299999Y-1450009D03*
G01*
X774979Y-575005D03*
G01*
X999997Y-724992D03*
G01*
X775004Y-1274978D03*
G01*
X1024991Y-1550009D03*
M02*
