G04 Layer: TopSilkscreenLayer*
G04 EasyEDA v6.5.38, 2023-11-24 15:43:32*
G04 09673f8317ad448189dc8d57b7b7ae53,9a5be75d700b4a6385dc1106f27949ae,10*
G04 Gerber Generator version 0.2*
G04 Scale: 100 percent, Rotated: No, Reflected: No *
G04 Dimensions in millimeters *
G04 leading zeros omitted , absolute positions ,4 integer and 5 decimal *
%FSLAX45Y45*%
%MOMM*%

%ADD10C,0.1500*%
%ADD11C,0.1400*%
%ADD12C,0.1524*%
%ADD13C,0.1000*%
%ADD14C,0.2540*%
%ADD15C,0.2000*%
%ADD16C,0.0158*%

%LPD*%
D10*
X1006347Y-1904237D02*
G01*
X1041400Y-1904237D01*
X1022350Y-1929892D01*
X1031747Y-1929892D01*
X1038097Y-1932939D01*
X1041400Y-1936242D01*
X1044447Y-1945639D01*
X1044447Y-1951989D01*
X1041400Y-1961642D01*
X1035050Y-1967992D01*
X1025397Y-1971294D01*
X1016000Y-1971294D01*
X1006347Y-1967992D01*
X1003300Y-1964689D01*
X999997Y-1958339D01*
X56789Y-1829409D02*
G01*
X25039Y-1873859D01*
X72791Y-1873859D01*
X56789Y-1829409D02*
G01*
X56789Y-1896211D01*
X24892Y-942086D02*
G01*
X31242Y-938784D01*
X40894Y-929386D01*
X40894Y-996187D01*
X1928223Y-120213D02*
G01*
X1928223Y-117165D01*
X1931271Y-110815D01*
X1934573Y-107513D01*
X1940923Y-104465D01*
X1953623Y-104465D01*
X1959973Y-107513D01*
X1963275Y-110815D01*
X1966323Y-117165D01*
X1966323Y-123515D01*
X1963275Y-129865D01*
X1956925Y-139263D01*
X1924921Y-171267D01*
X1969625Y-171267D01*
D11*
X1920265Y-1621843D02*
G01*
X1916963Y-1621843D01*
X1910613Y-1618541D01*
X1907565Y-1615493D01*
X1904263Y-1609143D01*
X1904263Y-1596443D01*
X1907565Y-1590093D01*
X1910613Y-1586791D01*
X1916963Y-1583743D01*
X1923567Y-1583743D01*
X1929917Y-1586791D01*
X1939315Y-1593141D01*
X1971065Y-1624891D01*
X1971065Y-1580441D01*
X1926615Y-1559359D02*
G01*
X1971065Y-1524561D01*
X1926615Y-1524561D02*
G01*
X1971065Y-1559359D01*
X1920265Y-1500177D02*
G01*
X1916963Y-1500177D01*
X1910613Y-1497129D01*
X1907565Y-1493827D01*
X1904263Y-1487477D01*
X1904263Y-1474777D01*
X1907565Y-1468427D01*
X1910613Y-1465379D01*
X1916963Y-1462077D01*
X1923567Y-1462077D01*
X1929917Y-1465379D01*
X1939315Y-1471729D01*
X1971065Y-1503479D01*
X1971065Y-1459029D01*
X1904263Y-1388925D02*
G01*
X1971065Y-1388925D01*
X1904263Y-1388925D02*
G01*
X1971065Y-1363525D01*
X1904263Y-1338125D02*
G01*
X1971065Y-1363525D01*
X1904263Y-1338125D02*
G01*
X1971065Y-1338125D01*
X1904263Y-1317043D02*
G01*
X1907565Y-1313741D01*
X1904263Y-1310693D01*
X1901215Y-1313741D01*
X1904263Y-1317043D01*
X1926615Y-1313741D02*
G01*
X1971065Y-1313741D01*
X1936267Y-1251511D02*
G01*
X1929917Y-1257861D01*
X1926615Y-1264211D01*
X1926615Y-1273609D01*
X1929917Y-1280213D01*
X1936267Y-1286563D01*
X1945665Y-1289611D01*
X1952015Y-1289611D01*
X1961667Y-1286563D01*
X1968017Y-1280213D01*
X1971065Y-1273609D01*
X1971065Y-1264211D01*
X1968017Y-1257861D01*
X1961667Y-1251511D01*
X1926615Y-1230429D02*
G01*
X1971065Y-1230429D01*
X1945665Y-1230429D02*
G01*
X1936267Y-1227381D01*
X1929917Y-1221031D01*
X1926615Y-1214427D01*
X1926615Y-1205029D01*
X1926615Y-1168199D02*
G01*
X1929917Y-1174549D01*
X1936267Y-1180899D01*
X1945665Y-1183947D01*
X1952015Y-1183947D01*
X1961667Y-1180899D01*
X1968017Y-1174549D01*
X1971065Y-1168199D01*
X1971065Y-1158547D01*
X1968017Y-1152197D01*
X1961667Y-1145847D01*
X1952015Y-1142545D01*
X1945665Y-1142545D01*
X1936267Y-1145847D01*
X1929917Y-1152197D01*
X1926615Y-1158547D01*
X1926615Y-1168199D01*
X1904263Y-1121717D02*
G01*
X1971065Y-1121717D01*
X1904263Y-1121717D02*
G01*
X1904263Y-1080315D01*
X1936267Y-1121717D02*
G01*
X1936267Y-1096063D01*
X1920265Y-1011481D02*
G01*
X1913915Y-1014783D01*
X1907565Y-1021133D01*
X1904263Y-1027483D01*
X1904263Y-1040183D01*
X1907565Y-1046533D01*
X1913915Y-1052883D01*
X1920265Y-1056185D01*
X1929917Y-1059233D01*
X1945665Y-1059233D01*
X1955317Y-1056185D01*
X1961667Y-1052883D01*
X1968017Y-1046533D01*
X1971065Y-1040183D01*
X1971065Y-1027483D01*
X1968017Y-1021133D01*
X1961667Y-1014783D01*
X1955317Y-1011481D01*
X1913915Y-896927D02*
G01*
X1907565Y-903277D01*
X1904263Y-912929D01*
X1904263Y-925629D01*
X1907565Y-935281D01*
X1913915Y-941631D01*
X1920265Y-941631D01*
X1926615Y-938329D01*
X1929917Y-935281D01*
X1932965Y-928931D01*
X1939315Y-909627D01*
X1942617Y-903277D01*
X1945665Y-900229D01*
X1952015Y-896927D01*
X1961667Y-896927D01*
X1968017Y-903277D01*
X1971065Y-912929D01*
X1971065Y-925629D01*
X1968017Y-935281D01*
X1961667Y-941631D01*
X1904263Y-876099D02*
G01*
X1907565Y-872797D01*
X1904263Y-869749D01*
X1901215Y-872797D01*
X1904263Y-876099D01*
X1926615Y-872797D02*
G01*
X1971065Y-872797D01*
X1904263Y-848667D02*
G01*
X1971065Y-848667D01*
X1904263Y-848667D02*
G01*
X1904263Y-819965D01*
X1907565Y-810567D01*
X1910613Y-807265D01*
X1916963Y-804217D01*
X1926615Y-804217D01*
X1932965Y-807265D01*
X1936267Y-810567D01*
X1939315Y-819965D01*
X1939315Y-848667D01*
X1904263Y-783135D02*
G01*
X1971065Y-783135D01*
X1904263Y-783135D02*
G01*
X1971065Y-757735D01*
X1904263Y-732081D02*
G01*
X1971065Y-757735D01*
X1904263Y-732081D02*
G01*
X1971065Y-732081D01*
X1904263Y-662231D02*
G01*
X1971065Y-662231D01*
X1904263Y-662231D02*
G01*
X1904263Y-633529D01*
X1907565Y-623877D01*
X1910613Y-620829D01*
X1916963Y-617527D01*
X1923567Y-617527D01*
X1929917Y-620829D01*
X1932965Y-623877D01*
X1936267Y-633529D01*
X1936267Y-662231D02*
G01*
X1936267Y-633529D01*
X1939315Y-623877D01*
X1942617Y-620829D01*
X1948967Y-617527D01*
X1958365Y-617527D01*
X1964715Y-620829D01*
X1968017Y-623877D01*
X1971065Y-633529D01*
X1971065Y-662231D01*
X1926615Y-580697D02*
G01*
X1929917Y-587047D01*
X1936267Y-593397D01*
X1945665Y-596699D01*
X1952015Y-596699D01*
X1961667Y-593397D01*
X1968017Y-587047D01*
X1971065Y-580697D01*
X1971065Y-571299D01*
X1968017Y-564695D01*
X1961667Y-558345D01*
X1952015Y-555297D01*
X1945665Y-555297D01*
X1936267Y-558345D01*
X1929917Y-564695D01*
X1926615Y-571299D01*
X1926615Y-580697D01*
X1926615Y-496115D02*
G01*
X1971065Y-496115D01*
X1936267Y-496115D02*
G01*
X1929917Y-502465D01*
X1926615Y-508815D01*
X1926615Y-518467D01*
X1929917Y-524817D01*
X1936267Y-531167D01*
X1945665Y-534215D01*
X1952015Y-534215D01*
X1961667Y-531167D01*
X1968017Y-524817D01*
X1971065Y-518467D01*
X1971065Y-508815D01*
X1968017Y-502465D01*
X1961667Y-496115D01*
X1926615Y-475033D02*
G01*
X1971065Y-475033D01*
X1945665Y-475033D02*
G01*
X1936267Y-471985D01*
X1929917Y-465635D01*
X1926615Y-459285D01*
X1926615Y-449633D01*
X1904263Y-390451D02*
G01*
X1971065Y-390451D01*
X1936267Y-390451D02*
G01*
X1929917Y-396801D01*
X1926615Y-403151D01*
X1926615Y-412803D01*
X1929917Y-419153D01*
X1936267Y-425503D01*
X1945665Y-428551D01*
X1952015Y-428551D01*
X1961667Y-425503D01*
X1968017Y-419153D01*
X1971065Y-412803D01*
X1971065Y-403151D01*
X1968017Y-396801D01*
X1961667Y-390451D01*
D12*
X475000Y-59684D02*
G01*
X475000Y-168650D01*
X475000Y-59684D02*
G01*
X511322Y-59684D01*
X527070Y-64764D01*
X537230Y-75178D01*
X542564Y-85592D01*
X547644Y-101340D01*
X547644Y-127248D01*
X542564Y-142742D01*
X537230Y-153156D01*
X527070Y-163570D01*
X511322Y-168650D01*
X475000Y-168650D01*
X581934Y-80512D02*
G01*
X592348Y-75178D01*
X608096Y-59684D01*
X608096Y-168650D01*
D13*
X463677Y-512698D02*
G01*
X454532Y-503554D01*
X440817Y-498982D01*
X422782Y-498982D01*
X409067Y-503554D01*
X399922Y-512698D01*
X399922Y-521843D01*
X404495Y-530987D01*
X409067Y-535559D01*
X418211Y-539877D01*
X445388Y-549020D01*
X454532Y-553593D01*
X459104Y-558164D01*
X463677Y-567309D01*
X463677Y-581025D01*
X454532Y-589914D01*
X440817Y-594487D01*
X422782Y-594487D01*
X409067Y-589914D01*
X399922Y-581025D01*
X493648Y-498982D02*
G01*
X498220Y-503554D01*
X502793Y-498982D01*
X498220Y-494664D01*
X493648Y-498982D01*
X498220Y-530987D02*
G01*
X498220Y-594487D01*
X532764Y-498982D02*
G01*
X532764Y-594487D01*
X532764Y-498982D02*
G01*
X573659Y-498982D01*
X587375Y-503554D01*
X591693Y-508127D01*
X596264Y-517270D01*
X596264Y-530987D01*
X591693Y-539877D01*
X587375Y-544448D01*
X573659Y-549020D01*
X532764Y-549020D01*
X626237Y-498982D02*
G01*
X626237Y-594487D01*
X626237Y-498982D02*
G01*
X662812Y-594487D01*
X699135Y-498982D02*
G01*
X662812Y-594487D01*
X699135Y-498982D02*
G01*
X699135Y-594487D01*
D12*
X1349997Y-59684D02*
G01*
X1349997Y-168650D01*
X1349997Y-59684D02*
G01*
X1386319Y-59684D01*
X1402067Y-64764D01*
X1412227Y-75178D01*
X1417561Y-85592D01*
X1422641Y-101340D01*
X1422641Y-127248D01*
X1417561Y-142742D01*
X1412227Y-153156D01*
X1402067Y-163570D01*
X1386319Y-168650D01*
X1349997Y-168650D01*
X1462265Y-85592D02*
G01*
X1462265Y-80512D01*
X1467345Y-70098D01*
X1472679Y-64764D01*
X1483093Y-59684D01*
X1503667Y-59684D01*
X1514081Y-64764D01*
X1519415Y-70098D01*
X1524495Y-80512D01*
X1524495Y-90926D01*
X1519415Y-101340D01*
X1509001Y-116834D01*
X1456931Y-168650D01*
X1529829Y-168650D01*
D13*
X1363677Y-512696D02*
G01*
X1354533Y-503552D01*
X1340817Y-498980D01*
X1322783Y-498980D01*
X1309067Y-503552D01*
X1299923Y-512696D01*
X1299923Y-521840D01*
X1304495Y-530984D01*
X1309067Y-535556D01*
X1318211Y-539874D01*
X1345389Y-549018D01*
X1354533Y-553590D01*
X1359105Y-558162D01*
X1363677Y-567306D01*
X1363677Y-581022D01*
X1354533Y-589912D01*
X1340817Y-594484D01*
X1322783Y-594484D01*
X1309067Y-589912D01*
X1299923Y-581022D01*
X1393649Y-498980D02*
G01*
X1398221Y-503552D01*
X1402793Y-498980D01*
X1398221Y-494662D01*
X1393649Y-498980D01*
X1398221Y-530984D02*
G01*
X1398221Y-594484D01*
X1432765Y-498980D02*
G01*
X1432765Y-594484D01*
X1432765Y-498980D02*
G01*
X1473659Y-498980D01*
X1487375Y-503552D01*
X1491693Y-508124D01*
X1496265Y-517268D01*
X1496265Y-530984D01*
X1491693Y-539874D01*
X1487375Y-544446D01*
X1473659Y-549018D01*
X1432765Y-549018D01*
X1526237Y-498980D02*
G01*
X1526237Y-594484D01*
X1526237Y-498980D02*
G01*
X1562813Y-594484D01*
X1599135Y-498980D02*
G01*
X1562813Y-594484D01*
X1599135Y-498980D02*
G01*
X1599135Y-594484D01*
D12*
X1374998Y-1834680D02*
G01*
X1374998Y-1943646D01*
X1374998Y-1834680D02*
G01*
X1411320Y-1834680D01*
X1427068Y-1839760D01*
X1437228Y-1850174D01*
X1442562Y-1860588D01*
X1447642Y-1876336D01*
X1447642Y-1902244D01*
X1442562Y-1917738D01*
X1437228Y-1928152D01*
X1427068Y-1938566D01*
X1411320Y-1943646D01*
X1374998Y-1943646D01*
X1492346Y-1834680D02*
G01*
X1549496Y-1834680D01*
X1518508Y-1876336D01*
X1534002Y-1876336D01*
X1544416Y-1881416D01*
X1549496Y-1886496D01*
X1554830Y-1902244D01*
X1554830Y-1912658D01*
X1549496Y-1928152D01*
X1539082Y-1938566D01*
X1523588Y-1943646D01*
X1508094Y-1943646D01*
X1492346Y-1938566D01*
X1487266Y-1933486D01*
X1481932Y-1923072D01*
D13*
X1363675Y-1412697D02*
G01*
X1354531Y-1403553D01*
X1340815Y-1398981D01*
X1322781Y-1398981D01*
X1309065Y-1403553D01*
X1299921Y-1412697D01*
X1299921Y-1421841D01*
X1304493Y-1430985D01*
X1309065Y-1435557D01*
X1318209Y-1439875D01*
X1345387Y-1449019D01*
X1354531Y-1453591D01*
X1359103Y-1458163D01*
X1363675Y-1467307D01*
X1363675Y-1481023D01*
X1354531Y-1489913D01*
X1340815Y-1494485D01*
X1322781Y-1494485D01*
X1309065Y-1489913D01*
X1299921Y-1481023D01*
X1393647Y-1398981D02*
G01*
X1398219Y-1403553D01*
X1402791Y-1398981D01*
X1398219Y-1394663D01*
X1393647Y-1398981D01*
X1398219Y-1430985D02*
G01*
X1398219Y-1494485D01*
X1432763Y-1398981D02*
G01*
X1432763Y-1494485D01*
X1432763Y-1398981D02*
G01*
X1473657Y-1398981D01*
X1487373Y-1403553D01*
X1491691Y-1408125D01*
X1496263Y-1417269D01*
X1496263Y-1430985D01*
X1491691Y-1439875D01*
X1487373Y-1444447D01*
X1473657Y-1449019D01*
X1432763Y-1449019D01*
X1526235Y-1398981D02*
G01*
X1526235Y-1494485D01*
X1526235Y-1398981D02*
G01*
X1562811Y-1494485D01*
X1599133Y-1398981D02*
G01*
X1562811Y-1494485D01*
X1599133Y-1398981D02*
G01*
X1599133Y-1494485D01*
D12*
X449999Y-1834680D02*
G01*
X449999Y-1943646D01*
X449999Y-1834680D02*
G01*
X486321Y-1834680D01*
X502069Y-1839760D01*
X512229Y-1850174D01*
X517563Y-1860588D01*
X522643Y-1876336D01*
X522643Y-1902244D01*
X517563Y-1917738D01*
X512229Y-1928152D01*
X502069Y-1938566D01*
X486321Y-1943646D01*
X449999Y-1943646D01*
X609003Y-1834680D02*
G01*
X556933Y-1907324D01*
X634911Y-1907324D01*
X609003Y-1834680D02*
G01*
X609003Y-1943646D01*
D13*
X463677Y-1412697D02*
G01*
X454532Y-1403553D01*
X440817Y-1398981D01*
X422782Y-1398981D01*
X409067Y-1403553D01*
X399922Y-1412697D01*
X399922Y-1421841D01*
X404495Y-1430985D01*
X409067Y-1435557D01*
X418211Y-1439875D01*
X445388Y-1449019D01*
X454532Y-1453591D01*
X459104Y-1458163D01*
X463677Y-1467307D01*
X463677Y-1481023D01*
X454532Y-1489913D01*
X440817Y-1494485D01*
X422782Y-1494485D01*
X409067Y-1489913D01*
X399922Y-1481023D01*
X493648Y-1398981D02*
G01*
X498220Y-1403553D01*
X502793Y-1398981D01*
X498220Y-1394663D01*
X493648Y-1398981D01*
X498220Y-1430985D02*
G01*
X498220Y-1494485D01*
X532764Y-1398981D02*
G01*
X532764Y-1494485D01*
X532764Y-1398981D02*
G01*
X573659Y-1398981D01*
X587375Y-1403553D01*
X591693Y-1408125D01*
X596264Y-1417269D01*
X596264Y-1430985D01*
X591693Y-1439875D01*
X587375Y-1444447D01*
X573659Y-1449019D01*
X532764Y-1449019D01*
X626237Y-1398981D02*
G01*
X626237Y-1494485D01*
X626237Y-1398981D02*
G01*
X662812Y-1494485D01*
X699135Y-1398981D02*
G01*
X662812Y-1494485D01*
X699135Y-1398981D02*
G01*
X699135Y-1494485D01*
D14*
X349882Y-199875D02*
G01*
X749932Y-199875D01*
X900046Y-349989D02*
G01*
X899792Y-750039D01*
X750186Y-900153D02*
G01*
X349882Y-899899D01*
X200022Y-750039D02*
G01*
X200022Y-349989D01*
X1650113Y-900122D02*
G01*
X1250063Y-900122D01*
X1099949Y-750008D02*
G01*
X1100203Y-349958D01*
X1249809Y-199844D02*
G01*
X1650113Y-200098D01*
X1799973Y-349958D02*
G01*
X1799973Y-750008D01*
X1249880Y-1099873D02*
G01*
X1649930Y-1099873D01*
X1800044Y-1249987D02*
G01*
X1799790Y-1650037D01*
X1650184Y-1800151D02*
G01*
X1249880Y-1799897D01*
X1100020Y-1650037D02*
G01*
X1100020Y-1249987D01*
X349882Y-1099873D02*
G01*
X749932Y-1099873D01*
X900046Y-1249987D02*
G01*
X899792Y-1650037D01*
X750186Y-1800151D02*
G01*
X349882Y-1799897D01*
X200022Y-1650037D02*
G01*
X200022Y-1249987D01*
D15*
G75*
G01
X70002Y-1049985D02*
G03X70002Y-1049985I-19990J0D01*
G75*
G01
X1969973Y-50013D02*
G03X1969973Y-50013I-19990J0D01*
G75*
G01
X970001Y-1949983D02*
G03X970001Y-1949983I-19990J0D01*
G75*
G01
X70002Y-1949983D02*
G03X70002Y-1949983I-19990J0D01*
M02*
