G04 Layer: TopSilkscreenLayer*
G04 EasyEDA v6.5.22, 2023-04-13 12:23:17*
G04 0788939dff5747a0b15857f30e1ef4ed,9a5be75d700b4a6385dc1106f27949ae,10*
G04 Gerber Generator version 0.2*
G04 Scale: 100 percent, Rotated: No, Reflected: No *
G04 Dimensions in millimeters *
G04 leading zeros omitted , absolute positions ,4 integer and 5 decimal *
%FSLAX45Y45*%
%MOMM*%

%ADD10C,0.1200*%
%ADD11C,0.1524*%
%ADD12C,0.1000*%
%ADD13C,0.2540*%
%ADD14C,0.3000*%
%ADD15C,0.2000*%
%ADD16C,0.0143*%

%LPD*%
D10*
X5151683Y6553126D02*
G01*
X5228137Y6553126D01*
X5151683Y6553126D02*
G01*
X5228137Y6582336D01*
X5151683Y6611292D02*
G01*
X5228137Y6582336D01*
X5151683Y6611292D02*
G01*
X5228137Y6611292D01*
X5151683Y6635422D02*
G01*
X5155239Y6638978D01*
X5151683Y6642534D01*
X5148127Y6638978D01*
X5151683Y6635422D01*
X5177083Y6638978D02*
G01*
X5228137Y6638978D01*
X5188005Y6710352D02*
G01*
X5180639Y6702986D01*
X5177083Y6695620D01*
X5177083Y6684698D01*
X5180639Y6677586D01*
X5188005Y6670220D01*
X5198927Y6666664D01*
X5206293Y6666664D01*
X5217215Y6670220D01*
X5224327Y6677586D01*
X5228137Y6684698D01*
X5228137Y6695620D01*
X5224327Y6702986D01*
X5217215Y6710352D01*
X5177083Y6734228D02*
G01*
X5228137Y6734228D01*
X5198927Y6734228D02*
G01*
X5188005Y6738038D01*
X5180639Y6745150D01*
X5177083Y6752516D01*
X5177083Y6763438D01*
X5177083Y6805602D02*
G01*
X5180639Y6798236D01*
X5188005Y6791124D01*
X5198927Y6787314D01*
X5206293Y6787314D01*
X5217215Y6791124D01*
X5224327Y6798236D01*
X5228137Y6805602D01*
X5228137Y6816524D01*
X5224327Y6823636D01*
X5217215Y6831002D01*
X5206293Y6834558D01*
X5198927Y6834558D01*
X5188005Y6831002D01*
X5180639Y6823636D01*
X5177083Y6816524D01*
X5177083Y6805602D01*
X5151683Y6858688D02*
G01*
X5228137Y6858688D01*
X5151683Y6858688D02*
G01*
X5151683Y6905932D01*
X5188005Y6858688D02*
G01*
X5188005Y6887644D01*
X5169717Y6984418D02*
G01*
X5162605Y6980862D01*
X5155239Y6973496D01*
X5151683Y6966384D01*
X5151683Y6951652D01*
X5155239Y6944540D01*
X5162605Y6937174D01*
X5169717Y6933618D01*
X5180639Y6929808D01*
X5198927Y6929808D01*
X5209849Y6933618D01*
X5217215Y6937174D01*
X5224327Y6944540D01*
X5228137Y6951652D01*
X5228137Y6966384D01*
X5224327Y6973496D01*
X5217215Y6980862D01*
X5209849Y6984418D01*
X5162605Y7115482D02*
G01*
X5155239Y7108116D01*
X5151683Y7097194D01*
X5151683Y7082716D01*
X5155239Y7071794D01*
X5162605Y7064428D01*
X5169717Y7064428D01*
X5177083Y7067984D01*
X5180639Y7071794D01*
X5184449Y7078906D01*
X5191561Y7100750D01*
X5195371Y7108116D01*
X5198927Y7111672D01*
X5206293Y7115482D01*
X5217215Y7115482D01*
X5224327Y7108116D01*
X5228137Y7097194D01*
X5228137Y7082716D01*
X5224327Y7071794D01*
X5217215Y7064428D01*
X5151683Y7139358D02*
G01*
X5155239Y7142914D01*
X5151683Y7146724D01*
X5148127Y7142914D01*
X5151683Y7139358D01*
X5177083Y7142914D02*
G01*
X5228137Y7142914D01*
X5151683Y7170600D02*
G01*
X5228137Y7170600D01*
X5151683Y7170600D02*
G01*
X5151683Y7203366D01*
X5155239Y7214288D01*
X5159049Y7217844D01*
X5166161Y7221654D01*
X5177083Y7221654D01*
X5184449Y7217844D01*
X5188005Y7214288D01*
X5191561Y7203366D01*
X5191561Y7170600D01*
X5151683Y7245530D02*
G01*
X5228137Y7245530D01*
X5151683Y7245530D02*
G01*
X5228137Y7274740D01*
X5151683Y7303696D02*
G01*
X5228137Y7274740D01*
X5151683Y7303696D02*
G01*
X5228137Y7303696D01*
X5151683Y7412916D02*
G01*
X5228137Y7383706D01*
X5151683Y7412916D02*
G01*
X5228137Y7441872D01*
X5202483Y7394628D02*
G01*
X5202483Y7430950D01*
X5177083Y7466002D02*
G01*
X5228137Y7466002D01*
X5198927Y7466002D02*
G01*
X5188005Y7469558D01*
X5180639Y7476924D01*
X5177083Y7484036D01*
X5177083Y7494958D01*
X5177083Y7519088D02*
G01*
X5228137Y7519088D01*
X5198927Y7519088D02*
G01*
X5188005Y7522644D01*
X5180639Y7530010D01*
X5177083Y7537122D01*
X5177083Y7548044D01*
X5177083Y7615608D02*
G01*
X5228137Y7615608D01*
X5188005Y7615608D02*
G01*
X5180639Y7608496D01*
X5177083Y7601130D01*
X5177083Y7590208D01*
X5180639Y7583096D01*
X5188005Y7575730D01*
X5198927Y7572174D01*
X5206293Y7572174D01*
X5217215Y7575730D01*
X5224327Y7583096D01*
X5228137Y7590208D01*
X5228137Y7601130D01*
X5224327Y7608496D01*
X5217215Y7615608D01*
X5177083Y7643294D02*
G01*
X5228137Y7665138D01*
X5177083Y7686982D02*
G01*
X5228137Y7665138D01*
X5242615Y7658026D01*
X5249727Y7650660D01*
X5253537Y7643294D01*
X5253537Y7639738D01*
X5151683Y7766992D02*
G01*
X5228137Y7766992D01*
X5151683Y7766992D02*
G01*
X5151683Y7799758D01*
X5155239Y7810680D01*
X5159049Y7814236D01*
X5166161Y7817792D01*
X5173527Y7817792D01*
X5180639Y7814236D01*
X5184449Y7810680D01*
X5188005Y7799758D01*
X5188005Y7766992D02*
G01*
X5188005Y7799758D01*
X5191561Y7810680D01*
X5195371Y7814236D01*
X5202483Y7817792D01*
X5213405Y7817792D01*
X5220771Y7814236D01*
X5224327Y7810680D01*
X5228137Y7799758D01*
X5228137Y7766992D01*
X5177083Y7860210D02*
G01*
X5180639Y7852844D01*
X5188005Y7845478D01*
X5198927Y7841922D01*
X5206293Y7841922D01*
X5217215Y7845478D01*
X5224327Y7852844D01*
X5228137Y7860210D01*
X5228137Y7870878D01*
X5224327Y7878244D01*
X5217215Y7885610D01*
X5206293Y7889166D01*
X5198927Y7889166D01*
X5188005Y7885610D01*
X5180639Y7878244D01*
X5177083Y7870878D01*
X5177083Y7860210D01*
X5177083Y7956730D02*
G01*
X5228137Y7956730D01*
X5188005Y7956730D02*
G01*
X5180639Y7949618D01*
X5177083Y7942252D01*
X5177083Y7931330D01*
X5180639Y7924218D01*
X5188005Y7916852D01*
X5198927Y7913296D01*
X5206293Y7913296D01*
X5217215Y7916852D01*
X5224327Y7924218D01*
X5228137Y7931330D01*
X5228137Y7942252D01*
X5224327Y7949618D01*
X5217215Y7956730D01*
X5177083Y7980860D02*
G01*
X5228137Y7980860D01*
X5198927Y7980860D02*
G01*
X5188005Y7984416D01*
X5180639Y7991782D01*
X5177083Y7998894D01*
X5177083Y8009816D01*
X5151683Y8077634D02*
G01*
X5228137Y8077634D01*
X5188005Y8077634D02*
G01*
X5180639Y8070268D01*
X5177083Y8062902D01*
X5177083Y8051980D01*
X5180639Y8044868D01*
X5188005Y8037502D01*
X5198927Y8033946D01*
X5206293Y8033946D01*
X5217215Y8037502D01*
X5224327Y8044868D01*
X5228137Y8051980D01*
X5228137Y8062902D01*
X5224327Y8070268D01*
X5217215Y8077634D01*
D11*
X3186676Y6807187D02*
G01*
X3295642Y6807187D01*
X3186676Y6807187D02*
G01*
X3186676Y6843509D01*
X3191756Y6859257D01*
X3202170Y6869417D01*
X3212584Y6874751D01*
X3228332Y6879831D01*
X3254240Y6879831D01*
X3269734Y6874751D01*
X3280148Y6869417D01*
X3290562Y6859257D01*
X3295642Y6843509D01*
X3295642Y6807187D01*
X3212584Y6919455D02*
G01*
X3207504Y6919455D01*
X3197090Y6924535D01*
X3191756Y6929869D01*
X3186676Y6940283D01*
X3186676Y6960857D01*
X3191756Y6971271D01*
X3197090Y6976605D01*
X3207504Y6981685D01*
X3217918Y6981685D01*
X3228332Y6976605D01*
X3243826Y6966191D01*
X3295642Y6914121D01*
X3295642Y6987019D01*
D12*
X3594272Y6945289D02*
G01*
X3585128Y6954433D01*
X3571412Y6959005D01*
X3553378Y6959005D01*
X3539662Y6954433D01*
X3530518Y6945289D01*
X3530518Y6936145D01*
X3535090Y6927001D01*
X3539662Y6922429D01*
X3548806Y6918111D01*
X3575984Y6908967D01*
X3585128Y6904395D01*
X3589700Y6899823D01*
X3594272Y6890679D01*
X3594272Y6876963D01*
X3585128Y6868073D01*
X3571412Y6863501D01*
X3553378Y6863501D01*
X3539662Y6868073D01*
X3530518Y6876963D01*
X3624244Y6959005D02*
G01*
X3628816Y6954433D01*
X3633388Y6959005D01*
X3628816Y6963323D01*
X3624244Y6959005D01*
X3628816Y6927001D02*
G01*
X3628816Y6863501D01*
X3663360Y6959005D02*
G01*
X3663360Y6863501D01*
X3663360Y6959005D02*
G01*
X3704254Y6959005D01*
X3717970Y6954433D01*
X3722288Y6949861D01*
X3726860Y6940717D01*
X3726860Y6927001D01*
X3722288Y6918111D01*
X3717970Y6913539D01*
X3704254Y6908967D01*
X3663360Y6908967D01*
X3756832Y6959005D02*
G01*
X3756832Y6863501D01*
X3756832Y6959005D02*
G01*
X3793408Y6863501D01*
X3829730Y6959005D02*
G01*
X3793408Y6863501D01*
X3829730Y6959005D02*
G01*
X3829730Y6863501D01*
D11*
X4964673Y7696184D02*
G01*
X5073639Y7696184D01*
X4964673Y7696184D02*
G01*
X4964673Y7732506D01*
X4969753Y7748254D01*
X4980167Y7758414D01*
X4990581Y7763748D01*
X5006329Y7768828D01*
X5032237Y7768828D01*
X5047731Y7763748D01*
X5058145Y7758414D01*
X5068559Y7748254D01*
X5073639Y7732506D01*
X5073639Y7696184D01*
X4964673Y7813532D02*
G01*
X4964673Y7870682D01*
X5006329Y7839694D01*
X5006329Y7855188D01*
X5011409Y7865602D01*
X5016489Y7870682D01*
X5032237Y7876016D01*
X5042651Y7876016D01*
X5058145Y7870682D01*
X5068559Y7860268D01*
X5073639Y7844774D01*
X5073639Y7829280D01*
X5068559Y7813532D01*
X5063479Y7808452D01*
X5053065Y7803118D01*
D12*
X4483272Y7783487D02*
G01*
X4474128Y7792631D01*
X4460412Y7797203D01*
X4442378Y7797203D01*
X4428662Y7792631D01*
X4419518Y7783487D01*
X4419518Y7774343D01*
X4424090Y7765199D01*
X4428662Y7760627D01*
X4437806Y7756309D01*
X4464984Y7747165D01*
X4474128Y7742593D01*
X4478700Y7738021D01*
X4483272Y7728877D01*
X4483272Y7715161D01*
X4474128Y7706271D01*
X4460412Y7701699D01*
X4442378Y7701699D01*
X4428662Y7706271D01*
X4419518Y7715161D01*
X4513244Y7797203D02*
G01*
X4517816Y7792631D01*
X4522388Y7797203D01*
X4517816Y7801521D01*
X4513244Y7797203D01*
X4517816Y7765199D02*
G01*
X4517816Y7701699D01*
X4552360Y7797203D02*
G01*
X4552360Y7701699D01*
X4552360Y7797203D02*
G01*
X4593254Y7797203D01*
X4606970Y7792631D01*
X4611288Y7788059D01*
X4615860Y7778915D01*
X4615860Y7765199D01*
X4611288Y7756309D01*
X4606970Y7751737D01*
X4593254Y7747165D01*
X4552360Y7747165D01*
X4645832Y7797203D02*
G01*
X4645832Y7701699D01*
X4645832Y7797203D02*
G01*
X4682408Y7701699D01*
X4718730Y7797203D02*
G01*
X4682408Y7701699D01*
X4718730Y7797203D02*
G01*
X4718730Y7701699D01*
D11*
X4964673Y6781787D02*
G01*
X5073639Y6781787D01*
X4964673Y6781787D02*
G01*
X4964673Y6818109D01*
X4969753Y6833857D01*
X4980167Y6844017D01*
X4990581Y6849351D01*
X5006329Y6854431D01*
X5032237Y6854431D01*
X5047731Y6849351D01*
X5058145Y6844017D01*
X5068559Y6833857D01*
X5073639Y6818109D01*
X5073639Y6781787D01*
X4964673Y6940791D02*
G01*
X5037317Y6888721D01*
X5037317Y6966699D01*
X4964673Y6940791D02*
G01*
X5073639Y6940791D01*
D12*
X4483272Y6945289D02*
G01*
X4474128Y6954433D01*
X4460412Y6959005D01*
X4442378Y6959005D01*
X4428662Y6954433D01*
X4419518Y6945289D01*
X4419518Y6936145D01*
X4424090Y6927001D01*
X4428662Y6922429D01*
X4437806Y6918111D01*
X4464984Y6908967D01*
X4474128Y6904395D01*
X4478700Y6899823D01*
X4483272Y6890679D01*
X4483272Y6876963D01*
X4474128Y6868073D01*
X4460412Y6863501D01*
X4442378Y6863501D01*
X4428662Y6868073D01*
X4419518Y6876963D01*
X4513244Y6959005D02*
G01*
X4517816Y6954433D01*
X4522388Y6959005D01*
X4517816Y6963323D01*
X4513244Y6959005D01*
X4517816Y6927001D02*
G01*
X4517816Y6863501D01*
X4552360Y6959005D02*
G01*
X4552360Y6863501D01*
X4552360Y6959005D02*
G01*
X4593254Y6959005D01*
X4606970Y6954433D01*
X4611288Y6949861D01*
X4615860Y6940717D01*
X4615860Y6927001D01*
X4611288Y6918111D01*
X4606970Y6913539D01*
X4593254Y6908967D01*
X4552360Y6908967D01*
X4645832Y6959005D02*
G01*
X4645832Y6863501D01*
X4645832Y6959005D02*
G01*
X4682408Y6863501D01*
X4718730Y6959005D02*
G01*
X4682408Y6863501D01*
X4718730Y6959005D02*
G01*
X4718730Y6863501D01*
D11*
X3186544Y7696179D02*
G01*
X3295764Y7696179D01*
X3186544Y7696179D02*
G01*
X3186544Y7732501D01*
X3191878Y7748249D01*
X3202292Y7758409D01*
X3212706Y7763743D01*
X3228200Y7768823D01*
X3254108Y7768823D01*
X3269856Y7763743D01*
X3280270Y7758409D01*
X3290684Y7748249D01*
X3295764Y7732501D01*
X3295764Y7696179D01*
X3207372Y7803113D02*
G01*
X3202292Y7813527D01*
X3186544Y7829275D01*
X3295764Y7829275D01*
D12*
X3594272Y7783487D02*
G01*
X3585128Y7792631D01*
X3571412Y7797203D01*
X3553378Y7797203D01*
X3539662Y7792631D01*
X3530518Y7783487D01*
X3530518Y7774343D01*
X3535090Y7765199D01*
X3539662Y7760627D01*
X3548806Y7756309D01*
X3575984Y7747165D01*
X3585128Y7742593D01*
X3589700Y7738021D01*
X3594272Y7728877D01*
X3594272Y7715161D01*
X3585128Y7706271D01*
X3571412Y7701699D01*
X3553378Y7701699D01*
X3539662Y7706271D01*
X3530518Y7715161D01*
X3624244Y7797203D02*
G01*
X3628816Y7792631D01*
X3633388Y7797203D01*
X3628816Y7801521D01*
X3624244Y7797203D01*
X3628816Y7765199D02*
G01*
X3628816Y7701699D01*
X3663360Y7797203D02*
G01*
X3663360Y7701699D01*
X3663360Y7797203D02*
G01*
X3704254Y7797203D01*
X3717970Y7792631D01*
X3722288Y7788059D01*
X3726860Y7778915D01*
X3726860Y7765199D01*
X3722288Y7756309D01*
X3717970Y7751737D01*
X3704254Y7747165D01*
X3663360Y7747165D01*
X3756832Y7797203D02*
G01*
X3756832Y7701699D01*
X3756832Y7797203D02*
G01*
X3793408Y7701699D01*
X3829730Y7797203D02*
G01*
X3793408Y7701699D01*
X3829730Y7797203D02*
G01*
X3829730Y7701699D01*
G36*
X4064000Y7975600D02*
G01*
X4064000Y7569200D01*
X4191000Y7569200D01*
X4191000Y7975600D01*
G37*
G36*
X3479800Y7391400D02*
G01*
X3479800Y7264400D01*
X3886200Y7264400D01*
X3886200Y7391400D01*
G37*
G36*
X4368800Y7391400D02*
G01*
X4368800Y7264400D01*
X4775200Y7264400D01*
X4775200Y7391400D01*
G37*
G36*
X4064000Y7086600D02*
G01*
X4064000Y6680200D01*
X4191000Y6680200D01*
X4191000Y7086600D01*
G37*
D13*
X3883108Y6533263D02*
G01*
X3483058Y6533263D01*
X3332944Y6683377D02*
G01*
X3333198Y7083427D01*
X3482804Y7233541D02*
G01*
X3883108Y7233287D01*
X4032968Y7083427D02*
G01*
X4032968Y6683377D01*
X4371873Y8122508D02*
G01*
X4771923Y8122508D01*
X4922037Y7972394D02*
G01*
X4921783Y7572344D01*
X4772177Y7422230D02*
G01*
X4371873Y7422484D01*
X4222013Y7572344D02*
G01*
X4222013Y7972394D01*
X4922113Y7083503D02*
G01*
X4922113Y6683453D01*
X4771999Y6533339D02*
G01*
X4371949Y6533593D01*
X4221835Y6683199D02*
G01*
X4222089Y7083503D01*
X4371949Y7233363D02*
G01*
X4771999Y7233363D01*
X3332868Y7572268D02*
G01*
X3332868Y7972318D01*
X3482982Y8122432D02*
G01*
X3883032Y8122178D01*
X4033146Y7972572D02*
G01*
X4032892Y7572268D01*
X3883032Y7422408D02*
G01*
X3482982Y7422408D01*
D14*
G75*
G01
X3893500Y7581900D02*
G03X3893500Y7581900I-20000J0D01*
G75*
G01
X4401505Y7581900D02*
G03X4401505Y7581900I-20000J0D01*
G75*
G01
X4401513Y7073900D02*
G03X4401513Y7073900I-20000J0D01*
G75*
G01
X3893505Y7073900D02*
G03X3893505Y7073900I-20000J0D01*
D15*
G75*
G01
X4202971Y7383376D02*
G03X4202971Y7383376I-19990J0D01*
G75*
G01
X4091991Y7272396D02*
G03X4091991Y7272396I-19990J0D01*
G75*
G01
X4091991Y7383376D02*
G03X4091991Y7383376I-19990J0D01*
G75*
G01
X4202971Y7272396D02*
G03X4202971Y7272396I-19990J0D01*
M02*
