G04 Layer: BottomLayer*
G04 EasyEDA v6.5.38, 2023-11-24 15:43:32*
G04 09673f8317ad448189dc8d57b7b7ae53,9a5be75d700b4a6385dc1106f27949ae,10*
G04 Gerber Generator version 0.2*
G04 Scale: 100 percent, Rotated: No, Reflected: No *
G04 Dimensions in millimeters *
G04 leading zeros omitted , absolute positions ,4 integer and 5 decimal *
%FSLAX45Y45*%
%MOMM*%

%AMMACRO1*21,1,$1,$2,0,0,$3*%
%ADD10C,0.2540*%
%ADD11C,0.3100*%
%ADD12MACRO1,0.864X0.8065X-90.0000*%
%ADD13R,1.3500X1.4100*%
%ADD14MACRO1,1.35X1.41X0.0000*%
%ADD15MACRO1,1.35X1.41X-90.0000*%
%ADD16MACRO1,0.8X0.9X0.0000*%
%ADD17MACRO1,0.8X0.9X-90.0000*%
%ADD18MACRO1,1.25X0.7X0.0000*%
%ADD19MACRO1,1.25X0.7X90.0000*%
%ADD20MACRO1,0.864X0.8065X90.0000*%
%ADD21R,0.8640X0.8065*%
%ADD22MACRO1,0.864X0.8065X0.0000*%
%ADD23MACRO1,0.49X1.157X0.0000*%
%ADD24MACRO1,0.49X1.175X0.0000*%
%ADD25C,0.6200*%
%ADD26C,0.5080*%
%ADD27C,0.4200*%
%ADD28C,0.0188*%

%LPD*%
G36*
X737514Y-339496D02*
G01*
X733602Y-338734D01*
X730300Y-336499D01*
X728116Y-333197D01*
X727354Y-329336D01*
X727354Y-306374D01*
X703072Y-306374D01*
X699160Y-305612D01*
X695858Y-303377D01*
X693674Y-300075D01*
X692912Y-296214D01*
X692912Y-263804D01*
X693674Y-259943D01*
X695858Y-256641D01*
X699160Y-254457D01*
X703072Y-253644D01*
X727354Y-253644D01*
X727354Y-209499D01*
X711708Y-209499D01*
X705256Y-210159D01*
X699516Y-211886D01*
X694283Y-214680D01*
X689914Y-218236D01*
X686460Y-220116D01*
X682498Y-220522D01*
X678688Y-219354D01*
X674014Y-216865D01*
X668324Y-215138D01*
X661873Y-214477D01*
X537870Y-214477D01*
X531418Y-215138D01*
X525729Y-216865D01*
X520446Y-219659D01*
X511962Y-226669D01*
X507644Y-227634D01*
X503326Y-226669D01*
X494080Y-222402D01*
X484682Y-219862D01*
X474980Y-218998D01*
X465277Y-219862D01*
X455879Y-222402D01*
X447040Y-226517D01*
X439064Y-232105D01*
X432206Y-238963D01*
X426618Y-246938D01*
X422503Y-255778D01*
X419963Y-265176D01*
X419100Y-274878D01*
X419963Y-284581D01*
X420522Y-286715D01*
X420827Y-290372D01*
X419760Y-293928D01*
X417525Y-296875D01*
X414375Y-298805D01*
X410718Y-299466D01*
X337870Y-299466D01*
X329488Y-300329D01*
X318516Y-303733D01*
X315010Y-303631D01*
X311708Y-302310D01*
X309118Y-299923D01*
X302158Y-291084D01*
X298500Y-286918D01*
X288086Y-276504D01*
X283921Y-272796D01*
X272338Y-263753D01*
X267817Y-260654D01*
X255270Y-253034D01*
X250393Y-250494D01*
X236931Y-244449D01*
X231851Y-242519D01*
X217779Y-238099D01*
X212394Y-236778D01*
X197916Y-234137D01*
X192430Y-233476D01*
X177698Y-232562D01*
X172262Y-232562D01*
X157581Y-233476D01*
X152044Y-234137D01*
X137566Y-236778D01*
X132232Y-238099D01*
X118160Y-242519D01*
X113080Y-244449D01*
X99618Y-250494D01*
X94742Y-253034D01*
X82143Y-260654D01*
X77673Y-263753D01*
X66090Y-272796D01*
X61925Y-276504D01*
X51511Y-286918D01*
X48260Y-290576D01*
X45008Y-293014D01*
X41097Y-293979D01*
X37084Y-293319D01*
X33629Y-291134D01*
X31343Y-287832D01*
X30530Y-283819D01*
X30530Y-101396D01*
X31445Y-89408D01*
X33629Y-79756D01*
X37185Y-70510D01*
X42011Y-61874D01*
X48056Y-54051D01*
X55117Y-47091D01*
X63093Y-41249D01*
X71831Y-36576D01*
X81127Y-33223D01*
X90830Y-31242D01*
X101396Y-30530D01*
X1208836Y-30530D01*
X1212799Y-31343D01*
X1216152Y-33629D01*
X1218336Y-37084D01*
X1218996Y-41097D01*
X1217980Y-45008D01*
X1215542Y-48260D01*
X1211884Y-51511D01*
X1201521Y-61925D01*
X1197813Y-66090D01*
X1188770Y-77673D01*
X1185672Y-82143D01*
X1178052Y-94742D01*
X1175512Y-99618D01*
X1169416Y-113080D01*
X1167485Y-118160D01*
X1163116Y-132232D01*
X1161796Y-137566D01*
X1159154Y-151993D01*
X1158341Y-159258D01*
X1157427Y-162560D01*
X1155446Y-165354D01*
X1032154Y-288645D01*
X1028852Y-290830D01*
X1024991Y-291592D01*
X971296Y-291592D01*
X971296Y-328828D01*
X970534Y-332740D01*
X968298Y-336042D01*
X964996Y-338226D01*
X961136Y-338988D01*
X901242Y-338988D01*
X897331Y-338226D01*
X894080Y-336042D01*
X891844Y-332740D01*
X891082Y-328828D01*
X891082Y-291592D01*
X852017Y-291592D01*
X852017Y-296214D01*
X851255Y-300075D01*
X849020Y-303377D01*
X845718Y-305612D01*
X841857Y-306374D01*
X785012Y-306374D01*
X785012Y-329336D01*
X784250Y-333197D01*
X782066Y-336499D01*
X778764Y-338734D01*
X774852Y-339496D01*
G37*

%LPC*%
G36*
X785012Y-253644D02*
G01*
X812850Y-253644D01*
X812850Y-218541D01*
X813612Y-214680D01*
X814781Y-212902D01*
X812850Y-211886D01*
X807110Y-210159D01*
X800709Y-209499D01*
X785012Y-209499D01*
G37*
G36*
X971296Y-208381D02*
G01*
X1029208Y-208381D01*
X1029208Y-179984D01*
X1028547Y-173583D01*
X1026820Y-167843D01*
X1024026Y-162560D01*
X1020216Y-157988D01*
X1015593Y-154178D01*
X1010361Y-151384D01*
X1004620Y-149606D01*
X998169Y-148996D01*
X971296Y-148996D01*
G37*
G36*
X832612Y-208381D02*
G01*
X891082Y-208381D01*
X891082Y-148996D01*
X864158Y-148996D01*
X857758Y-149606D01*
X852017Y-151384D01*
X846785Y-154178D01*
X842162Y-157988D01*
X838352Y-162560D01*
X835558Y-167843D01*
X833831Y-173583D01*
X833170Y-179984D01*
X833170Y-205790D01*
G37*

%LPD*%
G36*
X101396Y-1969516D02*
G01*
X89408Y-1968550D01*
X79756Y-1966366D01*
X70510Y-1962810D01*
X61874Y-1957984D01*
X54051Y-1951939D01*
X47091Y-1944878D01*
X41249Y-1936902D01*
X36576Y-1928164D01*
X33223Y-1918868D01*
X31242Y-1909165D01*
X30530Y-1898599D01*
X30530Y-1700022D01*
X31343Y-1695957D01*
X33782Y-1692554D01*
X37338Y-1690420D01*
X41503Y-1689912D01*
X45466Y-1691081D01*
X48666Y-1693773D01*
X55676Y-1702765D01*
X58572Y-1706016D01*
X68986Y-1716430D01*
X72237Y-1719275D01*
X83820Y-1728368D01*
X87325Y-1730756D01*
X99923Y-1738375D01*
X105156Y-1741017D01*
X105156Y-1669846D01*
X40690Y-1669846D01*
X36779Y-1669084D01*
X33477Y-1666849D01*
X31292Y-1663598D01*
X30530Y-1659686D01*
X30530Y-1540306D01*
X31292Y-1536395D01*
X33477Y-1533144D01*
X36779Y-1530908D01*
X40690Y-1530146D01*
X105156Y-1530146D01*
X105156Y-1458976D01*
X99923Y-1461617D01*
X87325Y-1469237D01*
X83820Y-1471625D01*
X72237Y-1480718D01*
X68986Y-1483563D01*
X58572Y-1493977D01*
X55676Y-1497228D01*
X48666Y-1506220D01*
X45466Y-1508912D01*
X41503Y-1510080D01*
X37338Y-1509572D01*
X33782Y-1507439D01*
X31343Y-1504035D01*
X30530Y-1499971D01*
X30530Y-516178D01*
X31343Y-512165D01*
X33629Y-508863D01*
X37084Y-506679D01*
X41097Y-506018D01*
X45008Y-506984D01*
X48260Y-509422D01*
X51511Y-513080D01*
X61925Y-523493D01*
X66090Y-527202D01*
X77673Y-536244D01*
X82143Y-539343D01*
X94742Y-546963D01*
X99618Y-549503D01*
X113080Y-555548D01*
X118160Y-557479D01*
X132232Y-561898D01*
X137566Y-563219D01*
X152044Y-565861D01*
X157581Y-566521D01*
X172262Y-567436D01*
X177698Y-567436D01*
X192430Y-566521D01*
X197916Y-565861D01*
X212394Y-563219D01*
X217779Y-561898D01*
X231851Y-557479D01*
X236931Y-555548D01*
X250393Y-549503D01*
X255270Y-546963D01*
X267817Y-539343D01*
X272338Y-536244D01*
X283921Y-527202D01*
X288086Y-523493D01*
X298500Y-513080D01*
X302158Y-508914D01*
X311251Y-497332D01*
X314350Y-492810D01*
X321970Y-480263D01*
X324510Y-475386D01*
X330555Y-461924D01*
X332435Y-457047D01*
X334568Y-453643D01*
X337921Y-451307D01*
X341934Y-450494D01*
X383489Y-450494D01*
X387400Y-451256D01*
X390702Y-453491D01*
X392887Y-456793D01*
X393649Y-460654D01*
X393649Y-538429D01*
X392988Y-542036D01*
X391160Y-545134D01*
X386892Y-548182D01*
X380746Y-553212D01*
X375716Y-559308D01*
X371957Y-566318D01*
X369671Y-573887D01*
X368858Y-582320D01*
X368858Y-667715D01*
X369671Y-676097D01*
X371551Y-682244D01*
X371906Y-686155D01*
X370789Y-689965D01*
X368249Y-693013D01*
X357022Y-698855D01*
X350875Y-703884D01*
X347573Y-706983D01*
X344322Y-708253D01*
X340868Y-708355D01*
X337566Y-707237D01*
X332130Y-704342D01*
X326440Y-702614D01*
X319989Y-702005D01*
X291592Y-702005D01*
X291592Y-759917D01*
X328828Y-759917D01*
X332740Y-760679D01*
X336042Y-762863D01*
X338226Y-766165D01*
X338988Y-770077D01*
X338988Y-828141D01*
X338429Y-831443D01*
X335432Y-836168D01*
X333248Y-838301D01*
X330454Y-839622D01*
X327456Y-840079D01*
X291592Y-840079D01*
X291592Y-897991D01*
X308457Y-897991D01*
X312166Y-898702D01*
X315366Y-900684D01*
X317601Y-903732D01*
X318566Y-907389D01*
X318160Y-911098D01*
X315823Y-918870D01*
X315010Y-927252D01*
X315010Y-1041958D01*
X315823Y-1050391D01*
X318109Y-1057960D01*
X321868Y-1064971D01*
X326898Y-1071067D01*
X333044Y-1076096D01*
X340004Y-1079855D01*
X347624Y-1082141D01*
X356006Y-1083005D01*
X404012Y-1083005D01*
X412394Y-1082141D01*
X419963Y-1079855D01*
X426974Y-1076096D01*
X430885Y-1072896D01*
X433730Y-1071270D01*
X436981Y-1070610D01*
X440283Y-1071067D01*
X444550Y-1072337D01*
X451002Y-1072997D01*
X499008Y-1072997D01*
X505459Y-1072337D01*
X511098Y-1070610D01*
X517601Y-1067054D01*
X520801Y-1065936D01*
X524205Y-1065936D01*
X527405Y-1067054D01*
X533908Y-1070610D01*
X539546Y-1072337D01*
X545998Y-1072997D01*
X551383Y-1072997D01*
X551383Y-1019911D01*
X540156Y-1019911D01*
X536295Y-1019149D01*
X532993Y-1016914D01*
X530758Y-1013612D01*
X529996Y-1009751D01*
X529996Y-959510D01*
X530758Y-955598D01*
X532993Y-952347D01*
X536295Y-950112D01*
X540156Y-949350D01*
X551383Y-949350D01*
X551383Y-896975D01*
X551992Y-893521D01*
X556564Y-885393D01*
X558749Y-882650D01*
X561644Y-880821D01*
X565048Y-880059D01*
X568502Y-880465D01*
X576478Y-882903D01*
X579424Y-883158D01*
X583031Y-884224D01*
X585978Y-886460D01*
X587908Y-889609D01*
X588619Y-893267D01*
X588619Y-949350D01*
X624992Y-949350D01*
X624992Y-927252D01*
X624382Y-920851D01*
X622655Y-915111D01*
X619810Y-909828D01*
X616051Y-905256D01*
X611733Y-901700D01*
X609142Y-898499D01*
X608076Y-894537D01*
X608634Y-890422D01*
X610768Y-886917D01*
X614172Y-884529D01*
X618185Y-883716D01*
X644194Y-883716D01*
X647903Y-884428D01*
X651103Y-886409D01*
X653338Y-889457D01*
X654354Y-893064D01*
X653948Y-896823D01*
X651916Y-903427D01*
X651306Y-909828D01*
X651306Y-989482D01*
X651916Y-995934D01*
X653643Y-1001674D01*
X656488Y-1006906D01*
X660247Y-1011529D01*
X664870Y-1015339D01*
X666242Y-1016050D01*
X669544Y-1018844D01*
X671372Y-1022807D01*
X671372Y-1027176D01*
X669544Y-1031138D01*
X666242Y-1033983D01*
X664870Y-1034694D01*
X660247Y-1038453D01*
X656488Y-1043076D01*
X653643Y-1048359D01*
X651916Y-1054049D01*
X651306Y-1060500D01*
X651306Y-1108710D01*
X650544Y-1112570D01*
X648360Y-1115872D01*
X643280Y-1121054D01*
X638302Y-1127607D01*
X634593Y-1135126D01*
X632104Y-1138275D01*
X628599Y-1140256D01*
X624586Y-1140714D01*
X620725Y-1139545D01*
X617626Y-1137005D01*
X616051Y-1135075D01*
X611428Y-1131316D01*
X606145Y-1128471D01*
X600456Y-1126744D01*
X594004Y-1126134D01*
X588619Y-1126134D01*
X588619Y-1179626D01*
X621639Y-1179626D01*
X625500Y-1180439D01*
X628802Y-1182624D01*
X631037Y-1185926D01*
X631799Y-1189786D01*
X631799Y-1240942D01*
X631037Y-1244803D01*
X628802Y-1248105D01*
X625500Y-1250340D01*
X621639Y-1251102D01*
X588619Y-1251102D01*
X588619Y-1296822D01*
X587806Y-1300734D01*
X585622Y-1304036D01*
X582320Y-1306220D01*
X578459Y-1306982D01*
X561543Y-1306982D01*
X557682Y-1306220D01*
X554380Y-1304036D01*
X552196Y-1300734D01*
X551383Y-1296822D01*
X551383Y-1251102D01*
X515010Y-1251102D01*
X515010Y-1264716D01*
X514248Y-1268628D01*
X512013Y-1271930D01*
X508711Y-1274114D01*
X504850Y-1274876D01*
X500938Y-1274114D01*
X497636Y-1271930D01*
X437997Y-1212240D01*
X435762Y-1208938D01*
X435000Y-1205077D01*
X435000Y-1157122D01*
X434390Y-1150670D01*
X432612Y-1144981D01*
X429818Y-1139698D01*
X426059Y-1135075D01*
X421436Y-1131316D01*
X416153Y-1128471D01*
X410464Y-1126744D01*
X404012Y-1126134D01*
X356006Y-1126134D01*
X349554Y-1126744D01*
X343865Y-1128471D01*
X338582Y-1131316D01*
X333959Y-1135075D01*
X330200Y-1139698D01*
X327355Y-1144981D01*
X325628Y-1150670D01*
X325018Y-1157122D01*
X325018Y-1161999D01*
X324205Y-1165910D01*
X322021Y-1169162D01*
X318719Y-1171397D01*
X314858Y-1172159D01*
X283159Y-1172159D01*
X279298Y-1171397D01*
X275996Y-1169162D01*
X273761Y-1165910D01*
X272999Y-1161999D01*
X272999Y-1154988D01*
X272389Y-1148537D01*
X270662Y-1142847D01*
X267817Y-1137564D01*
X261162Y-1129334D01*
X260197Y-1125016D01*
X261162Y-1120648D01*
X267817Y-1112418D01*
X270662Y-1107135D01*
X272389Y-1101445D01*
X272999Y-1094994D01*
X272999Y-1066596D01*
X215087Y-1066596D01*
X215087Y-1113840D01*
X214325Y-1117701D01*
X212140Y-1121003D01*
X208838Y-1123238D01*
X204927Y-1124000D01*
X145084Y-1124000D01*
X141173Y-1123238D01*
X137871Y-1121003D01*
X135686Y-1117701D01*
X134924Y-1113840D01*
X134924Y-1066596D01*
X77012Y-1066596D01*
X77012Y-1094994D01*
X77622Y-1101445D01*
X79349Y-1107135D01*
X82194Y-1112418D01*
X88849Y-1120648D01*
X89814Y-1125016D01*
X88849Y-1129334D01*
X82194Y-1137564D01*
X79349Y-1142847D01*
X77622Y-1148537D01*
X77012Y-1154988D01*
X77012Y-1294993D01*
X77622Y-1301445D01*
X79349Y-1307134D01*
X82194Y-1312418D01*
X85953Y-1317040D01*
X90576Y-1320800D01*
X95859Y-1323644D01*
X101549Y-1325372D01*
X108000Y-1326032D01*
X242011Y-1326032D01*
X248462Y-1325372D01*
X254152Y-1323644D01*
X259435Y-1320800D01*
X264058Y-1317040D01*
X267817Y-1312418D01*
X270662Y-1307134D01*
X272389Y-1301445D01*
X272999Y-1294993D01*
X272999Y-1268730D01*
X273761Y-1264818D01*
X275996Y-1261567D01*
X279298Y-1259332D01*
X283159Y-1258570D01*
X314858Y-1258570D01*
X318719Y-1259332D01*
X322021Y-1261567D01*
X324205Y-1264818D01*
X325018Y-1268730D01*
X325018Y-1273606D01*
X325628Y-1280058D01*
X327355Y-1285798D01*
X330200Y-1291031D01*
X333959Y-1295654D01*
X338582Y-1299464D01*
X343865Y-1302258D01*
X349554Y-1303985D01*
X356006Y-1304645D01*
X403961Y-1304645D01*
X407822Y-1305407D01*
X411124Y-1307592D01*
X511505Y-1407972D01*
X513740Y-1411274D01*
X514502Y-1415186D01*
X514502Y-1462024D01*
X515112Y-1468424D01*
X516839Y-1474165D01*
X519684Y-1479448D01*
X523443Y-1484020D01*
X528066Y-1487830D01*
X533349Y-1490624D01*
X539038Y-1492351D01*
X545490Y-1493012D01*
X614476Y-1493012D01*
X618134Y-1492656D01*
X622096Y-1493062D01*
X625551Y-1494891D01*
X628091Y-1497990D01*
X629259Y-1501749D01*
X628853Y-1505712D01*
X626973Y-1509217D01*
X618439Y-1515973D01*
X614680Y-1520545D01*
X611886Y-1525828D01*
X610108Y-1531569D01*
X609498Y-1537970D01*
X609498Y-1661972D01*
X610108Y-1668424D01*
X611886Y-1674164D01*
X616559Y-1683105D01*
X616762Y-1687220D01*
X615340Y-1691132D01*
X612495Y-1694129D01*
X608838Y-1696618D01*
X597255Y-1705711D01*
X594004Y-1708556D01*
X583590Y-1718970D01*
X580694Y-1722221D01*
X576326Y-1727860D01*
X574090Y-1729943D01*
X571347Y-1731314D01*
X568299Y-1731772D01*
X497738Y-1731772D01*
X494436Y-1731213D01*
X491490Y-1729638D01*
X483616Y-1723491D01*
X474726Y-1718665D01*
X465124Y-1715363D01*
X455066Y-1713687D01*
X444957Y-1713687D01*
X434898Y-1715363D01*
X425297Y-1718665D01*
X416407Y-1723491D01*
X408381Y-1729739D01*
X401523Y-1737207D01*
X395935Y-1745691D01*
X391871Y-1754987D01*
X389382Y-1764842D01*
X388518Y-1774952D01*
X389382Y-1785061D01*
X391871Y-1794916D01*
X395935Y-1804212D01*
X401523Y-1812696D01*
X408381Y-1820164D01*
X416407Y-1826412D01*
X425297Y-1831238D01*
X434898Y-1834540D01*
X444957Y-1836216D01*
X455066Y-1836216D01*
X465124Y-1834540D01*
X474726Y-1831238D01*
X483616Y-1826412D01*
X491490Y-1820316D01*
X494436Y-1818741D01*
X497738Y-1818182D01*
X532434Y-1818182D01*
X536194Y-1818893D01*
X539445Y-1820925D01*
X541680Y-1824024D01*
X542594Y-1827733D01*
X543458Y-1841804D01*
X543966Y-1846122D01*
X546608Y-1860600D01*
X547674Y-1864817D01*
X552043Y-1878838D01*
X553567Y-1882851D01*
X559612Y-1896262D01*
X561594Y-1900072D01*
X569214Y-1912670D01*
X571652Y-1916175D01*
X580694Y-1927758D01*
X583590Y-1931009D01*
X594004Y-1941423D01*
X597255Y-1944319D01*
X606247Y-1951329D01*
X608888Y-1954530D01*
X610108Y-1958492D01*
X609600Y-1962657D01*
X607415Y-1966214D01*
X604062Y-1968652D01*
X599948Y-1969516D01*
G37*

%LPC*%
G36*
X244856Y-1741017D02*
G01*
X250088Y-1738375D01*
X262636Y-1730756D01*
X266141Y-1728368D01*
X277774Y-1719275D01*
X281025Y-1716430D01*
X291439Y-1706016D01*
X294284Y-1702765D01*
X303377Y-1691132D01*
X305765Y-1687677D01*
X313385Y-1675079D01*
X316026Y-1669846D01*
X244856Y-1669846D01*
G37*
G36*
X244856Y-1530146D02*
G01*
X316026Y-1530146D01*
X313385Y-1524914D01*
X305765Y-1512316D01*
X303377Y-1508861D01*
X294284Y-1497228D01*
X291439Y-1493977D01*
X281025Y-1483563D01*
X277774Y-1480718D01*
X266141Y-1471625D01*
X262636Y-1469237D01*
X250088Y-1461617D01*
X244856Y-1458976D01*
G37*
G36*
X515010Y-1179626D02*
G01*
X551383Y-1179626D01*
X551383Y-1126134D01*
X545998Y-1126134D01*
X539546Y-1126744D01*
X533857Y-1128471D01*
X528574Y-1131316D01*
X523951Y-1135075D01*
X520192Y-1139698D01*
X517347Y-1144981D01*
X515620Y-1150670D01*
X515010Y-1157122D01*
G37*
G36*
X588619Y-1072997D02*
G01*
X594004Y-1072997D01*
X600456Y-1072337D01*
X606145Y-1070610D01*
X611428Y-1067816D01*
X616051Y-1064006D01*
X619810Y-1059383D01*
X622655Y-1054150D01*
X624382Y-1048410D01*
X624992Y-1041958D01*
X624992Y-1019911D01*
X588619Y-1019911D01*
G37*
G36*
X77012Y-983386D02*
G01*
X134924Y-983386D01*
X134924Y-924001D01*
X108000Y-924001D01*
X101549Y-924610D01*
X95859Y-926337D01*
X90576Y-929182D01*
X85953Y-932942D01*
X82194Y-937564D01*
X79349Y-942848D01*
X77622Y-948537D01*
X77012Y-954989D01*
G37*
G36*
X215087Y-983386D02*
G01*
X272999Y-983386D01*
X272999Y-954989D01*
X272389Y-948537D01*
X270662Y-942848D01*
X267817Y-937564D01*
X264058Y-932942D01*
X259435Y-929182D01*
X254152Y-926337D01*
X248462Y-924610D01*
X242011Y-924001D01*
X215087Y-924001D01*
G37*
G36*
X179984Y-897991D02*
G01*
X208381Y-897991D01*
X208381Y-840079D01*
X148996Y-840079D01*
X148996Y-867003D01*
X149606Y-873455D01*
X151384Y-879144D01*
X154178Y-884428D01*
X157937Y-889050D01*
X162560Y-892810D01*
X167843Y-895654D01*
X173532Y-897382D01*
G37*
G36*
X148996Y-759917D02*
G01*
X208381Y-759917D01*
X208381Y-702005D01*
X179984Y-702005D01*
X173532Y-702614D01*
X167843Y-704342D01*
X162560Y-707186D01*
X157937Y-710946D01*
X154178Y-715568D01*
X151384Y-720852D01*
X149606Y-726541D01*
X148996Y-732993D01*
G37*

%LPD*%
G36*
X800049Y-1969516D02*
G01*
X795934Y-1968652D01*
X792581Y-1966214D01*
X790397Y-1962657D01*
X789889Y-1958492D01*
X791108Y-1954530D01*
X793750Y-1951329D01*
X802741Y-1944319D01*
X805992Y-1941423D01*
X816406Y-1931009D01*
X819302Y-1927758D01*
X828344Y-1916175D01*
X830783Y-1912670D01*
X838403Y-1900072D01*
X840384Y-1896262D01*
X846429Y-1882851D01*
X847953Y-1878838D01*
X852322Y-1864817D01*
X853389Y-1860600D01*
X856030Y-1846122D01*
X856538Y-1841804D01*
X857453Y-1827123D01*
X857453Y-1822856D01*
X856538Y-1808175D01*
X856030Y-1803857D01*
X853389Y-1789379D01*
X852322Y-1785213D01*
X847953Y-1771142D01*
X846429Y-1767179D01*
X840384Y-1753717D01*
X838403Y-1749907D01*
X830783Y-1737360D01*
X828344Y-1733854D01*
X819302Y-1722221D01*
X816406Y-1718970D01*
X805992Y-1708556D01*
X802741Y-1705711D01*
X791159Y-1696618D01*
X787654Y-1694230D01*
X775055Y-1686610D01*
X771245Y-1684629D01*
X757834Y-1678584D01*
X753821Y-1677060D01*
X747369Y-1675028D01*
X744270Y-1673453D01*
X741934Y-1670913D01*
X740511Y-1667764D01*
X740257Y-1664309D01*
X740511Y-1661972D01*
X740511Y-1537970D01*
X739851Y-1531569D01*
X738124Y-1525828D01*
X735330Y-1520545D01*
X731520Y-1515973D01*
X723036Y-1509217D01*
X721156Y-1505712D01*
X720750Y-1501749D01*
X721918Y-1497990D01*
X724408Y-1494891D01*
X727913Y-1493062D01*
X731875Y-1492656D01*
X735482Y-1493012D01*
X804519Y-1493012D01*
X810920Y-1492351D01*
X816660Y-1490624D01*
X821944Y-1487830D01*
X826516Y-1484020D01*
X830326Y-1479448D01*
X833119Y-1474165D01*
X834847Y-1468424D01*
X835507Y-1462024D01*
X835507Y-1338021D01*
X834847Y-1331569D01*
X833069Y-1325676D01*
X832713Y-1321714D01*
X833831Y-1317955D01*
X840333Y-1310132D01*
X841044Y-1308760D01*
X843889Y-1305458D01*
X847801Y-1303629D01*
X852169Y-1303629D01*
X856132Y-1305458D01*
X858977Y-1308760D01*
X859688Y-1310132D01*
X863447Y-1314754D01*
X868070Y-1318514D01*
X873353Y-1321358D01*
X879043Y-1323086D01*
X885494Y-1323695D01*
X898804Y-1323695D01*
X898804Y-1277924D01*
X855675Y-1277924D01*
X851763Y-1277162D01*
X848461Y-1274978D01*
X846277Y-1271676D01*
X845515Y-1267764D01*
X845515Y-1232204D01*
X846277Y-1228344D01*
X848461Y-1225042D01*
X851763Y-1222806D01*
X855675Y-1222044D01*
X898804Y-1222044D01*
X898804Y-1176274D01*
X885494Y-1176274D01*
X879043Y-1176934D01*
X873353Y-1178661D01*
X868070Y-1181455D01*
X863447Y-1185265D01*
X859688Y-1189888D01*
X858977Y-1191209D01*
X856132Y-1194511D01*
X852169Y-1196340D01*
X847801Y-1196340D01*
X843889Y-1194511D01*
X841044Y-1191209D01*
X840333Y-1189888D01*
X836523Y-1185265D01*
X831900Y-1181455D01*
X826668Y-1178661D01*
X820928Y-1176934D01*
X814476Y-1176274D01*
X799642Y-1176274D01*
X795883Y-1175562D01*
X792683Y-1173530D01*
X790448Y-1170482D01*
X789482Y-1166774D01*
X789990Y-1163015D01*
X791768Y-1159662D01*
X793546Y-1157579D01*
X796340Y-1152296D01*
X798068Y-1146606D01*
X798728Y-1140155D01*
X798728Y-1060500D01*
X798068Y-1054049D01*
X796340Y-1048359D01*
X793546Y-1043076D01*
X789736Y-1038453D01*
X785114Y-1034694D01*
X783793Y-1033983D01*
X780491Y-1031138D01*
X778662Y-1027176D01*
X778662Y-1022807D01*
X780491Y-1018844D01*
X783793Y-1016050D01*
X785114Y-1015339D01*
X789736Y-1011529D01*
X793546Y-1006906D01*
X796340Y-1001674D01*
X798068Y-995934D01*
X798728Y-989482D01*
X798728Y-941273D01*
X799490Y-937412D01*
X801624Y-934110D01*
X807059Y-928624D01*
X812038Y-922070D01*
X815594Y-914908D01*
X817778Y-907237D01*
X818540Y-898855D01*
X818540Y-881532D01*
X819454Y-877316D01*
X821994Y-873912D01*
X825753Y-871829D01*
X827278Y-871321D01*
X832561Y-868527D01*
X837184Y-864717D01*
X840994Y-860145D01*
X843787Y-854862D01*
X845515Y-849121D01*
X846175Y-842721D01*
X846175Y-757275D01*
X845515Y-750874D01*
X843787Y-745134D01*
X840994Y-739902D01*
X837184Y-735279D01*
X832561Y-731469D01*
X827278Y-728675D01*
X821588Y-726948D01*
X815136Y-726287D01*
X791616Y-726287D01*
X787704Y-725525D01*
X784402Y-723341D01*
X707390Y-646277D01*
X705104Y-642721D01*
X704443Y-638556D01*
X705510Y-634492D01*
X708202Y-631190D01*
X711962Y-629310D01*
X719074Y-627380D01*
X727913Y-623265D01*
X735888Y-617677D01*
X742746Y-610768D01*
X748334Y-602792D01*
X752449Y-594004D01*
X754989Y-584555D01*
X755853Y-574903D01*
X754989Y-565200D01*
X752449Y-555752D01*
X748334Y-546963D01*
X742746Y-538988D01*
X735888Y-532079D01*
X727913Y-526491D01*
X719074Y-522376D01*
X711962Y-520496D01*
X708253Y-518617D01*
X705612Y-515416D01*
X704494Y-511403D01*
X705002Y-507288D01*
X707186Y-503732D01*
X710539Y-501345D01*
X714603Y-500481D01*
X800709Y-500481D01*
X809091Y-499668D01*
X813816Y-498957D01*
X817422Y-499973D01*
X820470Y-502208D01*
X822452Y-505409D01*
X823163Y-509117D01*
X823163Y-519988D01*
X823976Y-528421D01*
X826312Y-535990D01*
X830021Y-543001D01*
X835050Y-549097D01*
X841197Y-554126D01*
X848207Y-557885D01*
X855776Y-560171D01*
X864158Y-561035D01*
X958799Y-561035D01*
X962660Y-561797D01*
X965962Y-563981D01*
X991412Y-589432D01*
X995171Y-592886D01*
X999032Y-595884D01*
X1003198Y-598474D01*
X1007516Y-600760D01*
X1012037Y-602640D01*
X1016660Y-604113D01*
X1021435Y-605129D01*
X1026312Y-605790D01*
X1031392Y-605993D01*
X1064463Y-605993D01*
X1068019Y-606653D01*
X1071168Y-608533D01*
X1073404Y-611378D01*
X1075690Y-615696D01*
X1080719Y-621792D01*
X1086866Y-626821D01*
X1091133Y-629869D01*
X1093012Y-632968D01*
X1093673Y-636574D01*
X1093673Y-788466D01*
X1093012Y-792022D01*
X1091133Y-795121D01*
X1086866Y-798169D01*
X1080719Y-803198D01*
X1075690Y-809345D01*
X1071981Y-816305D01*
X1069644Y-823925D01*
X1068832Y-832307D01*
X1068832Y-917702D01*
X1069644Y-926084D01*
X1071981Y-933703D01*
X1075690Y-940663D01*
X1080719Y-946810D01*
X1086866Y-951839D01*
X1091133Y-954836D01*
X1093012Y-957986D01*
X1093673Y-961542D01*
X1093673Y-1113434D01*
X1093012Y-1117041D01*
X1091133Y-1120140D01*
X1086866Y-1123137D01*
X1080719Y-1128166D01*
X1075690Y-1134313D01*
X1071981Y-1141323D01*
X1069644Y-1148892D01*
X1068832Y-1157274D01*
X1068832Y-1242720D01*
X1069644Y-1251102D01*
X1071981Y-1258671D01*
X1075690Y-1265682D01*
X1080719Y-1271828D01*
X1086866Y-1276858D01*
X1091133Y-1279855D01*
X1093012Y-1282954D01*
X1093673Y-1286560D01*
X1093673Y-1438452D01*
X1093012Y-1442008D01*
X1091133Y-1445158D01*
X1086866Y-1448155D01*
X1080719Y-1453184D01*
X1075690Y-1459331D01*
X1071981Y-1466291D01*
X1069644Y-1473911D01*
X1068832Y-1482293D01*
X1068832Y-1567688D01*
X1069644Y-1576070D01*
X1071981Y-1583639D01*
X1076401Y-1591767D01*
X1077569Y-1595780D01*
X1077061Y-1599895D01*
X1074928Y-1603502D01*
X1071524Y-1605940D01*
X1067460Y-1606804D01*
X1022146Y-1606804D01*
X1018235Y-1606042D01*
X1014933Y-1603806D01*
X964133Y-1553006D01*
X962101Y-1550111D01*
X961186Y-1546656D01*
X960628Y-1539849D01*
X958138Y-1529994D01*
X954074Y-1520698D01*
X948486Y-1512214D01*
X941628Y-1504746D01*
X933602Y-1498498D01*
X924712Y-1493672D01*
X915111Y-1490370D01*
X905052Y-1488694D01*
X894943Y-1488694D01*
X884885Y-1490370D01*
X875284Y-1493672D01*
X866394Y-1498498D01*
X858367Y-1504746D01*
X851509Y-1512214D01*
X845921Y-1520698D01*
X841857Y-1529994D01*
X839368Y-1539849D01*
X838504Y-1549958D01*
X839368Y-1560068D01*
X841857Y-1569923D01*
X845921Y-1579219D01*
X851509Y-1587703D01*
X858367Y-1595170D01*
X866394Y-1601419D01*
X875284Y-1606245D01*
X884885Y-1609547D01*
X899820Y-1611985D01*
X903122Y-1614220D01*
X970686Y-1681683D01*
X977290Y-1686712D01*
X984453Y-1690268D01*
X992124Y-1692402D01*
X1000506Y-1693214D01*
X1127912Y-1693214D01*
X1131773Y-1693976D01*
X1135075Y-1696161D01*
X1182116Y-1743252D01*
X1184402Y-1746605D01*
X1185113Y-1750618D01*
X1184198Y-1754581D01*
X1178560Y-1767179D01*
X1177036Y-1771142D01*
X1172667Y-1785213D01*
X1171600Y-1789379D01*
X1168958Y-1803857D01*
X1168450Y-1808175D01*
X1167587Y-1822856D01*
X1167587Y-1827123D01*
X1168450Y-1841804D01*
X1168958Y-1846122D01*
X1171600Y-1860600D01*
X1172667Y-1864817D01*
X1177036Y-1878838D01*
X1178560Y-1882851D01*
X1184605Y-1896262D01*
X1186586Y-1900072D01*
X1194206Y-1912670D01*
X1196644Y-1916175D01*
X1205687Y-1927758D01*
X1208582Y-1931009D01*
X1218996Y-1941423D01*
X1222248Y-1944319D01*
X1231239Y-1951329D01*
X1233932Y-1954530D01*
X1235100Y-1958492D01*
X1234592Y-1962657D01*
X1232458Y-1966214D01*
X1229055Y-1968652D01*
X1224991Y-1969516D01*
G37*

%LPC*%
G36*
X951839Y-1323695D02*
G01*
X965149Y-1323695D01*
X971600Y-1323086D01*
X977290Y-1321358D01*
X982573Y-1318514D01*
X987196Y-1314754D01*
X990955Y-1310132D01*
X993800Y-1304848D01*
X995527Y-1299159D01*
X996137Y-1292707D01*
X996137Y-1277924D01*
X951839Y-1277924D01*
G37*
G36*
X951839Y-1222044D02*
G01*
X996137Y-1222044D01*
X996137Y-1207312D01*
X995527Y-1200861D01*
X993800Y-1195120D01*
X990955Y-1189888D01*
X987196Y-1185265D01*
X982573Y-1181455D01*
X977290Y-1178661D01*
X971600Y-1176934D01*
X965149Y-1176274D01*
X951839Y-1176274D01*
G37*

%LPD*%
G36*
X1425041Y-1969516D02*
G01*
X1420926Y-1968652D01*
X1417574Y-1966214D01*
X1415440Y-1962657D01*
X1414881Y-1958492D01*
X1416100Y-1954530D01*
X1418793Y-1951329D01*
X1427784Y-1944319D01*
X1431036Y-1941423D01*
X1441399Y-1931009D01*
X1444294Y-1927758D01*
X1453388Y-1916175D01*
X1455775Y-1912670D01*
X1463395Y-1900072D01*
X1465376Y-1896262D01*
X1471422Y-1882851D01*
X1472946Y-1878838D01*
X1477365Y-1864817D01*
X1478381Y-1860600D01*
X1481023Y-1846122D01*
X1481531Y-1841804D01*
X1482445Y-1827123D01*
X1482445Y-1822856D01*
X1481531Y-1808175D01*
X1481023Y-1803857D01*
X1478381Y-1789379D01*
X1477365Y-1785213D01*
X1472946Y-1771142D01*
X1471422Y-1767179D01*
X1465376Y-1753717D01*
X1463395Y-1749907D01*
X1455775Y-1737360D01*
X1453388Y-1733854D01*
X1444294Y-1722221D01*
X1441399Y-1718970D01*
X1431036Y-1708556D01*
X1427784Y-1705711D01*
X1416151Y-1696618D01*
X1412646Y-1694230D01*
X1400098Y-1686610D01*
X1396288Y-1684629D01*
X1382826Y-1678584D01*
X1378864Y-1677060D01*
X1364792Y-1672640D01*
X1360627Y-1671624D01*
X1346149Y-1668983D01*
X1341831Y-1668424D01*
X1327099Y-1667560D01*
X1322882Y-1667560D01*
X1308150Y-1668424D01*
X1303883Y-1668983D01*
X1289405Y-1671624D01*
X1285189Y-1672640D01*
X1271168Y-1677060D01*
X1267155Y-1678584D01*
X1254607Y-1684223D01*
X1250645Y-1685086D01*
X1246632Y-1684375D01*
X1243228Y-1682140D01*
X1186789Y-1625650D01*
X1184605Y-1622501D01*
X1183792Y-1618792D01*
X1184402Y-1615033D01*
X1186332Y-1611782D01*
X1189329Y-1609445D01*
X1192936Y-1608378D01*
X1197914Y-1607870D01*
X1205484Y-1605584D01*
X1212494Y-1601825D01*
X1218539Y-1596847D01*
X1221587Y-1595120D01*
X1224991Y-1594561D01*
X1228445Y-1595120D01*
X1231442Y-1596847D01*
X1237538Y-1601825D01*
X1244498Y-1605584D01*
X1252118Y-1607870D01*
X1260500Y-1608683D01*
X1340154Y-1608683D01*
X1348536Y-1607870D01*
X1356106Y-1605584D01*
X1363116Y-1601825D01*
X1369263Y-1596796D01*
X1374292Y-1590700D01*
X1376578Y-1586382D01*
X1378864Y-1583537D01*
X1381963Y-1581658D01*
X1385570Y-1580997D01*
X1402181Y-1580997D01*
X1404924Y-1581404D01*
X1407464Y-1582521D01*
X1417574Y-1588668D01*
X1427937Y-1592986D01*
X1438808Y-1595577D01*
X1450035Y-1596491D01*
X1461211Y-1595577D01*
X1472082Y-1592986D01*
X1482445Y-1588668D01*
X1492046Y-1582826D01*
X1500530Y-1575511D01*
X1507845Y-1567027D01*
X1513687Y-1557426D01*
X1518005Y-1547063D01*
X1520596Y-1536192D01*
X1521510Y-1525016D01*
X1520596Y-1513789D01*
X1518005Y-1502918D01*
X1513687Y-1492554D01*
X1507845Y-1482953D01*
X1500530Y-1474470D01*
X1489202Y-1464564D01*
X1487525Y-1461058D01*
X1487322Y-1457198D01*
X1488541Y-1453540D01*
X1491030Y-1450594D01*
X1494434Y-1448816D01*
X1496618Y-1448155D01*
X1501902Y-1445310D01*
X1506524Y-1441551D01*
X1510334Y-1436928D01*
X1513128Y-1431645D01*
X1514856Y-1425956D01*
X1515516Y-1419504D01*
X1515516Y-1403858D01*
X1471320Y-1403858D01*
X1471320Y-1444193D01*
X1470507Y-1448257D01*
X1468069Y-1451660D01*
X1464513Y-1453794D01*
X1460398Y-1454353D01*
X1450035Y-1453489D01*
X1438808Y-1454404D01*
X1431188Y-1456232D01*
X1427530Y-1456436D01*
X1424025Y-1455318D01*
X1421180Y-1453083D01*
X1419301Y-1449933D01*
X1418640Y-1446377D01*
X1418640Y-1403858D01*
X1395679Y-1403858D01*
X1391767Y-1403096D01*
X1388516Y-1400860D01*
X1386281Y-1397558D01*
X1385519Y-1393698D01*
X1385519Y-1356309D01*
X1386281Y-1352397D01*
X1388516Y-1349146D01*
X1391767Y-1346911D01*
X1395679Y-1346149D01*
X1418640Y-1346149D01*
X1418640Y-1299514D01*
X1405483Y-1299514D01*
X1399032Y-1300124D01*
X1393342Y-1301851D01*
X1387246Y-1305102D01*
X1383944Y-1306220D01*
X1380490Y-1306118D01*
X1377238Y-1304848D01*
X1373632Y-1301394D01*
X1367332Y-1296263D01*
X1363675Y-1294079D01*
X1360779Y-1291539D01*
X1359001Y-1288084D01*
X1358696Y-1284173D01*
X1359865Y-1280464D01*
X1362354Y-1277467D01*
X1369263Y-1271828D01*
X1374292Y-1265682D01*
X1376578Y-1261364D01*
X1378864Y-1258519D01*
X1381963Y-1256639D01*
X1385570Y-1255979D01*
X1402181Y-1255979D01*
X1404924Y-1256334D01*
X1407464Y-1257452D01*
X1417574Y-1263650D01*
X1427937Y-1267968D01*
X1438808Y-1270558D01*
X1450035Y-1271473D01*
X1461211Y-1270558D01*
X1472082Y-1267968D01*
X1482445Y-1263650D01*
X1492046Y-1257808D01*
X1500530Y-1250492D01*
X1507845Y-1242009D01*
X1513687Y-1232408D01*
X1518005Y-1222044D01*
X1520596Y-1211173D01*
X1521510Y-1199997D01*
X1520596Y-1188770D01*
X1518005Y-1177899D01*
X1513687Y-1167536D01*
X1507845Y-1157935D01*
X1500530Y-1149451D01*
X1489202Y-1139545D01*
X1487576Y-1136040D01*
X1487322Y-1132179D01*
X1488541Y-1128522D01*
X1491030Y-1125575D01*
X1494434Y-1123797D01*
X1496618Y-1123137D01*
X1501902Y-1120343D01*
X1506524Y-1116533D01*
X1510334Y-1111910D01*
X1513128Y-1106678D01*
X1514856Y-1100937D01*
X1515516Y-1094486D01*
X1515516Y-1078839D01*
X1471320Y-1078839D01*
X1471320Y-1119174D01*
X1470507Y-1123238D01*
X1468069Y-1126642D01*
X1464513Y-1128776D01*
X1460398Y-1129334D01*
X1450035Y-1128471D01*
X1438808Y-1129385D01*
X1431188Y-1131214D01*
X1427530Y-1131417D01*
X1424025Y-1130300D01*
X1421180Y-1128064D01*
X1419301Y-1124915D01*
X1418640Y-1121359D01*
X1418640Y-1078839D01*
X1395679Y-1078839D01*
X1391767Y-1078077D01*
X1388516Y-1075893D01*
X1386281Y-1072591D01*
X1385519Y-1068679D01*
X1385519Y-1031290D01*
X1386281Y-1027430D01*
X1388516Y-1024128D01*
X1391767Y-1021943D01*
X1395679Y-1021130D01*
X1418640Y-1021130D01*
X1418640Y-974496D01*
X1405483Y-974496D01*
X1399032Y-975106D01*
X1393342Y-976884D01*
X1387246Y-980135D01*
X1383944Y-981202D01*
X1380490Y-981100D01*
X1377238Y-979881D01*
X1373632Y-976376D01*
X1367332Y-971245D01*
X1363675Y-969111D01*
X1360779Y-966520D01*
X1359001Y-963066D01*
X1358696Y-959205D01*
X1359865Y-955497D01*
X1362354Y-952500D01*
X1369263Y-946810D01*
X1374292Y-940663D01*
X1376578Y-936396D01*
X1378864Y-933551D01*
X1381963Y-931671D01*
X1385570Y-931011D01*
X1402130Y-931011D01*
X1404924Y-931367D01*
X1407464Y-932484D01*
X1417574Y-938682D01*
X1427937Y-943000D01*
X1438808Y-945591D01*
X1450035Y-946505D01*
X1461211Y-945591D01*
X1472082Y-943000D01*
X1482445Y-938682D01*
X1492046Y-932840D01*
X1500530Y-925525D01*
X1507845Y-917041D01*
X1513687Y-907440D01*
X1518005Y-897077D01*
X1520596Y-886206D01*
X1521510Y-875030D01*
X1520596Y-863803D01*
X1518005Y-852932D01*
X1513687Y-842568D01*
X1507845Y-832967D01*
X1500530Y-824484D01*
X1489202Y-814578D01*
X1487525Y-811072D01*
X1487271Y-807212D01*
X1488490Y-803554D01*
X1490980Y-800608D01*
X1494434Y-798830D01*
X1496618Y-798118D01*
X1501902Y-795324D01*
X1506524Y-791514D01*
X1510334Y-786942D01*
X1513128Y-781659D01*
X1514856Y-775919D01*
X1515516Y-769518D01*
X1515516Y-753872D01*
X1471320Y-753872D01*
X1471320Y-794207D01*
X1470507Y-798271D01*
X1468069Y-801674D01*
X1464513Y-803808D01*
X1460398Y-804367D01*
X1450035Y-803503D01*
X1438808Y-804418D01*
X1431188Y-806246D01*
X1427530Y-806450D01*
X1424025Y-805332D01*
X1421180Y-803097D01*
X1419301Y-799947D01*
X1418640Y-796391D01*
X1418640Y-753872D01*
X1395679Y-753872D01*
X1391767Y-753059D01*
X1388516Y-750874D01*
X1386281Y-747572D01*
X1385519Y-743712D01*
X1385519Y-706323D01*
X1386281Y-702411D01*
X1388516Y-699109D01*
X1391767Y-696925D01*
X1395679Y-696163D01*
X1418640Y-696163D01*
X1418640Y-649478D01*
X1405483Y-649478D01*
X1399032Y-650138D01*
X1393342Y-651865D01*
X1387246Y-655116D01*
X1383944Y-656183D01*
X1380490Y-656132D01*
X1377238Y-654862D01*
X1373632Y-651408D01*
X1367332Y-646226D01*
X1363675Y-644093D01*
X1360779Y-641553D01*
X1359001Y-638048D01*
X1358696Y-634187D01*
X1359865Y-630478D01*
X1362354Y-627481D01*
X1369263Y-621792D01*
X1374292Y-615696D01*
X1376578Y-611378D01*
X1378864Y-608533D01*
X1381963Y-606653D01*
X1385519Y-606044D01*
X1402181Y-606044D01*
X1404975Y-606399D01*
X1407515Y-607517D01*
X1417574Y-613664D01*
X1427937Y-617982D01*
X1438808Y-620572D01*
X1450035Y-621487D01*
X1461211Y-620572D01*
X1472082Y-617982D01*
X1482445Y-613664D01*
X1492046Y-607822D01*
X1500530Y-600506D01*
X1507845Y-592023D01*
X1513687Y-582422D01*
X1518005Y-572058D01*
X1520596Y-561187D01*
X1521510Y-550011D01*
X1520596Y-538784D01*
X1518005Y-527913D01*
X1513687Y-517550D01*
X1507845Y-507949D01*
X1500530Y-499465D01*
X1489202Y-489559D01*
X1487525Y-486054D01*
X1487322Y-482193D01*
X1488541Y-478535D01*
X1491030Y-475589D01*
X1494434Y-473811D01*
X1496618Y-473151D01*
X1501902Y-470306D01*
X1506524Y-466547D01*
X1510334Y-461924D01*
X1513128Y-456641D01*
X1514856Y-450951D01*
X1515516Y-444500D01*
X1515516Y-428853D01*
X1471320Y-428853D01*
X1471320Y-469188D01*
X1470507Y-473252D01*
X1468069Y-476656D01*
X1464513Y-478790D01*
X1460398Y-479348D01*
X1450035Y-478485D01*
X1438808Y-479399D01*
X1431188Y-481228D01*
X1427530Y-481431D01*
X1424025Y-480314D01*
X1421180Y-478078D01*
X1419301Y-474929D01*
X1418640Y-471373D01*
X1418640Y-428853D01*
X1395679Y-428853D01*
X1391767Y-428091D01*
X1388516Y-425856D01*
X1386281Y-422554D01*
X1385519Y-418693D01*
X1385519Y-381304D01*
X1386281Y-377444D01*
X1388516Y-374142D01*
X1391767Y-371906D01*
X1395679Y-371144D01*
X1418640Y-371144D01*
X1418640Y-319074D01*
X1419098Y-316077D01*
X1420418Y-313283D01*
X1422552Y-311099D01*
X1433931Y-302158D01*
X1438097Y-298500D01*
X1448511Y-288086D01*
X1452168Y-283921D01*
X1461262Y-272338D01*
X1464360Y-267817D01*
X1471930Y-255270D01*
X1474520Y-250393D01*
X1480566Y-236931D01*
X1482496Y-231851D01*
X1486865Y-217779D01*
X1488236Y-212394D01*
X1490878Y-197916D01*
X1491538Y-192430D01*
X1492402Y-177698D01*
X1492402Y-172262D01*
X1491538Y-157581D01*
X1490878Y-152044D01*
X1488236Y-137566D01*
X1486865Y-132232D01*
X1482496Y-118160D01*
X1480566Y-113080D01*
X1474520Y-99618D01*
X1471930Y-94742D01*
X1464360Y-82143D01*
X1461262Y-77673D01*
X1452168Y-66090D01*
X1448511Y-61925D01*
X1438097Y-51511D01*
X1434439Y-48260D01*
X1432001Y-45008D01*
X1431036Y-41097D01*
X1431645Y-37084D01*
X1433830Y-33629D01*
X1437182Y-31343D01*
X1441145Y-30530D01*
X1898599Y-30530D01*
X1910588Y-31445D01*
X1920239Y-33629D01*
X1929485Y-37185D01*
X1938121Y-42011D01*
X1945995Y-48056D01*
X1952904Y-55117D01*
X1958746Y-63093D01*
X1963420Y-71831D01*
X1966772Y-81127D01*
X1968754Y-90830D01*
X1969465Y-101396D01*
X1969465Y-299974D01*
X1968652Y-304038D01*
X1966214Y-307441D01*
X1962657Y-309575D01*
X1958492Y-310083D01*
X1954530Y-308914D01*
X1951329Y-306222D01*
X1944319Y-297230D01*
X1941423Y-293979D01*
X1931009Y-283565D01*
X1927758Y-280720D01*
X1916175Y-271627D01*
X1912670Y-269240D01*
X1900072Y-261620D01*
X1896262Y-259588D01*
X1882851Y-253542D01*
X1878838Y-252069D01*
X1864817Y-247650D01*
X1860600Y-246634D01*
X1846122Y-243941D01*
X1841804Y-243433D01*
X1827123Y-242570D01*
X1822856Y-242570D01*
X1808175Y-243433D01*
X1803857Y-243941D01*
X1789379Y-246634D01*
X1785213Y-247650D01*
X1771142Y-252069D01*
X1767179Y-253542D01*
X1753717Y-259588D01*
X1749907Y-261620D01*
X1737360Y-269240D01*
X1733854Y-271627D01*
X1722221Y-280720D01*
X1718970Y-283565D01*
X1708556Y-293979D01*
X1705711Y-297230D01*
X1696618Y-308864D01*
X1694230Y-312318D01*
X1686610Y-324916D01*
X1684629Y-328726D01*
X1678584Y-342188D01*
X1677060Y-346151D01*
X1672640Y-360222D01*
X1671624Y-364388D01*
X1668983Y-378866D01*
X1668424Y-383184D01*
X1667560Y-397865D01*
X1667560Y-402132D01*
X1668424Y-416814D01*
X1668983Y-421132D01*
X1671624Y-435609D01*
X1672640Y-439775D01*
X1677060Y-453847D01*
X1678584Y-457809D01*
X1684223Y-470408D01*
X1685086Y-474370D01*
X1684375Y-478332D01*
X1682140Y-481736D01*
X1668272Y-495706D01*
X1663293Y-502259D01*
X1659737Y-509422D01*
X1657553Y-517093D01*
X1656791Y-525475D01*
X1656791Y-552500D01*
X1656080Y-556209D01*
X1654098Y-559358D01*
X1651507Y-562203D01*
X1645920Y-570738D01*
X1641856Y-580034D01*
X1639366Y-589838D01*
X1638503Y-599998D01*
X1639366Y-610108D01*
X1641856Y-619912D01*
X1645920Y-629208D01*
X1651507Y-637743D01*
X1658366Y-645210D01*
X1666392Y-651459D01*
X1675282Y-656285D01*
X1684883Y-659587D01*
X1694942Y-661212D01*
X1705051Y-661212D01*
X1715109Y-659587D01*
X1724710Y-656285D01*
X1733600Y-651459D01*
X1741627Y-645210D01*
X1748485Y-637743D01*
X1754073Y-629208D01*
X1758137Y-619912D01*
X1760626Y-610108D01*
X1761489Y-599998D01*
X1760626Y-589838D01*
X1758137Y-580034D01*
X1754073Y-570738D01*
X1748485Y-562203D01*
X1745894Y-559358D01*
X1743913Y-556209D01*
X1743202Y-551383D01*
X1744014Y-547420D01*
X1746250Y-544118D01*
X1749653Y-541934D01*
X1753616Y-541223D01*
X1757527Y-542086D01*
X1767179Y-546455D01*
X1771142Y-547928D01*
X1785213Y-552348D01*
X1789379Y-553364D01*
X1803857Y-556056D01*
X1808175Y-556564D01*
X1822856Y-557428D01*
X1827123Y-557428D01*
X1841804Y-556564D01*
X1846122Y-556056D01*
X1860600Y-553364D01*
X1864817Y-552348D01*
X1878838Y-547928D01*
X1882851Y-546455D01*
X1896262Y-540410D01*
X1900072Y-538378D01*
X1912670Y-530758D01*
X1916175Y-528370D01*
X1927758Y-519277D01*
X1931009Y-516432D01*
X1941423Y-506018D01*
X1944319Y-502767D01*
X1951329Y-493776D01*
X1954530Y-491083D01*
X1958492Y-489915D01*
X1962657Y-490423D01*
X1966214Y-492556D01*
X1968652Y-495960D01*
X1969465Y-500024D01*
X1969465Y-1499971D01*
X1968652Y-1504035D01*
X1966214Y-1507439D01*
X1962657Y-1509572D01*
X1958492Y-1510080D01*
X1954530Y-1508912D01*
X1951329Y-1506220D01*
X1944319Y-1497228D01*
X1941423Y-1493977D01*
X1931009Y-1483563D01*
X1927758Y-1480718D01*
X1916175Y-1471625D01*
X1912670Y-1469237D01*
X1900072Y-1461617D01*
X1896262Y-1459585D01*
X1882851Y-1453540D01*
X1878838Y-1452067D01*
X1864817Y-1447647D01*
X1860600Y-1446631D01*
X1846122Y-1443939D01*
X1841804Y-1443431D01*
X1827123Y-1442567D01*
X1822856Y-1442567D01*
X1808175Y-1443431D01*
X1803857Y-1443939D01*
X1789379Y-1446631D01*
X1785213Y-1447647D01*
X1771142Y-1452067D01*
X1767179Y-1453540D01*
X1753717Y-1459585D01*
X1749907Y-1461617D01*
X1737360Y-1469237D01*
X1733854Y-1471625D01*
X1722221Y-1480718D01*
X1718970Y-1483563D01*
X1708556Y-1493977D01*
X1705711Y-1497228D01*
X1696618Y-1508861D01*
X1694230Y-1512316D01*
X1686610Y-1524914D01*
X1684629Y-1528724D01*
X1678635Y-1542034D01*
X1675841Y-1549908D01*
X1673707Y-1553464D01*
X1670354Y-1555902D01*
X1666290Y-1556766D01*
X1647698Y-1556766D01*
X1644396Y-1556207D01*
X1641449Y-1554581D01*
X1633626Y-1548485D01*
X1624685Y-1543659D01*
X1615084Y-1540357D01*
X1605076Y-1538732D01*
X1594916Y-1538732D01*
X1584909Y-1540357D01*
X1575308Y-1543659D01*
X1566367Y-1548485D01*
X1558340Y-1554734D01*
X1551482Y-1562201D01*
X1545945Y-1570736D01*
X1541881Y-1580032D01*
X1539341Y-1589836D01*
X1538528Y-1599996D01*
X1539341Y-1610106D01*
X1541881Y-1619910D01*
X1545945Y-1629206D01*
X1551482Y-1637741D01*
X1558340Y-1645208D01*
X1566367Y-1651457D01*
X1575308Y-1656283D01*
X1584909Y-1659585D01*
X1594916Y-1661210D01*
X1605076Y-1661210D01*
X1615084Y-1659585D01*
X1624685Y-1656283D01*
X1633626Y-1651457D01*
X1641500Y-1645310D01*
X1644446Y-1643684D01*
X1647748Y-1643176D01*
X1666239Y-1643176D01*
X1670304Y-1643989D01*
X1673707Y-1646428D01*
X1675841Y-1649984D01*
X1678635Y-1657959D01*
X1684629Y-1671269D01*
X1686610Y-1675079D01*
X1694230Y-1687677D01*
X1696618Y-1691132D01*
X1705711Y-1702765D01*
X1708556Y-1706016D01*
X1718970Y-1716430D01*
X1722221Y-1719275D01*
X1733854Y-1728368D01*
X1737360Y-1730756D01*
X1749907Y-1738375D01*
X1753717Y-1740407D01*
X1767179Y-1746453D01*
X1771142Y-1747926D01*
X1785213Y-1752346D01*
X1789379Y-1753362D01*
X1803857Y-1756054D01*
X1808175Y-1756562D01*
X1822856Y-1757425D01*
X1827123Y-1757425D01*
X1841804Y-1756562D01*
X1846122Y-1756054D01*
X1860600Y-1753362D01*
X1864817Y-1752346D01*
X1878838Y-1747926D01*
X1882851Y-1746453D01*
X1896262Y-1740407D01*
X1900072Y-1738375D01*
X1912670Y-1730756D01*
X1916175Y-1728368D01*
X1927758Y-1719275D01*
X1931009Y-1716430D01*
X1941423Y-1706016D01*
X1944319Y-1702765D01*
X1951329Y-1693773D01*
X1954530Y-1691081D01*
X1958492Y-1689912D01*
X1962657Y-1690420D01*
X1966214Y-1692554D01*
X1968652Y-1695957D01*
X1969465Y-1700022D01*
X1969465Y-1898599D01*
X1968550Y-1910588D01*
X1966366Y-1920239D01*
X1962810Y-1929485D01*
X1957984Y-1938121D01*
X1951939Y-1945995D01*
X1944878Y-1952904D01*
X1936902Y-1958746D01*
X1928164Y-1963420D01*
X1918868Y-1966772D01*
X1909165Y-1968754D01*
X1898599Y-1969516D01*
G37*

%LPC*%
G36*
X1471320Y-1346149D02*
G01*
X1515516Y-1346149D01*
X1515516Y-1330502D01*
X1514856Y-1324051D01*
X1513128Y-1318361D01*
X1510334Y-1313078D01*
X1506524Y-1308455D01*
X1501902Y-1304696D01*
X1496618Y-1301851D01*
X1490929Y-1300124D01*
X1484477Y-1299514D01*
X1471320Y-1299514D01*
G37*
G36*
X1471320Y-1021130D02*
G01*
X1515516Y-1021130D01*
X1515516Y-1005484D01*
X1514856Y-999032D01*
X1513128Y-993343D01*
X1510334Y-988060D01*
X1506524Y-983437D01*
X1501902Y-979678D01*
X1496618Y-976884D01*
X1490929Y-975106D01*
X1484477Y-974496D01*
X1471320Y-974496D01*
G37*
G36*
X1471320Y-696163D02*
G01*
X1515516Y-696163D01*
X1515516Y-680516D01*
X1514856Y-674065D01*
X1513128Y-668324D01*
X1510334Y-663092D01*
X1506524Y-658469D01*
X1501902Y-654659D01*
X1496618Y-651865D01*
X1490929Y-650138D01*
X1484477Y-649478D01*
X1471320Y-649478D01*
G37*
G36*
X1471320Y-371144D02*
G01*
X1515516Y-371144D01*
X1515516Y-355498D01*
X1514856Y-349046D01*
X1513128Y-343357D01*
X1510334Y-338074D01*
X1506524Y-333451D01*
X1501902Y-329692D01*
X1496618Y-326847D01*
X1490929Y-325120D01*
X1484477Y-324510D01*
X1471320Y-324510D01*
G37*

%LPD*%
D10*
X775335Y-800000D02*
G01*
X775335Y-775335D01*
X625000Y-625000D01*
X600336Y-625000D01*
X724999Y-949662D02*
G01*
X775335Y-899327D01*
X775335Y-800000D01*
X380004Y-1215364D02*
G01*
X564636Y-1399997D01*
X580003Y-1399997D01*
X774661Y-1249997D02*
G01*
X769995Y-1254663D01*
X769995Y-1399997D01*
X674999Y-1599996D02*
G01*
X674999Y-1150335D01*
X724999Y-1100335D01*
D11*
X175000Y-399999D02*
G01*
X200004Y-374995D01*
X399887Y-374995D01*
X931181Y-450004D02*
G01*
X901186Y-420009D01*
X756183Y-420009D01*
X449999Y-799998D02*
G01*
X624662Y-800000D01*
X1300335Y-874999D02*
G01*
X1449997Y-874999D01*
X1300327Y-550011D02*
G01*
X1449959Y-550011D01*
X1449994Y-549976D01*
X1300327Y-1199997D02*
G01*
X1300355Y-1199969D01*
X1450007Y-1199969D01*
X1300335Y-1524998D02*
G01*
X1449997Y-1524998D01*
X449999Y-799998D02*
G01*
X380004Y-869993D01*
X380004Y-984630D01*
D10*
X175000Y-1224998D02*
G01*
X184635Y-1215364D01*
X380004Y-1215364D01*
X1824989Y-1599945D02*
G01*
X1599945Y-1599945D01*
X1824997Y-399999D02*
G01*
X1699996Y-525000D01*
X1699996Y-599963D01*
X699998Y-1824997D02*
G01*
X649963Y-1774962D01*
X449999Y-1774962D01*
D11*
X599887Y-469991D02*
G01*
X649869Y-420009D01*
X756183Y-420009D01*
X931181Y-450004D02*
G01*
X949993Y-450004D01*
X1224996Y-175000D01*
X1324998Y-175000D01*
D10*
X899998Y-1549961D02*
G01*
X1000033Y-1649996D01*
X1149997Y-1649996D01*
X1324998Y-1824997D01*
D11*
X1305001Y-399999D02*
G01*
X1325333Y-420331D01*
X1325333Y-550001D01*
X1304996Y-724999D02*
G01*
X1300335Y-729660D01*
X1300335Y-874999D01*
X1305001Y-1050010D02*
G01*
X1325333Y-1070343D01*
X1325333Y-1199995D01*
X1304996Y-1374998D02*
G01*
X1300335Y-1379659D01*
X1300335Y-1524998D01*
X931181Y-450004D02*
G01*
X1031176Y-549998D01*
X1149662Y-549998D01*
X1149662Y-549998D02*
G01*
X1149662Y-874999D01*
X1149662Y-874999D02*
G01*
X1149662Y-1199997D01*
X1149662Y-1199997D02*
G01*
X1149662Y-1524998D01*
D10*
X599887Y-279999D02*
G01*
X594758Y-274871D01*
X474987Y-274871D01*
X600336Y-625000D02*
G01*
X650468Y-574868D01*
X699983Y-574868D01*
D11*
X450087Y-800100D02*
G01*
X449579Y-625094D01*
X399887Y-374995D02*
G01*
X449663Y-424771D01*
X449663Y-625000D01*
D12*
G01*
X600325Y-625000D03*
G01*
X449675Y-625000D03*
G01*
X1300323Y-874999D03*
G01*
X1149673Y-874999D03*
G01*
X1300323Y-1199997D03*
G01*
X1149673Y-1199997D03*
G01*
X1300323Y-1524998D03*
G01*
X1149673Y-1524998D03*
G36*
X1324998Y-1697997D02*
G01*
X1309682Y-1698912D01*
X1294594Y-1701680D01*
X1279964Y-1706252D01*
X1265969Y-1712551D01*
X1252862Y-1720476D01*
X1240772Y-1729925D01*
X1229926Y-1740771D01*
X1220477Y-1752861D01*
X1212552Y-1765968D01*
X1206253Y-1779963D01*
X1201681Y-1794593D01*
X1198913Y-1809681D01*
X1197998Y-1824997D01*
X1197998Y-1824997D01*
X1198913Y-1840313D01*
X1201681Y-1855401D01*
X1206253Y-1870031D01*
X1212552Y-1884027D01*
X1220477Y-1897133D01*
X1229926Y-1909224D01*
X1240772Y-1920069D01*
X1252862Y-1929518D01*
X1265969Y-1937443D01*
X1279964Y-1943742D01*
X1294594Y-1948314D01*
X1309682Y-1951083D01*
X1324998Y-1951997D01*
X1324998Y-1951997D01*
X1340314Y-1951083D01*
X1355402Y-1948314D01*
X1370032Y-1943742D01*
X1384028Y-1937443D01*
X1397134Y-1929518D01*
X1409225Y-1920069D01*
X1420070Y-1909224D01*
X1429519Y-1897133D01*
X1437444Y-1884027D01*
X1443743Y-1870031D01*
X1448315Y-1855401D01*
X1451084Y-1840313D01*
X1451998Y-1824997D01*
X1451998Y-1824997D01*
X1451084Y-1809681D01*
X1448315Y-1794593D01*
X1443743Y-1779963D01*
X1437444Y-1765968D01*
X1429519Y-1752861D01*
X1420070Y-1740771D01*
X1409225Y-1729925D01*
X1397134Y-1720476D01*
X1384028Y-1712551D01*
X1370032Y-1706252D01*
X1355402Y-1701680D01*
X1340314Y-1698912D01*
X1324998Y-1697997D01*
G37*
G36*
X1824997Y-272999D02*
G01*
X1809681Y-273913D01*
X1794593Y-276682D01*
X1779963Y-281254D01*
X1765968Y-287553D01*
X1752861Y-295478D01*
X1740771Y-304927D01*
X1729925Y-315772D01*
X1720476Y-327863D01*
X1712551Y-340969D01*
X1706252Y-354964D01*
X1701680Y-369595D01*
X1698912Y-384682D01*
X1697997Y-399999D01*
X1697997Y-399999D01*
X1698912Y-415315D01*
X1701680Y-430403D01*
X1706252Y-445033D01*
X1712551Y-459028D01*
X1720476Y-472135D01*
X1729925Y-484225D01*
X1740771Y-495071D01*
X1752861Y-504520D01*
X1765968Y-512445D01*
X1779963Y-518744D01*
X1794593Y-523316D01*
X1809681Y-526084D01*
X1824997Y-526999D01*
X1824997Y-526999D01*
X1840313Y-526084D01*
X1855401Y-523316D01*
X1870031Y-518744D01*
X1884027Y-512445D01*
X1897133Y-504520D01*
X1909224Y-495071D01*
X1920069Y-484225D01*
X1929518Y-472135D01*
X1937443Y-459028D01*
X1943742Y-445033D01*
X1948314Y-430403D01*
X1951083Y-415315D01*
X1951997Y-399999D01*
X1951997Y-399999D01*
X1951083Y-384682D01*
X1948314Y-369595D01*
X1943742Y-354964D01*
X1937443Y-340969D01*
X1929518Y-327863D01*
X1920069Y-315772D01*
X1909224Y-304927D01*
X1897133Y-295478D01*
X1884027Y-287553D01*
X1870031Y-281254D01*
X1855401Y-276682D01*
X1840313Y-273913D01*
X1824997Y-272999D01*
G37*
G36*
X1824997Y-1472996D02*
G01*
X1809681Y-1473911D01*
X1794593Y-1476679D01*
X1779963Y-1481251D01*
X1765968Y-1487551D01*
X1752861Y-1495475D01*
X1740771Y-1504924D01*
X1729925Y-1515770D01*
X1720476Y-1527860D01*
X1712551Y-1540967D01*
X1706252Y-1554962D01*
X1701680Y-1569593D01*
X1698912Y-1584680D01*
X1697997Y-1599996D01*
X1697997Y-1599996D01*
X1698912Y-1615312D01*
X1701680Y-1630400D01*
X1706252Y-1645030D01*
X1712551Y-1659026D01*
X1720476Y-1672132D01*
X1729925Y-1684223D01*
X1740771Y-1695069D01*
X1752861Y-1704517D01*
X1765968Y-1712442D01*
X1779963Y-1718741D01*
X1794593Y-1723313D01*
X1809681Y-1726082D01*
X1824997Y-1726996D01*
X1824997Y-1726996D01*
X1840313Y-1726082D01*
X1855401Y-1723313D01*
X1870031Y-1718741D01*
X1884027Y-1712442D01*
X1897133Y-1704517D01*
X1909224Y-1695069D01*
X1920069Y-1684223D01*
X1929518Y-1672132D01*
X1937443Y-1659026D01*
X1943742Y-1645030D01*
X1948314Y-1630400D01*
X1951083Y-1615312D01*
X1951997Y-1599996D01*
X1951997Y-1599996D01*
X1951083Y-1584680D01*
X1948314Y-1569593D01*
X1943742Y-1554962D01*
X1937443Y-1540967D01*
X1929518Y-1527860D01*
X1920069Y-1515770D01*
X1909224Y-1504924D01*
X1897133Y-1495475D01*
X1884027Y-1487551D01*
X1870031Y-1481251D01*
X1855401Y-1476679D01*
X1840313Y-1473911D01*
X1824997Y-1472996D01*
G37*
G36*
X699998Y-1697997D02*
G01*
X684682Y-1698912D01*
X669594Y-1701680D01*
X654964Y-1706252D01*
X640969Y-1712551D01*
X627862Y-1720476D01*
X615772Y-1729925D01*
X604926Y-1740771D01*
X595477Y-1752861D01*
X587552Y-1765968D01*
X581253Y-1779963D01*
X576681Y-1794593D01*
X573912Y-1809681D01*
X572998Y-1824997D01*
X572998Y-1824997D01*
X573912Y-1840313D01*
X576681Y-1855401D01*
X581253Y-1870031D01*
X587552Y-1884027D01*
X595477Y-1897133D01*
X604926Y-1909224D01*
X615772Y-1920069D01*
X627862Y-1929518D01*
X640969Y-1937443D01*
X654964Y-1943742D01*
X669594Y-1948314D01*
X684682Y-1951083D01*
X699998Y-1951997D01*
X699998Y-1951997D01*
X715314Y-1951083D01*
X730402Y-1948314D01*
X745032Y-1943742D01*
X759028Y-1937443D01*
X772134Y-1929518D01*
X784225Y-1920069D01*
X795070Y-1909224D01*
X804519Y-1897133D01*
X812444Y-1884027D01*
X818743Y-1870031D01*
X823315Y-1855401D01*
X826084Y-1840313D01*
X826998Y-1824997D01*
X826998Y-1824997D01*
X826084Y-1809681D01*
X823315Y-1794593D01*
X818743Y-1779963D01*
X812444Y-1765968D01*
X804519Y-1752861D01*
X795070Y-1740771D01*
X784225Y-1729925D01*
X772134Y-1720476D01*
X759028Y-1712551D01*
X745032Y-1706252D01*
X730402Y-1701680D01*
X715314Y-1698912D01*
X699998Y-1697997D01*
G37*
G36*
X1451998Y-175000D02*
G01*
X1451084Y-159684D01*
X1448315Y-144597D01*
X1443743Y-129966D01*
X1437444Y-115971D01*
X1429519Y-102864D01*
X1420070Y-90774D01*
X1409225Y-79928D01*
X1397134Y-70479D01*
X1384028Y-62555D01*
X1370032Y-56255D01*
X1355402Y-51683D01*
X1340314Y-48915D01*
X1324998Y-48000D01*
X1324998Y-48000D01*
X1309682Y-48915D01*
X1294594Y-51683D01*
X1279964Y-56255D01*
X1265969Y-62555D01*
X1252862Y-70479D01*
X1240772Y-79928D01*
X1229926Y-90774D01*
X1220477Y-102864D01*
X1212552Y-115971D01*
X1206253Y-129966D01*
X1201681Y-144597D01*
X1198913Y-159684D01*
X1197998Y-175000D01*
X1197998Y-175000D01*
X1198913Y-190317D01*
X1201681Y-205404D01*
X1206253Y-220035D01*
X1212552Y-234030D01*
X1220477Y-247136D01*
X1229926Y-259227D01*
X1240772Y-270073D01*
X1252862Y-279521D01*
X1265969Y-287446D01*
X1279964Y-293745D01*
X1294594Y-298317D01*
X1309682Y-301086D01*
X1324998Y-302000D01*
X1324998Y-302000D01*
X1340314Y-301086D01*
X1355402Y-298317D01*
X1370032Y-293745D01*
X1384028Y-287446D01*
X1397134Y-279521D01*
X1409225Y-270073D01*
X1420070Y-259227D01*
X1429519Y-247136D01*
X1437444Y-234030D01*
X1443743Y-220035D01*
X1448315Y-205404D01*
X1451084Y-190317D01*
X1451998Y-175000D01*
G37*
G36*
X302000Y-1599996D02*
G01*
X301086Y-1584680D01*
X298317Y-1569593D01*
X293745Y-1554962D01*
X287446Y-1540967D01*
X279521Y-1527860D01*
X270073Y-1515770D01*
X259227Y-1504924D01*
X247136Y-1495475D01*
X234030Y-1487551D01*
X220035Y-1481251D01*
X205404Y-1476679D01*
X190317Y-1473911D01*
X175000Y-1472996D01*
X175000Y-1472996D01*
X159684Y-1473911D01*
X144597Y-1476679D01*
X129966Y-1481251D01*
X115971Y-1487551D01*
X102864Y-1495475D01*
X90774Y-1504924D01*
X79928Y-1515770D01*
X70479Y-1527860D01*
X62555Y-1540967D01*
X56255Y-1554962D01*
X51683Y-1569593D01*
X48915Y-1584680D01*
X48000Y-1599996D01*
X48000Y-1599996D01*
X48915Y-1615312D01*
X51683Y-1630400D01*
X56255Y-1645030D01*
X62555Y-1659026D01*
X70479Y-1672132D01*
X79928Y-1684223D01*
X90774Y-1695069D01*
X102864Y-1704517D01*
X115971Y-1712442D01*
X129966Y-1718741D01*
X144597Y-1723313D01*
X159684Y-1726082D01*
X175000Y-1726996D01*
X175000Y-1726996D01*
X190317Y-1726082D01*
X205404Y-1723313D01*
X220035Y-1718741D01*
X234030Y-1712442D01*
X247136Y-1704517D01*
X259227Y-1695069D01*
X270073Y-1684223D01*
X279521Y-1672132D01*
X287446Y-1659026D01*
X293745Y-1645030D01*
X298317Y-1630400D01*
X301086Y-1615312D01*
X302000Y-1599996D01*
G37*
G36*
X302000Y-399999D02*
G01*
X301086Y-384682D01*
X298317Y-369595D01*
X293745Y-354964D01*
X287446Y-340969D01*
X279521Y-327863D01*
X270073Y-315772D01*
X259227Y-304927D01*
X247136Y-295478D01*
X234030Y-287553D01*
X220035Y-281254D01*
X205404Y-276682D01*
X190317Y-273913D01*
X175000Y-272999D01*
X175000Y-272999D01*
X159684Y-273913D01*
X144597Y-276682D01*
X129966Y-281254D01*
X115971Y-287553D01*
X102864Y-295478D01*
X90774Y-304927D01*
X79928Y-315772D01*
X70479Y-327863D01*
X62555Y-340969D01*
X56255Y-354964D01*
X51683Y-369595D01*
X48915Y-384682D01*
X48000Y-399999D01*
X48000Y-399999D01*
X48915Y-415315D01*
X51683Y-430403D01*
X56255Y-445033D01*
X62555Y-459028D01*
X70479Y-472135D01*
X79928Y-484225D01*
X90774Y-495071D01*
X102864Y-504520D01*
X115971Y-512445D01*
X129966Y-518744D01*
X144597Y-523316D01*
X159684Y-526084D01*
X175000Y-526999D01*
X175000Y-526999D01*
X190317Y-526084D01*
X205404Y-523316D01*
X220035Y-518744D01*
X234030Y-512445D01*
X247136Y-504520D01*
X259227Y-495071D01*
X270073Y-484225D01*
X279521Y-472135D01*
X287446Y-459028D01*
X293745Y-445033D01*
X298317Y-430403D01*
X301086Y-415315D01*
X302000Y-399999D01*
G37*
D13*
G01*
X931189Y-450011D03*
D14*
G01*
X931181Y-250002D03*
D13*
G01*
X175005Y-1224991D03*
D14*
G01*
X175000Y-1024996D03*
D15*
G01*
X450001Y-799998D03*
G01*
X249996Y-799998D03*
D16*
G01*
X1304998Y-399999D03*
G01*
X1444998Y-399999D03*
G01*
X1304998Y-724999D03*
G01*
X1444998Y-724999D03*
G01*
X1304998Y-1049997D03*
G01*
X1444998Y-1049997D03*
G01*
X1304998Y-1374998D03*
G01*
X1444998Y-1374998D03*
D17*
G01*
X756183Y-420006D03*
G01*
X756183Y-280007D03*
D18*
G01*
X599887Y-279999D03*
G01*
X599887Y-469990D03*
G01*
X399887Y-374994D03*
D19*
G01*
X580003Y-1399997D03*
G01*
X769994Y-1399997D03*
G01*
X674998Y-1599996D03*
D12*
G01*
X1300323Y-549998D03*
G01*
X1149673Y-549998D03*
D20*
G01*
X774673Y-1249997D03*
G01*
X925323Y-1249997D03*
D21*
G01*
X724992Y-949680D03*
D22*
G01*
X724999Y-1100324D03*
D12*
G01*
X775323Y-800000D03*
G01*
X624673Y-800000D03*
D23*
G01*
X380004Y-984631D03*
G01*
X475000Y-984631D03*
G01*
X569996Y-984631D03*
D24*
G01*
X569996Y-1215364D03*
G01*
X380004Y-1215364D03*
D25*
G01*
X1450009Y-1524990D03*
G01*
X1450009Y-875004D03*
G01*
X1450009Y-549986D03*
G01*
X1450009Y-1199972D03*
G01*
X899998Y-1549958D03*
G01*
X450011Y-1774952D03*
G01*
X1599996Y-1599971D03*
G01*
X1699996Y-599973D03*
G01*
X1550009Y-399999D03*
G01*
X1550009Y-724992D03*
G01*
X1550009Y-1024991D03*
G01*
X1550009Y-1375003D03*
G01*
X874979Y-1349959D03*
G01*
X474954Y-1199946D03*
G01*
X349986Y-1599971D03*
G01*
X174980Y-1399971D03*
G01*
X249986Y-674979D03*
G01*
X474979Y-1099972D03*
G01*
X599998Y-174980D03*
G01*
X999972Y-699973D03*
D26*
G01*
X474979Y-274878D03*
G01*
X699973Y-574878D03*
D27*
G01*
X99999Y-49999D03*
G01*
X299999Y-49999D03*
G01*
X499998Y-49999D03*
G01*
X699998Y-49999D03*
G01*
X899998Y-49999D03*
G01*
X1099997Y-49999D03*
G01*
X1699996Y-49999D03*
G01*
X1499996Y-49999D03*
G01*
X1899996Y-49999D03*
G01*
X1899996Y-1949996D03*
G01*
X1499996Y-1949996D03*
G01*
X1699996Y-1949996D03*
G01*
X1099997Y-1949996D03*
G01*
X899998Y-1949996D03*
G01*
X499998Y-1949996D03*
G01*
X299999Y-1949996D03*
G01*
X99999Y-1949996D03*
G01*
X1949996Y-99999D03*
G01*
X1949996Y-899998D03*
G01*
X1949996Y-699998D03*
G01*
X1949996Y-1099997D03*
G01*
X1949996Y-1299997D03*
G01*
X1949996Y-1899996D03*
G01*
X49999Y-99999D03*
G01*
X49999Y-899998D03*
G01*
X49999Y-699998D03*
G01*
X49999Y-1099997D03*
G01*
X49999Y-1299997D03*
G01*
X49999Y-1499996D03*
G01*
X49999Y-1699996D03*
G01*
X49999Y-1899996D03*
G01*
X399999Y-275000D03*
G01*
X774999Y-575000D03*
G01*
X749998Y-649998D03*
G01*
X974999Y-1499996D03*
G01*
X824999Y-1599996D03*
G01*
X449999Y-1699996D03*
G01*
X449999Y-1849996D03*
G01*
X1624998Y-1674997D03*
G01*
X1599996Y-1524998D03*
G01*
X1624998Y-624956D03*
G01*
X1774997Y-625000D03*
G01*
X1549996Y-549998D03*
G01*
X1549996Y-874999D03*
G01*
X1549996Y-1224988D03*
G01*
X1449997Y-1624998D03*
M02*
