G04 Layer: TopLayer*
G04 EasyEDA v6.5.38, 2023-11-24 15:43:32*
G04 09673f8317ad448189dc8d57b7b7ae53,9a5be75d700b4a6385dc1106f27949ae,10*
G04 Gerber Generator version 0.2*
G04 Scale: 100 percent, Rotated: No, Reflected: No *
G04 Dimensions in millimeters *
G04 leading zeros omitted , absolute positions ,4 integer and 5 decimal *
%FSLAX45Y45*%
%MOMM*%

%ADD10C,0.2540*%
%ADD11C,0.3100*%
%ADD12R,2.0000X2.0000*%
%ADD13C,0.6200*%
%ADD14C,0.5080*%
%ADD15C,0.4200*%
%ADD16C,0.0153*%

%LPD*%
G36*
X101396Y-1969516D02*
G01*
X89408Y-1968550D01*
X79756Y-1966366D01*
X70510Y-1962810D01*
X61874Y-1957984D01*
X54051Y-1951939D01*
X47091Y-1944878D01*
X41249Y-1936902D01*
X36576Y-1928164D01*
X33223Y-1918868D01*
X31242Y-1909165D01*
X30530Y-1898599D01*
X30530Y-101396D01*
X31445Y-89408D01*
X33629Y-79756D01*
X37185Y-70510D01*
X42011Y-61874D01*
X48056Y-54051D01*
X55117Y-47091D01*
X63093Y-41249D01*
X71831Y-36576D01*
X81127Y-33223D01*
X90830Y-31242D01*
X101396Y-30530D01*
X1898599Y-30530D01*
X1910588Y-31445D01*
X1920239Y-33629D01*
X1929485Y-37185D01*
X1938121Y-42011D01*
X1945995Y-48056D01*
X1952904Y-55117D01*
X1958746Y-63093D01*
X1963420Y-71831D01*
X1966772Y-81127D01*
X1968754Y-90830D01*
X1969465Y-101396D01*
X1969465Y-1898599D01*
X1968550Y-1910588D01*
X1966366Y-1920239D01*
X1962810Y-1929485D01*
X1957984Y-1938121D01*
X1951939Y-1945995D01*
X1944878Y-1952904D01*
X1936902Y-1958746D01*
X1928164Y-1963420D01*
X1918868Y-1966772D01*
X1909165Y-1968754D01*
X1898599Y-1969516D01*
G37*

%LPC*%
G36*
X1680464Y-1910486D02*
G01*
X1879498Y-1910486D01*
X1885950Y-1909876D01*
X1891639Y-1908149D01*
X1896922Y-1905304D01*
X1901545Y-1901545D01*
X1905304Y-1896922D01*
X1908149Y-1891639D01*
X1909876Y-1885950D01*
X1910486Y-1879498D01*
X1910486Y-1680514D01*
X1909876Y-1674063D01*
X1908149Y-1668373D01*
X1905304Y-1663090D01*
X1901545Y-1658467D01*
X1896922Y-1654657D01*
X1891639Y-1651863D01*
X1885950Y-1650136D01*
X1879498Y-1649475D01*
X1680464Y-1649475D01*
X1674063Y-1650136D01*
X1668322Y-1651863D01*
X1663090Y-1654657D01*
X1658467Y-1658467D01*
X1654657Y-1663090D01*
X1651863Y-1668373D01*
X1650136Y-1674063D01*
X1649475Y-1680514D01*
X1649475Y-1879498D01*
X1650136Y-1885950D01*
X1651863Y-1891639D01*
X1654657Y-1896922D01*
X1658467Y-1901545D01*
X1663090Y-1905304D01*
X1668322Y-1908149D01*
X1674063Y-1909876D01*
G37*
G36*
X120497Y-1910486D02*
G01*
X319481Y-1910486D01*
X325932Y-1909876D01*
X331622Y-1908149D01*
X336905Y-1905304D01*
X341528Y-1901545D01*
X345338Y-1896922D01*
X348132Y-1891639D01*
X349859Y-1885950D01*
X350520Y-1879498D01*
X350520Y-1828342D01*
X351282Y-1824431D01*
X353466Y-1821129D01*
X356768Y-1818944D01*
X360680Y-1818182D01*
X402285Y-1818182D01*
X405587Y-1818741D01*
X408533Y-1820316D01*
X416407Y-1826412D01*
X425297Y-1831238D01*
X434898Y-1834540D01*
X444957Y-1836216D01*
X455066Y-1836216D01*
X465124Y-1834540D01*
X474726Y-1831238D01*
X483616Y-1826412D01*
X491642Y-1820164D01*
X498500Y-1812696D01*
X504088Y-1804212D01*
X508152Y-1794916D01*
X510641Y-1785061D01*
X511505Y-1774952D01*
X510641Y-1764842D01*
X508152Y-1754987D01*
X504088Y-1745691D01*
X498500Y-1737207D01*
X491642Y-1729739D01*
X483616Y-1723491D01*
X474726Y-1718665D01*
X465124Y-1715363D01*
X455066Y-1713687D01*
X444957Y-1713687D01*
X434898Y-1715363D01*
X425297Y-1718665D01*
X416407Y-1723491D01*
X408533Y-1729638D01*
X405587Y-1731213D01*
X402285Y-1731772D01*
X360680Y-1731772D01*
X356768Y-1730959D01*
X353466Y-1728774D01*
X351282Y-1725472D01*
X350520Y-1721612D01*
X350520Y-1680514D01*
X349859Y-1674063D01*
X348132Y-1668373D01*
X345338Y-1663090D01*
X341528Y-1658467D01*
X336905Y-1654657D01*
X331622Y-1651863D01*
X325932Y-1650136D01*
X319481Y-1649475D01*
X120497Y-1649475D01*
X114046Y-1650136D01*
X108356Y-1651863D01*
X103073Y-1654657D01*
X98450Y-1658467D01*
X94691Y-1663090D01*
X91846Y-1668373D01*
X90119Y-1674063D01*
X89509Y-1680514D01*
X89509Y-1879498D01*
X90119Y-1885950D01*
X91846Y-1891639D01*
X94691Y-1896922D01*
X98450Y-1901545D01*
X103073Y-1905304D01*
X108356Y-1908149D01*
X114046Y-1909876D01*
G37*
G36*
X780491Y-1910486D02*
G01*
X979474Y-1910486D01*
X985926Y-1909876D01*
X991666Y-1908149D01*
X995222Y-1906219D01*
X998321Y-1905152D01*
X1001623Y-1905152D01*
X1004773Y-1906219D01*
X1008329Y-1908149D01*
X1014069Y-1909876D01*
X1020470Y-1910486D01*
X1219504Y-1910486D01*
X1225956Y-1909876D01*
X1231646Y-1908149D01*
X1236929Y-1905304D01*
X1241501Y-1901545D01*
X1245311Y-1896922D01*
X1248105Y-1891639D01*
X1249883Y-1885950D01*
X1250492Y-1879498D01*
X1250492Y-1833372D01*
X1251254Y-1829511D01*
X1253490Y-1826209D01*
X1256792Y-1823974D01*
X1260652Y-1823212D01*
X1421587Y-1823161D01*
X1429816Y-1822043D01*
X1437386Y-1819503D01*
X1444345Y-1815642D01*
X1450848Y-1810207D01*
X1596847Y-1664207D01*
X1600149Y-1662023D01*
X1615084Y-1659585D01*
X1624685Y-1656283D01*
X1633626Y-1651457D01*
X1641652Y-1645208D01*
X1648510Y-1637741D01*
X1654048Y-1629206D01*
X1658162Y-1619910D01*
X1660652Y-1610106D01*
X1661464Y-1599996D01*
X1660652Y-1589836D01*
X1658162Y-1580032D01*
X1654048Y-1570736D01*
X1648510Y-1562201D01*
X1641652Y-1554734D01*
X1633626Y-1548485D01*
X1624685Y-1543659D01*
X1615084Y-1540357D01*
X1605076Y-1538732D01*
X1594916Y-1538732D01*
X1584909Y-1540357D01*
X1575308Y-1543659D01*
X1566367Y-1548485D01*
X1558340Y-1554734D01*
X1551482Y-1562201D01*
X1545945Y-1570736D01*
X1541881Y-1580032D01*
X1539341Y-1589836D01*
X1538782Y-1596644D01*
X1537868Y-1600098D01*
X1535836Y-1602994D01*
X1405026Y-1733804D01*
X1401724Y-1736039D01*
X1397863Y-1736801D01*
X1260652Y-1736801D01*
X1256792Y-1736039D01*
X1253490Y-1733804D01*
X1251254Y-1730552D01*
X1250492Y-1726641D01*
X1250492Y-1680514D01*
X1249883Y-1674063D01*
X1248105Y-1668373D01*
X1245311Y-1663090D01*
X1241501Y-1658467D01*
X1236929Y-1654657D01*
X1231646Y-1651863D01*
X1225956Y-1650136D01*
X1219504Y-1649475D01*
X1020470Y-1649475D01*
X1014069Y-1650136D01*
X1008329Y-1651863D01*
X1004773Y-1653743D01*
X1001623Y-1654810D01*
X998321Y-1654810D01*
X995222Y-1653743D01*
X991666Y-1651863D01*
X985926Y-1650136D01*
X979474Y-1649475D01*
X780491Y-1649475D01*
X774039Y-1650136D01*
X768350Y-1651863D01*
X763066Y-1654657D01*
X758444Y-1658467D01*
X754684Y-1663090D01*
X751840Y-1668373D01*
X750112Y-1674063D01*
X749503Y-1680514D01*
X749503Y-1879498D01*
X750112Y-1885950D01*
X751840Y-1891639D01*
X754684Y-1896922D01*
X758444Y-1901545D01*
X763066Y-1905304D01*
X768350Y-1908149D01*
X774039Y-1909876D01*
G37*
G36*
X894943Y-1611223D02*
G01*
X905052Y-1611223D01*
X915111Y-1609547D01*
X924712Y-1606245D01*
X933602Y-1601419D01*
X941628Y-1595170D01*
X948486Y-1587703D01*
X954074Y-1579219D01*
X958138Y-1569923D01*
X960628Y-1560068D01*
X961491Y-1549958D01*
X960628Y-1539849D01*
X958138Y-1529994D01*
X954074Y-1520698D01*
X948486Y-1512214D01*
X941628Y-1504746D01*
X933602Y-1498498D01*
X924712Y-1493672D01*
X915111Y-1490370D01*
X900176Y-1487932D01*
X896874Y-1485696D01*
X596188Y-1185062D01*
X593953Y-1181760D01*
X593191Y-1177848D01*
X593140Y-1048359D01*
X592023Y-1040130D01*
X589483Y-1032560D01*
X585622Y-1025601D01*
X580237Y-1019098D01*
X409397Y-848309D01*
X402742Y-843330D01*
X395579Y-839774D01*
X387959Y-837590D01*
X379526Y-836828D01*
X360680Y-836828D01*
X356768Y-836015D01*
X353466Y-833831D01*
X351282Y-830529D01*
X350520Y-826668D01*
X350520Y-780491D01*
X349859Y-774039D01*
X348132Y-768350D01*
X345338Y-763066D01*
X341528Y-758494D01*
X336905Y-754684D01*
X331622Y-751890D01*
X325932Y-750112D01*
X319481Y-749503D01*
X120497Y-749503D01*
X114046Y-750112D01*
X108356Y-751890D01*
X103073Y-754684D01*
X98450Y-758494D01*
X94691Y-763066D01*
X91846Y-768350D01*
X90119Y-774039D01*
X89509Y-780491D01*
X89509Y-979525D01*
X90119Y-985926D01*
X91846Y-991666D01*
X93776Y-995222D01*
X94792Y-998372D01*
X94792Y-1001674D01*
X93776Y-1004773D01*
X91846Y-1008329D01*
X90119Y-1014069D01*
X89509Y-1020521D01*
X89509Y-1219504D01*
X90119Y-1225956D01*
X91846Y-1231646D01*
X94691Y-1236929D01*
X98450Y-1241552D01*
X103073Y-1245311D01*
X108356Y-1248156D01*
X114046Y-1249883D01*
X120497Y-1250492D01*
X319481Y-1250492D01*
X325932Y-1249883D01*
X331622Y-1248156D01*
X336905Y-1245311D01*
X341528Y-1241552D01*
X345338Y-1236929D01*
X348132Y-1231646D01*
X349859Y-1225956D01*
X350520Y-1219504D01*
X350520Y-1020521D01*
X349859Y-1014069D01*
X348132Y-1008329D01*
X346252Y-1004773D01*
X345186Y-1001674D01*
X345186Y-998372D01*
X346252Y-995222D01*
X348132Y-991666D01*
X349859Y-985926D01*
X350520Y-979525D01*
X350520Y-936142D01*
X351282Y-932230D01*
X353466Y-928928D01*
X356768Y-926744D01*
X360680Y-925982D01*
X364540Y-926744D01*
X367842Y-928928D01*
X503834Y-1064920D01*
X506018Y-1068222D01*
X506780Y-1072083D01*
X506831Y-1201623D01*
X508000Y-1209852D01*
X510540Y-1217371D01*
X514400Y-1224330D01*
X519785Y-1230833D01*
X835863Y-1546910D01*
X837895Y-1549857D01*
X838809Y-1553260D01*
X839368Y-1560068D01*
X841857Y-1569923D01*
X845921Y-1579219D01*
X851509Y-1587703D01*
X858367Y-1595170D01*
X866394Y-1601419D01*
X875284Y-1606245D01*
X884885Y-1609547D01*
G37*
G36*
X1450035Y-1596491D02*
G01*
X1461211Y-1595577D01*
X1472082Y-1592986D01*
X1482445Y-1588668D01*
X1492046Y-1582826D01*
X1500530Y-1575511D01*
X1507845Y-1567027D01*
X1513687Y-1557426D01*
X1518005Y-1547063D01*
X1520596Y-1536192D01*
X1521510Y-1525016D01*
X1520596Y-1513789D01*
X1518005Y-1502918D01*
X1513687Y-1492554D01*
X1507845Y-1482953D01*
X1500530Y-1474470D01*
X1492046Y-1467154D01*
X1482445Y-1461312D01*
X1472082Y-1456994D01*
X1461211Y-1454404D01*
X1450035Y-1453489D01*
X1438808Y-1454404D01*
X1427937Y-1456994D01*
X1417574Y-1461312D01*
X1407464Y-1467510D01*
X1404924Y-1468628D01*
X1402130Y-1468983D01*
X1202385Y-1468983D01*
X1198524Y-1468221D01*
X1195222Y-1466037D01*
X999388Y-1270152D01*
X997254Y-1267053D01*
X996391Y-1263396D01*
X996950Y-1259636D01*
X998829Y-1256385D01*
X1004773Y-1251762D01*
X1007567Y-1250137D01*
X1010818Y-1249476D01*
X1020470Y-1250492D01*
X1219504Y-1250492D01*
X1225956Y-1249883D01*
X1231646Y-1248156D01*
X1236929Y-1245311D01*
X1241501Y-1241552D01*
X1245311Y-1236929D01*
X1248105Y-1231646D01*
X1249883Y-1225956D01*
X1250492Y-1219504D01*
X1250492Y-1020521D01*
X1249476Y-1010818D01*
X1250137Y-1007618D01*
X1251762Y-1004773D01*
X1253642Y-1002487D01*
X1257401Y-995476D01*
X1259687Y-987907D01*
X1260500Y-979474D01*
X1260500Y-946150D01*
X1261262Y-942289D01*
X1263497Y-938987D01*
X1266799Y-936802D01*
X1270660Y-935990D01*
X1410309Y-935990D01*
X1413103Y-936396D01*
X1417574Y-938682D01*
X1427937Y-943000D01*
X1438808Y-945591D01*
X1450035Y-946505D01*
X1461211Y-945591D01*
X1472082Y-943000D01*
X1482445Y-938682D01*
X1492046Y-932840D01*
X1500530Y-925525D01*
X1507845Y-917041D01*
X1513687Y-907440D01*
X1518005Y-897077D01*
X1520596Y-886206D01*
X1521510Y-875030D01*
X1520596Y-863803D01*
X1518005Y-852932D01*
X1513687Y-842568D01*
X1507845Y-832967D01*
X1500530Y-824484D01*
X1492046Y-817168D01*
X1482445Y-811326D01*
X1472082Y-807008D01*
X1461211Y-804418D01*
X1450035Y-803503D01*
X1438808Y-804418D01*
X1427937Y-807008D01*
X1417574Y-811326D01*
X1407972Y-817168D01*
X1402842Y-821588D01*
X1399794Y-823366D01*
X1396288Y-823976D01*
X1270660Y-823976D01*
X1266799Y-823214D01*
X1263497Y-821029D01*
X1261262Y-817727D01*
X1260500Y-813816D01*
X1260500Y-780491D01*
X1259687Y-772109D01*
X1257401Y-764489D01*
X1253642Y-757529D01*
X1248613Y-751382D01*
X1242466Y-746353D01*
X1235506Y-742594D01*
X1227886Y-740308D01*
X1219504Y-739495D01*
X1020521Y-739495D01*
X1012088Y-740308D01*
X1004519Y-742594D01*
X997508Y-746353D01*
X995222Y-748233D01*
X992378Y-749858D01*
X989177Y-750519D01*
X979474Y-749503D01*
X780491Y-749503D01*
X774039Y-750112D01*
X768350Y-751890D01*
X763066Y-754684D01*
X758444Y-758494D01*
X754684Y-763066D01*
X751840Y-768350D01*
X750112Y-774039D01*
X749503Y-780491D01*
X749503Y-979525D01*
X750519Y-989177D01*
X749858Y-992428D01*
X748233Y-995222D01*
X746353Y-997508D01*
X742594Y-1004519D01*
X740308Y-1012088D01*
X739495Y-1020521D01*
X739495Y-1219504D01*
X740308Y-1227886D01*
X742594Y-1235506D01*
X746353Y-1242466D01*
X751382Y-1248613D01*
X757529Y-1253642D01*
X764489Y-1257401D01*
X772109Y-1259687D01*
X780491Y-1260500D01*
X827989Y-1260500D01*
X831189Y-1261008D01*
X834085Y-1262532D01*
X840536Y-1269746D01*
X1135227Y-1564436D01*
X1138986Y-1567891D01*
X1142898Y-1570888D01*
X1147013Y-1573479D01*
X1151331Y-1575765D01*
X1155852Y-1577644D01*
X1160526Y-1579067D01*
X1165250Y-1580134D01*
X1170127Y-1580794D01*
X1175207Y-1580997D01*
X1402181Y-1580997D01*
X1404924Y-1581404D01*
X1407464Y-1582521D01*
X1417574Y-1588668D01*
X1427937Y-1592986D01*
X1438808Y-1595577D01*
G37*
G36*
X1450035Y-1271473D02*
G01*
X1461211Y-1270558D01*
X1472082Y-1267968D01*
X1482445Y-1263650D01*
X1492046Y-1257808D01*
X1500530Y-1250492D01*
X1507845Y-1242009D01*
X1513687Y-1232408D01*
X1518005Y-1222044D01*
X1520748Y-1210513D01*
X1521764Y-1207922D01*
X1523441Y-1205738D01*
X1550212Y-1178966D01*
X1553464Y-1176782D01*
X1557375Y-1176020D01*
X1629308Y-1176020D01*
X1633220Y-1176782D01*
X1636522Y-1178966D01*
X1638706Y-1182268D01*
X1639468Y-1186180D01*
X1639468Y-1219504D01*
X1640332Y-1227886D01*
X1642618Y-1235506D01*
X1646326Y-1242466D01*
X1651355Y-1248613D01*
X1657502Y-1253642D01*
X1664512Y-1257401D01*
X1672082Y-1259687D01*
X1680464Y-1260500D01*
X1879498Y-1260500D01*
X1887880Y-1259687D01*
X1895449Y-1257401D01*
X1902460Y-1253642D01*
X1908606Y-1248613D01*
X1913636Y-1242466D01*
X1917344Y-1235506D01*
X1919681Y-1227886D01*
X1920493Y-1219504D01*
X1920493Y-1020521D01*
X1919681Y-1012088D01*
X1917344Y-1004519D01*
X1913636Y-997508D01*
X1911756Y-995273D01*
X1910130Y-992428D01*
X1909470Y-989177D01*
X1910486Y-979474D01*
X1910486Y-780491D01*
X1909876Y-774039D01*
X1908149Y-768350D01*
X1905304Y-763066D01*
X1901545Y-758444D01*
X1896922Y-754684D01*
X1891639Y-751840D01*
X1885950Y-750112D01*
X1879498Y-749503D01*
X1680514Y-749503D01*
X1674063Y-750112D01*
X1668373Y-751840D01*
X1663090Y-754684D01*
X1658467Y-758444D01*
X1654657Y-763066D01*
X1651863Y-768350D01*
X1650136Y-774039D01*
X1649475Y-780491D01*
X1649475Y-979474D01*
X1650542Y-989177D01*
X1649882Y-992378D01*
X1648256Y-995222D01*
X1646326Y-997508D01*
X1642618Y-1004519D01*
X1640332Y-1012088D01*
X1639468Y-1020521D01*
X1639468Y-1053846D01*
X1638706Y-1057706D01*
X1636522Y-1061008D01*
X1633220Y-1063193D01*
X1629308Y-1064006D01*
X1530197Y-1064006D01*
X1525066Y-1064209D01*
X1520240Y-1064818D01*
X1515465Y-1065885D01*
X1510792Y-1067358D01*
X1506321Y-1069238D01*
X1501952Y-1071473D01*
X1497838Y-1074115D01*
X1493977Y-1077112D01*
X1490218Y-1080566D01*
X1444193Y-1126540D01*
X1442008Y-1128217D01*
X1439418Y-1129233D01*
X1427937Y-1131976D01*
X1417574Y-1136294D01*
X1407972Y-1142136D01*
X1399489Y-1149451D01*
X1392174Y-1157935D01*
X1386332Y-1167536D01*
X1382014Y-1177899D01*
X1379423Y-1188770D01*
X1378508Y-1199997D01*
X1379423Y-1211173D01*
X1382014Y-1222044D01*
X1386332Y-1232408D01*
X1392174Y-1242009D01*
X1399489Y-1250492D01*
X1407972Y-1257808D01*
X1417574Y-1263650D01*
X1427937Y-1267968D01*
X1438808Y-1270558D01*
G37*
G36*
X1694942Y-661212D02*
G01*
X1705051Y-661212D01*
X1715109Y-659587D01*
X1724710Y-656285D01*
X1733600Y-651459D01*
X1741627Y-645210D01*
X1748485Y-637743D01*
X1754073Y-629208D01*
X1758137Y-619912D01*
X1760626Y-610108D01*
X1761185Y-603250D01*
X1762099Y-599846D01*
X1764131Y-596950D01*
X1811680Y-549351D01*
X1816658Y-542696D01*
X1820214Y-535584D01*
X1822399Y-527913D01*
X1823212Y-519531D01*
X1823212Y-360680D01*
X1823974Y-356768D01*
X1826158Y-353466D01*
X1829460Y-351282D01*
X1833372Y-350520D01*
X1879498Y-350520D01*
X1885950Y-349859D01*
X1891639Y-348132D01*
X1896922Y-345338D01*
X1901545Y-341528D01*
X1905304Y-336905D01*
X1908149Y-331622D01*
X1909876Y-325932D01*
X1910486Y-319481D01*
X1910486Y-120497D01*
X1909876Y-114046D01*
X1908149Y-108356D01*
X1905304Y-103073D01*
X1901545Y-98450D01*
X1896922Y-94691D01*
X1891639Y-91846D01*
X1885950Y-90119D01*
X1879498Y-89509D01*
X1680514Y-89509D01*
X1674063Y-90119D01*
X1668373Y-91846D01*
X1663090Y-94691D01*
X1658467Y-98450D01*
X1654657Y-103073D01*
X1651863Y-108356D01*
X1650136Y-114046D01*
X1649475Y-120497D01*
X1649475Y-319481D01*
X1650136Y-325932D01*
X1651863Y-331622D01*
X1654657Y-336905D01*
X1658467Y-341528D01*
X1663090Y-345338D01*
X1668373Y-348132D01*
X1674063Y-349859D01*
X1680514Y-350520D01*
X1726641Y-350520D01*
X1730502Y-351282D01*
X1733804Y-353466D01*
X1735988Y-356768D01*
X1736801Y-360680D01*
X1736801Y-497890D01*
X1735988Y-501751D01*
X1733804Y-505053D01*
X1703120Y-535736D01*
X1699818Y-537921D01*
X1684883Y-540359D01*
X1675282Y-543661D01*
X1666392Y-548487D01*
X1658366Y-554736D01*
X1651507Y-562203D01*
X1645920Y-570738D01*
X1641856Y-580034D01*
X1639366Y-589838D01*
X1638503Y-599998D01*
X1639366Y-610108D01*
X1641856Y-619912D01*
X1645920Y-629208D01*
X1651507Y-637743D01*
X1658366Y-645210D01*
X1666392Y-651459D01*
X1675282Y-656285D01*
X1684883Y-659587D01*
G37*
G36*
X699973Y-630732D02*
G01*
X709676Y-629920D01*
X719074Y-627380D01*
X727913Y-623265D01*
X735888Y-617677D01*
X742746Y-610768D01*
X748334Y-602792D01*
X752449Y-594004D01*
X754989Y-584555D01*
X755853Y-574903D01*
X754989Y-565200D01*
X752449Y-555752D01*
X748334Y-546963D01*
X742746Y-538988D01*
X735888Y-532079D01*
X727913Y-526491D01*
X719074Y-522376D01*
X706018Y-518922D01*
X703122Y-516890D01*
X521157Y-334975D01*
X518972Y-331673D01*
X518210Y-327761D01*
X518210Y-313385D01*
X518668Y-310337D01*
X520039Y-307594D01*
X523341Y-302818D01*
X527456Y-293979D01*
X529996Y-284581D01*
X530860Y-274878D01*
X529996Y-265176D01*
X527456Y-255778D01*
X523341Y-246938D01*
X517753Y-238963D01*
X510895Y-232105D01*
X502920Y-226517D01*
X494080Y-222402D01*
X484682Y-219862D01*
X474980Y-218998D01*
X465277Y-219862D01*
X455879Y-222402D01*
X447040Y-226517D01*
X439064Y-232105D01*
X432206Y-238963D01*
X426618Y-246938D01*
X422503Y-255778D01*
X419963Y-265176D01*
X419100Y-274878D01*
X419963Y-284581D01*
X422503Y-293979D01*
X426618Y-302818D01*
X429920Y-307594D01*
X431292Y-310388D01*
X431800Y-313436D01*
X431800Y-351536D01*
X432968Y-359765D01*
X435508Y-367284D01*
X439369Y-374243D01*
X444754Y-380746D01*
X642010Y-578002D01*
X643991Y-580847D01*
X647496Y-594004D01*
X651611Y-602792D01*
X657199Y-610768D01*
X664057Y-617677D01*
X672033Y-623265D01*
X680872Y-627380D01*
X690270Y-629920D01*
G37*
G36*
X1450035Y-621487D02*
G01*
X1461211Y-620572D01*
X1472082Y-617982D01*
X1482445Y-613664D01*
X1492046Y-607822D01*
X1500530Y-600506D01*
X1507845Y-592023D01*
X1513687Y-582422D01*
X1518005Y-572058D01*
X1520596Y-561187D01*
X1521510Y-550011D01*
X1520596Y-538784D01*
X1518005Y-527913D01*
X1513687Y-517550D01*
X1507845Y-507949D01*
X1500530Y-499465D01*
X1492046Y-492150D01*
X1482445Y-486308D01*
X1472082Y-481990D01*
X1461211Y-479399D01*
X1450035Y-478485D01*
X1438808Y-479399D01*
X1427937Y-481990D01*
X1417574Y-486308D01*
X1407464Y-492455D01*
X1404924Y-493572D01*
X1402181Y-493979D01*
X1027430Y-493979D01*
X1023518Y-493217D01*
X1020216Y-491032D01*
X938987Y-409803D01*
X936802Y-406501D01*
X935990Y-402590D01*
X935990Y-370687D01*
X936802Y-366776D01*
X938987Y-363474D01*
X942289Y-361289D01*
X946150Y-360527D01*
X979474Y-360527D01*
X987907Y-359664D01*
X995476Y-357378D01*
X1002487Y-353669D01*
X1004773Y-351739D01*
X1007618Y-350113D01*
X1010818Y-349453D01*
X1020521Y-350520D01*
X1219504Y-350520D01*
X1225956Y-349859D01*
X1231646Y-348132D01*
X1236929Y-345338D01*
X1241552Y-341528D01*
X1245311Y-336905D01*
X1248156Y-331622D01*
X1249883Y-325932D01*
X1250492Y-319481D01*
X1250492Y-120497D01*
X1249883Y-114046D01*
X1248156Y-108356D01*
X1245311Y-103073D01*
X1241552Y-98450D01*
X1236929Y-94691D01*
X1231646Y-91846D01*
X1225956Y-90119D01*
X1219504Y-89509D01*
X1020521Y-89509D01*
X1010818Y-90525D01*
X1007567Y-89865D01*
X1004722Y-88239D01*
X1002487Y-86360D01*
X995476Y-82600D01*
X987907Y-80314D01*
X979474Y-79502D01*
X780491Y-79502D01*
X772109Y-80314D01*
X764489Y-82600D01*
X757529Y-86360D01*
X751382Y-91389D01*
X746353Y-97536D01*
X742594Y-104546D01*
X740308Y-112115D01*
X739495Y-120497D01*
X739495Y-319481D01*
X740308Y-327914D01*
X742594Y-335483D01*
X746353Y-342493D01*
X751382Y-348589D01*
X757529Y-353669D01*
X764489Y-357378D01*
X772109Y-359664D01*
X780491Y-360527D01*
X813816Y-360527D01*
X817727Y-361289D01*
X821029Y-363474D01*
X823214Y-366776D01*
X823976Y-370687D01*
X823976Y-429768D01*
X824230Y-434898D01*
X824839Y-439724D01*
X825906Y-444500D01*
X827379Y-449173D01*
X829259Y-453694D01*
X831494Y-458012D01*
X834136Y-462127D01*
X837133Y-465988D01*
X840536Y-469747D01*
X960221Y-589432D01*
X963980Y-592886D01*
X967892Y-595884D01*
X972007Y-598474D01*
X976325Y-600760D01*
X980846Y-602640D01*
X985519Y-604113D01*
X990295Y-605129D01*
X995121Y-605790D01*
X1000201Y-605993D01*
X1402130Y-605993D01*
X1404924Y-606348D01*
X1407464Y-607466D01*
X1417574Y-613664D01*
X1427937Y-617982D01*
X1438808Y-620572D01*
G37*
G36*
X120497Y-350520D02*
G01*
X319481Y-350520D01*
X325932Y-349859D01*
X331622Y-348132D01*
X336905Y-345338D01*
X341528Y-341528D01*
X345338Y-336905D01*
X348132Y-331673D01*
X349859Y-325932D01*
X350520Y-319481D01*
X350520Y-120497D01*
X349859Y-114046D01*
X348132Y-108356D01*
X345338Y-103073D01*
X341528Y-98450D01*
X336905Y-94691D01*
X331622Y-91846D01*
X325932Y-90119D01*
X319481Y-89509D01*
X120497Y-89509D01*
X114046Y-90119D01*
X108356Y-91846D01*
X103073Y-94691D01*
X98450Y-98450D01*
X94691Y-103073D01*
X91846Y-108356D01*
X90119Y-114046D01*
X89509Y-120497D01*
X89509Y-319481D01*
X90119Y-325932D01*
X91846Y-331673D01*
X94691Y-336905D01*
X98450Y-341528D01*
X103073Y-345338D01*
X108356Y-348132D01*
X114046Y-349859D01*
G37*

%LPD*%
D10*
X1599996Y-1599961D02*
G01*
X1419948Y-1780009D01*
X1120010Y-1780009D01*
X220012Y-1780009D02*
G01*
X225059Y-1774962D01*
X449999Y-1774962D01*
D11*
X1449997Y-1524998D02*
G01*
X1174998Y-1524998D01*
X880005Y-1230005D01*
X880005Y-1119990D01*
D10*
X899998Y-1549961D02*
G01*
X549998Y-1199962D01*
X549998Y-1049997D01*
X380011Y-880010D01*
X220012Y-880010D01*
D11*
X1449997Y-1199962D02*
G01*
X1529969Y-1119990D01*
X1780004Y-1119990D01*
X1449997Y-874999D02*
G01*
X1444990Y-880005D01*
X1119990Y-880005D01*
D10*
X1699996Y-599963D02*
G01*
X1779983Y-519976D01*
X1779983Y-219986D01*
D11*
X1449997Y-549976D02*
G01*
X999997Y-549998D01*
X880005Y-430006D01*
X880005Y-219991D01*
D10*
X699983Y-574868D02*
G01*
X474987Y-349872D01*
X474987Y-274871D01*
D12*
G01*
X219989Y-880008D03*
G01*
X880008Y-880008D03*
G01*
X880008Y-219989D03*
G01*
X219989Y-219989D03*
G01*
X1780006Y-219989D03*
G01*
X1119987Y-219989D03*
G01*
X1119987Y-880008D03*
G01*
X1780006Y-880008D03*
G01*
X1119987Y-1780006D03*
G01*
X1780006Y-1780006D03*
G01*
X1780006Y-1119987D03*
G01*
X1119987Y-1119987D03*
G01*
X219989Y-1780006D03*
G01*
X880008Y-1780006D03*
G01*
X880008Y-1119987D03*
G01*
X219989Y-1119987D03*
D13*
G01*
X1450009Y-1524990D03*
G01*
X1450009Y-875004D03*
G01*
X1450009Y-549986D03*
G01*
X1450009Y-1199972D03*
G01*
X899998Y-1549958D03*
G01*
X450011Y-1774952D03*
G01*
X1599996Y-1599971D03*
G01*
X1699996Y-599973D03*
G01*
X1550009Y-399999D03*
G01*
X1550009Y-724992D03*
G01*
X1550009Y-1024991D03*
G01*
X1550009Y-1375003D03*
G01*
X874979Y-1349959D03*
G01*
X474954Y-1199946D03*
G01*
X349986Y-1599971D03*
G01*
X174980Y-1399971D03*
G01*
X249986Y-674979D03*
G01*
X474979Y-1099972D03*
G01*
X599998Y-174980D03*
G01*
X999972Y-699973D03*
D14*
G01*
X474979Y-274878D03*
G01*
X699973Y-574878D03*
D15*
G01*
X99999Y-49999D03*
G01*
X299999Y-49999D03*
G01*
X499998Y-49999D03*
G01*
X699998Y-49999D03*
G01*
X899998Y-49999D03*
G01*
X1099997Y-49999D03*
G01*
X1699996Y-49999D03*
G01*
X1499996Y-49999D03*
G01*
X1899996Y-49999D03*
G01*
X1899996Y-1949996D03*
G01*
X1499996Y-1949996D03*
G01*
X1699996Y-1949996D03*
G01*
X1099997Y-1949996D03*
G01*
X899998Y-1949996D03*
G01*
X499998Y-1949996D03*
G01*
X299999Y-1949996D03*
G01*
X99999Y-1949996D03*
G01*
X1949996Y-99999D03*
G01*
X1949996Y-899998D03*
G01*
X1949996Y-699998D03*
G01*
X1949996Y-1099997D03*
G01*
X1949996Y-1299997D03*
G01*
X1949996Y-1899996D03*
G01*
X49999Y-99999D03*
G01*
X49999Y-899998D03*
G01*
X49999Y-699998D03*
G01*
X49999Y-1099997D03*
G01*
X49999Y-1299997D03*
G01*
X49999Y-1499996D03*
G01*
X49999Y-1699996D03*
G01*
X49999Y-1899996D03*
G01*
X399999Y-275000D03*
G01*
X774999Y-575000D03*
G01*
X749998Y-649998D03*
G01*
X974999Y-1499996D03*
G01*
X824999Y-1599996D03*
G01*
X449999Y-1699996D03*
G01*
X449999Y-1849996D03*
G01*
X1624998Y-1674997D03*
G01*
X1599996Y-1524998D03*
G01*
X1624998Y-624956D03*
G01*
X1774997Y-625000D03*
G01*
X1549996Y-549998D03*
G01*
X1549996Y-874999D03*
G01*
X1549996Y-1224988D03*
G01*
X1449997Y-1624998D03*
M02*
