G04 Layer: BottomSilkscreenLayer*
G04 EasyEDA v6.5.38, 2023-11-24 15:43:32*
G04 09673f8317ad448189dc8d57b7b7ae53,9a5be75d700b4a6385dc1106f27949ae,10*
G04 Gerber Generator version 0.2*
G04 Scale: 100 percent, Rotated: No, Reflected: No *
G04 Dimensions in millimeters *
G04 leading zeros omitted , absolute positions ,4 integer and 5 decimal *
%FSLAX45Y45*%
%MOMM*%

%ADD10C,0.1800*%
%ADD11C,0.1400*%
%ADD12C,0.1524*%
%ADD13C,0.2540*%
%ADD14C,0.3000*%
%ADD15C,0.0147*%

%LPD*%
G36*
X1798218Y-844042D02*
G01*
X1796999Y-845261D01*
X1796999Y-848207D01*
X1795830Y-849376D01*
X1776780Y-849376D01*
X1775612Y-850595D01*
X1775612Y-858926D01*
X1774393Y-860094D01*
X1766062Y-860094D01*
X1764893Y-861314D01*
X1764893Y-869645D01*
X1763674Y-870813D01*
X1744624Y-870813D01*
X1743456Y-872032D01*
X1743456Y-880364D01*
X1742236Y-881532D01*
X1723237Y-881532D01*
X1722018Y-882751D01*
X1722018Y-891082D01*
X1720850Y-892251D01*
X1712518Y-892251D01*
X1711299Y-893470D01*
X1711299Y-901750D01*
X1710131Y-902969D01*
X1701800Y-902969D01*
X1700580Y-904189D01*
X1700580Y-913688D01*
X1691081Y-913688D01*
X1689862Y-912469D01*
X1689862Y-904189D01*
X1688693Y-902969D01*
X1669643Y-902969D01*
X1668424Y-901750D01*
X1668424Y-893470D01*
X1667256Y-892251D01*
X1637487Y-892251D01*
X1636318Y-893470D01*
X1636318Y-901750D01*
X1635099Y-902969D01*
X1626616Y-902969D01*
X1624482Y-903833D01*
X1615998Y-904087D01*
X1615744Y-912571D01*
X1613763Y-913688D01*
X1605381Y-913688D01*
X1604162Y-914857D01*
X1604162Y-944626D01*
X1605381Y-945845D01*
X1635099Y-945845D01*
X1636318Y-947013D01*
X1636318Y-956564D01*
X1594662Y-956564D01*
X1593443Y-957732D01*
X1593443Y-966063D01*
X1592275Y-967232D01*
X1573225Y-967232D01*
X1572006Y-968451D01*
X1572006Y-976782D01*
X1570837Y-977950D01*
X1562506Y-977950D01*
X1561287Y-979169D01*
X1561287Y-987501D01*
X1560118Y-988669D01*
X1551787Y-988669D01*
X1550619Y-989888D01*
X1550619Y-998219D01*
X1593443Y-998219D01*
X1593443Y-989888D01*
X1594662Y-988669D01*
X1602943Y-988669D01*
X1604162Y-987501D01*
X1604162Y-979169D01*
X1605381Y-977950D01*
X1635099Y-977950D01*
X1636318Y-976782D01*
X1636318Y-956564D01*
X1645818Y-956564D01*
X1647037Y-957732D01*
X1647037Y-966063D01*
X1648206Y-967232D01*
X1656537Y-967232D01*
X1657756Y-968451D01*
X1657756Y-987501D01*
X1658924Y-988669D01*
X1667256Y-988669D01*
X1668424Y-989888D01*
X1668424Y-998219D01*
X1669643Y-999388D01*
X1677974Y-999388D01*
X1679143Y-1000607D01*
X1679143Y-1019606D01*
X1677974Y-1020826D01*
X1648206Y-1020826D01*
X1647037Y-1022045D01*
X1647037Y-1030325D01*
X1645818Y-1031544D01*
X1625600Y-1031544D01*
X1625600Y-1041044D01*
X1624380Y-1042263D01*
X1614881Y-1042263D01*
X1614881Y-1032713D01*
X1616100Y-1031544D01*
X1625600Y-1031544D01*
X1625600Y-1011326D01*
X1624380Y-1010107D01*
X1605381Y-1010107D01*
X1604162Y-1008938D01*
X1604162Y-1000607D01*
X1602943Y-999388D01*
X1594662Y-999388D01*
X1593443Y-998219D01*
X1550619Y-998219D01*
X1551787Y-999388D01*
X1560118Y-999388D01*
X1561287Y-1000607D01*
X1561287Y-1008938D01*
X1562506Y-1010107D01*
X1570837Y-1010107D01*
X1572006Y-1011326D01*
X1572006Y-1019606D01*
X1573225Y-1020826D01*
X1592275Y-1020826D01*
X1593443Y-1022045D01*
X1593443Y-1030325D01*
X1594662Y-1031544D01*
X1602943Y-1031544D01*
X1604162Y-1032713D01*
X1604162Y-1041044D01*
X1605381Y-1042263D01*
X1614881Y-1042263D01*
X1614881Y-1051915D01*
X1614017Y-1054049D01*
X1613763Y-1062583D01*
X1605280Y-1062837D01*
X1604162Y-1064768D01*
X1604162Y-1094638D01*
X1605381Y-1095806D01*
X1624533Y-1095806D01*
X1626666Y-1094740D01*
X1626819Y-1086358D01*
X1635201Y-1086205D01*
X1636318Y-1084021D01*
X1636318Y-1075588D01*
X1637487Y-1074420D01*
X1645920Y-1074420D01*
X1648104Y-1073302D01*
X1648256Y-1064920D01*
X1656384Y-1064920D01*
X1658772Y-1063701D01*
X1700580Y-1063701D01*
X1700580Y-1054150D01*
X1701800Y-1052982D01*
X1710131Y-1052982D01*
X1711299Y-1051763D01*
X1711299Y-1043432D01*
X1712518Y-1042263D01*
X1742236Y-1042263D01*
X1743456Y-1041044D01*
X1743456Y-1022045D01*
X1744624Y-1020826D01*
X1763674Y-1020826D01*
X1764893Y-1022045D01*
X1764893Y-1041044D01*
X1766062Y-1042263D01*
X1807718Y-1042263D01*
X1807718Y-1051763D01*
X1806549Y-1052982D01*
X1798218Y-1052982D01*
X1796999Y-1054150D01*
X1796999Y-1116076D01*
X1795830Y-1117244D01*
X1787499Y-1117244D01*
X1786331Y-1116076D01*
X1786331Y-1107744D01*
X1785112Y-1106525D01*
X1776780Y-1106525D01*
X1775612Y-1105357D01*
X1775612Y-1097026D01*
X1774393Y-1095806D01*
X1755343Y-1095806D01*
X1754174Y-1094638D01*
X1754174Y-1086307D01*
X1752955Y-1085088D01*
X1733905Y-1085088D01*
X1732737Y-1083919D01*
X1732737Y-1075588D01*
X1731518Y-1074420D01*
X1723237Y-1074420D01*
X1722018Y-1073200D01*
X1722018Y-1064869D01*
X1720850Y-1063701D01*
X1700580Y-1063701D01*
X1700580Y-1073200D01*
X1699412Y-1074420D01*
X1680362Y-1074420D01*
X1679143Y-1075588D01*
X1679143Y-1083919D01*
X1680362Y-1085088D01*
X1699412Y-1085088D01*
X1700580Y-1086307D01*
X1700580Y-1094638D01*
X1701800Y-1095806D01*
X1720850Y-1095806D01*
X1722018Y-1097026D01*
X1722018Y-1105357D01*
X1723237Y-1106525D01*
X1742236Y-1106525D01*
X1743456Y-1107744D01*
X1743456Y-1116076D01*
X1744624Y-1117244D01*
X1752955Y-1117244D01*
X1754174Y-1118463D01*
X1754174Y-1126794D01*
X1755343Y-1127963D01*
X1774393Y-1127963D01*
X1775612Y-1129182D01*
X1775612Y-1137462D01*
X1776780Y-1138682D01*
X1795830Y-1138682D01*
X1796999Y-1139850D01*
X1796999Y-1142847D01*
X1798218Y-1144016D01*
X1817268Y-1144016D01*
X1818436Y-1142847D01*
X1818436Y-1043432D01*
X1817268Y-1042263D01*
X1807718Y-1042263D01*
X1807718Y-1032713D01*
X1808937Y-1031544D01*
X1838706Y-1031544D01*
X1839874Y-1030325D01*
X1839874Y-979169D01*
X1838706Y-977950D01*
X1830324Y-977950D01*
X1828901Y-976985D01*
X1828901Y-968552D01*
X1827682Y-967384D01*
X1766011Y-967181D01*
X1764893Y-966063D01*
X1764893Y-957732D01*
X1763674Y-956564D01*
X1755343Y-956564D01*
X1754174Y-955344D01*
X1754174Y-947013D01*
X1752955Y-945845D01*
X1744624Y-945845D01*
X1743456Y-944626D01*
X1743456Y-936294D01*
X1742236Y-935126D01*
X1701800Y-935126D01*
X1700580Y-933907D01*
X1700580Y-913688D01*
X1710131Y-913688D01*
X1711299Y-914857D01*
X1711299Y-923188D01*
X1712518Y-924407D01*
X1720850Y-924407D01*
X1722018Y-923188D01*
X1722018Y-914857D01*
X1723237Y-913688D01*
X1731518Y-913688D01*
X1732737Y-912469D01*
X1732737Y-904189D01*
X1733905Y-902969D01*
X1752955Y-902969D01*
X1754174Y-901750D01*
X1754174Y-893470D01*
X1755343Y-892251D01*
X1785112Y-892251D01*
X1786331Y-891082D01*
X1786331Y-882751D01*
X1787499Y-881532D01*
X1795830Y-881532D01*
X1796999Y-882751D01*
X1796999Y-955344D01*
X1798218Y-956564D01*
X1817268Y-956564D01*
X1818436Y-955344D01*
X1818436Y-845261D01*
X1817268Y-844042D01*
G37*
D10*
X1849086Y-724999D02*
G01*
X1944542Y-724999D01*
X1849086Y-724999D02*
G01*
X1849086Y-765909D01*
X1853633Y-779546D01*
X1858177Y-784090D01*
X1867268Y-788636D01*
X1876358Y-788636D01*
X1885449Y-784090D01*
X1889996Y-779546D01*
X1894542Y-765909D01*
X1894542Y-724999D01*
X1894542Y-756818D02*
G01*
X1944542Y-788636D01*
X1908177Y-818636D02*
G01*
X1908177Y-873180D01*
X1899086Y-873180D01*
X1889996Y-868636D01*
X1885449Y-864090D01*
X1880905Y-854999D01*
X1880905Y-841362D01*
X1885449Y-832271D01*
X1894542Y-823180D01*
X1908177Y-818636D01*
X1917268Y-818636D01*
X1930905Y-823180D01*
X1939996Y-832271D01*
X1944542Y-841362D01*
X1944542Y-854999D01*
X1939996Y-864090D01*
X1930905Y-873180D01*
X1880905Y-903180D02*
G01*
X1944542Y-930452D01*
X1880905Y-957727D02*
G01*
X1944542Y-930452D01*
X1921814Y-992271D02*
G01*
X1926358Y-987727D01*
X1930905Y-992271D01*
X1926358Y-996817D01*
X1921814Y-992271D01*
X1871814Y-1101361D02*
G01*
X1867268Y-1101361D01*
X1858177Y-1105908D01*
X1853633Y-1110452D01*
X1849086Y-1119545D01*
X1849086Y-1137726D01*
X1853633Y-1146817D01*
X1858177Y-1151361D01*
X1867268Y-1155908D01*
X1876358Y-1155908D01*
X1885449Y-1151361D01*
X1899086Y-1142271D01*
X1944542Y-1096817D01*
X1944542Y-1160452D01*
X1921814Y-1194998D02*
G01*
X1926358Y-1190452D01*
X1930905Y-1194998D01*
X1926358Y-1199545D01*
X1921814Y-1194998D01*
X1849086Y-1256817D02*
G01*
X1853633Y-1243180D01*
X1867268Y-1234089D01*
X1889996Y-1229545D01*
X1903633Y-1229545D01*
X1926358Y-1234089D01*
X1939996Y-1243180D01*
X1944542Y-1256817D01*
X1944542Y-1265908D01*
X1939996Y-1279545D01*
X1926358Y-1288635D01*
X1903633Y-1293180D01*
X1889996Y-1293180D01*
X1867268Y-1288635D01*
X1853633Y-1279545D01*
X1849086Y-1265908D01*
X1849086Y-1256817D01*
D11*
X816355Y-580466D02*
G01*
X816355Y-675921D01*
X816355Y-580466D02*
G01*
X775446Y-580466D01*
X761809Y-585012D01*
X757265Y-589556D01*
X752718Y-598647D01*
X752718Y-607738D01*
X757265Y-616828D01*
X761809Y-621375D01*
X775446Y-625922D01*
X816355Y-625922D01*
X784537Y-625922D02*
G01*
X752718Y-675921D01*
X722718Y-598647D02*
G01*
X713628Y-594103D01*
X699993Y-580466D01*
X699993Y-675921D01*
X1554043Y-828753D02*
G01*
X1554043Y-924209D01*
X1554043Y-828753D02*
G01*
X1513133Y-828753D01*
X1499496Y-833300D01*
X1494952Y-837844D01*
X1490405Y-846935D01*
X1490405Y-856025D01*
X1494952Y-865116D01*
X1499496Y-869662D01*
X1513133Y-874209D01*
X1554043Y-874209D01*
X1522224Y-874209D02*
G01*
X1490405Y-924209D01*
X1451315Y-828753D02*
G01*
X1401315Y-828753D01*
X1428589Y-865116D01*
X1414952Y-865116D01*
X1405862Y-869662D01*
X1401315Y-874209D01*
X1396771Y-887844D01*
X1396771Y-896934D01*
X1401315Y-910572D01*
X1410406Y-919662D01*
X1424043Y-924209D01*
X1437680Y-924209D01*
X1451315Y-919662D01*
X1455861Y-915116D01*
X1460406Y-906025D01*
X1561823Y-1155463D02*
G01*
X1561823Y-1250919D01*
X1561823Y-1155463D02*
G01*
X1520913Y-1155463D01*
X1507276Y-1160010D01*
X1502732Y-1164554D01*
X1498185Y-1173645D01*
X1498185Y-1182735D01*
X1502732Y-1191826D01*
X1507276Y-1196373D01*
X1520913Y-1200919D01*
X1561823Y-1200919D01*
X1530004Y-1200919D02*
G01*
X1498185Y-1250919D01*
X1422732Y-1155463D02*
G01*
X1468186Y-1219100D01*
X1400004Y-1219100D01*
X1422732Y-1155463D02*
G01*
X1422732Y-1250919D01*
X1557248Y-1480438D02*
G01*
X1557248Y-1575894D01*
X1557248Y-1480438D02*
G01*
X1516339Y-1480438D01*
X1502702Y-1484985D01*
X1498158Y-1489529D01*
X1493611Y-1498620D01*
X1493611Y-1507710D01*
X1498158Y-1516801D01*
X1502702Y-1521348D01*
X1516339Y-1525894D01*
X1557248Y-1525894D01*
X1525430Y-1525894D02*
G01*
X1493611Y-1575894D01*
X1409067Y-1480438D02*
G01*
X1454520Y-1480438D01*
X1459067Y-1521348D01*
X1454520Y-1516801D01*
X1440886Y-1512257D01*
X1427248Y-1512257D01*
X1413611Y-1516801D01*
X1404520Y-1525894D01*
X1399976Y-1539529D01*
X1399976Y-1548620D01*
X1404520Y-1562257D01*
X1413611Y-1571348D01*
X1427248Y-1575894D01*
X1440886Y-1575894D01*
X1454520Y-1571348D01*
X1459067Y-1566801D01*
X1463611Y-1557710D01*
D10*
X1583342Y-1759681D02*
G01*
X1624998Y-1868647D01*
X1583342Y-1759681D02*
G01*
X1541940Y-1868647D01*
X1609504Y-1832325D02*
G01*
X1557434Y-1832325D01*
X1507650Y-1780509D02*
G01*
X1497236Y-1775175D01*
X1481488Y-1759681D01*
X1481488Y-1868647D01*
X1864296Y-125420D02*
G01*
X1905952Y-234386D01*
X1864296Y-125420D02*
G01*
X1822894Y-234386D01*
X1890458Y-198064D02*
G01*
X1838388Y-198064D01*
X1783270Y-151328D02*
G01*
X1783270Y-146248D01*
X1778190Y-135834D01*
X1772856Y-130500D01*
X1762442Y-125420D01*
X1741868Y-125420D01*
X1731454Y-130500D01*
X1726120Y-135834D01*
X1721040Y-146248D01*
X1721040Y-156662D01*
X1726120Y-167076D01*
X1736534Y-182570D01*
X1788604Y-234386D01*
X1715706Y-234386D01*
X1883341Y-1759681D02*
G01*
X1924997Y-1868647D01*
X1883341Y-1759681D02*
G01*
X1841939Y-1868647D01*
X1909503Y-1832325D02*
G01*
X1857433Y-1832325D01*
X1797235Y-1759681D02*
G01*
X1740085Y-1759681D01*
X1771327Y-1801337D01*
X1755579Y-1801337D01*
X1745165Y-1806417D01*
X1740085Y-1811497D01*
X1734751Y-1827245D01*
X1734751Y-1837659D01*
X1740085Y-1853153D01*
X1750499Y-1863567D01*
X1765993Y-1868647D01*
X1781487Y-1868647D01*
X1797235Y-1863567D01*
X1802315Y-1858487D01*
X1807649Y-1848073D01*
X1008341Y-1759681D02*
G01*
X1049997Y-1868647D01*
X1008341Y-1759681D02*
G01*
X966939Y-1868647D01*
X1034503Y-1832325D02*
G01*
X982433Y-1832325D01*
X880579Y-1759681D02*
G01*
X932649Y-1832325D01*
X854671Y-1832325D01*
X880579Y-1759681D02*
G01*
X880579Y-1868647D01*
X1497020Y-135592D02*
G01*
X1502354Y-125178D01*
X1512768Y-114764D01*
X1522928Y-109684D01*
X1543756Y-109684D01*
X1554170Y-114764D01*
X1564584Y-125178D01*
X1569918Y-135592D01*
X1574998Y-151340D01*
X1574998Y-177248D01*
X1569918Y-192742D01*
X1564584Y-203156D01*
X1554170Y-213570D01*
X1543756Y-218650D01*
X1522928Y-218650D01*
X1512768Y-213570D01*
X1502354Y-203156D01*
X1497020Y-192742D01*
X247022Y-1785586D02*
G01*
X252356Y-1775172D01*
X262770Y-1764758D01*
X272930Y-1759678D01*
X293758Y-1759678D01*
X304172Y-1764758D01*
X314586Y-1775172D01*
X319920Y-1785586D01*
X325000Y-1801334D01*
X325000Y-1827242D01*
X319920Y-1842736D01*
X314586Y-1853150D01*
X304172Y-1863564D01*
X293758Y-1868644D01*
X272930Y-1868644D01*
X262770Y-1863564D01*
X252356Y-1853150D01*
X247022Y-1842736D01*
X247022Y-1827242D01*
X272930Y-1827242D02*
G01*
X247022Y-1827242D01*
X212732Y-1759678D02*
G01*
X212732Y-1868644D01*
X212732Y-1759678D02*
G01*
X140088Y-1868644D01*
X140088Y-1759678D02*
G01*
X140088Y-1868644D01*
X105798Y-1759678D02*
G01*
X105798Y-1868644D01*
X105798Y-1759678D02*
G01*
X69476Y-1759678D01*
X53728Y-1764758D01*
X43314Y-1775172D01*
X38234Y-1785586D01*
X32900Y-1801334D01*
X32900Y-1827242D01*
X38234Y-1842736D01*
X43314Y-1853150D01*
X53728Y-1863564D01*
X69476Y-1868644D01*
X105798Y-1868644D01*
X349999Y-134683D02*
G01*
X308343Y-243649D01*
X266941Y-134683D02*
G01*
X308343Y-243649D01*
X154673Y-160591D02*
G01*
X159753Y-150177D01*
X170167Y-139763D01*
X180581Y-134683D01*
X201409Y-134683D01*
X211823Y-139763D01*
X222237Y-150177D01*
X227317Y-160591D01*
X232651Y-176339D01*
X232651Y-202247D01*
X227317Y-217741D01*
X222237Y-228155D01*
X211823Y-238569D01*
X201409Y-243649D01*
X180581Y-243649D01*
X170167Y-238569D01*
X159753Y-228155D01*
X154673Y-217741D01*
X42405Y-160591D02*
G01*
X47739Y-150177D01*
X57899Y-139763D01*
X68313Y-134683D01*
X89141Y-134683D01*
X99555Y-139763D01*
X109969Y-150177D01*
X115049Y-160591D01*
X120383Y-176339D01*
X120383Y-202247D01*
X115049Y-217741D01*
X109969Y-228155D01*
X99555Y-238569D01*
X89141Y-243649D01*
X68313Y-243649D01*
X57899Y-238569D01*
X47739Y-228155D01*
X42405Y-217741D01*
D11*
X927722Y-53220D02*
G01*
X932266Y-44129D01*
X941357Y-35039D01*
X950450Y-30492D01*
X968631Y-30492D01*
X977722Y-35039D01*
X986812Y-44129D01*
X991356Y-53220D01*
X995903Y-66855D01*
X995903Y-89583D01*
X991356Y-103220D01*
X986812Y-112311D01*
X977722Y-121401D01*
X968631Y-125948D01*
X950450Y-125948D01*
X941357Y-121401D01*
X932266Y-112311D01*
X927722Y-103220D01*
X897722Y-48674D02*
G01*
X888631Y-44129D01*
X874994Y-30492D01*
X874994Y-125948D01*
X206822Y-1371818D02*
G01*
X211366Y-1362727D01*
X220456Y-1353637D01*
X229549Y-1349090D01*
X247731Y-1349090D01*
X256821Y-1353637D01*
X265912Y-1362727D01*
X270456Y-1371818D01*
X275003Y-1385453D01*
X275003Y-1408181D01*
X270456Y-1421818D01*
X265912Y-1430909D01*
X256821Y-1439999D01*
X247731Y-1444546D01*
X229549Y-1444546D01*
X220456Y-1439999D01*
X211366Y-1430909D01*
X206822Y-1421818D01*
X113184Y-1349090D02*
G01*
X158640Y-1444546D01*
X176822Y-1349090D02*
G01*
X113184Y-1349090D01*
X53179Y-781339D02*
G01*
X44089Y-776795D01*
X34998Y-767704D01*
X30452Y-758611D01*
X30452Y-740430D01*
X34998Y-731339D01*
X44089Y-722248D01*
X53179Y-717704D01*
X66814Y-713158D01*
X89542Y-713158D01*
X103179Y-717704D01*
X112270Y-722248D01*
X121361Y-731339D01*
X125907Y-740430D01*
X125907Y-758611D01*
X121361Y-767704D01*
X112270Y-776795D01*
X103179Y-781339D01*
X30452Y-834067D02*
G01*
X34998Y-820430D01*
X44089Y-815886D01*
X53179Y-815886D01*
X62270Y-820430D01*
X66814Y-829520D01*
X71361Y-847704D01*
X75907Y-861339D01*
X84998Y-870430D01*
X94089Y-874976D01*
X107723Y-874976D01*
X116814Y-870430D01*
X121361Y-865886D01*
X125907Y-852248D01*
X125907Y-834067D01*
X121361Y-820430D01*
X116814Y-815886D01*
X107723Y-811339D01*
X94089Y-811339D01*
X84998Y-815886D01*
X75907Y-824976D01*
X71361Y-838611D01*
X66814Y-856795D01*
X62270Y-865886D01*
X53179Y-870430D01*
X44089Y-870430D01*
X34998Y-865886D01*
X30452Y-852248D01*
X30452Y-834067D01*
X1143617Y-378183D02*
G01*
X1148161Y-369092D01*
X1157251Y-360001D01*
X1166345Y-355455D01*
X1184526Y-355455D01*
X1193617Y-360001D01*
X1202707Y-369092D01*
X1207251Y-378183D01*
X1211798Y-391817D01*
X1211798Y-414545D01*
X1207251Y-428183D01*
X1202707Y-437273D01*
X1193617Y-446364D01*
X1184526Y-450910D01*
X1166345Y-450910D01*
X1157251Y-446364D01*
X1148161Y-437273D01*
X1143617Y-428183D01*
X1109070Y-378183D02*
G01*
X1109070Y-373636D01*
X1104526Y-364545D01*
X1099980Y-360001D01*
X1090889Y-355455D01*
X1072708Y-355455D01*
X1063617Y-360001D01*
X1059070Y-364545D01*
X1054526Y-373636D01*
X1054526Y-382727D01*
X1059070Y-391817D01*
X1068161Y-405455D01*
X1113617Y-450910D01*
X1049980Y-450910D01*
X1143599Y-703183D02*
G01*
X1148143Y-694093D01*
X1157234Y-685002D01*
X1166327Y-680455D01*
X1184508Y-680455D01*
X1193599Y-685002D01*
X1202689Y-694093D01*
X1207234Y-703183D01*
X1211780Y-716818D01*
X1211780Y-739546D01*
X1207234Y-753183D01*
X1202689Y-762274D01*
X1193599Y-771364D01*
X1184508Y-775911D01*
X1166327Y-775911D01*
X1157234Y-771364D01*
X1148143Y-762274D01*
X1143599Y-753183D01*
X1104508Y-680455D02*
G01*
X1054508Y-680455D01*
X1081780Y-716818D01*
X1068143Y-716818D01*
X1059053Y-721365D01*
X1054508Y-725911D01*
X1049962Y-739546D01*
X1049962Y-748637D01*
X1054508Y-762274D01*
X1063599Y-771364D01*
X1077234Y-775911D01*
X1090871Y-775911D01*
X1104508Y-771364D01*
X1109052Y-766818D01*
X1113599Y-757727D01*
X1123177Y-1028192D02*
G01*
X1127721Y-1019101D01*
X1136812Y-1010010D01*
X1145905Y-1005464D01*
X1164087Y-1005464D01*
X1173177Y-1010010D01*
X1182268Y-1019101D01*
X1186812Y-1028192D01*
X1191359Y-1041826D01*
X1191359Y-1064554D01*
X1186812Y-1078191D01*
X1182268Y-1087282D01*
X1173177Y-1096373D01*
X1164087Y-1100919D01*
X1145905Y-1100919D01*
X1136812Y-1096373D01*
X1127721Y-1087282D01*
X1123177Y-1078191D01*
X1047722Y-1005464D02*
G01*
X1093177Y-1069101D01*
X1024996Y-1069101D01*
X1047722Y-1005464D02*
G01*
X1047722Y-1100919D01*
X1143617Y-1353192D02*
G01*
X1148161Y-1344101D01*
X1157251Y-1335011D01*
X1166345Y-1330464D01*
X1184526Y-1330464D01*
X1193617Y-1335011D01*
X1202707Y-1344101D01*
X1207251Y-1353192D01*
X1211798Y-1366827D01*
X1211798Y-1389555D01*
X1207251Y-1403192D01*
X1202707Y-1412283D01*
X1193617Y-1421373D01*
X1184526Y-1425920D01*
X1166345Y-1425920D01*
X1157251Y-1421373D01*
X1148161Y-1412283D01*
X1143617Y-1403192D01*
X1059070Y-1330464D02*
G01*
X1104526Y-1330464D01*
X1109070Y-1371373D01*
X1104526Y-1366827D01*
X1090889Y-1362283D01*
X1077252Y-1362283D01*
X1063617Y-1366827D01*
X1054526Y-1375920D01*
X1049980Y-1389555D01*
X1049980Y-1398645D01*
X1054526Y-1412283D01*
X1063617Y-1421373D01*
X1077252Y-1425920D01*
X1090889Y-1425920D01*
X1104526Y-1421373D01*
X1109070Y-1416827D01*
X1113617Y-1407736D01*
X757273Y-103649D02*
G01*
X761817Y-94559D01*
X770907Y-85468D01*
X780000Y-80921D01*
X798182Y-80921D01*
X807272Y-85468D01*
X816363Y-94559D01*
X820907Y-103649D01*
X825454Y-117284D01*
X825454Y-140012D01*
X820907Y-153649D01*
X816363Y-162740D01*
X807272Y-171830D01*
X798182Y-176377D01*
X780000Y-176377D01*
X770907Y-171830D01*
X761817Y-162740D01*
X757273Y-153649D01*
X672726Y-94559D02*
G01*
X677273Y-85468D01*
X690907Y-80921D01*
X700001Y-80921D01*
X713635Y-85468D01*
X722726Y-99103D01*
X727273Y-121831D01*
X727273Y-144559D01*
X722726Y-162740D01*
X713635Y-171830D01*
X700001Y-176377D01*
X695454Y-176377D01*
X681817Y-171830D01*
X672726Y-162740D01*
X668182Y-149103D01*
X668182Y-144559D01*
X672726Y-130921D01*
X681817Y-121831D01*
X695454Y-117284D01*
X700001Y-117284D01*
X713635Y-121831D01*
X722726Y-130921D01*
X727273Y-144559D01*
X547728Y-99090D02*
G01*
X556818Y-103637D01*
X565909Y-112727D01*
X570453Y-121818D01*
X575000Y-135453D01*
X575000Y-158181D01*
X570453Y-171818D01*
X565909Y-180908D01*
X556818Y-189999D01*
X547728Y-194546D01*
X529546Y-194546D01*
X520453Y-189999D01*
X511362Y-180908D01*
X506818Y-171818D01*
X502272Y-158181D01*
X502272Y-135453D01*
X506818Y-121818D01*
X511362Y-112727D01*
X520453Y-103637D01*
X529546Y-99090D01*
X547728Y-99090D01*
X534090Y-176362D02*
G01*
X506818Y-203636D01*
X472272Y-117271D02*
G01*
X463181Y-112727D01*
X449546Y-99090D01*
X449546Y-194546D01*
X389534Y-1470454D02*
G01*
X394080Y-1461363D01*
X403171Y-1452272D01*
X412262Y-1447728D01*
X425897Y-1443182D01*
X448624Y-1443182D01*
X462262Y-1447728D01*
X471352Y-1452272D01*
X480443Y-1461363D01*
X484990Y-1470454D01*
X484990Y-1488635D01*
X480443Y-1497728D01*
X471352Y-1506819D01*
X462262Y-1511363D01*
X448624Y-1515910D01*
X425897Y-1515910D01*
X412262Y-1511363D01*
X403171Y-1506819D01*
X394080Y-1497728D01*
X389534Y-1488635D01*
X389534Y-1470454D01*
X466806Y-1484091D02*
G01*
X494080Y-1511363D01*
X412262Y-1550454D02*
G01*
X407715Y-1550454D01*
X398625Y-1555000D01*
X394080Y-1559544D01*
X389534Y-1568635D01*
X389534Y-1586819D01*
X394080Y-1595909D01*
X398625Y-1600454D01*
X407715Y-1605000D01*
X416806Y-1605000D01*
X425897Y-1600454D01*
X439534Y-1591363D01*
X484990Y-1545910D01*
X484990Y-1609544D01*
X1554017Y-503758D02*
G01*
X1554017Y-599213D01*
X1554017Y-503758D02*
G01*
X1513108Y-503758D01*
X1499471Y-508304D01*
X1494927Y-512848D01*
X1490380Y-521939D01*
X1490380Y-531030D01*
X1494927Y-540120D01*
X1499471Y-544667D01*
X1513108Y-549214D01*
X1554017Y-549214D01*
X1522199Y-549214D02*
G01*
X1490380Y-599213D01*
X1455836Y-526486D02*
G01*
X1455836Y-521939D01*
X1451289Y-512848D01*
X1446745Y-508304D01*
X1437655Y-503758D01*
X1419471Y-503758D01*
X1410380Y-508304D01*
X1405836Y-512848D01*
X1401290Y-521939D01*
X1401290Y-531030D01*
X1405836Y-540120D01*
X1414927Y-553758D01*
X1460380Y-599213D01*
X1396745Y-599213D01*
X999997Y-1349087D02*
G01*
X999997Y-1444543D01*
X999997Y-1349087D02*
G01*
X959088Y-1349087D01*
X945451Y-1353634D01*
X940907Y-1358178D01*
X936360Y-1367269D01*
X936360Y-1376359D01*
X940907Y-1385450D01*
X945451Y-1389997D01*
X959088Y-1394543D01*
X999997Y-1394543D01*
X968179Y-1394543D02*
G01*
X936360Y-1444543D01*
X851816Y-1362725D02*
G01*
X856361Y-1353634D01*
X869998Y-1349087D01*
X879088Y-1349087D01*
X892726Y-1353634D01*
X901816Y-1367269D01*
X906360Y-1389997D01*
X906360Y-1412725D01*
X901816Y-1430906D01*
X892726Y-1439997D01*
X879088Y-1444543D01*
X874544Y-1444543D01*
X860907Y-1439997D01*
X851816Y-1430906D01*
X847270Y-1417269D01*
X847270Y-1412725D01*
X851816Y-1399087D01*
X860907Y-1389997D01*
X874544Y-1385450D01*
X879088Y-1385450D01*
X892726Y-1389997D01*
X901816Y-1399087D01*
X906360Y-1412725D01*
X830437Y-942733D02*
G01*
X925893Y-942733D01*
X830437Y-942733D02*
G01*
X830437Y-983642D01*
X834984Y-997280D01*
X839528Y-1001824D01*
X848619Y-1006370D01*
X857709Y-1006370D01*
X866800Y-1001824D01*
X871346Y-997280D01*
X875893Y-983642D01*
X875893Y-942733D01*
X875893Y-974552D02*
G01*
X925893Y-1006370D01*
X830437Y-1100005D02*
G01*
X925893Y-1054552D01*
X830437Y-1036370D02*
G01*
X830437Y-1100005D01*
X873625Y-718185D02*
G01*
X969081Y-718185D01*
X873625Y-718185D02*
G01*
X873625Y-759094D01*
X878171Y-772731D01*
X882716Y-777275D01*
X891806Y-781822D01*
X900897Y-781822D01*
X909988Y-777275D01*
X914534Y-772731D01*
X919081Y-759094D01*
X919081Y-718185D01*
X919081Y-750003D02*
G01*
X969081Y-781822D01*
X873625Y-834547D02*
G01*
X878171Y-820912D01*
X887262Y-816366D01*
X896353Y-816366D01*
X905443Y-820912D01*
X909988Y-830003D01*
X914534Y-848184D01*
X919081Y-861821D01*
X928171Y-870912D01*
X937262Y-875456D01*
X950897Y-875456D01*
X959987Y-870912D01*
X964534Y-866366D01*
X969081Y-852731D01*
X969081Y-834547D01*
X964534Y-820912D01*
X959987Y-816366D01*
X950897Y-811822D01*
X937262Y-811822D01*
X928171Y-816366D01*
X919081Y-825456D01*
X914534Y-839094D01*
X909988Y-857275D01*
X905443Y-866366D01*
X896353Y-870912D01*
X887262Y-870912D01*
X878171Y-866366D01*
X873625Y-852731D01*
X873625Y-834547D01*
X475000Y-1299088D02*
G01*
X475000Y-1367269D01*
X470453Y-1380906D01*
X461363Y-1389997D01*
X447728Y-1394543D01*
X438637Y-1394543D01*
X425000Y-1389997D01*
X415909Y-1380906D01*
X411363Y-1367269D01*
X411363Y-1299088D01*
X381363Y-1317269D02*
G01*
X372272Y-1312725D01*
X358637Y-1299088D01*
X358637Y-1394543D01*
D12*
X567621Y-558939D02*
G01*
X663508Y-558939D01*
X663508Y-691060D01*
X567621Y-691060D01*
X482379Y-558939D02*
G01*
X386491Y-558939D01*
X386491Y-691060D01*
X482379Y-691060D01*
X1267620Y-808939D02*
G01*
X1363507Y-808939D01*
X1363507Y-941059D01*
X1267620Y-941059D01*
X1182377Y-808939D02*
G01*
X1086490Y-808939D01*
X1086490Y-941059D01*
X1182377Y-941059D01*
X1267620Y-1133937D02*
G01*
X1363507Y-1133937D01*
X1363507Y-1266057D01*
X1267620Y-1266057D01*
X1182377Y-1133937D02*
G01*
X1086490Y-1133937D01*
X1086490Y-1266057D01*
X1182377Y-1266057D01*
X1267620Y-1458937D02*
G01*
X1363507Y-1458937D01*
X1363507Y-1591058D01*
X1267620Y-1591058D01*
X1182377Y-1458937D02*
G01*
X1086490Y-1458937D01*
X1086490Y-1591058D01*
X1182377Y-1591058D01*
X840821Y-531124D02*
G01*
X840821Y-390123D01*
X1021542Y-390123D02*
G01*
X1021542Y-531124D01*
X1006302Y-546364D02*
G01*
X856061Y-546364D01*
X840821Y-168884D02*
G01*
X840821Y-309885D01*
X1021542Y-309885D02*
G01*
X1021542Y-168884D01*
X1006302Y-153644D02*
G01*
X856061Y-153644D01*
X84640Y-1306118D02*
G01*
X84640Y-1165118D01*
X265361Y-1165118D02*
G01*
X265361Y-1306118D01*
X250121Y-1321358D02*
G01*
X99880Y-1321358D01*
X84640Y-943879D02*
G01*
X84640Y-1084879D01*
X265361Y-1084879D02*
G01*
X265361Y-943879D01*
X250121Y-928639D02*
G01*
X99880Y-928639D01*
X531119Y-890358D02*
G01*
X390118Y-890358D01*
X390118Y-709637D02*
G01*
X531119Y-709637D01*
X546359Y-724877D02*
G01*
X546359Y-875118D01*
X168879Y-890358D02*
G01*
X309879Y-890358D01*
X309879Y-709637D02*
G01*
X168879Y-709637D01*
X153639Y-724877D02*
G01*
X153639Y-875118D01*
D13*
X1235997Y-360022D02*
G01*
X1235997Y-440024D01*
X1346972Y-329036D02*
G01*
X1266974Y-329036D01*
X1346972Y-471002D02*
G01*
X1266974Y-471002D01*
X1404561Y-328455D02*
G01*
X1484561Y-328455D01*
X1515544Y-359437D02*
G01*
X1515544Y-439435D01*
X1404561Y-470415D02*
G01*
X1484561Y-470415D01*
X1235997Y-685022D02*
G01*
X1235997Y-765025D01*
X1346972Y-654037D02*
G01*
X1266974Y-654037D01*
X1346972Y-796002D02*
G01*
X1266974Y-796002D01*
X1404561Y-653455D02*
G01*
X1484561Y-653455D01*
X1515544Y-684438D02*
G01*
X1515544Y-764435D01*
X1404561Y-795416D02*
G01*
X1484561Y-795416D01*
X1235997Y-1010020D02*
G01*
X1235997Y-1090023D01*
X1346972Y-979035D02*
G01*
X1266974Y-979035D01*
X1346972Y-1121001D02*
G01*
X1266974Y-1121001D01*
X1404561Y-978453D02*
G01*
X1484561Y-978453D01*
X1515544Y-1009436D02*
G01*
X1515544Y-1089433D01*
X1404561Y-1120414D02*
G01*
X1484561Y-1120414D01*
X1235997Y-1335021D02*
G01*
X1235997Y-1415023D01*
X1346972Y-1304036D02*
G01*
X1266974Y-1304036D01*
X1346972Y-1446001D02*
G01*
X1266974Y-1446001D01*
X1404561Y-1303454D02*
G01*
X1484561Y-1303454D01*
X1515544Y-1334437D02*
G01*
X1515544Y-1414434D01*
X1404561Y-1445414D02*
G01*
X1484561Y-1445414D01*
X716206Y-489008D02*
G01*
X796208Y-489008D01*
X685220Y-378033D02*
G01*
X685220Y-458030D01*
X827186Y-378033D02*
G01*
X827186Y-458030D01*
X684639Y-320443D02*
G01*
X684639Y-240444D01*
X715622Y-209461D02*
G01*
X795619Y-209461D01*
X826599Y-320443D02*
G01*
X826599Y-240444D01*
D12*
X572508Y-527616D02*
G01*
X427266Y-527616D01*
X427266Y-424454D01*
X572508Y-222374D02*
G01*
X427266Y-222374D01*
X427266Y-325536D01*
X572508Y-420535D02*
G01*
X572508Y-329455D01*
X827620Y-1427375D02*
G01*
X827620Y-1572618D01*
X724458Y-1572618D01*
X522378Y-1427375D02*
G01*
X522378Y-1572618D01*
X625541Y-1572618D01*
X720539Y-1427375D02*
G01*
X629460Y-1427375D01*
X1267620Y-483938D02*
G01*
X1363507Y-483938D01*
X1363507Y-616059D01*
X1267620Y-616059D01*
X1182377Y-483938D02*
G01*
X1086490Y-483938D01*
X1086490Y-616059D01*
X1182377Y-616059D01*
X807377Y-1316057D02*
G01*
X711489Y-1316057D01*
X711489Y-1183937D01*
X807377Y-1183937D01*
X892619Y-1316057D02*
G01*
X988507Y-1316057D01*
X988507Y-1183937D01*
X892619Y-1183937D01*
X658939Y-982378D02*
G01*
X658939Y-886490D01*
X791060Y-886490D01*
X791060Y-982378D01*
X658939Y-1067620D02*
G01*
X658939Y-1163507D01*
X791060Y-1163507D01*
X791060Y-1067620D01*
X742619Y-733940D02*
G01*
X838507Y-733940D01*
X838507Y-866061D01*
X742619Y-866061D01*
X657377Y-733940D02*
G01*
X561489Y-733940D01*
X561489Y-866061D01*
X657377Y-866061D01*
X322379Y-1014877D02*
G01*
X322379Y-1185118D01*
X627621Y-1014877D02*
G01*
X627621Y-1185118D01*
X522640Y-1185118D02*
G01*
X427360Y-1185118D01*
G75*
G01*
X1021542Y-531124D02*
G02*
X1006302Y-546364I-15240J0D01*
G75*
G01*
X856061Y-546364D02*
G02*
X840821Y-531124I0J15240D01*
G75*
G01*
X1021542Y-168885D02*
G03*
X1006302Y-153645I-15240J0D01*
G75*
G01*
X856061Y-153645D02*
G03*
X840821Y-168885I0J-15240D01*
G75*
G01*
X265361Y-1306119D02*
G02*
X250121Y-1321359I-15240J0D01*
G75*
G01*
X99880Y-1321359D02*
G02*
X84640Y-1306119I0J15240D01*
G75*
G01*
X265361Y-943879D02*
G03*
X250121Y-928639I-15240J0D01*
G75*
G01*
X99880Y-928639D02*
G03*
X84640Y-943879I0J-15240D01*
G75*
G01*
X531119Y-709638D02*
G02*
X546359Y-724878I0J-15240D01*
G75*
G01*
X546359Y-875119D02*
G02*
X531119Y-890359I-15240J0D01*
G75*
G01*
X168880Y-709638D02*
G03*
X153640Y-724878I0J-15240D01*
G75*
G01*
X153640Y-875119D02*
G03*
X168880Y-890359I15240J0D01*
D13*
G75*
G01*
X1515549Y-359438D02*
G03*
X1484567Y-328455I-30982J0D01*
G75*
G01*
X1484567Y-470421D02*
G03*
X1515549Y-439435I0J30983D01*
G75*
G01*
X1266980Y-329037D02*
G03*
X1235997Y-360022I0J-30983D01*
G75*
G01*
X1235997Y-440019D02*
G03*
X1266980Y-471002I30983J0D01*
G75*
G01*
X1515549Y-684439D02*
G03*
X1484567Y-653456I-30982J0D01*
G75*
G01*
X1484567Y-795421D02*
G03*
X1515549Y-764436I0J30983D01*
G75*
G01*
X1266980Y-654037D02*
G03*
X1235997Y-685023I0J-30983D01*
G75*
G01*
X1235997Y-765020D02*
G03*
X1266980Y-796003I30983J0D01*
G75*
G01*
X1515549Y-1009437D02*
G03*
X1484567Y-978454I-30982J0D01*
G75*
G01*
X1484567Y-1120419D02*
G03*
X1515549Y-1089434I0J30983D01*
G75*
G01*
X1266980Y-979035D02*
G03*
X1235997Y-1010021I0J-30983D01*
G75*
G01*
X1235997Y-1090018D02*
G03*
X1266980Y-1121001I30983J0D01*
G75*
G01*
X1515549Y-1334437D02*
G03*
X1484567Y-1303454I-30982J0D01*
G75*
G01*
X1484567Y-1445420D02*
G03*
X1515549Y-1414435I0J30983D01*
G75*
G01*
X1266980Y-1304036D02*
G03*
X1235997Y-1335021I0J-30983D01*
G75*
G01*
X1235997Y-1415019D02*
G03*
X1266980Y-1446002I30983J0D01*
G75*
G01*
X715622Y-209456D02*
G03*
X684639Y-240439I0J-30983D01*
G75*
G01*
X826605Y-240439D02*
G03*
X795619Y-209456I-30983J0D01*
G75*
G01*
X685221Y-458025D02*
G03*
X716206Y-489008I30983J-1D01*
G75*
G01*
X796204Y-489008D02*
G03*
X827187Y-458025I0J30983D01*
D14*
G75*
G01
X324917Y-985698D02*
G03X324917Y-985698I-15011J0D01*
M02*
