G04 Layer: BottomSilkscreenLayer*
G04 EasyEDA v6.5.51, 2025-11-13 20:24:43*
G04 f72cce456b204ee28f235c325527e0df,9a5be75d700b4a6385dc1106f27949ae,10*
G04 Gerber Generator version 0.2*
G04 Scale: 100 percent, Rotated: No, Reflected: No *
G04 Dimensions in millimeters *
G04 leading zeros omitted , absolute positions ,4 integer and 5 decimal *
%FSLAX45Y45*%
%MOMM*%

%ADD10C,0.1524*%
%ADD11C,0.2540*%
%ADD12C,0.3000*%
%ADD13C,0.0145*%

%LPD*%
G36*
X741070Y-1674418D02*
G01*
X739902Y-1675587D01*
X739902Y-1683918D01*
X738682Y-1685137D01*
X730351Y-1685137D01*
X729183Y-1686306D01*
X729183Y-1694637D01*
X727964Y-1695805D01*
X719632Y-1695805D01*
X718464Y-1697024D01*
X718464Y-1716074D01*
X717245Y-1717243D01*
X708914Y-1717243D01*
X707745Y-1718462D01*
X707745Y-1726793D01*
X706526Y-1727962D01*
X698246Y-1727962D01*
X697026Y-1729181D01*
X697026Y-1738680D01*
X687324Y-1738680D01*
X685190Y-1737868D01*
X676706Y-1737614D01*
X676452Y-1729079D01*
X674522Y-1727962D01*
X644652Y-1727962D01*
X643432Y-1729181D01*
X643432Y-1748231D01*
X697026Y-1748231D01*
X697026Y-1738680D01*
X706526Y-1738680D01*
X707745Y-1739900D01*
X707745Y-1749399D01*
X727964Y-1749399D01*
X729183Y-1748231D01*
X729183Y-1729181D01*
X730351Y-1727962D01*
X738682Y-1727962D01*
X739902Y-1726793D01*
X739902Y-1718462D01*
X741070Y-1717243D01*
X749401Y-1717243D01*
X750570Y-1718462D01*
X750570Y-1726793D01*
X751789Y-1727962D01*
X760120Y-1727962D01*
X761288Y-1729181D01*
X761288Y-1758899D01*
X762508Y-1760118D01*
X782726Y-1760118D01*
X782726Y-1769618D01*
X781558Y-1770837D01*
X773226Y-1770837D01*
X772007Y-1772005D01*
X772007Y-1780336D01*
X770839Y-1781556D01*
X751789Y-1781556D01*
X750570Y-1782724D01*
X750570Y-1791055D01*
X749401Y-1792274D01*
X741070Y-1792274D01*
X739902Y-1793443D01*
X739902Y-1801774D01*
X738682Y-1802993D01*
X719632Y-1802993D01*
X718464Y-1801774D01*
X718464Y-1772005D01*
X717245Y-1770837D01*
X708914Y-1770837D01*
X707745Y-1769618D01*
X707745Y-1749399D01*
X698246Y-1749399D01*
X697026Y-1748231D01*
X643432Y-1748332D01*
X644550Y-1750517D01*
X652932Y-1750618D01*
X653084Y-1759000D01*
X655269Y-1760118D01*
X663702Y-1760118D01*
X664870Y-1761286D01*
X664870Y-1769770D01*
X665988Y-1771904D01*
X674370Y-1772056D01*
X674370Y-1780184D01*
X675589Y-1782622D01*
X675589Y-1824380D01*
X666089Y-1824380D01*
X664870Y-1823212D01*
X664870Y-1804162D01*
X663702Y-1802993D01*
X655370Y-1802993D01*
X654151Y-1804162D01*
X654151Y-1823212D01*
X652983Y-1824380D01*
X644652Y-1824380D01*
X643432Y-1825599D01*
X643432Y-1844649D01*
X642264Y-1845818D01*
X633933Y-1845818D01*
X632764Y-1847037D01*
X632764Y-1866087D01*
X631545Y-1867255D01*
X623214Y-1867255D01*
X622046Y-1868474D01*
X622046Y-1876755D01*
X620826Y-1877974D01*
X612495Y-1877974D01*
X611327Y-1879193D01*
X611327Y-1898192D01*
X610108Y-1899412D01*
X601776Y-1899412D01*
X600608Y-1900580D01*
X600608Y-1919630D01*
X622046Y-1919630D01*
X622046Y-1911299D01*
X623214Y-1910130D01*
X631545Y-1910130D01*
X632764Y-1908911D01*
X632764Y-1900580D01*
X633933Y-1899412D01*
X642264Y-1899412D01*
X643432Y-1898192D01*
X643432Y-1879193D01*
X644652Y-1877974D01*
X652983Y-1877974D01*
X654151Y-1876755D01*
X654151Y-1857756D01*
X655370Y-1856536D01*
X663702Y-1856536D01*
X664870Y-1855368D01*
X664870Y-1847037D01*
X666089Y-1845818D01*
X674420Y-1845818D01*
X675589Y-1844649D01*
X675589Y-1824380D01*
X685088Y-1824380D01*
X686308Y-1825599D01*
X686308Y-1833930D01*
X687527Y-1835099D01*
X695807Y-1835099D01*
X697026Y-1836318D01*
X697026Y-1866087D01*
X698246Y-1867255D01*
X717245Y-1867255D01*
X718464Y-1868474D01*
X718464Y-1887474D01*
X717245Y-1888693D01*
X698246Y-1888693D01*
X697026Y-1889861D01*
X697026Y-1931568D01*
X687527Y-1931568D01*
X686308Y-1930349D01*
X686308Y-1922018D01*
X685088Y-1920849D01*
X623214Y-1920849D01*
X622046Y-1919630D01*
X600608Y-1919630D01*
X599389Y-1920849D01*
X596442Y-1920849D01*
X595223Y-1922018D01*
X595223Y-1941068D01*
X596442Y-1942236D01*
X695807Y-1942236D01*
X697026Y-1941068D01*
X697026Y-1931568D01*
X706526Y-1931568D01*
X707745Y-1932736D01*
X707745Y-1962505D01*
X708914Y-1963674D01*
X760120Y-1963674D01*
X761288Y-1962505D01*
X761288Y-1954123D01*
X762304Y-1952752D01*
X770737Y-1952752D01*
X771906Y-1951482D01*
X772058Y-1889810D01*
X773226Y-1888693D01*
X781558Y-1888693D01*
X782726Y-1887474D01*
X782726Y-1879193D01*
X783945Y-1877974D01*
X792276Y-1877974D01*
X793445Y-1876755D01*
X793445Y-1868474D01*
X794664Y-1867255D01*
X802995Y-1867255D01*
X804164Y-1866087D01*
X804164Y-1825599D01*
X805383Y-1824380D01*
X825601Y-1824380D01*
X825601Y-1833930D01*
X824382Y-1835099D01*
X816051Y-1835099D01*
X814882Y-1836318D01*
X814882Y-1844649D01*
X816051Y-1845818D01*
X824382Y-1845818D01*
X825601Y-1847037D01*
X825601Y-1855368D01*
X826769Y-1856536D01*
X835101Y-1856536D01*
X836320Y-1857756D01*
X836320Y-1876755D01*
X837488Y-1877974D01*
X845819Y-1877974D01*
X847039Y-1879193D01*
X847039Y-1908911D01*
X848207Y-1910130D01*
X856538Y-1910130D01*
X857758Y-1911299D01*
X857758Y-1919630D01*
X856538Y-1920849D01*
X783945Y-1920849D01*
X782726Y-1922018D01*
X782726Y-1941068D01*
X783945Y-1942236D01*
X894029Y-1942236D01*
X895248Y-1941068D01*
X895248Y-1922018D01*
X894029Y-1920849D01*
X891082Y-1920849D01*
X889863Y-1919630D01*
X889863Y-1900580D01*
X888695Y-1899412D01*
X880364Y-1899412D01*
X879144Y-1898192D01*
X879144Y-1889861D01*
X877976Y-1888693D01*
X869645Y-1888693D01*
X868426Y-1887474D01*
X868426Y-1868474D01*
X867257Y-1867255D01*
X858926Y-1867255D01*
X857758Y-1866087D01*
X857758Y-1847037D01*
X856538Y-1845818D01*
X848207Y-1845818D01*
X847039Y-1844649D01*
X847039Y-1836318D01*
X845819Y-1835099D01*
X837488Y-1835099D01*
X836320Y-1833930D01*
X836320Y-1825599D01*
X835101Y-1824380D01*
X825601Y-1824380D01*
X825601Y-1814880D01*
X826769Y-1813712D01*
X835101Y-1813712D01*
X836320Y-1812493D01*
X836320Y-1793443D01*
X837488Y-1792274D01*
X845819Y-1792274D01*
X847039Y-1791055D01*
X847039Y-1761286D01*
X845819Y-1760118D01*
X837488Y-1760118D01*
X836320Y-1758899D01*
X836320Y-1750415D01*
X835456Y-1748282D01*
X835202Y-1739798D01*
X826719Y-1739544D01*
X825601Y-1737614D01*
X825601Y-1729181D01*
X824382Y-1727962D01*
X794664Y-1727962D01*
X793445Y-1729181D01*
X793445Y-1758899D01*
X792276Y-1760118D01*
X782726Y-1760118D01*
X782726Y-1718462D01*
X781558Y-1717243D01*
X773226Y-1717243D01*
X772007Y-1716074D01*
X772007Y-1697024D01*
X770839Y-1695805D01*
X762508Y-1695805D01*
X761288Y-1694637D01*
X761288Y-1686306D01*
X760120Y-1685137D01*
X751789Y-1685137D01*
X750570Y-1683918D01*
X750570Y-1675587D01*
X749401Y-1674418D01*
G37*
G36*
X1779879Y-701192D02*
G01*
X1773834Y-701446D01*
X1767890Y-702157D01*
X1762150Y-703326D01*
X1756562Y-704951D01*
X1751126Y-706983D01*
X1745945Y-709422D01*
X1740966Y-712216D01*
X1736293Y-715416D01*
X1731822Y-718972D01*
X1727657Y-722782D01*
X1723847Y-726948D01*
X1720291Y-731418D01*
X1717090Y-736092D01*
X1714296Y-741070D01*
X1711858Y-746252D01*
X1709826Y-751687D01*
X1708200Y-757275D01*
X1707032Y-763016D01*
X1706321Y-768959D01*
X1706067Y-775004D01*
X1706321Y-781050D01*
X1707032Y-786993D01*
X1708200Y-792734D01*
X1709826Y-798322D01*
X1711858Y-803757D01*
X1714296Y-808939D01*
X1717090Y-813866D01*
X1718398Y-815797D01*
X1759610Y-815797D01*
X1759610Y-803351D01*
X1793392Y-803351D01*
X1793392Y-802589D01*
X1775815Y-783234D01*
X1772107Y-778865D01*
X1768957Y-774700D01*
X1766163Y-770585D01*
X1764030Y-766368D01*
X1763166Y-764235D01*
X1762252Y-759815D01*
X1761896Y-755091D01*
X1762099Y-751890D01*
X1762607Y-748944D01*
X1763471Y-746201D01*
X1764690Y-743661D01*
X1766366Y-741273D01*
X1768398Y-739140D01*
X1770684Y-737362D01*
X1773326Y-735787D01*
X1776120Y-734568D01*
X1779168Y-733704D01*
X1782470Y-733196D01*
X1786026Y-732993D01*
X1792020Y-733399D01*
X1797202Y-734517D01*
X1801926Y-736295D01*
X1805838Y-738581D01*
X1809343Y-741070D01*
X1812696Y-743915D01*
X1804568Y-753313D01*
X1800148Y-749960D01*
X1795932Y-747471D01*
X1791766Y-745744D01*
X1789582Y-745337D01*
X1787296Y-745185D01*
X1785112Y-745388D01*
X1783181Y-745896D01*
X1781454Y-746760D01*
X1779930Y-747979D01*
X1778711Y-749554D01*
X1777847Y-751484D01*
X1777339Y-753770D01*
X1777136Y-756361D01*
X1777238Y-758647D01*
X1778152Y-762965D01*
X1779828Y-766978D01*
X1782368Y-771144D01*
X1785924Y-775766D01*
X1812696Y-805129D01*
X1812696Y-815797D01*
X1817014Y-815797D01*
X1844700Y-733755D01*
X1862988Y-733755D01*
X1890420Y-815797D01*
X1873910Y-815797D01*
X1867560Y-794207D01*
X1839874Y-794207D01*
X1833524Y-815797D01*
X1718398Y-815797D01*
X1720291Y-818591D01*
X1723847Y-823061D01*
X1727657Y-827227D01*
X1731822Y-831037D01*
X1736293Y-834593D01*
X1740966Y-837742D01*
X1745945Y-840587D01*
X1751126Y-843026D01*
X1756562Y-845058D01*
X1762150Y-846683D01*
X1767890Y-847852D01*
X1773834Y-848563D01*
X1779879Y-848817D01*
X1870100Y-848817D01*
X1876145Y-848563D01*
X1882089Y-847852D01*
X1887829Y-846683D01*
X1893468Y-845058D01*
X1898853Y-843026D01*
X1904034Y-840587D01*
X1909013Y-837742D01*
X1913737Y-834593D01*
X1918157Y-831037D01*
X1922322Y-827227D01*
X1926183Y-823061D01*
X1929688Y-818591D01*
X1932889Y-813866D01*
X1935683Y-808939D01*
X1938121Y-803757D01*
X1940153Y-798322D01*
X1941779Y-792734D01*
X1942947Y-786993D01*
X1943709Y-781050D01*
X1943963Y-775004D01*
X1943709Y-768959D01*
X1942947Y-763016D01*
X1941779Y-757275D01*
X1940153Y-751687D01*
X1938121Y-746252D01*
X1935683Y-741070D01*
X1932889Y-736092D01*
X1929688Y-731418D01*
X1926183Y-726948D01*
X1922322Y-722782D01*
X1918157Y-718972D01*
X1913737Y-715416D01*
X1909013Y-712216D01*
X1904034Y-709422D01*
X1898853Y-706983D01*
X1893468Y-704951D01*
X1887829Y-703326D01*
X1882089Y-702157D01*
X1876145Y-701446D01*
X1870100Y-701192D01*
G37*
G36*
X1853844Y-745693D02*
G01*
X1850694Y-757377D01*
X1850034Y-760679D01*
X1843430Y-781507D01*
X1863750Y-781507D01*
X1856993Y-759104D01*
X1855165Y-751890D01*
G37*
G36*
X1550009Y-99974D02*
G01*
X1543964Y-100228D01*
X1538020Y-100990D01*
X1532280Y-102158D01*
X1526641Y-103784D01*
X1521256Y-105816D01*
X1516075Y-108254D01*
X1511096Y-111048D01*
X1506372Y-114249D01*
X1501952Y-117754D01*
X1497787Y-121615D01*
X1493926Y-125780D01*
X1490421Y-130200D01*
X1487220Y-134924D01*
X1485966Y-137160D01*
X1529537Y-137160D01*
X1534515Y-134924D01*
X1540205Y-133350D01*
X1546250Y-132181D01*
X1552143Y-131826D01*
X1556359Y-132029D01*
X1560372Y-132588D01*
X1564132Y-133553D01*
X1567637Y-134874D01*
X1570939Y-136550D01*
X1573987Y-138633D01*
X1576781Y-141020D01*
X1579321Y-143764D01*
X1581505Y-146710D01*
X1583385Y-149860D01*
X1585061Y-153314D01*
X1586433Y-156972D01*
X1587449Y-160883D01*
X1588160Y-164947D01*
X1588566Y-169265D01*
X1588719Y-173736D01*
X1588516Y-179882D01*
X1587754Y-185623D01*
X1586585Y-190906D01*
X1584909Y-195834D01*
X1582775Y-200355D01*
X1580134Y-204368D01*
X1577086Y-207721D01*
X1573479Y-210566D01*
X1569313Y-212902D01*
X1564589Y-214579D01*
X1559407Y-215544D01*
X1553667Y-215900D01*
X1547723Y-215646D01*
X1542491Y-214884D01*
X1537563Y-213614D01*
X1532839Y-211836D01*
X1532839Y-199390D01*
X1542237Y-202438D01*
X1546961Y-203200D01*
X1551889Y-203454D01*
X1555292Y-203250D01*
X1558391Y-202539D01*
X1561134Y-201472D01*
X1563573Y-199898D01*
X1565859Y-197916D01*
X1567789Y-195580D01*
X1569415Y-192836D01*
X1570685Y-189738D01*
X1571701Y-186283D01*
X1572412Y-182524D01*
X1572818Y-178409D01*
X1572869Y-170637D01*
X1572615Y-167436D01*
X1571447Y-161544D01*
X1569821Y-156514D01*
X1567383Y-152146D01*
X1564487Y-148793D01*
X1562709Y-147421D01*
X1558848Y-145440D01*
X1556715Y-144780D01*
X1552143Y-144272D01*
X1547469Y-144627D01*
X1542999Y-145796D01*
X1538833Y-147472D01*
X1534871Y-149352D01*
X1529537Y-137160D01*
X1485966Y-137160D01*
X1484426Y-139903D01*
X1481988Y-145084D01*
X1479956Y-150469D01*
X1478330Y-156108D01*
X1477162Y-161848D01*
X1476400Y-167792D01*
X1476197Y-173837D01*
X1476400Y-179882D01*
X1477162Y-185775D01*
X1478330Y-191566D01*
X1479956Y-197154D01*
X1481988Y-202539D01*
X1484426Y-207771D01*
X1487220Y-212699D01*
X1490421Y-217424D01*
X1493926Y-221894D01*
X1497787Y-226009D01*
X1501952Y-229870D01*
X1506372Y-233425D01*
X1511096Y-236575D01*
X1516075Y-239420D01*
X1521256Y-241858D01*
X1526641Y-243890D01*
X1532280Y-245516D01*
X1538020Y-246684D01*
X1543964Y-247396D01*
X1550009Y-247650D01*
X1568450Y-247650D01*
X1574495Y-247396D01*
X1580438Y-246684D01*
X1586179Y-245516D01*
X1591767Y-243890D01*
X1597202Y-241858D01*
X1602384Y-239420D01*
X1607362Y-236575D01*
X1612036Y-233425D01*
X1616506Y-229870D01*
X1620672Y-226009D01*
X1624482Y-221894D01*
X1628038Y-217424D01*
X1631238Y-212699D01*
X1634032Y-207771D01*
X1636471Y-202539D01*
X1638503Y-197154D01*
X1640128Y-191566D01*
X1641297Y-185775D01*
X1642008Y-179882D01*
X1642262Y-173837D01*
X1642008Y-167792D01*
X1641297Y-161848D01*
X1640128Y-156108D01*
X1638503Y-150469D01*
X1636471Y-145084D01*
X1634032Y-139903D01*
X1631238Y-134924D01*
X1628038Y-130200D01*
X1624482Y-125780D01*
X1620672Y-121615D01*
X1616506Y-117754D01*
X1612036Y-114249D01*
X1607362Y-111048D01*
X1602384Y-108254D01*
X1597202Y-105816D01*
X1591767Y-103784D01*
X1586179Y-102158D01*
X1580438Y-100990D01*
X1574495Y-100228D01*
X1568450Y-99974D01*
G37*
G36*
X99974Y-99974D02*
G01*
X93929Y-100228D01*
X88036Y-100990D01*
X82245Y-102158D01*
X76657Y-103784D01*
X71272Y-105816D01*
X66090Y-108254D01*
X61112Y-111048D01*
X56388Y-114249D01*
X51968Y-117754D01*
X47802Y-121615D01*
X43942Y-125780D01*
X40436Y-130200D01*
X37236Y-134924D01*
X35959Y-137160D01*
X79552Y-137160D01*
X84480Y-134924D01*
X90220Y-133350D01*
X96266Y-132181D01*
X102158Y-131826D01*
X106375Y-132029D01*
X110337Y-132588D01*
X114096Y-133553D01*
X117652Y-134874D01*
X121846Y-137160D01*
X146100Y-137160D01*
X151079Y-134924D01*
X156768Y-133350D01*
X162712Y-132181D01*
X168452Y-131826D01*
X172770Y-132029D01*
X176834Y-132588D01*
X178840Y-133096D01*
X226618Y-133096D01*
X241960Y-186639D01*
X244906Y-200914D01*
X245922Y-194818D01*
X248716Y-183997D01*
X263448Y-133096D01*
X279704Y-133096D01*
X253542Y-214629D01*
X236524Y-214629D01*
X210108Y-133096D01*
X178840Y-133096D01*
X180644Y-133553D01*
X184200Y-134874D01*
X187502Y-136550D01*
X190500Y-138633D01*
X193192Y-141020D01*
X195630Y-143764D01*
X197866Y-146710D01*
X199847Y-149860D01*
X201422Y-153314D01*
X202742Y-156972D01*
X203860Y-160883D01*
X204673Y-164947D01*
X205130Y-169265D01*
X205282Y-173736D01*
X205028Y-179882D01*
X204317Y-185623D01*
X203149Y-190906D01*
X201472Y-195834D01*
X199339Y-200355D01*
X196646Y-204368D01*
X193497Y-207721D01*
X189788Y-210566D01*
X185572Y-212902D01*
X180898Y-214579D01*
X175666Y-215544D01*
X169976Y-215900D01*
X164134Y-215646D01*
X158800Y-214884D01*
X153974Y-213614D01*
X149148Y-211836D01*
X149148Y-199390D01*
X158546Y-202438D01*
X163372Y-203200D01*
X168198Y-203454D01*
X171602Y-203250D01*
X174752Y-202539D01*
X177596Y-201472D01*
X180136Y-199898D01*
X182270Y-197916D01*
X184150Y-195580D01*
X185724Y-192836D01*
X186994Y-189738D01*
X188010Y-186283D01*
X188722Y-182524D01*
X189128Y-178409D01*
X189179Y-170637D01*
X188569Y-164439D01*
X188010Y-161544D01*
X186232Y-156514D01*
X183946Y-152146D01*
X180898Y-148793D01*
X179171Y-147421D01*
X177342Y-146304D01*
X173126Y-144780D01*
X168706Y-144272D01*
X163982Y-144627D01*
X159562Y-145796D01*
X151180Y-149352D01*
X146100Y-137160D01*
X121846Y-137160D01*
X124002Y-138633D01*
X126796Y-141020D01*
X129336Y-143764D01*
X131470Y-146710D01*
X133400Y-149860D01*
X135026Y-153314D01*
X136448Y-156972D01*
X137464Y-160883D01*
X138176Y-164947D01*
X138582Y-169265D01*
X138734Y-173736D01*
X138480Y-179882D01*
X137769Y-185623D01*
X136601Y-190906D01*
X134924Y-195834D01*
X132791Y-200355D01*
X130149Y-204368D01*
X127050Y-207721D01*
X123494Y-210566D01*
X119278Y-212902D01*
X114604Y-214579D01*
X109372Y-215544D01*
X103682Y-215900D01*
X97688Y-215646D01*
X92506Y-214884D01*
X87579Y-213614D01*
X82854Y-211836D01*
X82854Y-199390D01*
X92252Y-202438D01*
X96977Y-203200D01*
X101904Y-203454D01*
X105308Y-203250D01*
X108407Y-202539D01*
X111150Y-201472D01*
X113588Y-199898D01*
X115824Y-197916D01*
X117805Y-195580D01*
X119380Y-192836D01*
X120700Y-189738D01*
X121716Y-186283D01*
X122428Y-182524D01*
X122834Y-178409D01*
X122885Y-170637D01*
X122631Y-167436D01*
X121462Y-161544D01*
X119837Y-156514D01*
X117398Y-152146D01*
X114503Y-148793D01*
X112725Y-147421D01*
X108813Y-145440D01*
X106730Y-144780D01*
X102158Y-144272D01*
X97434Y-144627D01*
X93014Y-145796D01*
X88849Y-147472D01*
X84886Y-149352D01*
X79552Y-137160D01*
X35959Y-137160D01*
X34391Y-139903D01*
X31953Y-145084D01*
X29921Y-150469D01*
X28295Y-156108D01*
X27127Y-161848D01*
X26416Y-167792D01*
X26162Y-173837D01*
X26416Y-179882D01*
X27127Y-185775D01*
X28295Y-191566D01*
X29921Y-197154D01*
X31953Y-202539D01*
X34391Y-207771D01*
X37236Y-212699D01*
X40436Y-217424D01*
X43942Y-221894D01*
X47802Y-226009D01*
X51968Y-229870D01*
X56388Y-233425D01*
X61112Y-236575D01*
X66090Y-239420D01*
X71272Y-241858D01*
X76657Y-243890D01*
X82245Y-245516D01*
X88036Y-246684D01*
X93929Y-247396D01*
X99974Y-247650D01*
X259384Y-247650D01*
X265430Y-247396D01*
X271373Y-246684D01*
X277114Y-245516D01*
X282702Y-243890D01*
X288137Y-241858D01*
X293319Y-239420D01*
X298297Y-236575D01*
X302971Y-233425D01*
X307441Y-229870D01*
X311607Y-226009D01*
X315417Y-221894D01*
X318973Y-217424D01*
X322173Y-212699D01*
X324967Y-207771D01*
X327406Y-202539D01*
X329438Y-197154D01*
X331063Y-191566D01*
X332232Y-185775D01*
X332943Y-179882D01*
X333197Y-173837D01*
X332943Y-167792D01*
X332232Y-161848D01*
X331063Y-156108D01*
X329438Y-150469D01*
X327406Y-145084D01*
X324967Y-139903D01*
X322173Y-134924D01*
X318973Y-130200D01*
X315417Y-125780D01*
X311607Y-121615D01*
X307441Y-117754D01*
X302971Y-114249D01*
X298297Y-111048D01*
X293319Y-108254D01*
X288137Y-105816D01*
X282702Y-103784D01*
X277114Y-102158D01*
X271373Y-100990D01*
X265430Y-100228D01*
X259384Y-99974D01*
G37*
G36*
X104648Y-1751177D02*
G01*
X98602Y-1751431D01*
X92659Y-1752142D01*
X86918Y-1753311D01*
X81330Y-1754936D01*
X75895Y-1756968D01*
X70713Y-1759407D01*
X65735Y-1762252D01*
X61061Y-1765401D01*
X56591Y-1768957D01*
X52425Y-1772818D01*
X48615Y-1776933D01*
X45059Y-1781403D01*
X41859Y-1786128D01*
X39065Y-1791055D01*
X36626Y-1796237D01*
X34594Y-1801672D01*
X32969Y-1807260D01*
X31800Y-1813001D01*
X31089Y-1818944D01*
X30871Y-1824126D01*
X84226Y-1824126D01*
X84531Y-1817827D01*
X85445Y-1812086D01*
X86969Y-1806905D01*
X89052Y-1802282D01*
X91592Y-1798116D01*
X94640Y-1794510D01*
X98196Y-1791411D01*
X102260Y-1788820D01*
X106781Y-1786839D01*
X111760Y-1785416D01*
X117094Y-1784553D01*
X122834Y-1784248D01*
X180492Y-1784248D01*
X180289Y-1835708D01*
X179730Y-1847748D01*
X180238Y-1847748D01*
X214528Y-1784248D01*
X233578Y-1784248D01*
X233578Y-1862480D01*
X251358Y-1862480D01*
X251358Y-1821078D01*
X281076Y-1821078D01*
X281076Y-1833524D01*
X266090Y-1833524D01*
X266090Y-1853082D01*
X270052Y-1853996D01*
X276301Y-1854606D01*
X281178Y-1854403D01*
X284530Y-1853692D01*
X287528Y-1852472D01*
X290220Y-1850796D01*
X292506Y-1848815D01*
X294436Y-1846427D01*
X296062Y-1843633D01*
X298450Y-1836978D01*
X299262Y-1833270D01*
X299720Y-1829358D01*
X299872Y-1825142D01*
X299720Y-1820773D01*
X299161Y-1816658D01*
X298297Y-1812899D01*
X297078Y-1809394D01*
X295554Y-1806295D01*
X293674Y-1803501D01*
X291490Y-1801063D01*
X288950Y-1798980D01*
X286156Y-1797456D01*
X283006Y-1796338D01*
X279552Y-1795678D01*
X275742Y-1795424D01*
X270764Y-1795780D01*
X265836Y-1796694D01*
X261264Y-1798167D01*
X257200Y-1799996D01*
X252120Y-1788058D01*
X257302Y-1785975D01*
X263042Y-1784248D01*
X269189Y-1783334D01*
X275488Y-1782978D01*
X281736Y-1783334D01*
X287426Y-1784248D01*
X292658Y-1785874D01*
X297332Y-1788058D01*
X301548Y-1791004D01*
X305206Y-1794408D01*
X308406Y-1798370D01*
X311048Y-1802790D01*
X313080Y-1807616D01*
X314502Y-1812899D01*
X315366Y-1818690D01*
X315620Y-1824888D01*
X315366Y-1831390D01*
X314553Y-1837334D01*
X313182Y-1842820D01*
X311302Y-1847748D01*
X308914Y-1852168D01*
X306019Y-1856028D01*
X302717Y-1859280D01*
X298856Y-1861972D01*
X294589Y-1864207D01*
X289915Y-1865782D01*
X284835Y-1866747D01*
X279298Y-1867052D01*
X271322Y-1866747D01*
X264058Y-1865782D01*
X257454Y-1864360D01*
X251358Y-1862480D01*
X233578Y-1862480D01*
X233578Y-1865782D01*
X219862Y-1865782D01*
X220014Y-1820214D01*
X220878Y-1801774D01*
X220370Y-1801774D01*
X186080Y-1865782D01*
X166776Y-1865782D01*
X166776Y-1784248D01*
X147472Y-1784248D01*
X147472Y-1865782D01*
X125120Y-1865782D01*
X119024Y-1865528D01*
X113334Y-1864664D01*
X108102Y-1863242D01*
X103276Y-1861210D01*
X98958Y-1858568D01*
X95148Y-1855317D01*
X91846Y-1851558D01*
X89052Y-1847240D01*
X86969Y-1842312D01*
X85445Y-1836775D01*
X84531Y-1830730D01*
X84226Y-1824126D01*
X30871Y-1824126D01*
X31089Y-1831035D01*
X31800Y-1836978D01*
X32969Y-1842719D01*
X34594Y-1848307D01*
X36626Y-1853742D01*
X39065Y-1858924D01*
X41859Y-1863902D01*
X45059Y-1868576D01*
X48615Y-1873046D01*
X52425Y-1877212D01*
X56591Y-1881073D01*
X61061Y-1884578D01*
X65735Y-1887778D01*
X70713Y-1890572D01*
X75895Y-1893011D01*
X81330Y-1895043D01*
X86918Y-1896668D01*
X92659Y-1897837D01*
X98602Y-1898599D01*
X104648Y-1898802D01*
X295351Y-1898802D01*
X301396Y-1898599D01*
X307340Y-1897837D01*
X313080Y-1896668D01*
X318668Y-1895043D01*
X324104Y-1893011D01*
X329285Y-1890572D01*
X334264Y-1887778D01*
X338937Y-1884578D01*
X343408Y-1881073D01*
X347573Y-1877212D01*
X351383Y-1873046D01*
X354939Y-1868576D01*
X358140Y-1863902D01*
X360934Y-1858924D01*
X363372Y-1853742D01*
X365404Y-1848307D01*
X367030Y-1842719D01*
X368198Y-1836978D01*
X368909Y-1831035D01*
X369163Y-1824989D01*
X368909Y-1818944D01*
X368198Y-1813001D01*
X367030Y-1807260D01*
X365404Y-1801672D01*
X363372Y-1796237D01*
X360934Y-1791055D01*
X358140Y-1786128D01*
X354939Y-1781403D01*
X351383Y-1776933D01*
X347573Y-1772818D01*
X343408Y-1768957D01*
X338937Y-1765401D01*
X334264Y-1762252D01*
X329285Y-1759407D01*
X324104Y-1756968D01*
X318668Y-1754936D01*
X313080Y-1753311D01*
X307340Y-1752142D01*
X301396Y-1751431D01*
X295351Y-1751177D01*
G37*
G36*
X123088Y-1796186D02*
G01*
X119583Y-1796389D01*
X116281Y-1796948D01*
X113334Y-1797913D01*
X110642Y-1799234D01*
X108254Y-1800961D01*
X106121Y-1803146D01*
X104343Y-1805686D01*
X102768Y-1808632D01*
X101650Y-1812036D01*
X100888Y-1815846D01*
X100380Y-1820011D01*
X100228Y-1824634D01*
X100634Y-1831441D01*
X101752Y-1837283D01*
X103682Y-1842211D01*
X106324Y-1846224D01*
X109778Y-1849475D01*
X113995Y-1851761D01*
X119075Y-1853133D01*
X124866Y-1853590D01*
X132232Y-1853590D01*
X132232Y-1796186D01*
G37*
G36*
X1775002Y-99974D02*
G01*
X1768957Y-100228D01*
X1763014Y-100990D01*
X1757273Y-102158D01*
X1751685Y-103784D01*
X1746250Y-105816D01*
X1741068Y-108254D01*
X1736089Y-111048D01*
X1731416Y-114249D01*
X1726946Y-117754D01*
X1722780Y-121615D01*
X1718919Y-125780D01*
X1715414Y-130200D01*
X1713452Y-133096D01*
X1767586Y-133096D01*
X1791462Y-152654D01*
X1783588Y-161544D01*
X1772818Y-151892D01*
X1769618Y-148336D01*
X1769618Y-153416D01*
X1769872Y-157226D01*
X1769872Y-214629D01*
X1798320Y-214629D01*
X1826006Y-132588D01*
X1844293Y-132588D01*
X1871725Y-214629D01*
X1855216Y-214629D01*
X1848866Y-193040D01*
X1821180Y-193040D01*
X1814830Y-214629D01*
X1754632Y-214629D01*
X1754632Y-133096D01*
X1713452Y-133096D01*
X1712214Y-134924D01*
X1709420Y-139903D01*
X1706981Y-145084D01*
X1704949Y-150469D01*
X1703324Y-156108D01*
X1702155Y-161848D01*
X1701393Y-167792D01*
X1701190Y-173837D01*
X1701393Y-179882D01*
X1702155Y-185775D01*
X1703324Y-191566D01*
X1704949Y-197154D01*
X1706981Y-202539D01*
X1709420Y-207771D01*
X1712214Y-212699D01*
X1715414Y-217424D01*
X1718919Y-221894D01*
X1722780Y-226009D01*
X1726946Y-229870D01*
X1731416Y-233425D01*
X1736089Y-236575D01*
X1741068Y-239420D01*
X1746250Y-241858D01*
X1751685Y-243890D01*
X1757273Y-245516D01*
X1763014Y-246684D01*
X1768957Y-247396D01*
X1775002Y-247650D01*
X1851406Y-247650D01*
X1857451Y-247396D01*
X1863394Y-246684D01*
X1869135Y-245516D01*
X1874723Y-243890D01*
X1880158Y-241858D01*
X1885340Y-239420D01*
X1890268Y-236575D01*
X1894992Y-233425D01*
X1899462Y-229870D01*
X1903628Y-226009D01*
X1907438Y-221894D01*
X1910994Y-217424D01*
X1914143Y-212699D01*
X1916988Y-207771D01*
X1919427Y-202539D01*
X1921459Y-197154D01*
X1923084Y-191566D01*
X1924253Y-185775D01*
X1924964Y-179882D01*
X1925218Y-173837D01*
X1924964Y-167792D01*
X1924253Y-161848D01*
X1923084Y-156108D01*
X1921459Y-150469D01*
X1919427Y-145084D01*
X1916988Y-139903D01*
X1914143Y-134924D01*
X1910994Y-130200D01*
X1907438Y-125780D01*
X1903628Y-121615D01*
X1899462Y-117754D01*
X1894992Y-114249D01*
X1890268Y-111048D01*
X1885340Y-108254D01*
X1880158Y-105816D01*
X1874723Y-103784D01*
X1869135Y-102158D01*
X1863394Y-100990D01*
X1857451Y-100228D01*
X1851406Y-99974D01*
G37*
G36*
X1835150Y-144526D02*
G01*
X1832000Y-156159D01*
X1831339Y-159512D01*
X1824736Y-180340D01*
X1845056Y-180340D01*
X1838299Y-157937D01*
X1836420Y-150723D01*
G37*
G36*
X1780184Y-1301191D02*
G01*
X1774088Y-1301394D01*
X1768195Y-1302156D01*
X1762404Y-1303324D01*
X1756816Y-1304950D01*
X1751431Y-1306982D01*
X1746250Y-1309420D01*
X1741271Y-1312214D01*
X1736547Y-1315415D01*
X1732127Y-1318920D01*
X1727962Y-1322781D01*
X1724101Y-1326946D01*
X1720596Y-1331417D01*
X1717395Y-1336090D01*
X1714601Y-1341069D01*
X1712163Y-1346250D01*
X1710080Y-1351686D01*
X1708505Y-1357274D01*
X1707286Y-1363014D01*
X1706575Y-1368958D01*
X1706321Y-1375003D01*
X1706575Y-1381048D01*
X1707286Y-1386992D01*
X1708386Y-1392174D01*
X1759864Y-1392174D01*
X1760169Y-1388313D01*
X1761032Y-1384858D01*
X1762556Y-1381861D01*
X1764690Y-1379220D01*
X1767281Y-1377035D01*
X1770430Y-1375308D01*
X1774240Y-1373987D01*
X1778660Y-1373124D01*
X1778660Y-1372870D01*
X1774088Y-1371295D01*
X1771954Y-1370279D01*
X1768297Y-1367688D01*
X1766773Y-1366164D01*
X1764182Y-1362456D01*
X1763268Y-1360322D01*
X1762252Y-1355496D01*
X1762150Y-1352804D01*
X1762506Y-1348486D01*
X1763725Y-1344625D01*
X1765706Y-1341221D01*
X1768500Y-1338326D01*
X1772107Y-1335989D01*
X1776425Y-1334312D01*
X1781403Y-1333347D01*
X1787042Y-1332992D01*
X1792528Y-1333246D01*
X1797456Y-1334008D01*
X1801774Y-1335430D01*
X1805584Y-1337056D01*
X1809191Y-1339138D01*
X1812442Y-1341374D01*
X1805584Y-1351280D01*
X1803400Y-1349654D01*
X1801012Y-1348232D01*
X1798269Y-1346911D01*
X1793595Y-1345488D01*
X1790141Y-1344980D01*
X1785772Y-1345133D01*
X1783537Y-1345641D01*
X1781556Y-1346504D01*
X1779930Y-1347724D01*
X1778711Y-1349248D01*
X1777796Y-1351026D01*
X1777288Y-1353058D01*
X1777238Y-1357172D01*
X1777542Y-1358900D01*
X1778101Y-1360474D01*
X1779778Y-1363268D01*
X1780997Y-1364488D01*
X1784248Y-1366520D01*
X1788718Y-1367688D01*
X1794662Y-1368044D01*
X1800758Y-1368044D01*
X1800758Y-1379474D01*
X1791411Y-1379575D01*
X1785924Y-1380337D01*
X1781810Y-1381709D01*
X1780184Y-1382572D01*
X1778762Y-1383639D01*
X1777644Y-1384808D01*
X1776831Y-1386179D01*
X1776272Y-1387805D01*
X1775866Y-1391666D01*
X1776069Y-1394663D01*
X1776730Y-1397304D01*
X1777847Y-1399641D01*
X1779422Y-1401572D01*
X1781606Y-1403146D01*
X1784502Y-1404264D01*
X1787956Y-1404924D01*
X1794459Y-1405077D01*
X1799539Y-1404416D01*
X1802282Y-1403858D01*
X1807464Y-1402080D01*
X1812442Y-1399794D01*
X1812442Y-1412494D01*
X1807464Y-1414475D01*
X1802282Y-1415796D01*
X1816760Y-1415796D01*
X1844446Y-1333754D01*
X1862734Y-1333754D01*
X1890166Y-1415796D01*
X1873656Y-1415796D01*
X1867306Y-1394206D01*
X1839620Y-1394206D01*
X1833270Y-1415796D01*
X1802282Y-1415796D01*
X1796796Y-1416761D01*
X1790598Y-1417066D01*
X1785467Y-1416862D01*
X1780844Y-1416253D01*
X1776730Y-1415237D01*
X1773072Y-1413764D01*
X1769872Y-1411986D01*
X1767128Y-1409903D01*
X1764893Y-1407515D01*
X1763166Y-1404874D01*
X1761693Y-1401978D01*
X1760677Y-1398930D01*
X1760067Y-1395628D01*
X1759864Y-1392174D01*
X1708386Y-1392174D01*
X1710080Y-1398320D01*
X1712163Y-1403756D01*
X1714601Y-1408938D01*
X1717395Y-1413865D01*
X1720596Y-1418590D01*
X1724101Y-1423060D01*
X1727962Y-1427226D01*
X1732127Y-1431036D01*
X1736547Y-1434592D01*
X1741271Y-1437741D01*
X1746250Y-1440586D01*
X1751431Y-1443024D01*
X1756816Y-1445056D01*
X1762404Y-1446682D01*
X1768195Y-1447850D01*
X1774088Y-1448562D01*
X1780184Y-1448816D01*
X1869846Y-1448816D01*
X1875891Y-1448562D01*
X1881784Y-1447850D01*
X1887575Y-1446682D01*
X1893163Y-1445056D01*
X1898548Y-1443024D01*
X1903730Y-1440586D01*
X1908708Y-1437741D01*
X1913432Y-1434592D01*
X1917852Y-1431036D01*
X1922018Y-1427175D01*
X1925878Y-1423060D01*
X1929384Y-1418590D01*
X1932584Y-1413865D01*
X1935429Y-1408938D01*
X1937867Y-1403756D01*
X1939899Y-1398320D01*
X1941525Y-1392732D01*
X1942693Y-1386992D01*
X1943404Y-1381048D01*
X1943658Y-1375003D01*
X1943404Y-1368958D01*
X1942693Y-1363014D01*
X1941525Y-1357274D01*
X1939899Y-1351686D01*
X1937867Y-1346250D01*
X1935429Y-1341069D01*
X1932584Y-1336090D01*
X1929384Y-1331417D01*
X1925878Y-1326946D01*
X1922018Y-1322781D01*
X1917852Y-1318920D01*
X1913432Y-1315415D01*
X1908708Y-1312214D01*
X1903730Y-1309420D01*
X1898548Y-1306982D01*
X1893163Y-1304950D01*
X1887575Y-1303324D01*
X1881784Y-1302156D01*
X1875891Y-1301394D01*
X1869846Y-1301191D01*
G37*
G36*
X1853590Y-1345692D02*
G01*
X1850136Y-1358544D01*
X1849780Y-1360678D01*
X1843176Y-1381506D01*
X1863496Y-1381506D01*
X1855825Y-1355699D01*
G37*
G36*
X1550009Y-1750009D02*
G01*
X1543964Y-1750263D01*
X1538020Y-1750974D01*
X1532280Y-1752142D01*
X1526641Y-1753768D01*
X1521256Y-1755800D01*
X1516075Y-1758238D01*
X1511096Y-1761032D01*
X1506372Y-1764233D01*
X1501952Y-1767789D01*
X1497787Y-1771599D01*
X1493926Y-1775764D01*
X1490421Y-1780235D01*
X1487220Y-1784908D01*
X1484426Y-1789887D01*
X1481988Y-1795068D01*
X1479956Y-1800504D01*
X1478330Y-1806092D01*
X1477162Y-1811832D01*
X1476400Y-1817776D01*
X1476197Y-1823821D01*
X1476400Y-1829866D01*
X1477162Y-1835810D01*
X1478330Y-1841550D01*
X1479941Y-1847088D01*
X1529689Y-1847088D01*
X1529689Y-1835404D01*
X1539392Y-1835404D01*
X1539392Y-1782825D01*
X1553870Y-1782825D01*
X1587652Y-1836420D01*
X1587652Y-1847088D01*
X1554378Y-1847088D01*
X1554378Y-1864614D01*
X1589684Y-1864614D01*
X1617370Y-1782572D01*
X1635607Y-1782572D01*
X1663039Y-1864614D01*
X1646529Y-1864614D01*
X1640179Y-1843024D01*
X1612544Y-1843024D01*
X1606194Y-1864614D01*
X1539392Y-1864614D01*
X1539392Y-1847088D01*
X1479941Y-1847088D01*
X1481988Y-1852574D01*
X1484426Y-1857756D01*
X1487220Y-1862734D01*
X1490421Y-1867407D01*
X1493926Y-1871878D01*
X1497787Y-1876043D01*
X1501952Y-1879854D01*
X1506372Y-1883410D01*
X1511096Y-1886610D01*
X1516075Y-1889404D01*
X1521256Y-1891842D01*
X1526641Y-1893874D01*
X1532280Y-1895500D01*
X1538020Y-1896668D01*
X1543964Y-1897380D01*
X1550009Y-1897634D01*
X1642770Y-1897634D01*
X1648815Y-1897380D01*
X1654708Y-1896668D01*
X1660499Y-1895500D01*
X1666087Y-1893874D01*
X1671472Y-1891842D01*
X1676654Y-1889404D01*
X1681632Y-1886610D01*
X1686356Y-1883410D01*
X1690776Y-1879854D01*
X1694942Y-1876043D01*
X1698802Y-1871878D01*
X1702307Y-1867407D01*
X1705508Y-1862734D01*
X1708353Y-1857756D01*
X1710791Y-1852574D01*
X1712823Y-1847138D01*
X1714449Y-1841550D01*
X1715617Y-1835810D01*
X1716328Y-1829866D01*
X1716582Y-1823821D01*
X1716328Y-1817776D01*
X1715617Y-1811832D01*
X1714449Y-1806092D01*
X1712823Y-1800504D01*
X1710791Y-1795068D01*
X1708353Y-1789887D01*
X1705508Y-1784908D01*
X1702307Y-1780235D01*
X1698802Y-1775764D01*
X1694942Y-1771599D01*
X1690776Y-1767789D01*
X1686356Y-1764233D01*
X1681632Y-1761032D01*
X1676654Y-1758238D01*
X1671472Y-1755800D01*
X1666087Y-1753768D01*
X1660499Y-1752142D01*
X1654708Y-1750974D01*
X1648815Y-1750263D01*
X1642770Y-1750009D01*
G37*
G36*
X1626463Y-1794510D02*
G01*
X1623060Y-1807362D01*
X1622704Y-1809496D01*
X1616100Y-1830324D01*
X1636420Y-1830324D01*
X1628749Y-1804517D01*
G37*
G36*
X1553565Y-1799336D02*
G01*
X1554073Y-1806956D01*
X1554378Y-1835404D01*
X1574139Y-1835404D01*
X1557883Y-1807108D01*
X1554073Y-1799336D01*
G37*
G36*
X338175Y-582117D02*
G01*
X332689Y-582320D01*
X327710Y-582879D01*
X323189Y-583844D01*
X319125Y-585165D01*
X315671Y-586892D01*
X312623Y-588975D01*
X310083Y-591464D01*
X307949Y-594309D01*
X306374Y-597458D01*
X305257Y-601065D01*
X304596Y-605078D01*
X304409Y-610057D01*
X321919Y-610057D01*
X322021Y-607669D01*
X322376Y-605485D01*
X322935Y-603605D01*
X323697Y-601929D01*
X326085Y-599287D01*
X329285Y-597357D01*
X333603Y-596442D01*
X338937Y-596087D01*
X346557Y-596087D01*
X346557Y-624789D01*
X335991Y-624687D01*
X333552Y-624382D01*
X331317Y-623824D01*
X329285Y-623011D01*
X326085Y-620877D01*
X323697Y-617931D01*
X322935Y-616305D01*
X322376Y-614476D01*
X322021Y-612394D01*
X321919Y-610057D01*
X304409Y-610057D01*
X304495Y-612749D01*
X305511Y-618490D01*
X306425Y-620979D01*
X309016Y-625449D01*
X310540Y-627380D01*
X312267Y-629107D01*
X316179Y-631901D01*
X320395Y-634187D01*
X295503Y-675081D01*
X315315Y-675081D01*
X335381Y-638251D01*
X346557Y-638251D01*
X346557Y-675081D01*
X364083Y-675081D01*
X364083Y-582117D01*
G37*
G36*
X245719Y-582117D02*
G01*
X245719Y-675081D01*
X262991Y-675081D01*
X262991Y-611327D01*
X262483Y-599643D01*
X268122Y-605383D01*
X278739Y-614629D01*
X287629Y-604469D01*
X260451Y-582117D01*
G37*
G36*
X1486357Y-830986D02*
G01*
X1480007Y-831342D01*
X1474419Y-832459D01*
X1469593Y-834288D01*
X1465580Y-836828D01*
X1462227Y-840130D01*
X1459839Y-843991D01*
X1458417Y-848410D01*
X1457909Y-853338D01*
X1458112Y-856386D01*
X1458569Y-859231D01*
X1459382Y-861872D01*
X1460449Y-864260D01*
X1461820Y-866546D01*
X1463395Y-868578D01*
X1465122Y-870356D01*
X1469339Y-873302D01*
X1474266Y-875436D01*
X1476959Y-876198D01*
X1476959Y-876452D01*
X1471980Y-877366D01*
X1467662Y-878789D01*
X1464005Y-880770D01*
X1460957Y-883310D01*
X1458671Y-886358D01*
X1456994Y-889863D01*
X1455978Y-893826D01*
X1455674Y-898296D01*
X1455877Y-902157D01*
X1456537Y-905814D01*
X1457655Y-909269D01*
X1459230Y-912520D01*
X1461262Y-915619D01*
X1463852Y-918362D01*
X1466951Y-920699D01*
X1470609Y-922680D01*
X1474724Y-924255D01*
X1479397Y-925372D01*
X1484630Y-926033D01*
X1494129Y-926185D01*
X1500886Y-925525D01*
X1506931Y-924255D01*
X1512773Y-922375D01*
X1515567Y-921156D01*
X1515567Y-906678D01*
X1509826Y-909370D01*
X1503680Y-911250D01*
X1497736Y-912571D01*
X1492199Y-913028D01*
X1487525Y-912774D01*
X1483614Y-911961D01*
X1480413Y-910590D01*
X1477975Y-908710D01*
X1476095Y-906475D01*
X1474774Y-903884D01*
X1473962Y-900887D01*
X1473657Y-897534D01*
X1473809Y-895248D01*
X1474266Y-893165D01*
X1474978Y-891286D01*
X1475943Y-889660D01*
X1477162Y-888339D01*
X1478635Y-887171D01*
X1482598Y-885342D01*
X1485188Y-884682D01*
X1491538Y-883919D01*
X1501851Y-883818D01*
X1501851Y-870610D01*
X1491538Y-870508D01*
X1488389Y-870153D01*
X1485696Y-869594D01*
X1483309Y-868832D01*
X1481328Y-867867D01*
X1479651Y-866698D01*
X1478280Y-865327D01*
X1476349Y-862025D01*
X1475333Y-858215D01*
X1475232Y-856132D01*
X1475435Y-853490D01*
X1476044Y-851204D01*
X1477060Y-849172D01*
X1478483Y-847496D01*
X1480312Y-846175D01*
X1482496Y-845210D01*
X1485036Y-844651D01*
X1490014Y-844499D01*
X1493977Y-845007D01*
X1497634Y-846023D01*
X1500936Y-847293D01*
X1503730Y-848918D01*
X1507490Y-851560D01*
X1515364Y-840130D01*
X1511655Y-837742D01*
X1507693Y-835558D01*
X1503324Y-833526D01*
X1498346Y-832002D01*
X1492656Y-831240D01*
G37*
G36*
X1563116Y-832256D02*
G01*
X1557629Y-832459D01*
X1552600Y-832967D01*
X1548079Y-833831D01*
X1544066Y-835050D01*
X1540560Y-836777D01*
X1537563Y-838860D01*
X1534972Y-841349D01*
X1532890Y-844194D01*
X1531315Y-847445D01*
X1530197Y-851052D01*
X1529537Y-855065D01*
X1529306Y-859942D01*
X1546809Y-859942D01*
X1547317Y-855370D01*
X1547977Y-853490D01*
X1548841Y-851814D01*
X1549908Y-850392D01*
X1551127Y-849223D01*
X1552651Y-848258D01*
X1556410Y-846836D01*
X1561236Y-846074D01*
X1571701Y-845972D01*
X1571701Y-874674D01*
X1561033Y-874572D01*
X1558493Y-874217D01*
X1554175Y-872896D01*
X1552549Y-872032D01*
X1551076Y-870915D01*
X1549857Y-869594D01*
X1547977Y-866343D01*
X1547317Y-864412D01*
X1546809Y-859942D01*
X1529306Y-859942D01*
X1529435Y-862736D01*
X1529892Y-865784D01*
X1530604Y-868578D01*
X1531569Y-871118D01*
X1534058Y-875487D01*
X1535633Y-877366D01*
X1539240Y-880567D01*
X1543202Y-883107D01*
X1545285Y-884072D01*
X1520393Y-924966D01*
X1540256Y-924966D01*
X1560322Y-888390D01*
X1571701Y-888390D01*
X1571701Y-924966D01*
X1589024Y-924966D01*
X1589024Y-832256D01*
G37*
G36*
X1462836Y-1156919D02*
G01*
X1462836Y-1175715D01*
X1479854Y-1175715D01*
X1484680Y-1185875D01*
X1502765Y-1216609D01*
X1479854Y-1216609D01*
X1479804Y-1187348D01*
X1479346Y-1175715D01*
X1462836Y-1175715D01*
X1462836Y-1216609D01*
X1451965Y-1216609D01*
X1451965Y-1230071D01*
X1462836Y-1230071D01*
X1462836Y-1249883D01*
X1479854Y-1249883D01*
X1479854Y-1230071D01*
X1517954Y-1230071D01*
X1517954Y-1217879D01*
X1479346Y-1156919D01*
G37*
G36*
X1563217Y-1157173D02*
G01*
X1557731Y-1157376D01*
X1552702Y-1157935D01*
X1548180Y-1158900D01*
X1544167Y-1160221D01*
X1540662Y-1161948D01*
X1537665Y-1163980D01*
X1535074Y-1166368D01*
X1532991Y-1169111D01*
X1531315Y-1172362D01*
X1530096Y-1175969D01*
X1529384Y-1179982D01*
X1529154Y-1184859D01*
X1546910Y-1184859D01*
X1547368Y-1180490D01*
X1547926Y-1178610D01*
X1548688Y-1176985D01*
X1549704Y-1175461D01*
X1551025Y-1174191D01*
X1552549Y-1173175D01*
X1554327Y-1172413D01*
X1556308Y-1171854D01*
X1561134Y-1171244D01*
X1571599Y-1171143D01*
X1571599Y-1199591D01*
X1561033Y-1199489D01*
X1558544Y-1199235D01*
X1554327Y-1198067D01*
X1552549Y-1197102D01*
X1551025Y-1195933D01*
X1549704Y-1194562D01*
X1548688Y-1192987D01*
X1547926Y-1191260D01*
X1547368Y-1189329D01*
X1546910Y-1184859D01*
X1529154Y-1184859D01*
X1529283Y-1187653D01*
X1529740Y-1190701D01*
X1530451Y-1193495D01*
X1531467Y-1196035D01*
X1532686Y-1198372D01*
X1535582Y-1202283D01*
X1539240Y-1205484D01*
X1543304Y-1208176D01*
X1545386Y-1209243D01*
X1520494Y-1249883D01*
X1540052Y-1249883D01*
X1560372Y-1213307D01*
X1571599Y-1213307D01*
X1571599Y-1249883D01*
X1589125Y-1249883D01*
X1589125Y-1157173D01*
G37*
G36*
X1563217Y-1482090D02*
G01*
X1557731Y-1482293D01*
X1552702Y-1482852D01*
X1548180Y-1483817D01*
X1544167Y-1485138D01*
X1540662Y-1486865D01*
X1537665Y-1488948D01*
X1535074Y-1491437D01*
X1532991Y-1494282D01*
X1531315Y-1497533D01*
X1530096Y-1501140D01*
X1529384Y-1505153D01*
X1529154Y-1510030D01*
X1546910Y-1510030D01*
X1547368Y-1505458D01*
X1547926Y-1503527D01*
X1548688Y-1501902D01*
X1549704Y-1500479D01*
X1551025Y-1499311D01*
X1552549Y-1498346D01*
X1556308Y-1496923D01*
X1558645Y-1496415D01*
X1563928Y-1496060D01*
X1571599Y-1496060D01*
X1571599Y-1524762D01*
X1561033Y-1524660D01*
X1556308Y-1523746D01*
X1554327Y-1522984D01*
X1552549Y-1522018D01*
X1551025Y-1520901D01*
X1549704Y-1519580D01*
X1548688Y-1518158D01*
X1547926Y-1516430D01*
X1547368Y-1514449D01*
X1546910Y-1510030D01*
X1529154Y-1510030D01*
X1529283Y-1512722D01*
X1529740Y-1515668D01*
X1530451Y-1518412D01*
X1531467Y-1520952D01*
X1532686Y-1523288D01*
X1535582Y-1527352D01*
X1537309Y-1529080D01*
X1541221Y-1531874D01*
X1545386Y-1534160D01*
X1520494Y-1575054D01*
X1540052Y-1575054D01*
X1560372Y-1538224D01*
X1571599Y-1538224D01*
X1571599Y-1575054D01*
X1589125Y-1575054D01*
X1589125Y-1482090D01*
G37*
G36*
X1461820Y-1482090D02*
G01*
X1461820Y-1496568D01*
X1493875Y-1496568D01*
X1495399Y-1517904D01*
X1487627Y-1516735D01*
X1483715Y-1516634D01*
X1479753Y-1516837D01*
X1476095Y-1517446D01*
X1472641Y-1518462D01*
X1469491Y-1519936D01*
X1466443Y-1521764D01*
X1463802Y-1523949D01*
X1461516Y-1526438D01*
X1459585Y-1529334D01*
X1458010Y-1532585D01*
X1456893Y-1536192D01*
X1456232Y-1540205D01*
X1455978Y-1544574D01*
X1456232Y-1549247D01*
X1456944Y-1553667D01*
X1458163Y-1557782D01*
X1459788Y-1561592D01*
X1462074Y-1564944D01*
X1464716Y-1567891D01*
X1467764Y-1570380D01*
X1471218Y-1572514D01*
X1475282Y-1574190D01*
X1479804Y-1575358D01*
X1484833Y-1576070D01*
X1490268Y-1576324D01*
X1496974Y-1576019D01*
X1503222Y-1575054D01*
X1508963Y-1573479D01*
X1513941Y-1571244D01*
X1513941Y-1556766D01*
X1508912Y-1559102D01*
X1502968Y-1561084D01*
X1496618Y-1562201D01*
X1490827Y-1562608D01*
X1488236Y-1562506D01*
X1483664Y-1561592D01*
X1479753Y-1559814D01*
X1478127Y-1558594D01*
X1476705Y-1557172D01*
X1475536Y-1555496D01*
X1474673Y-1553464D01*
X1474012Y-1551228D01*
X1473504Y-1546098D01*
X1473809Y-1542389D01*
X1474622Y-1539189D01*
X1475943Y-1536446D01*
X1477822Y-1534160D01*
X1480413Y-1532382D01*
X1483563Y-1531112D01*
X1487271Y-1530350D01*
X1493266Y-1530146D01*
X1500479Y-1531112D01*
X1505051Y-1532128D01*
X1512112Y-1528318D01*
X1508810Y-1482090D01*
G37*
G36*
X945083Y-55930D02*
G01*
X938580Y-56337D01*
X931875Y-57454D01*
X925372Y-59486D01*
X919683Y-62026D01*
X925525Y-75742D01*
X934923Y-71678D01*
X939952Y-70358D01*
X942594Y-70002D01*
X945337Y-69900D01*
X947928Y-70053D01*
X950468Y-70459D01*
X955243Y-72186D01*
X959256Y-75031D01*
X962609Y-79044D01*
X964031Y-81330D01*
X966317Y-86664D01*
X967943Y-92862D01*
X968857Y-99872D01*
X968959Y-103682D01*
X968756Y-108813D01*
X968248Y-113537D01*
X967384Y-117856D01*
X966165Y-121716D01*
X964692Y-125222D01*
X962914Y-128270D01*
X960780Y-130911D01*
X958291Y-133146D01*
X955446Y-134924D01*
X952246Y-136194D01*
X948690Y-136956D01*
X944829Y-137210D01*
X939292Y-136906D01*
X933907Y-135940D01*
X928573Y-134467D01*
X923239Y-132638D01*
X923239Y-146862D01*
X928624Y-148844D01*
X934161Y-150164D01*
X940104Y-150926D01*
X946861Y-151180D01*
X953414Y-150825D01*
X959358Y-149707D01*
X964692Y-147929D01*
X969467Y-145338D01*
X973632Y-142138D01*
X977188Y-138277D01*
X980236Y-133858D01*
X982675Y-128828D01*
X985926Y-117094D01*
X986993Y-103682D01*
X986790Y-98501D01*
X986282Y-93522D01*
X985418Y-88849D01*
X984199Y-84378D01*
X982624Y-80213D01*
X980744Y-76250D01*
X978560Y-72593D01*
X976071Y-69138D01*
X973226Y-66141D01*
X970178Y-63550D01*
X966774Y-61315D01*
X963117Y-59486D01*
X959002Y-57962D01*
X954684Y-56845D01*
X950010Y-56184D01*
G37*
G36*
X866089Y-57200D02*
G01*
X866089Y-149910D01*
X883361Y-149910D01*
X883259Y-78841D01*
X883107Y-74472D01*
X885901Y-77774D01*
X889457Y-81330D01*
X899109Y-89458D01*
X907999Y-79298D01*
X881075Y-57200D01*
G37*
G36*
X201320Y-1330858D02*
G01*
X194818Y-1331264D01*
X184658Y-1333449D01*
X178562Y-1335633D01*
X175920Y-1336954D01*
X181762Y-1350670D01*
X186385Y-1348486D01*
X193598Y-1345793D01*
X196138Y-1345234D01*
X201574Y-1344828D01*
X204165Y-1344980D01*
X206705Y-1345438D01*
X209143Y-1346250D01*
X211480Y-1347368D01*
X213563Y-1348638D01*
X215493Y-1350162D01*
X218846Y-1353972D01*
X220268Y-1356309D01*
X222554Y-1361643D01*
X223418Y-1364640D01*
X224536Y-1371295D01*
X224942Y-1378610D01*
X224790Y-1383741D01*
X224282Y-1388414D01*
X223520Y-1392732D01*
X222402Y-1396644D01*
X220929Y-1400200D01*
X219151Y-1403350D01*
X217017Y-1406042D01*
X214528Y-1408328D01*
X211683Y-1410106D01*
X208483Y-1411376D01*
X204927Y-1412138D01*
X201066Y-1412392D01*
X195529Y-1412036D01*
X190144Y-1411122D01*
X184810Y-1409649D01*
X179476Y-1407820D01*
X179476Y-1421790D01*
X184861Y-1423924D01*
X190398Y-1425346D01*
X196342Y-1426108D01*
X203098Y-1426362D01*
X209651Y-1425956D01*
X215595Y-1424889D01*
X220929Y-1423060D01*
X225704Y-1420520D01*
X229870Y-1417167D01*
X233425Y-1413256D01*
X236474Y-1408785D01*
X238912Y-1403756D01*
X242112Y-1392123D01*
X243230Y-1378610D01*
X243027Y-1373479D01*
X242519Y-1368552D01*
X241655Y-1363827D01*
X240436Y-1359306D01*
X238861Y-1355090D01*
X236982Y-1351229D01*
X234797Y-1347622D01*
X232308Y-1344320D01*
X229463Y-1341323D01*
X226314Y-1338630D01*
X222859Y-1336344D01*
X219100Y-1334414D01*
X215138Y-1332839D01*
X210820Y-1331722D01*
X206248Y-1331061D01*
G37*
G36*
X106324Y-1332128D02*
G01*
X106324Y-1343304D01*
X139344Y-1425092D01*
X157632Y-1425092D01*
X124612Y-1346352D01*
X167538Y-1346352D01*
X167538Y-1332128D01*
G37*
G36*
X78486Y-731926D02*
G01*
X73355Y-732129D01*
X68478Y-732637D01*
X63855Y-733501D01*
X59436Y-734720D01*
X55117Y-736193D01*
X51155Y-737971D01*
X47498Y-740105D01*
X44196Y-742594D01*
X41198Y-745439D01*
X38506Y-748588D01*
X36220Y-752043D01*
X34290Y-755802D01*
X32816Y-759866D01*
X31800Y-764184D01*
X31191Y-768756D01*
X30988Y-773582D01*
X31343Y-780237D01*
X32512Y-787044D01*
X34391Y-793445D01*
X37084Y-798982D01*
X50546Y-793140D01*
X46736Y-783742D01*
X45923Y-781304D01*
X45364Y-778814D01*
X44958Y-773582D01*
X45059Y-770890D01*
X45516Y-768299D01*
X46228Y-765911D01*
X48514Y-761492D01*
X50088Y-759510D01*
X51917Y-757682D01*
X56388Y-754634D01*
X61722Y-752348D01*
X67919Y-750824D01*
X74879Y-750062D01*
X83769Y-750112D01*
X88442Y-750620D01*
X92760Y-751382D01*
X96774Y-752500D01*
X100228Y-753973D01*
X103276Y-755751D01*
X105968Y-757885D01*
X108204Y-760374D01*
X109982Y-763219D01*
X111252Y-766419D01*
X112014Y-769975D01*
X112268Y-773836D01*
X111912Y-779373D01*
X110998Y-784758D01*
X109524Y-790143D01*
X107696Y-795680D01*
X121920Y-795680D01*
X123850Y-790244D01*
X125222Y-784504D01*
X125983Y-778560D01*
X126237Y-771804D01*
X125831Y-765352D01*
X124764Y-759510D01*
X122935Y-754176D01*
X120396Y-749452D01*
X117144Y-745286D01*
X113334Y-741730D01*
X108915Y-738682D01*
X103885Y-736244D01*
X92049Y-732993D01*
G37*
G36*
X101600Y-807872D02*
G01*
X98399Y-808024D01*
X95504Y-808431D01*
X92811Y-809142D01*
X90424Y-810158D01*
X86106Y-812850D01*
X82296Y-816254D01*
X79146Y-820267D01*
X76454Y-824636D01*
X73710Y-820978D01*
X70612Y-817524D01*
X67056Y-814628D01*
X62991Y-812444D01*
X58470Y-810920D01*
X53086Y-810412D01*
X49631Y-810666D01*
X46482Y-811377D01*
X43535Y-812546D01*
X40894Y-814222D01*
X38608Y-816203D01*
X36626Y-818489D01*
X34899Y-821131D01*
X33528Y-824128D01*
X32410Y-827379D01*
X31597Y-830783D01*
X31140Y-834390D01*
X30988Y-838098D01*
X43434Y-838098D01*
X43586Y-835812D01*
X44094Y-833678D01*
X45008Y-831748D01*
X46228Y-829970D01*
X47752Y-828649D01*
X49631Y-827684D01*
X51816Y-827125D01*
X54356Y-826922D01*
X57810Y-827328D01*
X60706Y-828446D01*
X63296Y-830224D01*
X65532Y-832510D01*
X68495Y-837082D01*
X83312Y-837082D01*
X85445Y-833475D01*
X87884Y-830224D01*
X90525Y-827582D01*
X93472Y-825652D01*
X96875Y-824534D01*
X100584Y-824128D01*
X103378Y-824382D01*
X105918Y-825042D01*
X108204Y-826160D01*
X110235Y-827684D01*
X111760Y-829564D01*
X112877Y-831951D01*
X113537Y-834796D01*
X113792Y-838098D01*
X113385Y-842467D01*
X112928Y-844346D01*
X112268Y-845972D01*
X110235Y-848715D01*
X107696Y-850798D01*
X104394Y-851966D01*
X100584Y-852322D01*
X98704Y-852220D01*
X95300Y-851306D01*
X93726Y-850544D01*
X90982Y-848258D01*
X88392Y-845464D01*
X86156Y-842314D01*
X84074Y-838860D01*
X83312Y-837082D01*
X68495Y-837082D01*
X69342Y-838352D01*
X65532Y-843686D01*
X63500Y-845972D01*
X60960Y-847750D01*
X57912Y-849071D01*
X56184Y-849426D01*
X54356Y-849528D01*
X51816Y-849325D01*
X49631Y-848715D01*
X47752Y-847699D01*
X46228Y-846226D01*
X45008Y-844499D01*
X44094Y-842568D01*
X43586Y-840435D01*
X43434Y-838098D01*
X30988Y-838098D01*
X31140Y-842060D01*
X31597Y-845718D01*
X32410Y-849172D01*
X33528Y-852322D01*
X34899Y-855319D01*
X36626Y-857961D01*
X38608Y-860298D01*
X40894Y-862228D01*
X43535Y-863904D01*
X46532Y-865073D01*
X49784Y-865784D01*
X53340Y-866038D01*
X56032Y-865886D01*
X58521Y-865479D01*
X60858Y-864768D01*
X65074Y-862634D01*
X66954Y-861364D01*
X70358Y-858164D01*
X73406Y-854354D01*
X75946Y-850036D01*
X78740Y-854760D01*
X82042Y-859180D01*
X85852Y-862939D01*
X90170Y-866038D01*
X92557Y-867156D01*
X95148Y-867968D01*
X97993Y-868426D01*
X101092Y-868578D01*
X104749Y-868375D01*
X108204Y-867714D01*
X111353Y-866597D01*
X114300Y-865022D01*
X117043Y-863041D01*
X119430Y-860653D01*
X121462Y-857859D01*
X123189Y-854608D01*
X124510Y-851052D01*
X125476Y-847140D01*
X126034Y-842924D01*
X126237Y-838352D01*
X126034Y-833475D01*
X125526Y-829005D01*
X124663Y-824992D01*
X123444Y-821334D01*
X121767Y-818235D01*
X119735Y-815492D01*
X117449Y-813155D01*
X114808Y-811174D01*
X111861Y-809752D01*
X108712Y-808685D01*
X105257Y-808075D01*
G37*
G36*
X551535Y-105664D02*
G01*
X544830Y-106019D01*
X538784Y-107187D01*
X533298Y-109118D01*
X528421Y-111760D01*
X524154Y-114960D01*
X520395Y-118821D01*
X517296Y-123240D01*
X514705Y-128270D01*
X511454Y-139903D01*
X510387Y-153416D01*
X528675Y-153416D01*
X529996Y-139395D01*
X534009Y-128778D01*
X537108Y-124866D01*
X541070Y-122123D01*
X545846Y-120446D01*
X551535Y-119887D01*
X555396Y-120142D01*
X558901Y-120853D01*
X562000Y-122021D01*
X564743Y-123698D01*
X567232Y-125933D01*
X569315Y-128676D01*
X571042Y-131775D01*
X572363Y-135382D01*
X573379Y-139344D01*
X574090Y-143713D01*
X574497Y-148386D01*
X574649Y-153416D01*
X574497Y-158546D01*
X574090Y-163271D01*
X573379Y-167538D01*
X572363Y-171450D01*
X571042Y-175056D01*
X569315Y-178206D01*
X567232Y-180898D01*
X564743Y-183134D01*
X562000Y-184912D01*
X558901Y-186182D01*
X555396Y-186944D01*
X551535Y-187198D01*
X547776Y-186944D01*
X544372Y-186182D01*
X541274Y-184912D01*
X538581Y-183134D01*
X536194Y-180898D01*
X534212Y-178206D01*
X532536Y-175056D01*
X531215Y-171450D01*
X530098Y-167538D01*
X529285Y-163271D01*
X528828Y-158546D01*
X528675Y-153416D01*
X510387Y-153416D01*
X510540Y-158750D01*
X510946Y-163779D01*
X511657Y-168503D01*
X512673Y-172974D01*
X514096Y-177241D01*
X515772Y-181203D01*
X517753Y-184861D01*
X520039Y-188214D01*
X522630Y-191211D01*
X525475Y-193802D01*
X528726Y-196037D01*
X532231Y-197866D01*
X511403Y-221996D01*
X534009Y-221996D01*
X550011Y-201422D01*
X556717Y-201218D01*
X561492Y-200507D01*
X565962Y-199440D01*
X570077Y-197866D01*
X573836Y-195935D01*
X577240Y-193649D01*
X580339Y-191109D01*
X583031Y-188214D01*
X585419Y-184861D01*
X587451Y-181203D01*
X589229Y-177241D01*
X590651Y-172974D01*
X591769Y-168402D01*
X592531Y-163626D01*
X593039Y-158648D01*
X593191Y-153416D01*
X592074Y-139903D01*
X588619Y-128270D01*
X586028Y-123240D01*
X582930Y-118821D01*
X579170Y-114960D01*
X574903Y-111760D01*
X570026Y-109118D01*
X564489Y-107187D01*
X558342Y-106070D01*
G37*
G36*
X453745Y-107187D02*
G01*
X453745Y-199898D01*
X471017Y-199898D01*
X470966Y-133350D01*
X470763Y-130302D01*
X470763Y-124714D01*
X477113Y-131318D01*
X486765Y-139446D01*
X495655Y-129285D01*
X468477Y-107187D01*
G37*
G36*
X428294Y-1431899D02*
G01*
X414782Y-1433068D01*
X403148Y-1436471D01*
X398119Y-1438960D01*
X393700Y-1442059D01*
X389839Y-1445818D01*
X386638Y-1450187D01*
X384098Y-1455064D01*
X382270Y-1460601D01*
X381152Y-1466748D01*
X380796Y-1473555D01*
X394766Y-1473555D01*
X395020Y-1469593D01*
X395782Y-1465986D01*
X397052Y-1462836D01*
X398830Y-1460093D01*
X401066Y-1457756D01*
X403758Y-1455724D01*
X406908Y-1454048D01*
X410514Y-1452727D01*
X414375Y-1451711D01*
X418693Y-1451000D01*
X423418Y-1450594D01*
X428548Y-1450441D01*
X433578Y-1450594D01*
X438251Y-1451000D01*
X442569Y-1451711D01*
X446582Y-1452727D01*
X450037Y-1454048D01*
X453135Y-1455724D01*
X455777Y-1457756D01*
X458012Y-1460093D01*
X459790Y-1462836D01*
X461060Y-1465935D01*
X461822Y-1469440D01*
X462076Y-1473301D01*
X461822Y-1477162D01*
X461060Y-1480667D01*
X459790Y-1483766D01*
X458012Y-1486509D01*
X455777Y-1488897D01*
X453135Y-1490878D01*
X450037Y-1492554D01*
X446582Y-1493875D01*
X442569Y-1494891D01*
X438251Y-1495602D01*
X433578Y-1496009D01*
X428548Y-1496161D01*
X414426Y-1494840D01*
X403656Y-1490827D01*
X399745Y-1487779D01*
X397002Y-1483868D01*
X395325Y-1479143D01*
X394766Y-1473555D01*
X380796Y-1473555D01*
X381152Y-1480261D01*
X382270Y-1486306D01*
X384098Y-1491792D01*
X386638Y-1496669D01*
X389890Y-1500936D01*
X393750Y-1504594D01*
X398272Y-1507693D01*
X403402Y-1510131D01*
X415035Y-1513586D01*
X428548Y-1514703D01*
X433781Y-1514551D01*
X438759Y-1514094D01*
X443534Y-1513281D01*
X448106Y-1512163D01*
X452272Y-1510893D01*
X456184Y-1509268D01*
X459790Y-1507337D01*
X463092Y-1505051D01*
X466090Y-1502460D01*
X468680Y-1499514D01*
X470916Y-1496263D01*
X472744Y-1492605D01*
X497128Y-1513687D01*
X497128Y-1491081D01*
X476300Y-1475079D01*
X476097Y-1468170D01*
X475386Y-1463395D01*
X474319Y-1459026D01*
X472744Y-1455013D01*
X470916Y-1451254D01*
X468680Y-1447850D01*
X466090Y-1444802D01*
X463092Y-1442059D01*
X459740Y-1439672D01*
X456082Y-1437640D01*
X452120Y-1435862D01*
X447852Y-1434439D01*
X443382Y-1433322D01*
X438658Y-1432560D01*
X433628Y-1432052D01*
G37*
G36*
X393242Y-1526387D02*
G01*
X390042Y-1530248D01*
X387146Y-1534261D01*
X384606Y-1538833D01*
X382574Y-1543913D01*
X381254Y-1549958D01*
X380898Y-1553311D01*
X380796Y-1556867D01*
X381000Y-1560931D01*
X381609Y-1564690D01*
X382625Y-1568145D01*
X384098Y-1571345D01*
X385775Y-1574342D01*
X387756Y-1576933D01*
X390093Y-1579168D01*
X392734Y-1580997D01*
X395630Y-1582470D01*
X398830Y-1583486D01*
X402234Y-1584096D01*
X405942Y-1584299D01*
X411327Y-1583944D01*
X416356Y-1582775D01*
X421132Y-1580692D01*
X425754Y-1577949D01*
X430580Y-1574596D01*
X440690Y-1566011D01*
X460044Y-1548485D01*
X460806Y-1548485D01*
X460806Y-1587093D01*
X475030Y-1587093D01*
X475030Y-1526641D01*
X462838Y-1526641D01*
X435508Y-1551635D01*
X429412Y-1556969D01*
X424281Y-1561033D01*
X419455Y-1563979D01*
X414883Y-1565910D01*
X410057Y-1566926D01*
X407466Y-1567027D01*
X404469Y-1566824D01*
X401929Y-1566214D01*
X399796Y-1565198D01*
X398068Y-1563725D01*
X396595Y-1562049D01*
X395579Y-1560118D01*
X394970Y-1557883D01*
X394766Y-1555343D01*
X394919Y-1552854D01*
X395376Y-1550416D01*
X396189Y-1548028D01*
X398576Y-1543253D01*
X401878Y-1538325D01*
X403910Y-1535785D01*
G37*
G36*
X1485138Y-505866D02*
G01*
X1480972Y-506069D01*
X1477111Y-506679D01*
X1473606Y-507746D01*
X1470406Y-509168D01*
X1467510Y-510844D01*
X1465021Y-512876D01*
X1462836Y-515162D01*
X1461008Y-517804D01*
X1459433Y-520700D01*
X1458315Y-523849D01*
X1457655Y-527202D01*
X1457452Y-530758D01*
X1457553Y-533603D01*
X1458468Y-538937D01*
X1460093Y-543814D01*
X1462379Y-548538D01*
X1465529Y-553262D01*
X1469339Y-558088D01*
X1478229Y-568299D01*
X1493520Y-585114D01*
X1493520Y-585876D01*
X1454912Y-585876D01*
X1454912Y-600100D01*
X1515364Y-600100D01*
X1515364Y-587908D01*
X1490268Y-560578D01*
X1484934Y-554380D01*
X1480921Y-549097D01*
X1477924Y-544372D01*
X1476756Y-542188D01*
X1475435Y-537514D01*
X1474978Y-532536D01*
X1475181Y-529539D01*
X1475740Y-526948D01*
X1476705Y-524713D01*
X1478026Y-522884D01*
X1479804Y-521563D01*
X1481785Y-520598D01*
X1483969Y-520039D01*
X1486408Y-519836D01*
X1489049Y-519988D01*
X1491538Y-520395D01*
X1493977Y-521106D01*
X1496314Y-522122D01*
X1501038Y-525119D01*
X1505966Y-528980D01*
X1515618Y-518312D01*
X1511655Y-514959D01*
X1507490Y-511962D01*
X1503019Y-509473D01*
X1497838Y-507644D01*
X1491843Y-506323D01*
X1488592Y-505968D01*
G37*
G36*
X1563116Y-507136D02*
G01*
X1557629Y-507339D01*
X1552651Y-507898D01*
X1548130Y-508863D01*
X1544066Y-510184D01*
X1540611Y-511911D01*
X1537614Y-513994D01*
X1535023Y-516483D01*
X1532890Y-519328D01*
X1531315Y-522478D01*
X1530197Y-526034D01*
X1529537Y-530098D01*
X1529358Y-535076D01*
X1546860Y-535076D01*
X1547368Y-530504D01*
X1548028Y-528574D01*
X1549908Y-525526D01*
X1551178Y-524256D01*
X1552702Y-523240D01*
X1554480Y-522376D01*
X1558594Y-521411D01*
X1563878Y-521106D01*
X1571752Y-521106D01*
X1571752Y-549808D01*
X1560931Y-549706D01*
X1556258Y-548792D01*
X1554226Y-548030D01*
X1552549Y-547065D01*
X1549908Y-544525D01*
X1548028Y-541324D01*
X1547368Y-539445D01*
X1546961Y-537362D01*
X1546860Y-535076D01*
X1529358Y-535076D01*
X1529842Y-540715D01*
X1531366Y-545998D01*
X1532585Y-548335D01*
X1534007Y-550468D01*
X1535633Y-552399D01*
X1539290Y-555599D01*
X1543202Y-558139D01*
X1545336Y-559206D01*
X1520444Y-600100D01*
X1540256Y-600100D01*
X1560322Y-563270D01*
X1571752Y-563270D01*
X1571752Y-600100D01*
X1589024Y-600100D01*
X1589024Y-507136D01*
G37*
G36*
X870407Y-1649171D02*
G01*
X864057Y-1649526D01*
X860044Y-1650187D01*
X860044Y-1663649D01*
X862634Y-1662988D01*
X868222Y-1662226D01*
X875080Y-1662277D01*
X878586Y-1662734D01*
X881684Y-1663547D01*
X884428Y-1664665D01*
X886764Y-1665935D01*
X888898Y-1667510D01*
X890828Y-1669338D01*
X892556Y-1671523D01*
X893978Y-1673758D01*
X895146Y-1676196D01*
X896112Y-1678838D01*
X897585Y-1684629D01*
X898448Y-1690979D01*
X898652Y-1694383D01*
X897890Y-1694383D01*
X895908Y-1691436D01*
X893571Y-1688795D01*
X890778Y-1686661D01*
X887476Y-1684985D01*
X883412Y-1683816D01*
X878840Y-1683461D01*
X875182Y-1683664D01*
X871728Y-1684324D01*
X868578Y-1685442D01*
X865632Y-1687017D01*
X862990Y-1688846D01*
X860704Y-1691132D01*
X858672Y-1693824D01*
X856996Y-1696923D01*
X855675Y-1700275D01*
X854710Y-1703933D01*
X854151Y-1707997D01*
X853961Y-1712671D01*
X870966Y-1712671D01*
X871169Y-1709064D01*
X871728Y-1705864D01*
X872693Y-1703070D01*
X874014Y-1700733D01*
X875741Y-1698802D01*
X877874Y-1697482D01*
X880465Y-1696669D01*
X883412Y-1696415D01*
X885494Y-1696516D01*
X889203Y-1697532D01*
X892251Y-1699514D01*
X894638Y-1702206D01*
X896366Y-1705457D01*
X897280Y-1709013D01*
X897331Y-1712671D01*
X896975Y-1716227D01*
X896162Y-1719732D01*
X894892Y-1723034D01*
X893165Y-1725930D01*
X890981Y-1728216D01*
X889762Y-1729181D01*
X886866Y-1730502D01*
X883666Y-1730959D01*
X880922Y-1730654D01*
X878484Y-1729790D01*
X876350Y-1728368D01*
X874521Y-1726387D01*
X872998Y-1723898D01*
X871880Y-1720799D01*
X871219Y-1717039D01*
X870966Y-1712671D01*
X853961Y-1712671D01*
X854202Y-1717192D01*
X854862Y-1721612D01*
X855980Y-1725675D01*
X857503Y-1729435D01*
X859485Y-1732889D01*
X861821Y-1735886D01*
X864565Y-1738477D01*
X867664Y-1740611D01*
X871118Y-1742236D01*
X874826Y-1743456D01*
X878840Y-1744167D01*
X883158Y-1744421D01*
X886510Y-1744268D01*
X889711Y-1743760D01*
X892759Y-1742998D01*
X895603Y-1741881D01*
X898398Y-1740458D01*
X900988Y-1738680D01*
X903376Y-1736648D01*
X905510Y-1734261D01*
X907542Y-1731568D01*
X909370Y-1728520D01*
X910996Y-1725218D01*
X912368Y-1721561D01*
X913384Y-1717548D01*
X914095Y-1713230D01*
X914501Y-1708556D01*
X914603Y-1699463D01*
X914095Y-1691589D01*
X913028Y-1683867D01*
X911098Y-1676501D01*
X908405Y-1669592D01*
X906678Y-1666341D01*
X904595Y-1663344D01*
X899668Y-1658061D01*
X896772Y-1655825D01*
X893571Y-1653844D01*
X890016Y-1652219D01*
X886002Y-1650847D01*
X881634Y-1649933D01*
X876858Y-1649323D01*
G37*
G36*
X962660Y-1650187D02*
G01*
X957173Y-1650339D01*
X952195Y-1650949D01*
X947674Y-1651863D01*
X943610Y-1653235D01*
X940155Y-1654911D01*
X937158Y-1657045D01*
X934567Y-1659483D01*
X932434Y-1662379D01*
X930910Y-1665528D01*
X929792Y-1669084D01*
X929132Y-1673148D01*
X928902Y-1678127D01*
X946403Y-1678127D01*
X946505Y-1675688D01*
X947419Y-1671624D01*
X948182Y-1669999D01*
X950620Y-1667306D01*
X953769Y-1665427D01*
X958087Y-1664462D01*
X963421Y-1664157D01*
X971042Y-1664157D01*
X971042Y-1692859D01*
X960475Y-1692706D01*
X958037Y-1692402D01*
X955802Y-1691843D01*
X953769Y-1691081D01*
X952093Y-1690116D01*
X949299Y-1687677D01*
X948182Y-1686255D01*
X946861Y-1682546D01*
X946505Y-1680413D01*
X946403Y-1678127D01*
X928902Y-1678127D01*
X929386Y-1683766D01*
X930910Y-1689049D01*
X933500Y-1693468D01*
X936752Y-1697177D01*
X940714Y-1699971D01*
X944880Y-1702257D01*
X919987Y-1743151D01*
X939800Y-1743151D01*
X959866Y-1706321D01*
X971042Y-1706321D01*
X971042Y-1743151D01*
X988568Y-1743151D01*
X988568Y-1650187D01*
G37*
G36*
X825296Y-1036421D02*
G01*
X825296Y-1053693D01*
X867968Y-1053693D01*
X867867Y-1064361D01*
X866952Y-1069187D01*
X866190Y-1071219D01*
X865225Y-1072896D01*
X864108Y-1074318D01*
X861364Y-1076553D01*
X859637Y-1077315D01*
X855573Y-1078230D01*
X850798Y-1078230D01*
X846734Y-1077315D01*
X845108Y-1076553D01*
X843686Y-1075537D01*
X842467Y-1074267D01*
X841400Y-1072743D01*
X840536Y-1070965D01*
X839571Y-1066647D01*
X839266Y-1061313D01*
X839266Y-1053693D01*
X825296Y-1053693D01*
X825500Y-1067663D01*
X826058Y-1072692D01*
X827024Y-1077163D01*
X828344Y-1081125D01*
X830071Y-1084681D01*
X832154Y-1087729D01*
X834644Y-1090269D01*
X837488Y-1092301D01*
X840638Y-1093978D01*
X844245Y-1095146D01*
X848258Y-1095857D01*
X852728Y-1096111D01*
X855929Y-1095959D01*
X858875Y-1095552D01*
X861618Y-1094841D01*
X866495Y-1092708D01*
X868629Y-1091336D01*
X870559Y-1089761D01*
X873760Y-1086154D01*
X876300Y-1082243D01*
X877366Y-1080109D01*
X918260Y-1105001D01*
X918260Y-1085189D01*
X881430Y-1065123D01*
X881430Y-1053693D01*
X918260Y-1053693D01*
X918260Y-1036421D01*
G37*
G36*
X825296Y-1109573D02*
G01*
X825296Y-1170787D01*
X836472Y-1170787D01*
X918260Y-1137767D01*
X918260Y-1119479D01*
X839520Y-1152499D01*
X839520Y-1109573D01*
G37*
G36*
X882091Y-735787D02*
G01*
X882091Y-753313D01*
X924763Y-753313D01*
X924661Y-763981D01*
X924306Y-766470D01*
X923747Y-768654D01*
X922019Y-772363D01*
X920902Y-773887D01*
X919581Y-775157D01*
X918159Y-776173D01*
X916432Y-776935D01*
X912368Y-777849D01*
X907592Y-777849D01*
X903528Y-776935D01*
X901903Y-776173D01*
X900480Y-775157D01*
X899312Y-773887D01*
X898347Y-772363D01*
X896924Y-768553D01*
X896416Y-766267D01*
X896061Y-760933D01*
X896061Y-753313D01*
X882091Y-753313D01*
X882294Y-767283D01*
X882853Y-772312D01*
X883818Y-776782D01*
X885139Y-780745D01*
X886866Y-784301D01*
X888949Y-787349D01*
X891438Y-789889D01*
X894283Y-791921D01*
X897534Y-793597D01*
X901141Y-794766D01*
X905154Y-795477D01*
X909523Y-795731D01*
X912723Y-795578D01*
X915669Y-795172D01*
X918413Y-794461D01*
X923290Y-792327D01*
X927353Y-789381D01*
X930554Y-785774D01*
X933094Y-781710D01*
X934161Y-779475D01*
X975055Y-804621D01*
X975055Y-784809D01*
X938225Y-764743D01*
X938225Y-753313D01*
X975055Y-753313D01*
X975055Y-735787D01*
G37*
G36*
X951433Y-809447D02*
G01*
X948385Y-809599D01*
X945540Y-810006D01*
X942898Y-810717D01*
X938174Y-812952D01*
X934110Y-816000D01*
X930656Y-819912D01*
X927760Y-824230D01*
X926541Y-826465D01*
X923798Y-822655D01*
X920699Y-819353D01*
X917143Y-816356D01*
X913079Y-814019D01*
X908456Y-812698D01*
X905865Y-812342D01*
X903173Y-812241D01*
X899668Y-812444D01*
X896416Y-813155D01*
X893571Y-814222D01*
X890981Y-815797D01*
X888593Y-817880D01*
X886510Y-820267D01*
X884783Y-822960D01*
X883361Y-825957D01*
X882345Y-829208D01*
X881634Y-832612D01*
X881085Y-839673D01*
X893267Y-839673D01*
X893470Y-837387D01*
X894029Y-835304D01*
X894994Y-833424D01*
X896315Y-831799D01*
X897839Y-830376D01*
X899668Y-829310D01*
X901801Y-828700D01*
X904189Y-828497D01*
X906018Y-828598D01*
X909319Y-829513D01*
X912114Y-831087D01*
X914400Y-833119D01*
X918544Y-838911D01*
X933399Y-838911D01*
X935532Y-835101D01*
X937971Y-831799D01*
X940612Y-829310D01*
X943559Y-827481D01*
X946861Y-826160D01*
X948690Y-825804D01*
X950671Y-825703D01*
X953465Y-825906D01*
X955954Y-826617D01*
X958138Y-827684D01*
X960069Y-829259D01*
X961745Y-831240D01*
X962914Y-833628D01*
X963625Y-836472D01*
X963879Y-839673D01*
X963777Y-842010D01*
X962863Y-846074D01*
X961237Y-849223D01*
X960170Y-850493D01*
X957529Y-852373D01*
X954278Y-853694D01*
X952500Y-854049D01*
X948791Y-854049D01*
X945387Y-853033D01*
X942340Y-851052D01*
X939647Y-848512D01*
X937260Y-845464D01*
X935075Y-842162D01*
X933399Y-838911D01*
X918544Y-838911D01*
X919175Y-839927D01*
X917498Y-842873D01*
X915619Y-845515D01*
X913384Y-847801D01*
X910793Y-849579D01*
X907846Y-850747D01*
X904189Y-851103D01*
X901801Y-850900D01*
X899668Y-850290D01*
X897839Y-849274D01*
X894994Y-846175D01*
X894029Y-844245D01*
X893470Y-842111D01*
X893267Y-839673D01*
X881085Y-839673D01*
X881227Y-843787D01*
X881634Y-847445D01*
X882345Y-850900D01*
X883361Y-854151D01*
X884783Y-857046D01*
X886510Y-859688D01*
X888593Y-862025D01*
X890981Y-864057D01*
X893571Y-865632D01*
X896416Y-866749D01*
X899668Y-867410D01*
X903173Y-867613D01*
X905865Y-867511D01*
X910844Y-866495D01*
X913079Y-865581D01*
X917092Y-862990D01*
X920445Y-859739D01*
X923340Y-855980D01*
X926033Y-851865D01*
X928827Y-856386D01*
X932129Y-860755D01*
X935736Y-864616D01*
X937768Y-866241D01*
X940003Y-867613D01*
X942492Y-868730D01*
X945134Y-869543D01*
X947928Y-870000D01*
X950925Y-870153D01*
X954633Y-869950D01*
X958087Y-869289D01*
X961339Y-868171D01*
X964387Y-866597D01*
X967028Y-864616D01*
X969416Y-862228D01*
X971499Y-859434D01*
X973277Y-856183D01*
X974598Y-852678D01*
X975563Y-848817D01*
X976121Y-844550D01*
X976325Y-839927D01*
X976121Y-835152D01*
X975563Y-830783D01*
X974598Y-826769D01*
X973277Y-823163D01*
X971600Y-819962D01*
X969568Y-817219D01*
X967282Y-814882D01*
X964641Y-813003D01*
X961694Y-811428D01*
X958545Y-810361D01*
X955090Y-809650D01*
G37*
G36*
X418693Y-1307084D02*
G01*
X418693Y-1367282D01*
X418947Y-1372006D01*
X419709Y-1376426D01*
X420979Y-1380642D01*
X422757Y-1384554D01*
X424942Y-1388262D01*
X427634Y-1391564D01*
X430885Y-1394358D01*
X434695Y-1396746D01*
X438912Y-1398727D01*
X443636Y-1400149D01*
X448919Y-1401013D01*
X454761Y-1401318D01*
X469950Y-1398981D01*
X480923Y-1391920D01*
X487578Y-1380998D01*
X489813Y-1367028D01*
X489813Y-1307084D01*
X472541Y-1307084D01*
X472541Y-1365250D01*
X472236Y-1370584D01*
X471322Y-1375105D01*
X469849Y-1378813D01*
X467715Y-1381760D01*
X465175Y-1384096D01*
X462076Y-1385773D01*
X458419Y-1386738D01*
X454253Y-1387094D01*
X451256Y-1386941D01*
X448564Y-1386484D01*
X446176Y-1385671D01*
X444093Y-1384554D01*
X442214Y-1383233D01*
X440588Y-1381556D01*
X439267Y-1379575D01*
X437388Y-1374546D01*
X436727Y-1371650D01*
X436219Y-1365250D01*
X436219Y-1307084D01*
G37*
G36*
X359003Y-1307084D02*
G01*
X359003Y-1400048D01*
X376275Y-1400048D01*
X376275Y-1336294D01*
X375767Y-1324610D01*
X382371Y-1331214D01*
X392023Y-1339596D01*
X400913Y-1329436D01*
X373735Y-1307084D01*
G37*
G36*
X753618Y-56845D02*
G01*
X748436Y-57048D01*
X743458Y-57556D01*
X738784Y-58419D01*
X734314Y-59639D01*
X730148Y-61214D01*
X726236Y-63093D01*
X722630Y-65278D01*
X719328Y-67767D01*
X716330Y-70612D01*
X713689Y-73710D01*
X711352Y-77063D01*
X709422Y-80721D01*
X707847Y-84785D01*
X706729Y-89103D01*
X706069Y-93675D01*
X705866Y-98501D01*
X706221Y-105206D01*
X707390Y-111963D01*
X709422Y-118465D01*
X711962Y-124155D01*
X725678Y-118313D01*
X721614Y-108915D01*
X720293Y-103784D01*
X719836Y-98501D01*
X719988Y-95808D01*
X720496Y-93268D01*
X721258Y-90830D01*
X723646Y-86512D01*
X725170Y-84632D01*
X726948Y-82854D01*
X728980Y-81229D01*
X733907Y-78536D01*
X739648Y-76403D01*
X746302Y-75285D01*
X753618Y-74879D01*
X758748Y-75082D01*
X763473Y-75590D01*
X767740Y-76454D01*
X771652Y-77673D01*
X775258Y-79146D01*
X778357Y-80924D01*
X781100Y-83058D01*
X783336Y-85547D01*
X785012Y-88392D01*
X786180Y-91541D01*
X786892Y-94996D01*
X787146Y-98755D01*
X786892Y-104292D01*
X786130Y-109677D01*
X784656Y-115112D01*
X782828Y-120599D01*
X796798Y-120599D01*
X798931Y-115214D01*
X800354Y-109677D01*
X801116Y-103581D01*
X801370Y-96977D01*
X801014Y-90424D01*
X799846Y-84480D01*
X797915Y-79146D01*
X795274Y-74371D01*
X792073Y-70205D01*
X788212Y-66649D01*
X783793Y-63601D01*
X778764Y-61163D01*
X767130Y-57962D01*
G37*
G36*
X718312Y-132791D02*
G01*
X714959Y-136702D01*
X711962Y-140665D01*
X709472Y-145237D01*
X707644Y-150317D01*
X706323Y-156362D01*
X705967Y-159715D01*
X705866Y-163271D01*
X706069Y-167335D01*
X706678Y-171094D01*
X707745Y-174548D01*
X709168Y-177749D01*
X710844Y-180746D01*
X712876Y-183337D01*
X715162Y-185572D01*
X717804Y-187401D01*
X720699Y-188874D01*
X723849Y-189890D01*
X727202Y-190500D01*
X730758Y-190703D01*
X736346Y-190347D01*
X741426Y-189179D01*
X746201Y-187096D01*
X750824Y-184353D01*
X755650Y-181000D01*
X760476Y-176987D01*
X785114Y-154889D01*
X785876Y-154889D01*
X785876Y-193497D01*
X800100Y-193497D01*
X800100Y-133045D01*
X787908Y-133045D01*
X760577Y-158038D01*
X754380Y-163372D01*
X749096Y-167436D01*
X744372Y-170383D01*
X739851Y-172313D01*
X735025Y-173329D01*
X732536Y-173431D01*
X729538Y-173228D01*
X726948Y-172618D01*
X724712Y-171602D01*
X722884Y-170129D01*
X721563Y-168452D01*
X720598Y-166522D01*
X720039Y-164287D01*
X719836Y-161747D01*
X719988Y-159258D01*
X720394Y-156819D01*
X721106Y-154432D01*
X722122Y-152095D01*
X725119Y-147218D01*
X728980Y-142189D01*
G37*
G36*
X1176426Y-355955D02*
G01*
X1169720Y-356362D01*
X1162964Y-357479D01*
X1159611Y-358343D01*
X1153668Y-360629D01*
X1151026Y-362102D01*
X1156868Y-375513D01*
X1163828Y-372618D01*
X1168704Y-370941D01*
X1171194Y-370382D01*
X1176426Y-369976D01*
X1179118Y-370078D01*
X1181658Y-370535D01*
X1184097Y-371246D01*
X1188516Y-373532D01*
X1190498Y-375107D01*
X1192326Y-376936D01*
X1195374Y-381406D01*
X1196594Y-383895D01*
X1197660Y-386689D01*
X1199184Y-392938D01*
X1199946Y-399897D01*
X1199896Y-408787D01*
X1199388Y-413461D01*
X1198626Y-417779D01*
X1197508Y-421792D01*
X1196035Y-425246D01*
X1194257Y-428294D01*
X1192123Y-430936D01*
X1189634Y-433171D01*
X1186789Y-434949D01*
X1183589Y-436270D01*
X1180033Y-436981D01*
X1176172Y-437286D01*
X1170635Y-436930D01*
X1165250Y-435965D01*
X1159814Y-434543D01*
X1154328Y-432663D01*
X1154328Y-446887D01*
X1159764Y-448868D01*
X1165504Y-450189D01*
X1171448Y-450951D01*
X1178204Y-451205D01*
X1184656Y-450850D01*
X1190498Y-449783D01*
X1195832Y-447954D01*
X1200556Y-445363D01*
X1204722Y-442163D01*
X1208278Y-438302D01*
X1211326Y-433781D01*
X1213764Y-428599D01*
X1216964Y-417017D01*
X1218082Y-403504D01*
X1217879Y-398373D01*
X1217371Y-393496D01*
X1216507Y-388874D01*
X1215288Y-384454D01*
X1213815Y-380136D01*
X1212037Y-376174D01*
X1209903Y-372516D01*
X1207414Y-369163D01*
X1204569Y-366166D01*
X1201420Y-363524D01*
X1197965Y-361238D01*
X1194206Y-359257D01*
X1190142Y-357835D01*
X1185824Y-356819D01*
X1181252Y-356209D01*
G37*
G36*
X1113180Y-355955D02*
G01*
X1106678Y-356362D01*
X1101039Y-357428D01*
X1096162Y-359257D01*
X1092098Y-361797D01*
X1088847Y-365150D01*
X1086561Y-369011D01*
X1085189Y-373380D01*
X1084732Y-378307D01*
X1084884Y-381406D01*
X1085342Y-384251D01*
X1086154Y-386842D01*
X1087272Y-389229D01*
X1088644Y-391515D01*
X1090168Y-393547D01*
X1091946Y-395376D01*
X1096060Y-398272D01*
X1100886Y-400456D01*
X1103528Y-401218D01*
X1103528Y-401421D01*
X1098600Y-402336D01*
X1094384Y-403809D01*
X1090726Y-405790D01*
X1087780Y-408279D01*
X1085342Y-411327D01*
X1083564Y-414832D01*
X1082548Y-418846D01*
X1082192Y-423265D01*
X1082395Y-427126D01*
X1083106Y-430834D01*
X1084326Y-434390D01*
X1086002Y-437794D01*
X1088034Y-440791D01*
X1090574Y-443433D01*
X1093622Y-445719D01*
X1097178Y-447649D01*
X1101344Y-449224D01*
X1106119Y-450342D01*
X1111402Y-451002D01*
X1120851Y-451154D01*
X1127556Y-450494D01*
X1133602Y-449326D01*
X1139291Y-447446D01*
X1142136Y-446176D01*
X1142136Y-431647D01*
X1136396Y-434340D01*
X1130452Y-436270D01*
X1124508Y-437591D01*
X1119022Y-437997D01*
X1114298Y-437743D01*
X1110284Y-436930D01*
X1107033Y-435609D01*
X1104544Y-433679D01*
X1102766Y-431495D01*
X1101496Y-428853D01*
X1100734Y-425907D01*
X1100480Y-422554D01*
X1100582Y-420217D01*
X1100988Y-418134D01*
X1101598Y-416306D01*
X1102512Y-414629D01*
X1103782Y-413359D01*
X1105357Y-412191D01*
X1107186Y-411175D01*
X1111859Y-409651D01*
X1118057Y-408889D01*
X1128674Y-408787D01*
X1128674Y-395579D01*
X1118311Y-395478D01*
X1115212Y-395173D01*
X1112469Y-394614D01*
X1110132Y-393852D01*
X1108100Y-392836D01*
X1106373Y-391668D01*
X1104900Y-390296D01*
X1103782Y-388721D01*
X1102969Y-387045D01*
X1102410Y-385165D01*
X1102004Y-381152D01*
X1102207Y-378510D01*
X1102817Y-376174D01*
X1103833Y-374192D01*
X1105306Y-372465D01*
X1107135Y-371144D01*
X1109268Y-370230D01*
X1111808Y-369620D01*
X1116787Y-369519D01*
X1120749Y-370027D01*
X1124305Y-370992D01*
X1129182Y-372973D01*
X1134262Y-376529D01*
X1141882Y-365099D01*
X1138377Y-362712D01*
X1134516Y-360578D01*
X1129944Y-358546D01*
X1124864Y-356971D01*
X1119378Y-356209D01*
G37*
G36*
X1176477Y-680923D02*
G01*
X1169771Y-681329D01*
X1163015Y-682447D01*
X1156512Y-684479D01*
X1150823Y-687019D01*
X1156665Y-700735D01*
X1161338Y-698601D01*
X1166317Y-696671D01*
X1171244Y-695350D01*
X1173835Y-694994D01*
X1179169Y-695045D01*
X1181709Y-695452D01*
X1184148Y-696163D01*
X1186383Y-697179D01*
X1188466Y-698550D01*
X1192276Y-702005D01*
X1194003Y-704037D01*
X1195425Y-706323D01*
X1197711Y-711657D01*
X1199235Y-717854D01*
X1199997Y-724865D01*
X1199946Y-733806D01*
X1199438Y-738530D01*
X1198676Y-742848D01*
X1197559Y-746709D01*
X1195984Y-750214D01*
X1194104Y-753262D01*
X1191920Y-755904D01*
X1189431Y-758139D01*
X1186586Y-759917D01*
X1183436Y-761187D01*
X1179982Y-761949D01*
X1176223Y-762203D01*
X1170686Y-761898D01*
X1165301Y-760933D01*
X1159865Y-759460D01*
X1154379Y-757631D01*
X1154379Y-771855D01*
X1159764Y-773836D01*
X1165301Y-775157D01*
X1171397Y-775919D01*
X1178001Y-776173D01*
X1184554Y-775817D01*
X1190498Y-774700D01*
X1195832Y-772871D01*
X1200607Y-770331D01*
X1204772Y-767130D01*
X1208328Y-763270D01*
X1211376Y-758850D01*
X1213815Y-753821D01*
X1217015Y-742086D01*
X1218133Y-728675D01*
X1217930Y-723493D01*
X1217422Y-718515D01*
X1216558Y-713841D01*
X1215339Y-709371D01*
X1213764Y-705205D01*
X1211884Y-701294D01*
X1209700Y-697687D01*
X1207211Y-694385D01*
X1204468Y-691286D01*
X1201420Y-688594D01*
X1198016Y-686358D01*
X1194257Y-684479D01*
X1190193Y-682955D01*
X1185875Y-681837D01*
X1181303Y-681177D01*
G37*
G36*
X1089609Y-681939D02*
G01*
X1089609Y-700735D01*
X1106627Y-700735D01*
X1110792Y-709625D01*
X1129233Y-741629D01*
X1106627Y-741629D01*
X1106525Y-712368D01*
X1106119Y-700735D01*
X1089609Y-700735D01*
X1089609Y-741629D01*
X1078687Y-741629D01*
X1078687Y-755091D01*
X1089609Y-755091D01*
X1089609Y-774903D01*
X1106627Y-774903D01*
X1106627Y-755091D01*
X1144727Y-755091D01*
X1144727Y-742899D01*
X1106119Y-681939D01*
G37*
G36*
X1176426Y-1005941D02*
G01*
X1169720Y-1006297D01*
X1162964Y-1007465D01*
X1156512Y-1009497D01*
X1153668Y-1010666D01*
X1151026Y-1012037D01*
X1156868Y-1025753D01*
X1161491Y-1023569D01*
X1168704Y-1020876D01*
X1173784Y-1020013D01*
X1179118Y-1020064D01*
X1181658Y-1020470D01*
X1184097Y-1021181D01*
X1186332Y-1022197D01*
X1188516Y-1023569D01*
X1190498Y-1025144D01*
X1192326Y-1026972D01*
X1193952Y-1029055D01*
X1195374Y-1031341D01*
X1197660Y-1036675D01*
X1199184Y-1042873D01*
X1199946Y-1049832D01*
X1199896Y-1058824D01*
X1199388Y-1063498D01*
X1198626Y-1067816D01*
X1197508Y-1071727D01*
X1196035Y-1075182D01*
X1194257Y-1078280D01*
X1192123Y-1080922D01*
X1189634Y-1083157D01*
X1186789Y-1084935D01*
X1183589Y-1086205D01*
X1180033Y-1086967D01*
X1176172Y-1087221D01*
X1170635Y-1086916D01*
X1165250Y-1085951D01*
X1159814Y-1084478D01*
X1154328Y-1082649D01*
X1154328Y-1096873D01*
X1159764Y-1098804D01*
X1165504Y-1100175D01*
X1171448Y-1100937D01*
X1178204Y-1101191D01*
X1184656Y-1100836D01*
X1190498Y-1099718D01*
X1195832Y-1097889D01*
X1200556Y-1095349D01*
X1204722Y-1092098D01*
X1208278Y-1088288D01*
X1211326Y-1083868D01*
X1213764Y-1078839D01*
X1216964Y-1067054D01*
X1218082Y-1053693D01*
X1217879Y-1048461D01*
X1217371Y-1043533D01*
X1216507Y-1038809D01*
X1215288Y-1034389D01*
X1213815Y-1030224D01*
X1212037Y-1026312D01*
X1209903Y-1022705D01*
X1207414Y-1019403D01*
X1204569Y-1016304D01*
X1201420Y-1013612D01*
X1197965Y-1011326D01*
X1194206Y-1009497D01*
X1190142Y-1007922D01*
X1185824Y-1006805D01*
X1181252Y-1006144D01*
G37*
G36*
X1088542Y-1007211D02*
G01*
X1088542Y-1021435D01*
X1120546Y-1021435D01*
X1122070Y-1043025D01*
X1117498Y-1042009D01*
X1110386Y-1041755D01*
X1106424Y-1041908D01*
X1102766Y-1042517D01*
X1099312Y-1043482D01*
X1096162Y-1044803D01*
X1093165Y-1046632D01*
X1090472Y-1048816D01*
X1088186Y-1051306D01*
X1086256Y-1054201D01*
X1084681Y-1057503D01*
X1083564Y-1061161D01*
X1082903Y-1065123D01*
X1082700Y-1069441D01*
X1082903Y-1074216D01*
X1083614Y-1078636D01*
X1084834Y-1082700D01*
X1086510Y-1086459D01*
X1088745Y-1089812D01*
X1091438Y-1092708D01*
X1094587Y-1095248D01*
X1098194Y-1097381D01*
X1102106Y-1099058D01*
X1106576Y-1100226D01*
X1111504Y-1100937D01*
X1116990Y-1101191D01*
X1123645Y-1100836D01*
X1129944Y-1099921D01*
X1135634Y-1098397D01*
X1140612Y-1096365D01*
X1140612Y-1081633D01*
X1135583Y-1083970D01*
X1129690Y-1085951D01*
X1123492Y-1087272D01*
X1117752Y-1087729D01*
X1115060Y-1087628D01*
X1110335Y-1086713D01*
X1106424Y-1084935D01*
X1104798Y-1083665D01*
X1103376Y-1082141D01*
X1101344Y-1078433D01*
X1100734Y-1076248D01*
X1100328Y-1073708D01*
X1100226Y-1070965D01*
X1100480Y-1067358D01*
X1101293Y-1064209D01*
X1102614Y-1061516D01*
X1104544Y-1059281D01*
X1107084Y-1057503D01*
X1110234Y-1056233D01*
X1113942Y-1055471D01*
X1119936Y-1055217D01*
X1123492Y-1055471D01*
X1131722Y-1056995D01*
X1138834Y-1053185D01*
X1135532Y-1007211D01*
G37*
G36*
X1176375Y-1330960D02*
G01*
X1169670Y-1331366D01*
X1162913Y-1332484D01*
X1159560Y-1333347D01*
X1153617Y-1335633D01*
X1150975Y-1337056D01*
X1156817Y-1350518D01*
X1163777Y-1347622D01*
X1168654Y-1345946D01*
X1171194Y-1345387D01*
X1176629Y-1344930D01*
X1179220Y-1345082D01*
X1181709Y-1345539D01*
X1184046Y-1346250D01*
X1186281Y-1347216D01*
X1188466Y-1348536D01*
X1190447Y-1350111D01*
X1192276Y-1351940D01*
X1195324Y-1356360D01*
X1197610Y-1361694D01*
X1199134Y-1367942D01*
X1199896Y-1374902D01*
X1199845Y-1383741D01*
X1199337Y-1388465D01*
X1198575Y-1392783D01*
X1197457Y-1396746D01*
X1195984Y-1400251D01*
X1194206Y-1403299D01*
X1192072Y-1405940D01*
X1189583Y-1408176D01*
X1186738Y-1409954D01*
X1183538Y-1411224D01*
X1179982Y-1411986D01*
X1176121Y-1412240D01*
X1170584Y-1411935D01*
X1165199Y-1410970D01*
X1159865Y-1409547D01*
X1154531Y-1407668D01*
X1154531Y-1421892D01*
X1159916Y-1423873D01*
X1165453Y-1425194D01*
X1171397Y-1425956D01*
X1178153Y-1426210D01*
X1184605Y-1425854D01*
X1190498Y-1424787D01*
X1195882Y-1422958D01*
X1200759Y-1420368D01*
X1204874Y-1417167D01*
X1208430Y-1413256D01*
X1211376Y-1408785D01*
X1213713Y-1403604D01*
X1216914Y-1392021D01*
X1218031Y-1378458D01*
X1217879Y-1373378D01*
X1217371Y-1368501D01*
X1216609Y-1363878D01*
X1215491Y-1359408D01*
X1213916Y-1355140D01*
X1212037Y-1351178D01*
X1209852Y-1347520D01*
X1207363Y-1344168D01*
X1204518Y-1341170D01*
X1201369Y-1338529D01*
X1197914Y-1336243D01*
X1194155Y-1334262D01*
X1190091Y-1332839D01*
X1185773Y-1331823D01*
X1181201Y-1331163D01*
G37*
G36*
X1098905Y-1330960D02*
G01*
X1093063Y-1331214D01*
X1087221Y-1331976D01*
X1087221Y-1345438D01*
X1092555Y-1344422D01*
X1098651Y-1344168D01*
X1102410Y-1344320D01*
X1105814Y-1344777D01*
X1108862Y-1345488D01*
X1111605Y-1346454D01*
X1116177Y-1349451D01*
X1118057Y-1351280D01*
X1119733Y-1353312D01*
X1122324Y-1358138D01*
X1124051Y-1363472D01*
X1125220Y-1369669D01*
X1125829Y-1376426D01*
X1125067Y-1376426D01*
X1123086Y-1373378D01*
X1120749Y-1370838D01*
X1117955Y-1368552D01*
X1114653Y-1366774D01*
X1110589Y-1365859D01*
X1106017Y-1365504D01*
X1102309Y-1365707D01*
X1098905Y-1366367D01*
X1095705Y-1367383D01*
X1092809Y-1368806D01*
X1090168Y-1370787D01*
X1087831Y-1373073D01*
X1085850Y-1375714D01*
X1084173Y-1378712D01*
X1082802Y-1382217D01*
X1081887Y-1385976D01*
X1081278Y-1390091D01*
X1081125Y-1394460D01*
X1098143Y-1394460D01*
X1098296Y-1391005D01*
X1098905Y-1387856D01*
X1099820Y-1385163D01*
X1101191Y-1382776D01*
X1102918Y-1380794D01*
X1105052Y-1379372D01*
X1107592Y-1378508D01*
X1110589Y-1378204D01*
X1112672Y-1378356D01*
X1114552Y-1378813D01*
X1116330Y-1379524D01*
X1119479Y-1381607D01*
X1120800Y-1382877D01*
X1122781Y-1385824D01*
X1124102Y-1389227D01*
X1124559Y-1392682D01*
X1124356Y-1396390D01*
X1123797Y-1399794D01*
X1122781Y-1403248D01*
X1121257Y-1406398D01*
X1119276Y-1409141D01*
X1116939Y-1411224D01*
X1115517Y-1412036D01*
X1112469Y-1412900D01*
X1110843Y-1413002D01*
X1108151Y-1412748D01*
X1105763Y-1411884D01*
X1103579Y-1410462D01*
X1101699Y-1408430D01*
X1100124Y-1405839D01*
X1099007Y-1402689D01*
X1098346Y-1398879D01*
X1098143Y-1394460D01*
X1081125Y-1394460D01*
X1081328Y-1399235D01*
X1082040Y-1403705D01*
X1083259Y-1407769D01*
X1084935Y-1411478D01*
X1086866Y-1414830D01*
X1089152Y-1417777D01*
X1091844Y-1420317D01*
X1094841Y-1422400D01*
X1098296Y-1424076D01*
X1102055Y-1425295D01*
X1106170Y-1426006D01*
X1110589Y-1426210D01*
X1113790Y-1426108D01*
X1116939Y-1425651D01*
X1119886Y-1424940D01*
X1122781Y-1423924D01*
X1125575Y-1422501D01*
X1128217Y-1420774D01*
X1130655Y-1418691D01*
X1132941Y-1416304D01*
X1134973Y-1413611D01*
X1136751Y-1410614D01*
X1138275Y-1407261D01*
X1139545Y-1403604D01*
X1140510Y-1399641D01*
X1141222Y-1395323D01*
X1141679Y-1390599D01*
X1141730Y-1381556D01*
X1141222Y-1373530D01*
X1140206Y-1365707D01*
X1138428Y-1358341D01*
X1137259Y-1354836D01*
X1135735Y-1351483D01*
X1133957Y-1348333D01*
X1131925Y-1345285D01*
X1129639Y-1342390D01*
X1126947Y-1339900D01*
X1123950Y-1337665D01*
X1120698Y-1335684D01*
X1117193Y-1334008D01*
X1113180Y-1332687D01*
X1108811Y-1331722D01*
X1104036Y-1331163D01*
G37*
D10*
X567621Y-558939D02*
G01*
X663508Y-558939D01*
X663508Y-691060D01*
X567621Y-691060D01*
X482379Y-558939D02*
G01*
X386491Y-558939D01*
X386491Y-691060D01*
X482379Y-691060D01*
X1267620Y-808939D02*
G01*
X1363507Y-808939D01*
X1363507Y-941059D01*
X1267620Y-941059D01*
X1182377Y-808939D02*
G01*
X1086490Y-808939D01*
X1086490Y-941059D01*
X1182377Y-941059D01*
X1267620Y-1133937D02*
G01*
X1363507Y-1133937D01*
X1363507Y-1266057D01*
X1267620Y-1266057D01*
X1182377Y-1133937D02*
G01*
X1086490Y-1133937D01*
X1086490Y-1266057D01*
X1182377Y-1266057D01*
X1267620Y-1458937D02*
G01*
X1363507Y-1458937D01*
X1363507Y-1591058D01*
X1267620Y-1591058D01*
X1182377Y-1458937D02*
G01*
X1086490Y-1458937D01*
X1086490Y-1591058D01*
X1182377Y-1591058D01*
X834638Y-556120D02*
G01*
X834638Y-415119D01*
X1015359Y-415119D02*
G01*
X1015359Y-556120D01*
X1000119Y-571360D02*
G01*
X849878Y-571360D01*
X834638Y-193880D02*
G01*
X834638Y-334881D01*
X1015359Y-334881D02*
G01*
X1015359Y-193880D01*
X1000119Y-178640D02*
G01*
X849878Y-178640D01*
X84640Y-1281117D02*
G01*
X84640Y-1140117D01*
X265361Y-1140117D02*
G01*
X265361Y-1281117D01*
X250121Y-1296357D02*
G01*
X99880Y-1296357D01*
X84640Y-918878D02*
G01*
X84640Y-1059878D01*
X265361Y-1059878D02*
G01*
X265361Y-918878D01*
X250121Y-903638D02*
G01*
X99880Y-903638D01*
X531119Y-890358D02*
G01*
X390118Y-890358D01*
X390118Y-709637D02*
G01*
X531119Y-709637D01*
X546359Y-724877D02*
G01*
X546359Y-875118D01*
X168879Y-890358D02*
G01*
X309879Y-890358D01*
X309879Y-709637D02*
G01*
X168879Y-709637D01*
X153639Y-724877D02*
G01*
X153639Y-875118D01*
X572620Y-527621D02*
G01*
X427377Y-527621D01*
X427377Y-424459D01*
X572620Y-222379D02*
G01*
X427377Y-222379D01*
X427377Y-325541D01*
X572620Y-420540D02*
G01*
X572620Y-329460D01*
X827620Y-1427375D02*
G01*
X827620Y-1572618D01*
X724458Y-1572618D01*
X522378Y-1427375D02*
G01*
X522378Y-1572618D01*
X625541Y-1572618D01*
X720539Y-1427375D02*
G01*
X629460Y-1427375D01*
X1267620Y-483938D02*
G01*
X1363507Y-483938D01*
X1363507Y-616059D01*
X1267620Y-616059D01*
X1182377Y-483938D02*
G01*
X1086490Y-483938D01*
X1086490Y-616059D01*
X1182377Y-616059D01*
X858939Y-1432377D02*
G01*
X858939Y-1336489D01*
X991059Y-1336489D01*
X991059Y-1432377D01*
X858939Y-1517619D02*
G01*
X858939Y-1613507D01*
X991059Y-1613507D01*
X991059Y-1517619D01*
X658939Y-1057376D02*
G01*
X658939Y-961489D01*
X791060Y-961489D01*
X791060Y-1057376D01*
X658939Y-1142619D02*
G01*
X658939Y-1238506D01*
X791060Y-1238506D01*
X791060Y-1142619D01*
X767621Y-733938D02*
G01*
X863508Y-733938D01*
X863508Y-866058D01*
X767621Y-866058D01*
X682378Y-733938D02*
G01*
X586491Y-733938D01*
X586491Y-866058D01*
X682378Y-866058D01*
X322379Y-1014877D02*
G01*
X322379Y-1185118D01*
X627621Y-1014877D02*
G01*
X627621Y-1185118D01*
X522640Y-1185118D02*
G01*
X427360Y-1185118D01*
D11*
X710021Y-514002D02*
G01*
X790023Y-514002D01*
X679035Y-403026D02*
G01*
X679035Y-483024D01*
X821001Y-403026D02*
G01*
X821001Y-483024D01*
X678454Y-345437D02*
G01*
X678454Y-265437D01*
X709437Y-234454D02*
G01*
X789434Y-234454D01*
X820414Y-345437D02*
G01*
X820414Y-265437D01*
X1235997Y-360022D02*
G01*
X1235997Y-440024D01*
X1346972Y-329036D02*
G01*
X1266974Y-329036D01*
X1346972Y-471002D02*
G01*
X1266974Y-471002D01*
X1404561Y-328455D02*
G01*
X1484561Y-328455D01*
X1515544Y-359437D02*
G01*
X1515544Y-439435D01*
X1404561Y-470415D02*
G01*
X1484561Y-470415D01*
X1235997Y-685022D02*
G01*
X1235997Y-765025D01*
X1346972Y-654037D02*
G01*
X1266974Y-654037D01*
X1346972Y-796002D02*
G01*
X1266974Y-796002D01*
X1404561Y-653455D02*
G01*
X1484561Y-653455D01*
X1515544Y-684438D02*
G01*
X1515544Y-764435D01*
X1404561Y-795416D02*
G01*
X1484561Y-795416D01*
X1235997Y-1010020D02*
G01*
X1235997Y-1090023D01*
X1346972Y-979035D02*
G01*
X1266974Y-979035D01*
X1346972Y-1121001D02*
G01*
X1266974Y-1121001D01*
X1404561Y-978453D02*
G01*
X1484561Y-978453D01*
X1515544Y-1009436D02*
G01*
X1515544Y-1089433D01*
X1404561Y-1120414D02*
G01*
X1484561Y-1120414D01*
X1235997Y-1335021D02*
G01*
X1235997Y-1415023D01*
X1346972Y-1304036D02*
G01*
X1266974Y-1304036D01*
X1346972Y-1446001D02*
G01*
X1266974Y-1446001D01*
X1404561Y-1303454D02*
G01*
X1484561Y-1303454D01*
X1515544Y-1334437D02*
G01*
X1515544Y-1414434D01*
X1404561Y-1445414D02*
G01*
X1484561Y-1445414D01*
D10*
G75*
G01*
X1015360Y-556120D02*
G02*
X1000120Y-571360I-15240J0D01*
G75*
G01*
X849879Y-571360D02*
G02*
X834639Y-556120I0J15240D01*
G75*
G01*
X1015360Y-193881D02*
G03*
X1000120Y-178641I-15240J0D01*
G75*
G01*
X849879Y-178641D02*
G03*
X834639Y-193881I0J-15240D01*
G75*
G01*
X265361Y-1281118D02*
G02*
X250121Y-1296358I-15240J0D01*
G75*
G01*
X99880Y-1296358D02*
G02*
X84640Y-1281118I0J15240D01*
G75*
G01*
X265361Y-918878D02*
G03*
X250121Y-903638I-15240J0D01*
G75*
G01*
X99880Y-903638D02*
G03*
X84640Y-918878I0J-15240D01*
G75*
G01*
X531119Y-709638D02*
G02*
X546359Y-724878I0J-15240D01*
G75*
G01*
X546359Y-875119D02*
G02*
X531119Y-890359I-15240J0D01*
G75*
G01*
X168880Y-709638D02*
G03*
X153640Y-724878I0J-15240D01*
G75*
G01*
X153640Y-875119D02*
G03*
X168880Y-890359I15240J0D01*
D11*
G75*
G01*
X709437Y-234450D02*
G03*
X678454Y-265433I0J-30983D01*
G75*
G01*
X820420Y-265433D02*
G03*
X789435Y-234450I-30983J0D01*
G75*
G01*
X679036Y-483019D02*
G03*
X710021Y-514002I30983J0D01*
G75*
G01*
X790019Y-514002D02*
G03*
X821002Y-483019I0J30983D01*
G75*
G01*
X1515549Y-359438D02*
G03*
X1484567Y-328455I-30982J0D01*
G75*
G01*
X1484567Y-470421D02*
G03*
X1515549Y-439435I0J30983D01*
G75*
G01*
X1266980Y-329037D02*
G03*
X1235997Y-360022I0J-30983D01*
G75*
G01*
X1235997Y-440019D02*
G03*
X1266980Y-471002I30983J0D01*
G75*
G01*
X1515549Y-684439D02*
G03*
X1484567Y-653456I-30982J0D01*
G75*
G01*
X1484567Y-795421D02*
G03*
X1515549Y-764436I0J30983D01*
G75*
G01*
X1266980Y-654037D02*
G03*
X1235997Y-685023I0J-30983D01*
G75*
G01*
X1235997Y-765020D02*
G03*
X1266980Y-796003I30983J0D01*
G75*
G01*
X1515549Y-1009437D02*
G03*
X1484567Y-978454I-30982J0D01*
G75*
G01*
X1484567Y-1120419D02*
G03*
X1515549Y-1089434I0J30983D01*
G75*
G01*
X1266980Y-979035D02*
G03*
X1235997Y-1010021I0J-30983D01*
G75*
G01*
X1235997Y-1090018D02*
G03*
X1266980Y-1121001I30983J0D01*
G75*
G01*
X1515549Y-1334437D02*
G03*
X1484567Y-1303454I-30982J0D01*
G75*
G01*
X1484567Y-1445420D02*
G03*
X1515549Y-1414435I0J30983D01*
G75*
G01*
X1266980Y-1304036D02*
G03*
X1235997Y-1335021I0J-30983D01*
G75*
G01*
X1235997Y-1415019D02*
G03*
X1266980Y-1446002I30983J0D01*
D12*
G75*
G01
X324917Y-985698D02*
G03X324917Y-985698I-15011J0D01*
M02*
