M48
METRIC,LZ,000.000
;FILE_FORMAT=3:3
;TYPE=PLATED
;Layer: PTH_Through_Via
;EasyEDA v6.5.38, 2023-11-24 15:02:17
;fd976b0eda274a6ca9a56c4ffa30f9f7,9a5be75d700b4a6385dc1106f27949ae,10
;Gerber Generator version 0.2
;Holesize 1 = 0.254 mm
T01C0.254
;Holesize 2 = 0.310 mm
T02C0.310
%
G05
G90
T01
X004750Y-002749
X007000Y-005749
T02
X014500Y-015250
X014500Y-008750
X014500Y-005500
X014500Y-012000
X009000Y-015500
X004500Y-017750
X016000Y-016000
X017000Y-006000
X015500Y-004000
X015500Y-007250
X015500Y-010250
X015500Y-013750
X008750Y-013500
X004749Y-011999
X003500Y-016000
X001750Y-014000
X002500Y-006750
X004750Y-011000
X006000Y-001750
X010000Y-007000
M30
